<?xml version="1.0" encoding="UTF-8"?>
<svg id="_图层_1" data-name="图层 1" xmlns="http://www.w3.org/2000/svg" viewBox="0 0 149.28 164.92">
  <g id="_fbfafeff" data-name="#fbfafeff">
    <path d="m31.42,5.43c2.34-3.52,6.24-5.96,10.68-5.11C60.44-.19,78.8.04,97.16.13c5.06-.38,11.47,1.04,13.91,6.03,3.22,5.54,2.71,12.13,3.42,18.26,7.48,1.23,15.9,1.92,21.14,8.19,7.79,7.51,6,19.85,6.52,29.56-.48,3.63.52,10.26-4.28,11.63-5.97-1.35-11.32-5.1-17.72-4.54-36.33-.42-72.68.08-109.02-.12.08,15.01-.5,30.03.15,45.03.55,4.47,1.43,10.68,6.49,12.24,12.5,1.74,25.27-.24,37.77,1.29,4.2.44,4.15,6.14,5.79,8.76-13.07,4.41-27.34,2.9-40.84,2.2-5.99-.16-11-3.76-15.02-7.85C-.03,124.39.42,115.09.06,107.17c-.02-18.35-.13-36.71.03-55.06-.18-8.53,2.24-18.21,10.05-22.9,5.16-3.62,11.55-3.76,17.56-4.41.61-6.4-.82-14.01,3.72-19.37m8.38,5.77c-.4,4.64-.62,9.29-.89,13.95h63.27c-.14-4.58-.29-9.17-.45-13.75-20.64-.41-41.29-.27-61.93-.2m-23.97,27.69c-5.66,4.62-3.95,12.73-4.69,19.03,39.75.54,79.51.08,119.27.23-.82-6.26.75-13.54-3.54-18.74-4.43-4.19-11.27-2.82-16.74-3.32-26.68.07-53.37-.03-80.05.03-4.62.75-10.59-1.01-14.25,2.77Z"/>
    <path d="m87.12,102.15c5.63-13.56,21.26-21.88,35.68-18.63,3.64,1.22,7.18,5.05,4.89,9.25-2.77,4.56-6.74,8.25-10.17,12.3,3.34,3.2,6.7,6.38,10.12,9.51,3.92-3.36,7.31-7.56,11.89-10.04,4.72-2.46,8.62,1.85,9.17,6.01,3.32,15.57-7.83,31.19-22.47,35.72-6.59,1.02-13.31.42-19.94.09-5.97,6-11.47,12.63-18.42,17.55-4.12,2.73-9.04-.63-12.04-3.47-3.87-3.93-9.5-8.75-8.36-14.94,3.67-8.3,12.53-12.78,17.36-20.25,1.11-7.64-1.79-15.99,2.29-23.1Z"/>
  </g>
</svg>