<?xml version="1.0" encoding="UTF-8"?>
<svg id="_图层_1" data-name="图层 1" xmlns="http://www.w3.org/2000/svg" viewBox="0 0 140.81 161.83">
  <defs>
    <style>
      .cls-1 {
        isolation: isolate;
        opacity: .95;
      }

      .cls-1, .cls-2, .cls-3 {
        fill: none;
      }

      .cls-2 {
        stroke: #000;
        stroke-width: 2px;
      }

      .cls-3 {
        stroke: #020202;
        stroke-width: 8px;
      }
    </style>
  </defs>
  <path class="cls-1" d="m68.71,75.8c3.79-1.33,7.13,2.1,7.74,5.51.12,4.45-5.63,8.27-9.43,5.41-4.13-2.53-3.15-9.87,1.69-10.92m1.63,2.37c-.98.65-1.97,1.29-2.96,1.92.75,1.81,1.59,3.62,2.46,5.39,1.07-.7,2.15-1.39,3.22-2.09,0-1.17,0-2.35.02-3.52-.91-.56-1.83-1.13-2.73-1.7Z"/>
  <path class="cls-1" d="m69.43,80.74c1.07-1.17,2.96.69,1.77,1.76-1.09,1.23-2.96-.67-1.77-1.76Z"/>
  <path class="cls-3" d="m53.58,23.87c3.48-7.95,9.79-14.38,17.07-18.97,6.13,4.9,12.61,9.88,15.74,17.38,4.15,7.13,3.85,15.68,4.41,23.63,13.13-9.45,31.72-11.09,45.65-2.51-1.51,9.6-3.77,19.86-10.99,26.93-4.02,4.77-9.55,7.84-15.11,10.45,9.68,4.58,18.23,11.99,22.44,22.02,1.95,5.2,2.33,10.83,3.12,16.29-6.73,3.26-14.12,5.27-21.66,4.89-8.61.71-16.45-3.81-23.54-8.13-.54,7.3.02,15.17-3.46,21.88-3.41,8.11-10.01,14.39-17.22,19.18-6.51-5.07-13.12-10.59-16.41-18.36-3.33-7.07-3.04-15.19-3.53-22.8-6.93,4.08-14.3,8.31-22.62,8.18-8.19,1.08-15.89-2.04-23.24-5.19.9-9.59,3.99-19.23,10.4-26.58,4.06-4.94,9.68-8.17,15.2-11.21-7.24-4.04-14.41-8.84-18.77-16.1-4.5-6.48-5.9-14.37-6.76-22.04,7.28-3.14,15.09-5.71,23.15-4.94,8.27-.11,15.77,3.91,22.65,8.05.4-7.4.02-15.22,3.46-22.03m11.09,30.72c-7.37,1.23-13.8,6.34-17.61,12.64-6.5,10.33-4.83,25.23,4.33,33.47,6.93,7.63,18.48,9.17,27.99,6.3,13.44-4.37,21.69-20.53,16.82-33.91-3.79-13.07-18.12-21.72-31.53-18.5Z"/>
  <path class="cls-2" d="m70.17,64.25c1.98,2.66,3.91,5.39,5.41,8.37,3.2-.11,6.42-.21,9.63-.11-.82,3.35-2.71,6.25-4.63,9.06,1.87,2.78,3.7,5.62,4.89,8.79-3.33.08-6.66.2-9.98-.12-1.38,3.11-3.14,6.03-4.92,8.92-2.02-2.69-3.72-5.61-5.26-8.59-3.13.12-6.26.25-9.38.26.08-3.64,1.81-6.78,4.45-9.13-2.38-2.5-4.07-5.57-4.45-9.07,3.14-.06,6.3-.08,9.44.04,1.48-2.87,3.09-5.68,4.82-8.4m-1.47,11.55c-4.85,1.05-5.82,8.39-1.69,10.92,3.8,2.86,9.55-.97,9.43-5.41-.61-3.41-3.95-6.84-7.74-5.51Z"/>
</svg>