<?xml version="1.0" encoding="UTF-8"?>
<svg id="_图层_1" data-name="图层 1" xmlns="http://www.w3.org/2000/svg" viewBox="0 0 159 164.75">
  <defs>
    <style>
      .cls-1 {
        fill: none;
        stroke: #000;
        stroke-linecap: round;
        stroke-linejoin: round;
        stroke-width: 7px;
      }
    </style>
  </defs>
  <g id="_4d444cff" data-name="#4d444cff">
    <path class="cls-1" d="m100.64,4.87c3.01-3.14,9.05-.48,8.79,3.85.08,6.55-.05,13.09.02,19.64,3.3-2.8,5.87-7.65,10.73-7.62,2.92-.32,5.2,1.77,7.09,3.7,6.84,7.04,14.01,13.78,20.73,20.94,8.07,8.56,7.5,22.97-.67,31.3-5.42-5.35-10.77-10.77-16.16-16.13-3.33,2.83-6.03,7.74-10.97,7.61-3.41.18-5.72-2.64-7.97-4.74-13.06,13-26.06,26.07-39.11,39.07-.07,6.95,1.04,15.12-4.48,20.47-11.81,12-23.79,23.87-35.72,35.78-2.75,2.95-7.74,3.49-10.72.57-5.67-5.51-11.25-11.12-16.78-16.77-2.97-3-2.36-7.99.62-10.75,11.08-11.17,22.27-22.23,33.35-33.41,2.64-2.62,5.53-5.38,9.31-6.15,4.43-.95,9-.51,13.51-.58,2.14-2.13,4.28-4.26,6.42-6.4-10.48-10.49-20.95-21.01-31.48-31.45-4.11-.23-8.99,1.11-12.39-1.88-4.41-3.95-8.37-8.37-12.65-12.46-2.5-2.56-5.82-5.28-5.47-9.27.7-4.86,5.35-7.57,8.35-11.02,2.93-2.63,5.47-6.78,9.86-6.78,2.93-.36,5.24,1.73,7.11,3.67,4.49,4.64,9.18,9.1,13.66,13.76,3.49,3.42,2.29,8.66,2.44,13.03,10.06,10.9,20.9,21.06,31.27,31.65,7.35-7.32,14.67-14.67,22.01-22.01-2.19-2.19-4.95-4.51-4.81-7.93-.18-4.99,4.81-7.62,7.65-10.98-6.87-.12-13.76.18-20.61-.11-4.04-.69-5.75-6.37-2.55-9.04,6.43-6.62,12.96-13.18,19.6-19.58Z"/>
    <path class="cls-1" d="m85.91,111.04c6.55-6.44,13-12.98,19.5-19.48,4.39.2,8.81,1.48,11.99,4.67,11.42,11.19,22.58,22.66,33.95,33.92,1.99,1.98,4.35,4.23,4.13,7.31.17,3.72-3.01,6.18-5.34,8.59-4.68,4.43-8.98,9.25-13.81,13.49-2.87,2.6-7.55,2.04-10.04-.82-11.19-11.03-22.21-22.25-33.35-33.35-4.32-3.54-7.22-8.61-7.04-14.33Z"/>
  </g>
</svg>