<?xml version="1.0" encoding="UTF-8"?>
<svg id="_图层_1" data-name=" 图层 1" xmlns="http://www.w3.org/2000/svg" viewBox="0 0 192 192">
  <defs>
    <style>
      .cls-1 {
        fill: none;
        stroke: #000;
        stroke-miterlimit: 10;
        stroke-width: 11px;
      }
    </style>
  </defs>
  <g id="_46464fff" data-name="#46464fff">
    <path class="cls-1" d="m117.69,16.48c3.13-3.26,9.36-.44,9.03,4.02.09,6.7-.05,13.38.02,20.08,3.4-2.86,6-7.85,11-7.82,3.34-.34,5.76,2.25,7.88,4.4,6.99,7.26,14.44,14.08,21.22,21.54,7.79,8.84,6.92,23.13-1.2,31.47-5.59-5.46-11.06-11.05-16.62-16.55-3.43,2.93-6.21,8.01-11.33,7.82-3.43.1-5.81-2.7-8.05-4.86-13.46,13.29-26.74,26.76-40.16,40.07-.1,7.14,1.08,15.52-4.58,21.02-11.7,11.93-23.65,23.61-35.39,35.51-3.04,4.06-9.45,5.37-12.98,1.2-5.5-5.52-11.1-10.98-16.53-16.59-3.04-3.07-2.44-8.23.62-11.05,11.56-11.65,23.22-23.2,34.79-34.84,2.53-2.48,5.35-5.01,8.95-5.76,4.53-.98,9.23-.55,13.84-.57,2.24-2.18,4.46-4.38,6.66-6.59-10.77-10.77-21.5-21.59-32.34-32.29-4.18-.22-9.16,1.14-12.63-1.88-4.55-4.05-8.6-8.6-13.02-12.8-2.57-2.65-6-5.44-5.62-9.56.75-4.97,5.48-7.74,8.54-11.26,3.03-2.7,5.61-6.99,10.15-6.98,2.97-.34,5.34,1.72,7.24,3.7,4.63,4.78,9.45,9.36,14.06,14.15,3.61,3.51,2.37,8.9,2.53,13.4,10.27,11.18,21.45,21.5,31.98,32.45,7.72-7.37,15.17-15.02,22.71-22.6-2.29-2.19-5.06-4.58-4.93-8.05-.23-5.13,4.93-7.83,7.83-11.29-7.08-.15-14.17.18-21.22-.13-4.09-.75-5.81-6.53-2.57-9.27,6.6-6.8,13.3-13.52,20.12-20.09Z"/>
    <path class="cls-1" d="m102.57,125.46c6.72-6.64,13.36-13.34,20.03-20.01,6.12-.1,11.43,3.24,15.33,7.71,10.99,11.06,22.01,22.09,33.03,33.12,1.72,1.65,3.19,3.8,3.03,6.31.16,3.8-3.1,6.32-5.49,8.79-4.79,4.55-9.22,9.49-14.18,13.85-2.93,2.64-7.71,2.1-10.26-.82-12.49-12.38-24.9-24.85-37.27-37.34-3.17-3.01-3.97-7.46-4.23-11.61Z"/>
  </g>
</svg>