<?xml version="1.0" encoding="UTF-8"?>
<svg id="_图层_1" data-name="图层 1" xmlns="http://www.w3.org/2000/svg" viewBox="0 0 145.73 159">
  <defs>
    <style>
      .cls-1 {
        stroke-width: 7px;
      }

      .cls-1, .cls-2 {
        fill: none;
        stroke: #000;
      }

      .cls-2 {
        stroke-width: 5px;
      }
    </style>
  </defs>
  <path class="cls-2" d="m26.18,17.38c22.57-7.69,47.04-7.66,70.39-3.98,10.52,1.47,20.89,6.29,27.66,14.63,6.6,9.25,9.47,20.72,10.21,31.93.33,20.49,1.58,42.07-7.24,61.18-.29.32-.86.95-1.15,1.28-15.26,8.76-33.17,10.82-50.39,12.26-14.13,1.15-29.56.19-41.62-8.07-7.72-4.54-12.28-12.67-15.75-20.65-5.55-15.59-7.01-32.22-7.65-48.64-.5-12.77,2.09-26.3,10.79-36.13.65-.64,1.31-1.27,1.97-1.9,1.22.04,1.97-.53,2.26-1.72l.53-.2m18.3,12.6c-6.61.59-12.91,6.21-13.07,13.04-.14,16.91.08,33.83.08,50.74h8.36c.26-15.49-.28-30.98.13-46.46-.61-3.29.95-7.3,4.4-8.15,5.79-.63,11.64-.31,17.45-.37.37,17.93-.56,35.88.31,53.79.19.25.57.75.76,1.01,2.05.1,6.15.3,8.2.41.1-21.47.07-42.93.03-64.4-8.89-.06-17.79-.41-26.65.41m41.91-.65c-.03,12.6-.03,25.2-.11,37.81-3.08.41-6.17.82-9.25,1.21,0,16.06-.02,32.13.06,48.19,9.45.06,18.92.51,28.34-.44,6.45-.81,11.63-6.81,11.87-13.3.66-11.34.65-22.73.09-34.08-.23-.23-.68-.69-.9-.93-6.94-.46-13.89-.28-20.83-.28,0-6.43-.02-12.85,0-19.28,7.05-.25,14.42.59,21.29-.75.23-2.15.68-6.42.9-8.56-7.2-.03-14.4-.14-21.59-.2-.39-3.05-.9-6.07-1.52-9.07-2.08-.08-6.24-.24-8.33-.31m-39.72,16.27c-.43,16.71.78,33.48-.57,50.15-1.4,6.96-8.04,10.7-14.49,12.15-.04,2.25-.11,6.73-.15,8.98,7.72-.69,14.41-4.71,19.97-9.9,5.44,5.25,11.89,9.72,19.74,9.77-.07-2.18-.19-6.54-.25-8.72-6.11-1.31-12.88-4.87-14.45-11.43-1.34-16.96-.13-34-.57-51h-9.23Z"/>
  <path class="cls-2" d="m86.39,76.85c7.3-.03,14.59-.03,21.89,0,.08,8.45.37,16.9-.03,25.34-.04,2.13-1.36,4.42-3.64,4.71-6.06.61-12.16.39-18.23.38-.08-10.15-.08-20.29.02-30.44Z"/>
  <path class="cls-2" d="m44.48,29.97c8.86-.81,17.77-.46,26.65-.41.04,21.47.08,42.93-.03,64.4-2.05-.1-6.15-.3-8.2-.41-.19-.25-.57-.75-.76-1.01-.87-17.91.06-35.86-.31-53.79-5.81.06-11.67-.25-17.45.37-3.45.85-5.01,4.87-4.4,8.15-.41,15.48.14,30.97-.13,46.46h-8.36c0-16.91-.21-33.84-.08-50.74.16-6.83,6.46-12.44,13.07-13.04Z"/>
  <path class="cls-2" d="m86.39,29.32c2.09.08,6.25.24,8.33.31.63,3,1.13,6.02,1.52,9.07,7.2.07,14.4.17,21.59.2-.22,2.14-.67,6.41-.9,8.56-6.87,1.34-14.24.5-21.29.75-.02,6.43,0,12.85,0,19.28,6.94,0,13.9-.18,20.83.28.23.24.68.7.9.93.56,11.35.57,22.74-.09,34.08-.24,6.49-5.42,12.49-11.87,13.3-9.42.95-18.89.5-28.34.44-.08-16.06-.05-32.13-.06-48.19,3.08-.39,6.17-.79,9.25-1.21.08-12.6.08-25.2.11-37.81m0,47.53c-.1,10.15-.1,20.29-.02,30.44,6.07,0,12.17.23,18.23-.38,2.28-.3,3.6-2.59,3.64-4.71.41-8.44.11-16.89.03-25.34-7.3-.03-14.59-.04-21.89,0Z"/>
  <path class="cls-2" d="m46.68,45.6h9.23c.45,17-.77,34.05.57,51,1.56,6.56,8.34,10.12,14.45,11.43.06,2.18.18,6.54.25,8.72-7.86-.05-14.3-4.52-19.74-9.77-5.56,5.19-12.25,9.21-19.97,9.9.04-2.25.11-6.73.15-8.98,6.45-1.44,13.09-5.19,14.49-12.15,1.35-16.67.14-33.44.57-50.15Z"/>
  <path class="cls-1" d="m70.72,4.5c14.5-1.33,29.65-2.15,43.54,3.04,10.31,4.19,17.51,13.58,20.98,23.9,3.89,11.46,5.63,23.59,6.51,35.63.65,11.98,1.17,24.27-2.21,35.93-2.08,7.19-6.95,13.13-12.33,18.15,8.82-19.11,7.57-40.7,7.24-61.18-.74-11.22-3.62-22.68-10.21-31.93-6.77-8.35-17.14-13.16-27.66-14.63-23.35-3.68-47.82-3.71-70.39,3.98,13.12-8.83,29.1-11.36,44.54-12.88Z"/>
  <path class="cls-1" d="m8.75,37.34c2.28-6.67,7.58-11.57,12.68-16.14-8.7,9.83-11.29,23.36-10.79,36.13.64,16.42,2.1,33.05,7.65,48.64,3.47,7.98,8.03,16.11,15.75,20.65,12.06,8.25,27.49,9.22,41.62,8.07,17.23-1.44,35.14-3.5,50.39-12.26-4.25,5.3-8.74,10.86-15.2,13.54-9.07,4.82-19.7,4.39-29.38,7.16-4.32,3.47-7.18,8.45-11.08,12.38h-2.51c-3.67-4.22-6.63-9.28-11.05-12.71-12.61-3.16-26.78-3.84-36.98-12.97-12.03-10.76-15.16-27.55-16.14-42.9-.43-16.57-.76-33.79,5.04-49.58Z"/>
</svg>