<?xml version="1.0" encoding="UTF-8"?>
<svg id="_图层_1" data-name="图层 1" xmlns="http://www.w3.org/2000/svg" viewBox="0 0 113.79 160">
  <defs>
    <style>
      .cls-1 {
        fill: none;
        stroke: #000;
        stroke-linecap: round;
        stroke-linejoin: round;
        stroke-width: 12px;
      }
    </style>
  </defs>
  <g id="_002fa7ff" data-name="#002fa7ff">
    <path class="cls-1" d="m76.81,15.09c8.91-6.53,20.06-9.09,30.97-9.09.03,32.11-.01,64.22-.01,96.33.03,12.94-3.64,26.46-12.69,36.06-9.54,10.76-24.32,15.35-38.35,15.58-16.9.06-33.81.01-50.7.02-.01-17.05-.06-34.11.02-51.17,12.59.29,25.12,4.97,34.33,13.65,9.71,9,16.27,21.97,15.87,35.39.26-3.45.54-6.9.58-10.36.03-28.69-.08-57.39.06-86.09.1-15.46,6.9-31.45,19.92-40.32Z"/>
  </g>
</svg>
