<?xml version="1.0" encoding="UTF-8"?>
<svg id="_图层_1" data-name="图层 1" xmlns="http://www.w3.org/2000/svg" viewBox="0 0 192 192">
  <defs>
    <style>
      .cls-1 {
        fill: none;
        stroke: #000;
        stroke-miterlimit: 10;
        stroke-width: 2px;
      }
    </style>
  </defs>
  <path class="cls-1" d="m35.2,30.23h15.63v43.78h-4.3v-4.87h-7.02v6.14h-4.3V30.23Zm11.32,4.18h-7.02v30.56h7.02v-30.56Zm6.96,29.1h17.59v-7.09h4.49v7.09h18.79v4.3h-18.79v17.33h-4.49v-17.33h-17.59v-4.3Zm17.84-17.71c.04,1.73.15,3.25.32,4.56-3.08,1.48-6.39,3.23-9.93,5.25-1.05.59-2.13,1.41-3.23,2.47l-3.35-4.24c1.1-1.14,1.69-2.47,1.77-3.99v-26.7h4.43v10.75h9.81v4.18h-9.81v12.78c2.61-1.31,5.95-2.99,10-5.06Zm18.66-17.46l3.04,3.92c-4.26,2.66-8.92,5.19-13.98,7.59v8.22c0,1.9,1.12,2.87,3.35,2.91h2.78c2.45.04,3.82-.59,4.11-1.9.38-1.69.78-4.18,1.2-7.46,1.31.59,2.8,1.18,4.49,1.77-.59,3.08-1.1,5.42-1.52,7.02-.76,3.29-3.37,4.89-7.84,4.81h-3.99c-4.68-.04-7.02-1.94-7.02-5.69v-26.57h4.43v12.46c4.01-2.23,7.65-4.6,10.94-7.09Z"/>
  <path class="cls-1" d="m99.35,28.84h16.64v42.45h-12.02v3.48h-4.62V28.84Zm12.02,37.96v-33.47h-7.4v33.47h7.4Zm5.19,11.64h19.68v-8.98h-16.01v-4.55h16.01v-8.29h-10.44v2.34h-4.75V26.3h35.24v32.64h-4.75v-2.34h-10.44v8.29h16.07v4.55h-16.07v8.98h18.85v4.55h-43.4v-4.55Zm9.24-39.1h10.44v-8.73h-10.44v8.73Zm0,12.97h10.44v-8.79h-10.44v8.79Zm25.75-21.7h-10.44v8.73h10.44v-8.73Zm-10.44,21.7h10.44v-8.79h-10.44v8.79Z"/>
  <path class="cls-1" d="m32.04,121.51l3.23-3.61c3.88,2.78,7.49,5.5,10.82,8.16l-3.67,4.05c-3.84-3.46-7.3-6.33-10.38-8.6Zm2.09,39.03c2.53-7.59,4.7-15.75,6.52-24.48,1.86.8,3.56,1.46,5.12,1.96-2.02,8.1-4.05,16.17-6.07,24.23l-5.57-1.71Zm.38-55.55l3.29-3.35c2.78,2.11,6.41,5.08,10.88,8.92-1.43,1.39-2.7,2.64-3.8,3.73-4.34-4.09-7.8-7.19-10.38-9.3Zm17.21,40.68v-3.8h36v3.73c-3.12,3.69-7.3,6.86-12.53,9.52,5.59,1.86,12.36,3.03,20.31,3.51-.93,1.52-1.77,2.99-2.53,4.43-9.15-1.01-16.8-2.88-22.93-5.6-6.45,2.62-14.2,4.61-23.25,5.98-.59-1.35-1.31-2.78-2.15-4.3,7.68-.67,14.54-2.05,20.59-4.14-4.26-2.55-7.53-5.66-9.81-9.33h-3.7Zm-2.34-21.38h42.45v15.37h-4.18v-1.71h-34.1v1.71h-4.18v-15.37Zm3.8-21.13h34.86v18.85h-4.18v-1.52h-26.51v1.52h-4.18v-18.85Zm.38,31.13h8.67v-6.33h-8.67v6.33Zm30.3-27.58h-26.51v3.42h26.51v-3.42Zm-26.51,10.25h26.51v-3.42h-26.51v3.42Zm24.86,28.72h-21.92c2.36,2.99,5.62,5.48,9.77,7.46,4.58-2.02,8.62-4.51,12.15-7.46Zm-15.94-11.39h8.67v-6.33h-8.67v6.33Zm21.38-6.33h-8.67v6.33h8.67v-6.33Z"/>
  <path class="cls-1" d="m99.35,117.77c3.84,2.74,7.19,5.31,10.06,7.72-1.39,1.6-2.53,2.91-3.42,3.92-3.54-3.25-6.73-5.99-9.55-8.22l2.91-3.42Zm4.94,18.28c1.56.68,3.18,1.31,4.87,1.9-1.86,7.72-3.75,15.79-5.69,24.23l-5.25-1.71c2.53-8.14,4.56-16.28,6.07-24.42Zm-2.4-34.29c2.74,2.11,5.78,4.68,9.11,7.72-.29.29-1.48,1.52-3.54,3.67-2.78-2.83-5.67-5.55-8.67-8.16l3.1-3.23Zm8.22,10.5h22.78v4.3h-12.97c-.02,3.48-.07,6.69-.16,9.62h11.67c-.29,12.15-.63,21.17-1.01,27.08-.3,4.98-2.68,7.46-7.15,7.46-1.77,0-3.63-.02-5.57-.06-.25-1.39-.59-3-1.01-4.81,1.81.21,3.65.32,5.5.32,2.28,0,3.52-1.27,3.73-3.8.34-4.51.63-11.85.89-22.02h-7.21c-.21,15.06-3.29,25.88-9.24,32.46-1.22-1.43-2.34-2.7-3.35-3.79,3.5-4.22,5.74-9.15,6.71-14.8,1.01-4.87,1.56-14.09,1.64-27.65h-5.25v-4.3Zm6.33-9.68l4.11-2.28c1.9,2.79,3.65,5.65,5.25,8.61l-4.18,2.28c-1.56-2.91-3.29-5.78-5.19-8.6Zm16.32,33.15h11.64v-3.35l7.53-7.91h-15.56v-3.67c-.89,1.5-1.83,2.95-2.85,4.37-.93-1.1-2.02-2.28-3.29-3.54,4.51-6.41,7.44-13.5,8.79-21.26l4.75.76c-.63,3.04-1.43,5.95-2.4,8.73h18.09v4.3h-19.74c-.91,2.09-1.91,4.09-3,6.01h20.97v4.62l-8.73,8.79v2.15h10.94v4.3h-10.94v14.68c0,4.47-2.28,6.71-6.83,6.71-1.98,0-4.15-.02-6.52-.06-.17-1.39-.42-2.99-.76-4.81,2.7.25,4.93.38,6.71.38,1.9,0,2.85-1.05,2.85-3.16v-13.73h-11.64v-4.3Z"/>
</svg>