<?xml version="1.0" encoding="UTF-8"?>
<svg id="_图层_1" data-name="图层 1" xmlns="http://www.w3.org/2000/svg" viewBox="0 0 192 192">
  <g id="_d2d9e1ff" data-name=" d2d9e1ff">
    <path d="m177.02,73.5c-1.1-.42-2.18-1.04-3.21-1.86-.06.17-.13.34-.27.53-1.82-.31-5.58,1.38-5.33-1.64-2.26-.11-4.51-.12-6.75-.03-.02,3.48-.2,6.96.02,10.42,2.34-.59,7.66,1.89,7.15-2.54,4.36-1.72,6.39,3.46,6.27,6.92.2,6.07-.16,12.17.09,18.24,1.58,2.34,3.61,4.33,5.16,6.7.17-10.6-.27-21.22.26-31.79-.68-1.91-2.32-3.25-3.39-4.94h.01Z"/>
    <path d="m41.45,114.99c-4.17-.21-8.35.11-12.54-.1v-1.23c3.55-.2,7.16.23,10.68-.3-.16-1.96-.76-3.86-1.21-5.77-3.16-.15-6.33.02-9.48-.1,0-.62-.08-1.33.58-1.64,3.43-.21,6.88.1,10.3-.11.1-5.07,0-10.14.06-15.21.64-2.52-.91-4.64-2.34-6.46-2.42-.58-6.43.81-8.15-.51,2.78-2.14,11.59,2.77,11.57-3.69.29-.83,1.76-.63,1.91-1.49-3.84-1.95-8.51-.41-12.63-.91-1.03.31-.93-.55-.86-1.29,2.92-.02,5.83-.04,8.75-.07-.4-1.87-.79-3.76-1.5-5.55-5.82-.26-11.64.11-17.46-.19.15-.09.3-.16.46-.23-.66,0-1.33-.06-1.99-.11-.07.21-.25.38-.53.38-.89,0-1.78-.02-2.66-.12-.39,2.17-1.02,4.14-1.89,6.08.23.02.47.06.7.08-.03-.06-.07-.1-.1-.16,2.59,1.13,7.88-1.52,9.25,1.17-1.8-.63-4.84.48-7.01.26-.15.1-.32.13-.49.1-.11-.02-.23-.03-.35-.06-.08.04-.17.08-.27.08-.81,0-1.59-.04-2.35-.23-.1.19-.18.38-.28.57-.11.3-.21.6-.34.91-.02,1.25-.09,2.51-.16,3.74,3.71.49,7.43,1.14,11.23.3,0,.21-.02.63-.02.83-3.47.2-6.94.29-10.4.57-.02,7.08-.15,14.17.02,21.25,3.31.15,6.63-.12,9.94.06.88-.02.97,1.01.94,1.68-3.05.09-6.1-.02-9.15.08-.58,1.95-1.26,3.89-1.36,5.95,3.49-.26,6.98.04,10.46.17v1.23c-3.93.12-7.85-.09-11.78.07-.21,2.37,1.24,4.44,2.3,6.44,9.84.09,19.69.1,29.54,0-.13-2.2-.91-4.32-1.42-6.44h.01Zm-14.53-12.09c-1.11,2.65-2.43-.86-3.37-1.85-1.99-.11-3.97,0-5.95-.11-.03-3.9-.09-7.81,0-11.71,3.11-.04,6.96,1.08,7.95-2.96,1.4-.16,1.63,2.08,2.59,2.89,1.6.02,4.8.07,6.4.1.04,3.9.1,7.81,0,11.71-2.58.5-6.56-1.35-7.63,1.93Z"/>
    <path d="m78.11,114.97c-4.04-.18-8.09.08-12.12-.06.06-5.54-.38-11.33.26-16.69,3.28-.97,7.18.12,10.64-.32-.2-2.21-1.06-4.28-1.47-6.46-3.14-.18-6.31.03-9.45-.07-.07-3.76-.06-7.53,0-11.28,3.29-.16,6.6.08,9.89-.1.7-2.31,1.96-4.48,2.31-6.88-4.05-.16-8.12.07-12.18-.06,1.4-4.61-4.27-1.92-6.54-2.57,1.49,4.07-2.75,2.29-4.83,2.59,1.89-3.81-3.88-1.69-6.03-2.12-1.23,3.99-2.56,8-3.19,12.13,1.92-.77,6.7,1.76,6.82-1.43-.1-3.52,5.11-.77,7.15-1.59.07,3.76.06,7.53,0,11.28-1.26.07-2.57.11-3.86.01-.37.18-.79.29-1.3.29-.44,0-.83-.09-1.16-.22-.34.15-.7.22-1.14.22-.09,0-.16-.02-.23-.02-.09,0-.18.02-.28.02-.28,0-.53-.04-.76-.1-.15.06-.3.12-.48.18-.73,1.93-1.32,4.07-1.69,6.15,1.74.03,3.49.06,5.23.06v.42c.09,0,.17-.01.26-.01.28,0,.54.02.79.06h.07c.25.03.48.08.7.13h0c.97-.7,2.89.37,3.84-.2v4.31h0c.06.22.09.46.11.68v.03c.08.7.04,1.43-.1,2.12h0c.02,3.12.1,6.24.39,9.35-4.17.19-8.34-.1-12.5.1-.85,2.07-1.23,4.29-1.83,6.45,11.49.07,22.97.03,34.46,0-.68-2.14-1.3-4.29-1.82-6.48l.04.06h.01Z"/>
    <path d="m111.39,70.54c1.99-.07,3.99-.13,5.99-.02-1.74,5.37-3.71,10.69-5.12,16.16-.37,1.04.12.85.69.28.66-1.98,1.08-4.04,1.93-5.94,1.85-.07,3.71-.15,5.57-.03-2.29,7.74-4.93,15.39-7.49,23.04,2.05.07,4.1-.03,6.16.07-1.77,5.58-2.49,11.59-4.88,16.93-2.9.08-5.78.08-8.68,0,.48-2.01,1-4.15,1.89-5.98,3.29,1.13,4.09-1.91,4.29-4.41-1.1-.02-3.28-.07-4.37-.09-1.19-6.02,1.78-11.36,3.51-16.91-1.33-.06-2.63,0-3.95-.09-1.03-7.99,2.35-15.48,4.44-23Z"/>
    <path d="m146.69,70.54c4.46-.12,8.94-.09,13.4-.03.02,14.51.06,29.02-.02,43.53-1.41,2.19-2.93,4.32-4.67,6.26-.45-6.12.51-12.32-.54-18.39-1.15.57-2.44.94-3.42,1.8-.19,5.89.1,11.79-.11,17.68-1.11,1.4-.6-1.43-2.12-1.21-1.03.34-1.77,1.15-2.59,1.8.08-17.09-.2-34.57.08-51.43m7.91,7.1c-3.32.82-4.21,3.37-3.18,6.83,4.15.4,4.22-4.86,3.18-6.83m-.45,11.77c-2.67.75-3.38,2.9-2.77,5.49-1.42,3.96,2.21,1.49,3.5.84-.66-1.36,1.27-6.74-.72-6.33h-.01Z"/>
    <path d="m121.78,70.94c5.74,0,11.49-.15,17.22.08,1.12,1.93,2.39,3.79,3.56,5.7-.02,14.75.66,29.57-.38,44.29-6.8.06-13.6.07-20.4,0-.03-16.7-.04-33.38,0-50.07m6.1,6.1c-.06,4.46-.08,8.94.02,13.4.59.53,1.33.87,2.1,1.01.11-3.21-.02-6.42.02-9.63,1.42.85,3.53,1.31,4.36,2.62,1.1,2.99-2.38,9.36,2.2,10-.02-5.79.02-11.59-.04-17.38-2.89-.07-5.78-.07-8.67,0m-.03,20.06c.23,5.95-.77,11.87-.41,17.83,3.03.08,6.06.06,9.1,0,.11-4.75.06-9.51-.02-14.26-.65-.32-1.35-.58-2.09-.57-.09,3.67.03,7.34-.06,11-1.48-.49-2.86-1.24-4.26-1.9-.18-3.71.02-7.44-.1-11.15-.62-.51-1.42-.67-2.16-.93,0,0,0-.02,0-.02Z"/>
    <path d="m89.66,79.37c.64.89-2.83,3.38-2.87,5.44-1.16,3.56,2.39,9.55,6.51,7.14,1,5.12,8.11,5.31,9.17,10.41,1.74,4.71-.69,10.78-5.85,11.88-6.08,2.27-11.14-3.55-11.03-9.23,5.05-1.05,3.93-8.11-.04-9.66-1.35-1.12-3.33-.89-4.66-1.89-2.53-6.51,2.67-12.59,8.78-14.09m5.11,19.91c-.04,2.37-1.02,5.98-4.05,5.77,3.23.65,3.52,3.52,4.33,6.01.02-2.97,1.03-5.48,4.08-6.03-3.62.53-3.7-3.85-4.37-5.75,0,0,.01,0,.01,0Z"/>
    <path d="m161.45,82.27c2.71.02,5.44-.21,8.14.06,1.35,1.73,2.45,3.66,3.88,5.33.29,7.31.13,14.64.09,21.95-2.02,1.77-5.8-.79-7.75,1.07,0,1.05-.03,3.16-.04,4.22,3.75.11,7.49-.09,11.25.08,1.45,1.92,2.63,4.05,3.98,6.06-6.52-.02-13.04.03-19.56-.03-.02-12.91-.08-25.83,0-38.74m5.22,6.05c1.16,4.61-2.46,11.56,1.69,14.91.02-4.47.16-8.96-.1-13.42-.3-.69-.65-1.67-1.59-1.49Z"/>
    <path d="m96.9,89.63c1.39.4,1.44,2.9,3.46,3.11,2.35.47,1.7,5.01-1.13,3.33-2.73-.84-2.49-4.18-2.34-6.44h.01Z"/>
    <path d="m25.49,90.55c1.63-.46.73,2.04,1.26,3,.29,1.26,1.88,1.19,2.64,2.04-2.51.08-3.32,2.39-3.2,4.61-.88-1.73-.97-4.23-3.38-4.59,2.08-.88,2.99-2.57,2.67-5.05Z"/>
  </g>
</svg>