<?xml version="1.0" encoding="UTF-8"?>
<svg id="_图层_1" data-name="图层 1" xmlns="http://www.w3.org/2000/svg" viewBox="0 0 147.36 160">
  <defs>
    <style>
      .cls-1 {
        fill: none;
        stroke: #000;
        stroke-width: 8px;
      }
    </style>
  </defs>
  <g id="_ffffffff" data-name="#ffffffff">
    <path class="cls-1" d="m107.65,4.71c12.66-2.98,26.51,3.73,32.22,15.35,2.35,4.8,3.17,10.23,3.1,15.52.11,30.45.15,60.91.37,91.37.57,13.46-10.04,25.83-23.06,28.41-7.53,1.75-15.46-.25-21.96-4.17-23.1-13.16-46.3-26.13-69.4-39.28-6.76-3.52-13.35-7.62-18.45-13.36-6.3-7.59-8.16-18.57-4.88-27.86,2.1-6.45,6.67-12.03,12.52-15.45,25.99-15.33,52.2-30.29,78.2-45.61,3.56-2.1,7.28-4.02,11.33-4.93m2.89,17.25c-.9.32-1.78.7-2.61,1.15-27.42,16.09-54.78,32.32-82.22,48.37-2.7,1.87-4.2,5.12-4.55,8.32-.29,4.59,2.51,9.11,6.6,11.15,26.69,15.21,53.38,30.42,80.11,45.59,4.95,2.96,12.4,2.39,15.89-2.57,2.02-2.51,2.53-5.81,2.38-8.94-.27-30.12-.3-60.25-.57-90.38.04-2.96-.42-6.07-2.29-8.49-2.73-4.02-8.19-5.53-12.75-4.21Z"/>
    <path class="cls-1" d="m83.37,58.99c5.97,0,12.76-1.35,17.9,2.53,2.68,2.15,5.26,4.54,7.22,7.38,3.08,4.66,2.11,10.48,2.18,15.73.03,6.46-4.87,11.41-9.72,14.98-4.97,3.49-11.34,2.67-17.05,2.46-5.85-.58-10.11-5.12-13.67-9.37-3.59-4.82-2.83-11.18-2.74-16.82.24-5.73,4.33-10.17,8.49-13.65,2.11-1.71,4.66-2.97,7.39-3.25m3.86,12.72c-5.19,1.11-8.38,7.17-6.25,12.04,1.61,4.9,8.05,7.03,12.42,4.47,2.73-1.29,4.04-4.26,4.72-7.03.37-5.62-5.25-10.95-10.89-9.49Z"/>
  </g>
</svg>