<?xml version="1.0" encoding="UTF-8"?>
<svg id="_图层_1" data-name="图层 1" xmlns="http://www.w3.org/2000/svg" viewBox="0 0 192 192">
  <defs>
    <style>
      .cls-1 {
        fill: none;
        stroke: #000;
        stroke-linecap: round;
        stroke-linejoin: round;
        stroke-width: 8px;
      }
    </style>
  </defs>
  <path class="cls-1" d="m124.34,21.45c1.4-.34,2.79-.94,4.26-.83,2.18,6.39,2,13.26,1.86,19.92-1.31,16.19-9.5,31.79-22.35,41.77-1.82,1.4-3.64,2.86-5.68,3.91-1.1.54-2.14,1.16-3.13,1.86,4.18.08,8.37.01,12.56.08,8.67.92,17.25,3.08,25.1,6.91,5.32,2.44,10.22,5.74,14.81,9.37,1.48,1.07,2.81,2.35,4.08,3.64,6.57,6.1,11.86,13.5,15.82,21.52,1.88,4.25,3.8,8.55,4.73,13.11-2.75,1.03-5.69,1.35-8.48,2.28-3.32,1.01-6.69,1.83-10.02,2.81-1.66.38-3.27,1.03-4.98,1.09-.51-1.16-.83-2.4-1.22-3.61-.85-2.68-2.13-5.21-3.5-7.65-3.52-6.53-8.77-11.99-14.72-16.36-7.47-4.85-16.13-8.48-25.18-8.32-3.21,0-6.43-.08-9.63.19-10.15,1.51-19.79,6.26-27.08,13.49-4.78,4.72-8.57,10.44-11.1,16.64-1.34,3.46-2.58,7-2.95,10.72-.67,4.49-.3,9.06-.3,13.58-.1,2.52,1.19,4.9.82,7.43-2.17.22-4.16,1.14-6.29,1.59-5.59,1.48-11.14,3.11-16.77,4.43-.5-1.21-.86-2.48-1.11-3.76-.5-2.65-1.1-5.32-.83-8.04-.15.74-.21,1.5-.31,2.25,0-2.84-.49-5.66-.45-8.51-.34-20.4,8.14-40.88,23.11-54.83,3.03-2.65,5.96-5.46,9.43-7.55,2.91-2.15,6.19-3.67,9.31-5.48-2.6-.16-5.18-.45-7.79-.44-13.98-1.39-27.3-8.11-36.91-18.33-4.87-5.31-8.94-11.39-11.57-18.12-.88-2.36-1.96-4.7-2.29-7.21,5.2-1.41,10.4-2.86,15.62-4.24,1-.26,1.97-.69,3.02-.65.36.29.39.79.56,1.2,3.1,10.89,11.41,20.03,21.73,24.56,7.75,3.45,16.63,4.07,24.87,2.15,3.87-1.05,7.63-2.57,11.05-4.68,10.09-6.14,17.08-17.07,18.42-28.79.11-5.03.44-10.17-1-15.07,4.8-1.48,9.68-2.68,14.51-4.04l-.03.03Z"/>
  <path class="cls-1" d="m67.11,11.41c6.42-1.25,13.29.39,18.59,4.18,4.9,3.68,8.78,9.03,9.74,15.18.85,3.78.65,7.74-.37,11.45-1.57,5.86-5.5,10.94-10.51,14.28-4.97,3.04-11,4.5-16.78,3.51-7.01-1.03-13.36-5.46-16.98-11.52-6.52-10-3.75-24.47,5.36-31.96,3.11-2.64,6.92-4.45,10.95-5.13Z"/>
</svg>