<?xml version="1.0" encoding="UTF-8"?>
<svg id="_图层_1" data-name=" 图层 1" xmlns="http://www.w3.org/2000/svg" viewBox="0 0 192 192">
  <defs>
    <style>
      .cls-1 {
        fill: none;
        stroke: #000;
        stroke-linecap: round;
        stroke-linejoin: round;
        stroke-width: 12px;
      }
    </style>
  </defs>
  <g id="_f5fbffff" data-name=" f5fbffff">
    <path class="cls-1" d="m49.21,11.01c10.62,5.51,18.7,14.5,27.51,22.36,21.8,19.71,43.86,39.16,66.98,57.33,5.1,3.68,7.11,10.97,4.79,16.79-5.9,9.8-15.38,16.64-22.67,25.34,4.57.44,9.18.69,13.73,1.42-11.27,9.8-23.98,17.73-35.73,26.91-9.22,6.79-18.05,14.19-28.04,19.85,5.2-12.27,13.77-22.71,19.1-34.9-5.03-.41-10.09-.68-15.12-1.16,3.62-6.36,7.59-12.55,10.69-19.19-15.81-.55-33.52-10.05-36.86-26.58,10.14,1.13,19.85,4.79,30.09,5.25-10.34-3.1-21.53-5.42-29.59-13.2-9.47-8.62-12.6-22.06-11.25-34.46,13.07,5.58,23.11,16.95,37.08,20.86-10.04-7.76-21.92-14.01-29.01-24.96-4.55-6.09-5.9-13.96-6.31-21.41-.93-7.1,2.2-13.74,4.6-20.24h0Z"/>
  </g>
</svg>