<?xml version="1.0" encoding="UTF-8"?>
<svg id="_图层_1" data-name=" 图层 1" xmlns="http://www.w3.org/2000/svg" viewBox="0 0 192 192">
  <defs>
    <style>
      .cls-1 {
        fill: none;
        stroke: #000;
        stroke-linecap: round;
        stroke-linejoin: round;
        stroke-width: 8px;
      }
    </style>
  </defs>
  <path class="cls-1" d="m75,55.51c7.15-7.97,17.71-11.74,27.98-13.65,5.92-.19,12.03-.84,17.79.95,6.42,1.6,12.93,3.84,18.13,8.06,3.88,2.62,7.28,5.85,10.61,9.1,2.57,2.53,3.68,6.05,5.66,9,1.91,2.87,3.02,6.16,4.19,9.38.89,2.49.27,5.4,1.5,7.76,5.75,2.76,11.78,6.15,14.77,12.08,2.83,4.1,4.76,8.86,5.29,13.83.06,3.52.19,7.07-.16,10.58-1.42,6.02-3.7,12.21-8.49,16.37-2.93,2.47-5.27,5.77-8.88,7.31-4.38,2.05-8.89,4.37-13.88,4.04-34.78.15-69.56.04-104.35.04-3.56-.25-7.45.44-10.68-1.45-4.28-2.14-8.88-3.89-12.34-7.33-5.18-4.4-7.83-10.8-10.62-16.8-.77-4.73-.56-9.6-.26-14.37,1.42-5.84,3.93-11.55,7.95-16.08,4.76-3.93,9.57-8.5,15.94-9.45,1.43-4.65,2.99-9.44,6.39-13.07,2.77-3.34,6.71-5.42,10.62-7.11,4.67-.92,9.48-.06,14.19-.37,1.12-.23,1.6-1.43,2.35-2.16,1.88-2.42,4.18-4.46,6.29-6.68"/>
  <path class="cls-1" d="m77.37,77.43c-2.53,4.05-4.22,8.57-6.62,12.68,2.28.69,4.69.49,7.05.49,8.54-.08,17.11.08,25.65-.07,2.15-4.1,3.96-8.43,6.75-12.16.37-.37,1.03-1.87-.11-1.58-9.96-.26-19.93,0-29.88-.13-.93.13-2.28-.28-2.83.75"/>
  <path class="cls-1" d="m111.67,88.01c-.89,1.9-.65,4.06-1.02,6.07-2.84,8.57-.5,17.74-1.71,26.5-1.45,2.64-3.5,5.16-6.13,6.68-4.61.89-9.34.08-13.98.62-1.04,2.11-3.38,4.1-1.86,6.6,7.78-.09,15.58.5,23.34-.03,5.96-1.51,12.16-5.11,14.19-11.27.53-2.28.5-4.66.92-6.97,2.04-7.86.08-16.15,1.89-24.04,1.61-4.7,6.34-9.1,11.61-8.28,2.27.28,4.33,1.43,6.55,1.92.67-1.05,1.38-2.08,2.1-3.1-5.18-6.21-14.11-6.83-21.53-5.39-6.06,1.27-11.28,5.38-14.36,10.7"/>
  <path class="cls-1" d="m65.91,97.76c-2.65,2.87-3.9,6.61-5.64,10.03-3.9,6.6-7.88,13.17-11.61,19.88-1.49,2.3-1.13,6.9,2.3,6.92,9.34.09,18.7.16,28.04-.06,1.67-4.72,4.78-8.9,5.82-13.81-4.19-.31-8.41-.17-12.61-.1-.04-3.39,2.38-5.96,4-8.7,5-.29,9.99,0,14.99-.17.97-3,2.43-5.82,4.01-8.53,1-1.71,2.45-3.25,2.67-5.3-10.65-.4-21.33-.08-31.98-.17h.01Z"/>
</svg>