<?xml version="1.0" encoding="UTF-8"?>
<svg id="_图层_1" data-name="图层 1" xmlns="http://www.w3.org/2000/svg" viewBox="0 0 192 192">
  <defs>
    <style>
      .cls-1 {
        fill: none;
        stroke: #020202;
        stroke-linecap: round;
        stroke-linejoin: round;
        stroke-width: 4px;
      }
    </style>
  </defs>
  <g>
    <path class="cls-1" d="m52.27,92.37h-21.44l-3.71,21.28h-14.59l10.24-58.04h40.47l-2.26,12.58h-25.96l-2.02,11.61h21.44l-2.18,12.57Z"/>
    <path class="cls-1" d="m81.45,114.78c-7.69,0-13.01-1.67-15.96-5-2.04-2.36-3.06-5.67-3.06-9.92,0-1.83.19-3.79.56-5.88l3.3-18.54c2.42-13.59,11.15-20.39,26.2-20.39,6.23,0,10.96,1.33,14.19,3.99,3.22,2.66,4.84,6.3,4.84,10.92,0,2.15-.31,4.29-.93,6.41-.62,2.12-1.22,3.7-1.81,4.72l-.89,1.61h-14.27c1.77-2.04,2.66-4.94,2.66-8.71,0-1.99-.51-3.56-1.53-4.72-1.02-1.15-2.53-1.73-4.51-1.73-5.43,0-8.65,3.01-9.67,9.03l-2.82,16.28c-.27,1.4-.4,2.77-.4,4.11,0,3.55,2.12,5.32,6.37,5.32,5.1,0,8.17-2.87,9.19-8.62h14.51l-.4,2.34c-2.15,12.52-10.67,18.78-25.55,18.78Z"/>
    <path class="cls-1" d="m138.6,55.61l8.62,27.81,18.54-27.81h15.24l-10.24,58.04h-14.59l5.8-32.73-12.41,19.51h-10.56l-5.48-19.51-5.8,32.73h-14.51l10.24-58.04h15.15Z"/>
  </g>
  <g>
    <path d="m72.39,148.21c2.84-.13,3.11-.71,3.11-3.18v-13.86c0-2.47-.27-3.04-3.11-3.18v-.47h14.37c0,1.83.17,3.58.3,5.21l-.61.07c-.64-3.58-1.52-4.46-5.41-4.46h-2.84c-.88,0-.95.07-.95.95v8.22h3.89c3.18,0,3.45-.3,4.02-2.57h.57v6.56h-.57c-.58-2.64-.85-3.04-4.02-3.04h-3.89v6.59c0,2.47.3,3.01,3.72,3.18v.47h-8.59v-.47Z"/>
    <path d="m89.56,148.21c2.94-.13,3.21-.71,3.21-3.38v-13.46c0-2.64-.27-3.21-3.21-3.38v-.47h8.18v.47c-2.91.17-3.21.74-3.21,3.38v13.46c0,2.67.3,3.25,3.21,3.38v.47h-8.18v-.47Z"/>
    <path d="m99.91,127.52h7.51v.47c-1.69.17-2.33.34-2.33.81,0,.24.17.57.47,1.01,1.18,1.93,2.77,4.06,4.43,6.32,2-2.81,4.23-6.02,4.23-7.03,0-.64-.68-.91-2.33-1.12v-.47h7.71v.47c-2.6.3-3.14.98-4.7,2.88-.47.61-1.59,2.06-4.46,6.02,2.06,2.94,4.26,6.02,5.71,8.01,1.52,2.16,2.47,3.11,4.87,3.35v.44h-7.81v-.44c1.35-.17,2.1-.41,2.1-1.01,0-.24-.1-.47-.27-.81-.95-1.49-3.52-5.11-5.48-7.74-2.06,3.08-3.48,5.51-4.7,7.57-.2.41-.34.71-.34.95,0,.61.64.88,2.23,1.01v.47h-7.51v-.47c2-.24,2.87-.91,3.89-2.03.34-.27,1.83-2.3,5.92-8.28-1.93-2.84-3.79-5.58-4.6-6.59-1.69-2.43-1.93-3.01-4.53-3.31v-.47Z"/>
  </g>
</svg>