<?xml version="1.0" encoding="UTF-8"?>
<svg id="Layer_1" data-name="Layer 1" xmlns="http://www.w3.org/2000/svg" viewBox="0 0 658.03 622.75">
  <defs>
    <style>
      .cls-1 {
        fill: none;
      }
    </style>
  </defs>
  <g>
    <path d="m235.41,1.7c.08-2.27,5.18-2.26,5.26,0-1.31,0-3.95,0-5.26,0Z"/>
    <path d="m225.39,5.56c.25-1.67,1.09-2.03,2.52-1.09-.64.94-1.48,1.3-2.52,1.09Z"/>
    <path d="m222.66,7.32c.39-.48,1.16-1.45,1.55-1.93.38,1.1,0,1.92-1.13,2.47l-.42-.54Z"/>
    <path d="m255.73,7.69c.52.29,1.56.87,2.07,1.15-.02.39-.05,1.15-.07,1.54-1.47.25-2.76-1.35-2-2.69Z"/>
    <path d="m216.48,12.86c.41-1.76,1.87-3.59,3.9-3.01-.87,1.47-2.27,2.52-3.9,3.01Z"/>
    <path d="m259.33,10.39c.52.32,1.56.97,2.08,1.3-.08.38-.26,1.15-.34,1.54-1.35-.13-2.61-1.54-1.74-2.84Z"/>
    <path d="m456.36,13.38c2.66,0,7.96.04,10.62.06l-.64-.02c-3.32-.12-6.7-.1-9.98-.04Z"/>
    <path d="m444.68,15.62c.63-1.66,1.57-1.82,2.81-.46-.88.53-1.82.69-2.81.46Z"/>
    <path d="m438.69,16.59c.56-1.69,1.49-1.89,2.79-.6-.85.58-1.78.78-2.79.6Z"/>
    <path d="m432.65,17.7c.5-1.72,1.43-1.96,2.78-.71-.85.6-1.77.84-2.78.71Z"/>
    <path d="m426.89,18.59c-.23-1.89,2.99-2.21,3.49-.53-1.13.39-2.31.6-3.49.53Z"/>
    <path d="m420.73,19.64c.56-1.69,1.49-1.88,2.78-.58-.85.58-1.78.77-2.78.58Z"/>
    <path d="m272.13,20.7c.57.33,1.72.98,2.3,1.31l-.22.77c-1.48.12-2.17-.58-2.08-2.08Z"/>
    <path d="m408.63,21.72c.57-1.7,1.51-1.9,2.8-.59-.86.56-1.8.75-2.8.59Z"/>
    <path d="m402.92,22.6c-.22-1.87,2.98-2.18,3.47-.5-1.12.4-2.3.61-3.47.5Z"/>
    <path d="m481.03,22.94c.55.06,1.66.17,2.21.23l.07.82c-1.32.83-2.08.48-2.28-1.05Z"/>
    <path d="m276.2,23.96c.67.24,2,.73,2.67.98,0,.36,0,1.1-.01,1.47-1.32-.19-2.1-1.37-2.66-2.45Z"/>
    <path d="m390.68,24.62c.62-1.68,1.56-1.84,2.81-.48-.88.53-1.82.69-2.81.48Z"/>
    <path d="m384.65,25.7c.5-1.72,1.42-1.96,2.78-.72-.84.6-1.77.84-2.78.72Z"/>
    <path d="m378.89,26.58c-.23-1.88,2.99-2.2,3.49-.51-1.13.38-2.31.59-3.49.51Z"/>
    <path d="m280.46,26.66c.55.3,1.66.89,2.21,1.19,0,.38-.01,1.15-.01,1.53-1.44.12-2.8-1.3-2.2-2.72Z"/>
    <path d="m372.69,27.59c.59-1.69,1.52-1.87,2.8-.55-.86.56-1.8.74-2.8.55Z"/>
    <path d="m366.7,28.59c.56-1.69,1.49-1.89,2.79-.59-.86.57-1.79.77-2.79.59Z"/>
    <path d="m360.72,29.6c.58-1.68,1.51-1.87,2.79-.57-.86.58-1.79.77-2.79.57Z"/>
    <path d="m284.28,29.53c.56.3,1.68.89,2.24,1.19.01.39.03,1.16.04,1.55-1.46.14-2.79-1.31-2.28-2.74Z"/>
    <path d="m348.69,31.62c.59-1.68,1.53-1.86,2.8-.53-.87.56-1.81.73-2.8.53Z"/>
    <path d="m342.69,32.59c.57-1.69,1.5-1.89,2.79-.59-.85.57-1.78.77-2.79.59Z"/>
    <path d="m195.25,32.34l.7.47c-.46,1.14-1.32,1.71-2.58,1.69l1.88-2.16Z"/>
    <path d="m288.16,32.34c.56.36,1.66,1.07,2.22,1.42-.1.35-.29,1.05-.39,1.4-1.07-.5-2.09-1.54-1.83-2.82Z"/>
    <path d="m336.69,33.59c.57-1.69,1.5-1.89,2.8-.59-.86.58-1.79.77-2.8.59Z"/>
    <path d="m330.64,34.71c.5-1.72,1.43-1.96,2.78-.71-.84.6-1.77.83-2.78.71Z"/>
    <path d="m324.64,35.55c-.11-1.86,3.05-2.12,3.59-.47-1.16.37-2.38.56-3.59.47Z"/>
    <path d="m190.67,38.07c-.1-1.41.52-2.34,1.87-2.78.12,1.43-.5,2.35-1.87,2.78Z"/>
    <path d="m318.83,36.63c.58-.31,1.73-.93,2.31-1.25l.52.6c-.86.63-1.8.85-2.83.65Z"/>
    <path d="m312.63,37.7c.51-1.71,1.44-1.95,2.79-.71-.84.6-1.77.84-2.79.71Z"/>
    <path d="m487.39,36.8c1.72.47,1.98,1.38.75,2.74-.62-.82-.87-1.73-.75-2.74Z"/>
    <path d="m294.54,38.02l.65-.36c.72.29,2.14.87,2.85,1.15l-.06.67c-1.31-.03-2.49-.61-3.44-1.46Z"/>
    <path d="m306.54,38.64c-.11-1.85,3.04-2.17,3.64-.56-1.18.39-2.41.61-3.64.56Z"/>
    <path d="m300.58,38.99c.54-.2,1.62-.59,2.16-.79.36.22,1.07.67,1.43.9-1.16.6-2.45.82-3.72.6l.13-.71Z"/>
    <path d="m488.52,42.72c1.68.58,1.88,1.51.59,2.8-.59-.86-.78-1.79-.59-2.8Z"/>
    <path d="m489.52,48.72c1.68.57,1.88,1.5.59,2.8-.59-.86-.78-1.79-.59-2.8Z"/>
    <path d="m442.54,52.7c5.68-.72,10.97,5.34,9.14,10.89-1.41,6.5-11.11,8.05-14.76,2.59-4.1-4.85-.72-12.72,5.62-13.48Z"/>
    <path d="m490.52,54.72c1.68.57,1.88,1.5.59,2.8-.59-.86-.78-1.79-.59-2.8Z"/>
    <path d="m168.09,60.27c-.4-1.26-.07-2.26,1-3.01.71,1.27.38,2.27-1,3.01Z"/>
    <path d="m491.52,60.73c1.69.56,1.89,1.48.6,2.78-.59-.85-.79-1.78-.6-2.78Z"/>
    <path d="m492.47,66.71c1.64.68,1.77,1.63.39,2.83-.52-.89-.65-1.84-.39-2.83Z"/>
    <path d="m214.93,81.97c14.7-12,35.64-14.3,53.26-7.99,21.43,8.23,35.7,29.86,36.83,52.52,17.92-.02,35.84-.01,53.75.83-18.11.13-36.21.4-54.32.26l-.82-.02c-5.36-.11-10.72-.13-16.06,0h-.68s-.72.03-.72.03c1.62-19.58-15.07-38.45-34.71-38.81-16.05-2.31-31.61,8.45-38.02,22.73-2,5.09-1.95,10.7-2.49,16.07h-.76s-.7-.02-.7-.02c-5.35-.11-10.69-.1-16.03.04l-.78.02c-17.44.01-34.87.06-52.3-.02-.42-.01-1.26-.05-1.68-.06-18.64-1.11-37.36-1.67-56.02-.68-12.55.76-24.65,8.25-30.12,19.7-4.36,9.29-3.47,20.03-4.03,29.98-.04,133.35.12,266.69-.08,400.04-.2,8.9.73,17.91,3.72,26.35,3.29,6.46,9.05,11.14,14.41,15.85-1.32-.58-2.63-1.15-3.93-1.73-.52-.18-1.55-.55-2.07-.73-1.1-1.06-2.26-2.05-3.47-2.97-3.17-2.74-6.34-5.46-9.27-8.44l-.28-.91c-.11-.36-.32-1.08-.42-1.44-.36-1.5-1.27-2.76-2.21-3.92-.24-.47-.71-1.41-.95-1.88-1.17-2.82-2.22-5.69-3.06-8.62-.21-1.17-.63-3.51-.84-4.69l-.11-.78c-.46-3.74-.81-7.37-1.28-11.07-.04-.34-.13-1.03-.17-1.38-.31-3.59-.47-7.07-.85-10.61-.04-.35-.11-1.04-.15-1.39-.31-3.59-.47-7.08-.84-10.62-.03-.35-.11-1.04-.14-1.39-.49-6.35-.87-12.67-1.67-18.97-.16-1.68-.37-3.34-.54-5-.27-3.89-.54-7.76-.8-11.62l-.12-1.4c-.25-3.5-.39-6.89-.71-10.34l-.06-.65c-.32-3.56-.52-7.03-.91-10.55l-.16-1.44c-.35-3.81-.69-7.59-1.01-11.37l-.06-.65c-.27-3.55-.41-7.01-.74-10.53-.03-.36-.11-1.08-.14-1.44-.45-7.06-1.07-14.07-1.87-21.08-.06-1.54-.13-3.07-.22-4.59-.23-3.27-.38-6.46-.72-9.68l-.07-.65c-.35-3.56-.59-7.03-.98-10.55-.03-.36-.11-1.08-.15-1.44-.32-3.57-.47-7.06-.91-10.58-.05-.36-.15-1.09-.2-1.45-.49-4.01-.96-8.02-1.41-12.02-.03-.51-.09-1.52-.12-2.03-.08-3.14-.02-6.19-.25-9.29l-.05-.65c-.3-3.56-.47-7.04-.9-10.55-.05-.36-.14-1.09-.19-1.45-.43-3.71-.84-7.33-1.29-11.01-.05-.78-.17-2.32-.23-3.1-.11-3.11-.08-6.16-.33-9.24l-.06-.65c-.31-3.55-.52-7.04-.93-10.56-.04-.36-.13-1.08-.17-1.45-.36-3.8-.71-7.59-1.04-11.38l-.06-.65c-.3-3.87-.6-7.72-.9-11.57-.04-.35-.1-1.05-.13-1.41-.27-3.48-.41-6.9-.76-10.35l-.07-.65c-.32-3.27-.55-6.46-.91-9.7-.07-.57-.2-1.72-.27-2.3-.3-3.87-.59-7.74-.88-11.59l-.12-1.4c-.23-3.46-.31-6.85-.62-10.27l-.07-.72c-.34-3.6-.58-7.15-1.01-10.72-.07-.57-.21-1.72-.29-2.3-.34-3.82-.67-7.63-.98-11.43l-.05-.6c-.26-3.55-.38-7.05-.74-10.58-.03-.34-.1-1.04-.14-1.38-.31-3.48-.49-6.91-.84-10.36l-.07-.64c-.31-3.59-.51-7.14-.87-10.7-.06-.57-.17-1.72-.23-2.29-.4-7.21-.72-14.41-1.7-21.56-.05-.36-.14-1.08-.19-1.44-.38-3.89-.75-7.76-1.11-11.63-.04-.36-.11-1.06-.15-1.41-.31-3.81-.61-7.61-.9-11.41l-.05-.6c-.26-3.54-.38-7.06-.74-10.58-.04-.35-.11-1.04-.15-1.38-.31-3.59-.51-7.13-.9-10.69-.03-.34-.1-1.02-.13-1.36-.2-3.66-.34-7.28-.41-10.93.03-1.5.09-2.99.21-4.48.37-3.53.73-7.04,1.34-10.53l.4-.82c.7-1.17,1.3-2.41,1.72-3.72.37-.91.72-1.83,1.03-2.76.74-.91,1.35-1.92,1.75-3.02,2.26-2.51,4.58-4.97,6.96-7.37.51-.25,1.53-.74,2.03-.99.36-.16,1.07-.48,1.42-.64,1.25-.49,2.44-1.12,3.56-1.86l.72-.39c2.43-.73,4.9-1.33,7.38-1.88.58-.12,1.73-.35,2.31-.46,39.31.4,78.62.05,117.92.48-5.66,5.08-11.09,10.84-14.24,17.83-4.36,11.04.73,22.3,4.14,32.83,17.59.15,35.17.19,52.77.04,1.25-6.97,1.97-14.09,4.16-20.84,3.89-9.31,10.43-17.4,18.26-23.71Z"/>
    <path d="m493.69,72.4c.54.85,1.09,1.7,1.65,2.56,27.14,1.23,54.31.43,81.46.39.36.15,1.07.45,1.42.61,3.18,1.41,6.39,2.83,9.5,4.44l.66.41c3.99,4.02,7.67,8.38,10.82,13.1l.31.6c1.37,4.76,2.43,9.59,3.73,14.37l.19.73c-.2,1.19.02,2.37.49,3.47l.18.69c.63,3.31,1.24,6.69,1.9,10.01l.16.78c.23,1.25.47,2.51.72,3.77,6.41.07,12.86-.01,19.29.3,1.22.09,2.46.15,3.7.19,4.44.91,8.6,2.92,12.49,5.21,1.51,1.5,2.93,3.08,4.39,4.64l.44.48c1.73,1.93,3.43,3.89,5.02,5.95.28.49.86,1.47,1.15,1.96.47,1.25,1.05,2.46,1.7,3.65.34,1.1.72,2.2,1.11,3.31.02.4.07,1.22.1,1.63.62,145.85.12,291.72.25,437.58-.05.97-.02,1.95.08,2.94.04,2-.42,4.25-1.92,5.69-1.26.78-2.17,1.96-2.49,3.42-4.01,4.48-8.58,8.43-13.45,11.95-.31.15-.91.45-1.21.61-1.59.03-2.08,2.53-.06,2.16-2.57.63-5.13,1.35-7.77,1.61-76.77-.07-153.54-.01-230.31-.06,52.4-164.76,106.03-329.13,158.29-493.94-33.49-1.15-66.95,1.93-100.4.24,15.3-.14,30.6-.28,45.91-.62-3.13-18.28-5.46-36.71-9.5-54.83Z"/>
    <path d="m403.4,298.55c21.83-1.48,43.74-1.07,65.61-.85-2.64,11.1-6.2,21.94-9.58,32.82-22.99.15-45.98-.02-68.96.07-19.28-.14-38.56-.01-57.83-.03-1.01.99-2.01,2-3.01,3.02.13-1.23.26-2.46.4-3.68,42.8-.8,85.6-.04,128.4-.38,3.13-10.29,6.48-20.5,9.41-30.85-21.48-.08-42.97-.27-64.44-.12Z"/>
    <path d="m307.3,300.45c7.55-2,15.47-1.97,23.24-2.08,23.72.16,47.44.37,71.17.25-31.42,2.52-63.03-.73-94.41,1.83Z"/>
    <path d="m306.12,300.75l.5-.13c1.23,1.93.27,4.15-.66,5.97-.29-1.94-.51-3.95.16-5.84Z"/>
    <path d="m298.59,326.7c1.33-3.4,2.74-6.78,4.07-10.19-1.09,3.98-2.21,7.95-3.4,11.9-.17-.43-.51-1.28-.67-1.71Z"/>
    <path d="m289.59,354.7c1.04-2.39,2.1-4.76,3.05-7.18-.84,2.94-1.62,5.9-2.41,8.86l-.64-1.68Z"/>
    <path d="m282.59,376.7c1.34-3.4,2.76-6.77,4.05-10.19-1.05,3.98-2.18,7.95-3.38,11.9-.17-.43-.5-1.28-.67-1.71Z"/>
    <path d="m377.11,374.66c11.43-.1,22.87-.04,34.3.24-2.62,10.5-6.32,20.67-9.57,30.98-7.15,21.76-13.81,43.67-20.89,65.46-11.44.26-22.89.42-34.33,0-.11-.43-.33-1.31-.44-1.75l.87.04c10.94.68,21.9.88,32.87.71,9.85-31.66,20.49-63.08,30.06-94.84-11.18-.01-22.37.2-33.48,1.46.15-.58.46-1.72.61-2.3Z"/>
    <path d="m371.73,393.89c-.43-2.38.28-4.71,1.97-6.42.35,2.36-.35,4.66-1.97,6.42Z"/>
    <path d="m310.72,395.73c-.5-1.73-.29-3.6.87-5.02.16.42.5,1.27.67,1.69-.29,1.21-.8,2.32-1.54,3.33Z"/>
    <path d="m276.46,396.95c-.05-2.1.77-4.06,2.3-5.49.33,2.15-.42,4.29-2.3,5.49Z"/>
    <path d="m275.13,398.92c.21-.37.63-1.11.83-1.48.9.86.97,1.86.23,3-.26-.38-.79-1.14-1.06-1.52Z"/>
    <path d="m306.03,404.86c.39.1,1.15.31,1.53.42,19.86,3.06,40.15.43,60.16,1.67-20.25,1-40.53.75-60.8.41-.3-.84-.59-1.68-.89-2.5Z"/>
    <path d="m273.63,405.17l.99-.24c-.21.62-.62,1.85-.83,2.46-11,.22-22.01.22-33,.4-.53,1.49-1.07,2.99-1.58,4.5-.14-.45-.4-1.33-.54-1.78l-.25-1.01c1.28-.33,1.74-1.14,1.36-2.43,11.28-.64,22.63-.3,33.85-1.9Z"/>
    <path d="m230.51,435.6c1.06-2.38,2.17-4.72,3.17-7.11-.87,3.35-1.59,6.75-2.38,10.14-.27-1.02-.53-2.03-.79-3.03Z"/>
    <path d="m355.94,440.42l.49.03c1.45,2.09-.43,4.34-1.51,6.1.03-2.08.03-4.24,1.02-6.13Z"/>
    <path d="m347.09,467.11c.66-1.57,1.62-2.99,2.57-4.39.15,2.21-.22,4.54-1.95,6.1-.16-.42-.46-1.28-.62-1.71Z"/>
  </g>
  <path d="m227.91,4.47c1.93-2.01,4.82-2.57,7.5-2.77,1.31,0,3.95,0,5.26,0,4.15.32,7.89,2.36,11.47,4.33.77.53,1.61.95,2.5,1.25l1.09.4c-.76,1.34.53,2.94,2,2.69.4,0,1.2,0,1.6,0-.87,1.3.39,2.71,1.74,2.84l1.36.48c.5.36,1.5,1.07,2,1.43.42.32,1.25.96,1.67,1.28.82.63,1.64,1.29,2.44,1.96.66.59,1.38,1.1,2.16,1.55.35.19,1.07.58,1.43.77-.09,1.5.6,2.2,2.08,2.08.5.3,1.49.88,1.99,1.18.56,1.08,1.34,2.26,2.66,2.45.4.06,1.2.19,1.6.25-.6,1.42.76,2.84,2.2,2.72.41.04,1.22.12,1.62.15-.51,1.43.82,2.88,2.28,2.74.4.02,1.2.05,1.6.07-.26,1.28.76,2.32,1.83,2.82.32.18.96.55,1.28.74.66.42,1.97,1.26,2.62,1.68l.65.44c.95.85,2.13,1.43,3.44,1.46.62.06,1.85.17,2.47.22,1.27.22,2.56,0,3.72-.6l.7-.27,1.67-.19c1.23.05,2.46-.17,3.64-.56.62-.09,1.84-.28,2.45-.38,1.02.13,1.95-.11,2.79-.71.85-.09,2.56-.27,3.41-.36,1.03.2,1.97-.02,2.83-.65.39-.09,1.17-.26,1.56-.34l1.42-.09c1.21.09,2.43-.1,3.59-.47.61-.1,1.81-.28,2.41-.37,1.01.12,1.94-.11,2.78-.71.82-.11,2.46-.31,3.27-.41,1.01.18,1.94,0,2.8-.59.8-.1,2.4-.31,3.2-.41,1.01.18,1.94-.02,2.79-.59.81-.1,2.41-.29,3.21-.38.99.2,1.93.03,2.8-.53,2.91-1.18,6.09-1.73,9.23-1.49,1,.2,1.93.01,2.79-.57.8-.11,2.39-.33,3.19-.44,1,.18,1.93-.02,2.79-.59.8-.1,2.4-.31,3.2-.41,1,.19,1.94,0,2.8-.55.85-.11,2.55-.34,3.4-.46,1.18.08,2.36-.13,3.49-.51.57-.1,1.7-.28,2.27-.37,1.01.12,1.94-.12,2.78-.72.81-.09,2.44-.27,3.25-.36.99.21,1.93.05,2.81-.48,3.01-1.08,6.23-1.54,9.43-1.54,1.17.11,2.35-.1,3.47-.5.56-.1,1.68-.29,2.24-.38,1,.16,1.94-.03,2.8-.59,2.96-1.06,6.14-1.62,9.3-1.49,1,.19,1.93,0,2.78-.58.85-.12,2.54-.36,3.38-.47,1.18.07,2.36-.14,3.49-.53.57-.09,1.7-.27,2.27-.36,1.01.13,1.93-.11,2.78-.71.81-.1,2.45-.3,3.26-.4,1.01.18,1.94-.02,2.79-.6.8-.09,2.4-.28,3.2-.37.99.23,1.93.07,2.81-.46,2.85-1.02,5.85-1.62,8.87-1.78,3.28-.06,6.66-.08,9.98.04,3.52.54,6.94,2.05,9.64,4.4.88.89,1.89,1.66,3.05,2.2.48.26,1.43.78,1.91,1.04.02.47.07,1.41.09,1.88.2,1.53.96,1.88,2.28,1.05,1.45,4.21,3.66,8.3,4.08,12.81-.12,1.01.13,1.92.75,2.74.1.8.29,2.39.38,3.18-.19,1.01,0,1.94.59,2.8.1.8.31,2.4.41,3.2-.19,1.01,0,1.94.59,2.8.1.8.31,2.4.41,3.2-.19,1.01,0,1.94.59,2.8.1.8.31,2.4.41,3.21-.19,1,.01,1.93.6,2.78.09.8.26,2.4.35,3.2-.26.99-.13,1.94.39,2.83.21.71.62,2.15.83,2.86,4.04,18.12,6.37,36.55,9.5,54.83-15.31.34-30.61.48-45.91.62-32.84-.69-65.68.11-98.51-.52-17.91-.84-35.83-.85-53.75-.83-1.13-22.66-15.4-44.29-36.83-52.52-17.62-6.31-38.56-4.01-53.26,7.99-7.83,6.31-14.37,14.4-18.26,23.71-2.19,6.75-2.91,13.87-4.16,20.84-17.6.15-35.18.11-52.77-.04-3.41-10.53-8.5-21.79-4.14-32.83,3.15-6.99,8.58-12.75,14.24-17.83l.62-.5c.26-.21.79-.65,1.05-.86,1.95-1.67,3.85-3.38,5.74-5.12,3.55-3.1,7.18-6.1,10.84-9.07,1.38-.74,1.71-1.74,1-3.01,4.91-3.37,9.47-7.27,13.35-11.79,2.68-2.53,5.45-4.98,8.23-7.4,1.37-.43,1.99-1.35,1.87-2.78.21-.2.62-.59.83-.79,1.26.02,2.12-.55,2.58-1.69,4.19-4.09,8.57-8,12.53-12.33,2.63-2.57,5.36-5.05,8-7.62,1.63-.49,3.03-1.54,3.9-3.01.9-.66,1.81-1.31,2.7-1.99,1.13-.55,1.51-1.37,1.13-2.47l1.18.17c1.04.21,1.88-.15,2.52-1.09Zm214.63,48.23c-6.34.76-9.72,8.63-5.62,13.48,3.65,5.46,13.35,3.91,14.76-2.59,1.83-5.55-3.46-11.61-9.14-10.89Z"/>
  <path class="cls-1" d="m213.44,111.52c6.41-14.28,21.97-25.04,38.02-22.73,19.64.36,36.33,19.23,34.71,38.81-25.08.01-50.15-.02-75.22,0,.54-5.37.49-10.98,2.49-16.07Z"/>
  <path class="cls-1" d="m401.71,298.62c.42-.02,1.26-.05,1.69-.07,21.47-.15,42.96.04,64.44.12-2.93,10.35-6.28,20.56-9.41,30.85-42.8.34-85.6-.42-128.4.38-.14,1.22-.27,2.45-.4,3.68-.24,2.1-.51,4.21-.86,6.31-1.36,4.18-2.79,8.34-4.15,12.53-1.5,4.03-2.8,8.13-3.9,12.3l-.18.58c-1.62,1.43-2.33,3.53-1.85,5.65-.96,3.2-1.97,6.39-3.02,9.56-1.32,3.42-2.75,6.79-4.08,10.2-1.16,1.42-1.37,3.29-.87,5.02-.98,3.2-2.04,6.38-3.16,9.55-.38-.11-1.14-.32-1.53-.42.3.82.59,1.66.89,2.5,20.27.34,40.55.59,60.8-.41,1.34-4.37,2.7-8.71,4.01-13.06,1.62-1.76,2.32-4.06,1.97-6.42,1.05-3.47,1.96-6.99,2.8-10.51,11.11-1.26,22.3-1.47,33.48-1.46-9.57,31.76-20.21,63.18-30.06,94.84-10.97.17-21.93-.03-32.87-.71l.66-.81c1.73-1.56,2.1-3.89,1.95-6.1,1.74-5.39,3.52-10.78,5.26-16.17,1.08-1.76,2.96-4.01,1.51-6.1-.2-.33-.61-1-.82-1.33-41.41-1.32-82.87-.21-124.31-.49.79-3.39,1.51-6.79,2.38-10.14.73-2.23,1.43-4.45,2.01-6.71.55-2.13,1.08-4.25,1.58-6.38.95-.86,1.6-1.9,1.94-3.11.51-1.51,1.05-3.01,1.58-4.5,10.99-.18,22-.18,33-.4.21-.61.62-1.84.83-2.46.53-1.5,1.05-3,1.57-4.49.74-1.14.67-2.14-.23-3l.5-.49c1.88-1.2,2.63-3.34,2.3-5.49,1.01-3.24,1.99-6.48,2.92-9.74.76-1.01,1.28-2.11,1.58-3.31,1.2-3.95,2.33-7.92,3.38-11.9.72-2.25,1.4-4.52,2.06-6.78.76-1.01,1.27-2.13,1.53-3.35.79-2.96,1.57-5.92,2.41-8.86,1.75-5.25,3.43-10.52,5.07-15.79.74-1.01,1.26-2.12,1.55-3.32,1.19-3.95,2.31-7.92,3.4-11.9,1.13-3.3,2.23-6.6,3.3-9.92.93-1.82,1.89-4.04.66-5.97l.68-.17c31.38-2.56,62.99.69,94.41-1.83Z"/>
  <g>
    <path d="m252.14,6.04c.3-2.21,3.98-.34,2.5,1.25-.89-.3-1.73-.72-2.5-1.25Z"/>
    <path d="m255.73,7.69c.3-1.97,3.54-.17,2.07,1.15-.51-.28-1.55-.86-2.07-1.15Z"/>
    <path d="m218.17,8.09c.44.35,1.32,1.04,1.76,1.39l.45.37c-2.03-.58-3.49,1.25-3.9,3.01-2.64,2.57-5.37,5.05-8,7.62l.55-.67c3.1-3.87,6.11-7.8,9.14-11.72Z"/>
    <path d="m259.68,9.75c1.7-.23,2.28.42,1.73,1.94-.52-.33-1.56-.98-2.08-1.3l.35-.64Z"/>
    <path d="m264.43,15.14c-.22-2.88,4.05.01,1.67,1.28-.42-.32-1.25-.96-1.67-1.28Z"/>
    <path d="m268.54,18.38c-.67-2.11,2.96-1.64,2.56.26-.1.32-.3.96-.4,1.29-.78-.45-1.5-.96-2.16-1.55Z"/>
    <path d="m475.98,17.82c.89-2.76,5.12.37,3.05,2.2-1.16-.54-2.17-1.31-3.05-2.2Z"/>
    <path d="m272.61,20.13c1.79-.27,2.39.36,1.82,1.88-.58-.33-1.73-.98-2.3-1.31l.48-.57Z"/>
    <path d="m480.94,21.06c1.08-1.29,3.64,1.01,2.3,2.11-.55-.06-1.66-.17-2.21-.23-.02-.47-.07-1.41-.09-1.88Z"/>
    <path d="m280.77,26.02c1.68-.32,2.31.29,1.9,1.83-.55-.3-1.66-.89-2.21-1.19l.31-.64Z"/>
    <path d="m284.6,28.9c1.69-.32,2.33.29,1.92,1.82-.56-.3-1.68-.89-2.24-1.19l.32-.63Z"/>
    <path d="m182.99,44.8c3.76-4.41,6.96-9.74,12.26-12.46l-1.88,2.16c-.21.2-.62.59-.83.79-1.35.44-1.97,1.37-1.87,2.78-2.78,2.42-5.55,4.87-8.23,7.4l.55-.67Z"/>
    <path d="m321.14,35.38c-.43-1.82,2.97-1.36,2.08.26-.39.08-1.17.25-1.56.34l-.52-.6Z"/>
    <path d="m293.89,37.58c-1.56-2.27,2.86-2.07,1.3.08l-.65.36-.65-.44Z"/>
    <path d="m302.74,38.2c-.25-1.82,3.09-.87,2.13.63l-.7.27c-.36-.23-1.07-.68-1.43-.9Z"/>
    <path d="m157.76,68.78c4.24-4.51,7.44-10.44,13.18-13.26-.46.43-1.39,1.3-1.85,1.74-1.07.75-1.4,1.75-1,3.01-3.66,2.97-7.29,5.97-10.84,9.07l.51-.56Z"/>
    <path d="m27.28,75.76c.01-2.29,3.88-2.14,4.81-.44l-.17.02c-.58.11-1.73.34-2.31.46-.58,0-1.75-.03-2.33-.04Z"/>
    <path d="m576.93,74.66c1.49-.75,2.17-.35,2.04,1.21l-.75.09c-.35-.16-1.06-.46-1.42-.61l.13-.69Z"/>
    <path d="m16.53,80.57c-2.07-.47.4-3.08,1.32-1.33l.1.69c-.35.16-1.06.48-1.42.64Z"/>
    <path d="m587.39,79.01c1.54-.37,2.12.22,1.73,1.77l-.74.03-.66-.41c-.08-.35-.24-1.04-.33-1.39Z"/>
    <path d="m7.54,88.93c2.12-3.08,4.29-6.32,7.68-8.12l-.72.75c-2.38,2.4-4.7,4.86-6.96,7.37Z"/>
    <path d="m5.79,91.95c-1.48-1.07.08-3.93,1.75-3.02-.4,1.1-1.01,2.11-1.75,3.02Z"/>
    <path d="m4.14,94.57c-1.35-1.01.19-3.6,1.65-2.62-.31.93-.66,1.85-1.03,2.76l-.62-.14Z"/>
    <path d="m602.45,101.85c1.72.51,1.96,1.43.73,2.78-.61-.83-.85-1.76-.73-2.78Z"/>
    <path d="m1.07,114.97c.1-3.85.33-7.69.71-11.52-.21,2.1-.33,4.22-.48,6.33-.12,1.49-.18,2.98-.21,4.48l-.02.71Z"/>
    <path d="m603.53,107.32c1.46.35,1.68,1.15.66,2.4l-.76-.11-.19-.73c.07-.39.22-1.17.29-1.56Z"/>
    <path d="m605.01,111.86c1.16.86,1.05,1.66-.35,2.4l-.56-.49-.18-.69c.28-.31.82-.92,1.09-1.22Z"/>
    <path d="m605.42,116.75c1.71.51,1.96,1.44.74,2.8-.62-.84-.87-1.77-.74-2.8Z"/>
    <path d="m606.44,122.25c1.41.55,1.54,1.39.38,2.54l-.66-.23-.16-.78c.11-.38.33-1.14.44-1.53Z"/>
    <path d="m1.48,125.02l.02.17c.03.34.1,1.02.13,1.36.04,1.43,0,2.87,0,4.32-2.39-.53-1.89-4.66-.15-5.85Z"/>
    <path d="m82.95,128.14c18.55-1.23,37.17-.59,55.75-.59.42.01,1.26.05,1.68.06,17.4,1.31,34.89,1.3,52.3.02l.78-.02c5.34-.12,10.68-.08,16.03-.04h.7c25.54,1.51,51.17,1.57,76.7.01h.68c5.35-.11,10.69-.05,16.06-.01l.82.02c50.65,2.16,101.37.43,152.05.97-18.25,56.24-36.29,112.56-54.32,168.87-31.77.39-63.55-.12-95.32.29-.25,1.01-.5,2.02-.74,3.03-.67,1.89-.45,3.9-.16,5.84-1.07,3.32-2.17,6.62-3.3,9.92-1.33,3.41-2.74,6.79-4.07,10.19-1.16,1.43-1.38,3.3-.88,5.03-1.64,5.27-3.32,10.54-5.07,15.79-.95,2.42-2.01,4.79-3.05,7.18-1.18,1.41-1.4,3.29-.89,5.03-.66,2.26-1.34,4.53-2.06,6.78-1.29,3.42-2.71,6.79-4.05,10.19-1.16,1.42-1.39,3.28-.91,5.02-.93,3.26-1.91,6.5-2.92,9.74-1.53,1.43-2.35,3.39-2.3,5.49l-.5.49c-.2.37-.62,1.11-.83,1.48-.59,2.06-1.06,4.15-1.5,6.25-11.22,1.6-22.57,1.26-33.85,1.9-1.39.18-1.84.99-1.36,2.43l.25,1.01c-.89,1.25-1.48,2.7-1.57,4.25-.43,2.34-.94,4.64-1.41,7.02-.58,2.26-1.28,4.48-2.01,6.71-1,2.39-2.11,4.73-3.17,7.11-.57,1.25-1.11,2.5-1.66,3.77,42.36.94,84.76-.97,127.09,1.05-.99,1.89-.99,4.05-1.02,6.13-1.74,5.39-3.52,10.78-5.26,16.17-.95,1.4-1.91,2.82-2.57,4.39-.96.62-1.27,1.45-.91,2.48.11.44.33,1.32.44,1.75-16.63,49.88-32.25,100.09-48.38,150.13,33.71.23,67.43.06,101.15.08,76.77.05,153.54,0,230.31.06-16.67,1.63-33.44.89-50.16.94-158.33.07-316.67-.05-475,.06-11.73-.39-23.77,1.38-35.24-1.85,1.49.04,2.97.08,4.47.1-7.15-4.87-15.29-9.1-19.55-16.98-4.37-7.26-3.2-16.23-3.74-24.29.09-136.68.11-273.36-.01-410.05.48-7.75-.53-16.34,3.76-23.26,5.62-10.42,16.86-17.63,28.72-18.14Z"/>
    <path d="m625.77,128.51c.45-1.96,4.13-1.82,4.1.31-1.24-.04-2.48-.1-3.7-.19l-.4-.12Z"/>
    <path d="m643.14,134.7c1.04-1.25,1.91-1.15,2.59.3-.94.69-1.8.59-2.59-.3Z"/>
    <path d="m2.48,137l.05.24c.04.34.11,1.03.15,1.38.02,1.4-.02,2.81-.05,4.23-2.32-.59-1.88-4.66-.15-5.85Z"/>
    <path d="m646.41,137.4c.86-1.33,3.6.18,2.75,1.6-.49.04-1.48.11-1.97.15l-.44-.48c-.09-.32-.26-.95-.34-1.27Z"/>
    <path d="m653.36,147.06c1.74-.76,3.14,1.84,2.16,3.23l-.46.42c-.65-1.19-1.23-2.4-1.7-3.65Z"/>
    <path d="m3.37,148.97l.05.23.05.6c.13,1.69.16,3.38.16,5.08-2.36-.57-2.02-4.68-.26-5.91Z"/>
    <path d="m655.52,150.29c1.71-.15,2.18,2.38,1.2,3.45l-.55.28c-.39-1.11-.77-2.21-1.11-3.31l.46-.42Z"/>
    <path d="m656.72,153.74c1.38.9,1.38,1.73-.02,2.49l-.43-.58c-.03-.41-.08-1.23-.1-1.63l.55-.28Z"/>
    <path d="m4.33,160.99l.04.22c.04.35.11,1.05.15,1.41.03,1.41,0,2.84-.01,4.27-2.32-.6-1.9-4.68-.18-5.9Z"/>
    <path d="m5.54,173.94l.09.31c.05.36.14,1.08.19,1.44-.07,1.05-.15,2.11-.24,3.17-2.13-.36-1.8-4.13-.04-4.92Z"/>
    <path d="m6.08,185.97c.33,1.34.52,2.71.51,4.1-2.12.17-2.33-3.49-.51-4.1Z"/>
    <path d="m7.48,197.02l.04.23c.06.57.17,1.72.23,2.29-.06,1.09-.13,2.19-.2,3.29-2.28-.58-1.75-4.63-.07-5.81Z"/>
    <path d="m8.53,209.92l.09.32.07.64c0,1.33-.02,2.66-.06,4-2.2-.32-1.96-4.2-.1-4.96Z"/>
    <path d="m9.47,221l.06.24c.04.34.11,1.04.14,1.38.02,1.4-.01,2.81-.04,4.23-2.32-.59-1.89-4.66-.16-5.85Z"/>
    <path d="m10.36,232.97l.05.23.05.6c.13,1.68.16,3.38.17,5.08-2.36-.56-2.02-4.68-.27-5.91Z"/>
    <path d="m11.4,245.01l.04.22c.08.58.22,1.73.29,2.3-.06,1.1-.13,2.2-.2,3.3-2.25-.6-1.77-4.6-.13-5.82Z"/>
    <path d="m12.54,257.82l.2.43.07.72c-.07.99-.16,1.99-.26,2.99-1.94-.27-1.85-3.74-.01-4.14Z"/>
    <path d="m13.38,269l.05.24.12,1.4c.03,1.4.02,2.82,0,4.24-2.33-.59-1.94-4.69-.18-5.88Z"/>
    <path d="m14.39,282.01l.04.22c.07.58.2,1.73.27,2.3-.04,1.1-.07,2.19-.11,3.3-2.31-.54-1.87-4.6-.2-5.82Z"/>
    <path d="m15.52,293.92l.09.31.07.65c.02,1.33,0,2.66-.04,4-2.21-.31-1.97-4.19-.12-4.96Z"/>
    <path d="m16.39,305l.05.23c.03.36.09,1.06.13,1.41.02,1.4-.01,2.82-.04,4.24-2.32-.61-1.88-4.69-.14-5.88Z"/>
    <path d="m17.39,317.92l.08.29.06.65c.04,1.34.03,2.7,0,4.06-2.22-.33-1.97-4.2-.13-5Z"/>
    <path d="m18.48,329.94l.09.3c.04.37.13,1.09.17,1.45-.06,1.06-.14,2.12-.22,3.19-2.15-.36-1.81-4.15-.04-4.94Z"/>
    <path d="m332.64,330.56c19.27.02,38.55-.11,57.83.03-2.76,15.16-8.36,29.56-13.36,44.07-.15.58-.46,1.72-.61,2.3-.84,3.52-1.75,7.04-2.8,10.51-1.69,1.71-2.4,4.04-1.97,6.42-1.31,4.35-2.67,8.69-4.01,13.06-20.01-1.24-40.3,1.39-60.16-1.67,1.12-3.17,2.18-6.35,3.16-9.55.74-1.01,1.25-2.12,1.54-3.33,1.19-3.95,2.32-7.91,3.41-11.89,1.05-3.17,2.06-6.36,3.02-9.56,1.5-1.5,2.19-3.55,1.85-5.65l.18-.58c1.5-4.04,2.8-8.14,3.9-12.3,1.36-4.19,2.79-8.35,4.15-12.53,1.2-3.15,2.59-6.22,3.87-9.33Z"/>
    <path d="m19.57,341.93l.1.32.06.65c.03,1.31,0,2.64-.03,3.97-2.2-.31-1.99-4.19-.13-4.94Z"/>
    <path d="m20.06,352.95v-.81c.06.78.18,2.32.23,3.1.08,1.88.1,3.76.19,5.65-.37-2.63-.48-5.29-.42-7.94Z"/>
    <path d="m21.48,365.94l.1.31c.05.36.14,1.09.19,1.45-.07,1.05-.15,2.11-.24,3.17-2.13-.36-1.8-4.14-.05-4.93Z"/>
    <path d="m22.57,377.93l.1.32.05.65c.03,1.31.02,2.64-.02,3.97-2.21-.3-1.99-4.19-.13-4.94Z"/>
    <path d="m22.98,388.96v-.77c.02.51.08,1.52.11,2.03.11,2.2.18,4.4.32,6.61-.36-2.61-.45-5.25-.43-7.87Z"/>
    <path d="m24.41,401.93l.09.31c.05.36.15,1.09.2,1.45-.05,1.06-.1,2.12-.17,3.18-2.15-.33-1.88-4.13-.12-4.94Z"/>
    <path d="m25.52,413.95l.09.32c.04.36.12,1.08.15,1.44-.07,1.05-.15,2.11-.24,3.17-2.14-.37-1.79-4.17,0-4.93Z"/>
    <path d="m26.63,425.93l.11.33.07.65c-.02,1.32-.1,2.65-.23,3.99-2.14-.43-1.76-4.23.05-4.97Z"/>
    <path d="m26.16,436.64l1.37-.05c.09,1.52.16,3.05.22,4.59-.03.8-.08,2.39-.11,3.18l-.04.84c-.59-2.84-1.02-5.7-1.44-8.56Z"/>
    <path d="m28.08,450.96c.31,1.34.49,2.71.49,4.1-2.13.17-2.32-3.5-.49-4.1Z"/>
    <path d="m29.54,461.95l.08.31c.03.36.11,1.08.14,1.44-.06,1.06-.14,2.11-.22,3.18-2.16-.36-1.81-4.18,0-4.93Z"/>
    <path d="m30.42,473.92l.08.31.06.65c.04,1.34.01,2.68-.03,4.04-2.21-.35-1.96-4.21-.11-5Z"/>
    <path d="m31.48,485.94l.09.31.16,1.44c-.06,1.06-.12,2.12-.2,3.19-2.16-.36-1.83-4.16-.05-4.94Z"/>
    <path d="m32.54,497.92l.1.32.06.65c.01,1.32-.02,2.65-.06,3.99-2.2-.33-1.96-4.2-.1-4.96Z"/>
    <path d="m33.37,509l.04.23.12,1.4c.05,1.41.04,2.82.03,4.25-2.33-.58-1.95-4.69-.19-5.88Z"/>
    <path d="m34.29,522.04l.04.21c.17,1.66.38,3.32.54,5l-.04.54c-2.45-.26-2.23-4.51-.54-5.75Z"/>
    <path d="m35.11,534.96c.29,1.34.48,2.72.47,4.11-2.14.17-2.3-3.52-.47-4.11Z"/>
    <path d="m36.49,545.99l.05.23c.03.35.11,1.04.14,1.39.01,1.4-.03,2.82-.06,4.24-2.32-.59-1.86-4.67-.13-5.86Z"/>
    <path d="m37.46,558l.06.23c.04.35.11,1.04.15,1.39,0,1.4-.02,2.81-.04,4.23-2.33-.58-1.89-4.67-.17-5.85Z"/>
    <path d="m38.47,569.99l.05.24c.04.35.13,1.04.17,1.38-.02,1.41-.09,2.83-.16,4.25-2.27-.64-1.76-4.68-.06-5.87Z"/>
    <path d="m39.49,582.05l.48.63.11.78c-.25.22-.74.65-.99.87-1.22-.99-1.09-1.75.4-2.28Z"/>
    <path d="m656.52,593.23l.33-.49c1.74.27,1.49,3.4-.25,3.43-.1-.99-.13-1.97-.08-2.94Z"/>
    <path d="m43.45,596.42l.53.35c.24.47.71,1.41.95,1.88l-.46.46c-1.58.59-2.64-2.16-1.02-2.69Z"/>
    <path d="m45.72,602.73c.36-.04,1.06-.12,1.42-.16.1.36.31,1.08.42,1.44-1.42.73-2.03.3-1.84-1.28Z"/>
    <path d="m47.84,604.92c2.93,2.98,6.1,5.7,9.27,8.44.06.64.18,1.9.25,2.54-3.48-3.38-7.11-6.72-9.52-10.98Z"/>
    <path d="m60.58,616.33c.52.18,1.55.55,2.07.73l.23.69c-1.51.8-2.28.33-2.3-1.42Z"/>
    <path d="m637.53,617.84c.3-.16.9-.46,1.21-.61l.74-.05c1.27.78-.32,3.14-1.46,2.09-.13-.36-.37-1.08-.49-1.43Z"/>
  </g>
  <g>
    <path d="m219.93,9.48c-.57-1.5,1.39-3.07,2.73-2.16l.42.54c-.89.68-1.8,1.33-2.7,1.99l-.45-.37Z"/>
    <path d="m257.8,8.84c.47.23,1.41.68,1.88.91l-.35.64c-.4,0-1.2,0-1.6,0,.02-.39.05-1.15.07-1.54Z"/>
    <path d="m261.41,11.69c1.57.02,1.91.69,1.02,2.02l-1.36-.48c.08-.39.26-1.16.34-1.54Z"/>
    <path d="m271.1,18.64c.38.37,1.13,1.12,1.51,1.49l-.48.57c-.36-.19-1.08-.58-1.43-.77.1-.33.3-.97.4-1.29Z"/>
    <path d="m195.95,32.81c3.81-4.82,7.77-9.76,13.08-13l-.55.67c-3.96,4.33-8.34,8.24-12.53,12.33Z"/>
    <path d="m274.43,22.01c1.61-.29,2.21.36,1.77,1.95-.5-.3-1.49-.88-1.99-1.18l.22-.77Z"/>
    <path d="m278.87,24.94c.47.27,1.43.81,1.9,1.08l-.31.64c-.4-.06-1.2-.19-1.6-.25.01-.37.01-1.11.01-1.47Z"/>
    <path d="m282.67,27.85c.48.26,1.45.79,1.93,1.05l-.32.63c-.4-.03-1.21-.11-1.62-.15,0-.38.01-1.15.01-1.53Z"/>
    <path d="m286.52,30.72c1.45-.37,2,.17,1.64,1.62-.4-.02-1.2-.05-1.6-.07-.01-.39-.03-1.16-.04-1.55Z"/>
    <path d="m290.38,33.76c1.59.15,1.89.86.89,2.14-.32-.19-.96-.56-1.28-.74.1-.35.29-1.05.39-1.4Z"/>
    <path d="m298.04,38.81c.64.05,1.91.14,2.54.18l-.13.71c-.62-.05-1.85-.16-2.47-.22l.06-.67Z"/>
    <path d="m170.94,55.52c3.9-3.7,7.74-7.49,12.05-10.72l-.55.67c-3.88,4.52-8.44,8.42-13.35,11.79.46-.44,1.39-1.31,1.85-1.74Z"/>
    <path d="m151.51,74.46c2.06-1.92,4.13-3.83,6.25-5.68l-.51.56c-1.89,1.74-3.79,3.45-5.74,5.12Z"/>
    <path d="m32.09,75.32c39.62-1.59,79.33-.6,118.98-.49l-.61.49-.62.5c-39.3-.43-78.61-.08-117.92-.48l.17-.02Z"/>
    <path d="m495.34,74.96c27.19-.73,54.39-.38,81.59-.3l-.13.69c-27.15.04-54.32.84-81.46-.39Z"/>
    <path d="m22.23,77.68c1.64-.75,3.26-1.59,5.05-1.92.58,0,1.75.03,2.33.04-2.48.55-4.95,1.15-7.38,1.88Z"/>
    <path d="m578.22,75.96l.75-.09c3.03.03,5.84,1.67,8.42,3.14.09.35.25,1.04.33,1.39-3.11-1.61-6.32-3.03-9.5-4.44Z"/>
    <path d="m17.85,79.24c.09-1.69,2.69-2.68,3.66-1.17-1.12.74-2.31,1.37-3.56,1.86l-.1-.69Z"/>
    <path d="m588.38,80.81l.74-.03c5.13,2.24,8.2,7.93,10.08,13.13-3.15-4.72-6.83-9.08-10.82-13.1Z"/>
    <path d="m4.14,94.57l.62.14c-.42,1.31-1.02,2.55-1.72,3.72-1.44-1.04-.58-3.63,1.1-3.86Z"/>
    <path d="m599.51,94.51c1.28,2.3,2.69,4.67,2.94,7.34-.12,1.02.12,1.95.73,2.78.09.67.27,2.01.35,2.69-.07.39-.22,1.17-.29,1.56-1.3-4.78-2.36-9.61-3.73-14.37Z"/>
    <path d="m1.78,103.45c.17-1.43.52-2.81.86-4.2-.61,3.49-.97,7-1.34,10.53.15-2.11.27-4.23.48-6.33Z"/>
    <path d="m603.43,109.61l.76.11c.2.54.62,1.61.82,2.14-.27.3-.81.91-1.09,1.22-.47-1.1-.69-2.28-.49-3.47Z"/>
    <path d="m1.07,114.97l.02-.71c.07,3.65.21,7.27.41,10.93l-.02-.17c-.26-3.37-.54-6.69-.41-10.05Z"/>
    <path d="m604.1,113.77l.56.49c.19.62.57,1.87.76,2.49-.13,1.03.12,1.96.74,2.8.07.67.21,2.03.28,2.7-.11.39-.33,1.15-.44,1.53-.66-3.32-1.27-6.7-1.9-10.01Z"/>
    <path d="m606.16,124.56l.66.23c6.04,2.38,12.67,2.26,18.95,3.72l.4.12c-6.43-.31-12.88-.23-19.29-.3-.25-1.26-.49-2.52-.72-3.77Z"/>
    <path d="m1.63,126.55c.39,3.56.59,7.1.9,10.69l-.05-.24c-.46-2.02-.81-4.07-.85-6.13,0-1.45.04-2.89,0-4.32Z"/>
    <path d="m52.56,146.57c5.47-11.45,17.57-18.94,30.12-19.7,18.66-.99,37.38-.43,56.02.68-18.58,0-37.2-.64-55.75.59-11.86.51-23.1,7.72-28.72,18.14-4.29,6.92-3.28,15.51-3.76,23.26.12,136.69.1,273.37.01,410.05.54,8.06-.63,17.03,3.74,24.29,4.26,7.88,12.4,12.11,19.55,16.98-1.5-.02-2.98-.06-4.47-.1-2.34-.18-5.46-.47-6.42-3.01l-.23-.69c1.3.58,2.61,1.15,3.93,1.73-5.36-4.71-11.12-9.39-14.41-15.85-2.99-8.44-3.92-17.45-3.72-26.35.2-133.35.04-266.69.08-400.04.56-9.95-.33-20.69,4.03-29.98Z"/>
    <path d="m193.46,127.61c5.34-.14,10.68-.15,16.03-.04-5.35-.04-10.69-.08-16.03.04Z"/>
    <path d="m287.57,127.57c5.34-.13,10.7-.11,16.06,0-5.37-.04-10.71-.1-16.06,0Z"/>
    <path d="m140.38,127.61c17.43.08,34.86.03,52.3.02-17.41,1.28-34.9,1.29-52.3-.02Z"/>
    <path d="m210.19,127.58h.76c25.07,0,50.14.03,75.22.02l.72-.02c-25.53,1.56-51.16,1.5-76.7,0Z"/>
    <path d="m304.45,127.59c18.11.14,36.21-.13,54.32-.26,32.83.63,65.67-.17,98.51.52,33.45,1.69,66.91-1.39,100.4-.24-52.26,164.81-105.89,329.18-158.29,493.94-33.72-.02-67.44.15-101.15-.08,16.13-50.04,31.75-100.25,48.38-150.13,11.44.42,22.89.26,34.33,0,7.08-21.79,13.74-43.7,20.89-65.46,3.25-10.31,6.95-20.48,9.57-30.98-11.43-.28-22.87-.34-34.3-.24,5-14.51,10.6-28.91,13.36-44.07,22.98-.09,45.97.08,68.96-.07,3.38-10.88,6.94-21.72,9.58-32.82-21.87-.22-43.78-.63-65.61.85-.43.02-1.27.05-1.69.07-23.73.12-47.45-.09-71.17-.25-7.77.11-15.69.08-23.24,2.08l-.68.17-.5.13c.24-1.01.49-2.02.74-3.03,31.77-.41,63.55.1,95.32-.29,18.03-56.31,36.07-112.63,54.32-168.87-50.68-.54-101.4,1.19-152.05-.97Z"/>
    <path d="m642.36,134.03l.78.67c.79.89,1.65.99,2.59.3l.68,2.4c.08.32.25.95.34,1.27-1.46-1.56-2.88-3.14-4.39-4.64Z"/>
    <path d="m2.68,138.62c.36,3.52.48,7.04.74,10.58l-.05-.23c-.41-2.02-.72-4.06-.74-6.12.03-1.42.07-2.83.05-4.23Z"/>
    <path d="m647.19,139.15c.49-.04,1.48-.11,1.97-.15,1.07,2.01,2.09,4.03,3.05,6.1-1.59-2.06-3.29-4.02-5.02-5.95Z"/>
    <path d="m3.47,149.8c.29,3.8.59,7.6.9,11.41l-.04-.22c-.36-2.02-.64-4.06-.7-6.11,0-1.7-.03-3.39-.16-5.08Z"/>
    <path d="m656.27,155.65l.43.58c1.73,11.96.63,24.24.87,36.34-.02,131.67-.12,263.35.06,395.02-.08,1.73-.19,3.49-.78,5.15l-.33.49c-.13-145.86.37-291.73-.25-437.58Z"/>
    <path d="m4.52,162.62c.36,3.87.73,7.74,1.11,11.63l-.09-.31c-.66-2.29-1.02-4.67-1.03-7.05.02-1.43.04-2.86.01-4.27Z"/>
    <path d="m5.82,175.69c.98,7.15,1.3,14.35,1.7,21.56l-.04-.23c-.48-2.29-.81-4.62-.89-6.95,0-1.39-.18-2.76-.51-4.1-.45-2.34-.62-4.74-.5-7.11.09-1.06.17-2.12.24-3.17Z"/>
    <path d="m7.75,199.54c.36,3.56.56,7.11.87,10.7l-.09-.32c-.68-2.3-1.06-4.69-.98-7.09.07-1.1.14-2.2.2-3.29Z"/>
    <path d="m8.69,210.88c.35,3.45.53,6.88.84,10.36l-.06-.24c-.45-2.02-.82-4.06-.84-6.12.04-1.34.07-2.67.06-4Z"/>
    <path d="m9.67,222.62c.36,3.53.48,7.03.74,10.58l-.05-.23c-.41-2.02-.71-4.07-.73-6.12.03-1.42.06-2.83.04-4.23Z"/>
    <path d="m10.46,233.8c.31,3.8.64,7.61.98,11.43l-.04-.22c-.39-2.03-.7-4.07-.77-6.13-.01-1.7-.04-3.4-.17-5.08Z"/>
    <path d="m11.73,247.53c.43,3.57.67,7.12,1.01,10.72l-.2-.43c-.97-2.19-1.12-4.63-1.01-6.99.07-1.1.14-2.2.2-3.3Z"/>
    <path d="m12.81,258.97c.31,3.42.39,6.81.62,10.27l-.05-.24c-.49-2.32-.92-4.67-.83-7.04.1-1,.19-2,.26-2.99Z"/>
    <path d="m13.55,270.64c.29,3.85.58,7.72.88,11.59l-.04-.22c-.47-2.35-.81-4.74-.83-7.13.01-1.42.02-2.84,0-4.24Z"/>
    <path d="m14.7,284.53c.36,3.24.59,6.43.91,9.7l-.09-.31c-.56-1.99-.94-4.03-.93-6.09.04-1.11.07-2.2.11-3.3Z"/>
    <path d="m15.68,294.88c.35,3.45.49,6.87.76,10.35l-.05-.23c-.41-2.02-.74-4.06-.75-6.12.03-1.34.06-2.67.04-4Z"/>
    <path d="m16.57,306.64c.3,3.85.6,7.7.9,11.57l-.08-.29c-.57-2.31-.87-4.67-.86-7.04.03-1.42.06-2.84.04-4.24Z"/>
    <path d="m17.53,318.86c.33,3.79.68,7.58,1.04,11.38l-.09-.3c-.6-2.29-.97-4.66-.96-7.02.04-1.36.05-2.72,0-4.06Z"/>
    <path d="m297.71,331.73c-.5-1.73-.28-3.6.88-5.03.16.43.5,1.28.67,1.71-.29,1.2-.81,2.31-1.55,3.32Z"/>
    <path d="m329.63,333.58c1-1.02,2-2.03,3.01-3.02-1.28,3.11-2.67,6.18-3.87,9.33.35-2.1.62-4.21.86-6.31Z"/>
    <path d="m18.74,331.69c.41,3.52.62,7.01.93,10.56l-.1-.32c-.72-2.28-1.12-4.67-1.05-7.05.08-1.07.16-2.13.22-3.19Z"/>
    <path d="m19.73,342.9c.25,3.08.22,6.13.33,9.24v.81c-.18-2.03-.36-4.05-.36-6.08.03-1.33.06-2.66.03-3.97Z"/>
    <path d="m320.72,364.72c1.1-4.17,2.4-8.27,3.9-12.3-1.1,4.16-2.4,8.26-3.9,12.3Z"/>
    <path d="m288.7,359.73c-.51-1.74-.29-3.62.89-5.03l.64,1.68c-.26,1.22-.77,2.34-1.53,3.35Z"/>
    <path d="m20.29,355.24c.45,3.68.86,7.3,1.29,11.01l-.1-.31c-.49-1.66-.9-3.34-1-5.05-.09-1.89-.11-3.77-.19-5.65Z"/>
    <path d="m318.69,370.95c-.48-2.12.23-4.22,1.85-5.65.34,2.1-.35,4.15-1.85,5.65Z"/>
    <path d="m21.77,367.7c.43,3.51.6,6.99.9,10.55l-.1-.32c-.71-2.29-1.14-4.68-1.04-7.06.09-1.06.17-2.12.24-3.17Z"/>
    <path d="m281.68,381.72c-.48-1.74-.25-3.6.91-5.02.17.43.5,1.28.67,1.71-.3,1.2-.82,2.3-1.58,3.31Z"/>
    <path d="m22.72,378.9c.23,3.1.17,6.15.25,9.29v.77c-.13-2.03-.28-4.06-.27-6.09.04-1.33.05-2.66.02-3.97Z"/>
    <path d="m311.59,390.71c1.33-3.41,2.76-6.78,4.08-10.2-1.09,3.98-2.22,7.94-3.41,11.89-.17-.42-.51-1.27-.67-1.69Z"/>
    <path d="m23.09,390.22c.45,4,.92,8.01,1.41,12.02l-.09-.31c-.48-1.67-.84-3.38-1-5.1-.14-2.21-.21-4.41-.32-6.61Z"/>
    <path d="m273.63,405.17c.44-2.1.91-4.19,1.5-6.25.27.38.8,1.14,1.06,1.52-.52,1.49-1.04,2.99-1.57,4.49l-.99.24Z"/>
    <path d="m24.7,403.69c.44,3.52.59,7.01.91,10.58l-.09-.32c-.66-2.3-1.07-4.69-.99-7.08.07-1.06.12-2.12.17-3.18Z"/>
    <path d="m238.42,409.5c-.48-1.44-.03-2.25,1.36-2.43.38,1.29-.08,2.1-1.36,2.43Z"/>
    <path d="m237.1,414.76c.09-1.55.68-3,1.57-4.25.14.45.4,1.33.54,1.78-.34,1.21-.99,2.25-1.94,3.11l-.17-.64Z"/>
    <path d="m235.69,421.78c.47-2.38.98-4.68,1.41-7.02l.17.64c-.5,2.13-1.03,4.25-1.58,6.38Z"/>
    <path d="m25.76,415.71c.39,3.52.63,6.99.98,10.55l-.11-.33c-.77-2.27-1.21-4.66-1.11-7.05.09-1.06.17-2.12.24-3.17Z"/>
    <path d="m26.81,426.91c.34,3.22.49,6.41.72,9.68l-1.37.05c.12-1.92.25-3.84.42-5.74.13-1.34.21-2.67.23-3.99Z"/>
    <path d="m228.85,439.37c.55-1.27,1.09-2.52,1.66-3.77.26,1,.52,2.01.79,3.03,41.44.28,82.9-.83,124.31.49.21.33.62,1,.82,1.33l-.49-.03c-42.33-2.02-84.73-.11-127.09-1.05Z"/>
    <path d="m27.75,441.18c.8,7.01,1.42,14.02,1.87,21.08l-.08-.31c-.6-2.25-.89-4.57-.97-6.89,0-1.39-.18-2.76-.49-4.1-.41-2.18-.49-4.4-.44-6.6.03-.79.08-2.38.11-3.18Z"/>
    <path d="m29.76,463.7c.33,3.52.47,6.98.74,10.53l-.08-.31c-.6-2.3-.97-4.67-.88-7.04.08-1.07.16-2.12.22-3.18Z"/>
    <path d="m346.18,469.59c-.36-1.03-.05-1.86.91-2.48.16.43.46,1.29.62,1.71l-.66.81-.87-.04Z"/>
    <path d="m30.56,474.88c.32,3.78.66,7.56,1.01,11.37l-.09-.31c-.6-2.29-.97-4.66-.95-7.02.04-1.36.07-2.7.03-4.04Z"/>
    <path d="m31.73,487.69c.39,3.52.59,6.99.91,10.55l-.1-.32c-.68-2.29-1.08-4.67-1.01-7.04.08-1.07.14-2.13.2-3.19Z"/>
    <path d="m32.7,498.89c.32,3.45.46,6.84.71,10.34l-.04-.23c-.41-2.03-.73-4.07-.73-6.12.04-1.34.07-2.67.06-3.99Z"/>
    <path d="m33.53,510.63c.26,3.86.53,7.73.8,11.62l-.04-.21c-.41-2.37-.71-4.77-.73-7.16.01-1.43.02-2.84-.03-4.25Z"/>
    <path d="m34.87,527.25c.8,6.3,1.18,12.62,1.67,18.97l-.05-.23c-.49-2.28-.83-4.6-.91-6.92.01-1.39-.18-2.77-.47-4.11-.42-2.37-.44-4.79-.28-7.17l.04-.54Z"/>
    <path d="m36.68,547.61c.37,3.54.53,7.03.84,10.62l-.06-.23c-.45-2.03-.81-4.09-.84-6.15.03-1.42.07-2.84.06-4.24Z"/>
    <path d="m37.67,559.62c.38,3.54.54,7.02.85,10.61l-.05-.24c-.46-2.02-.82-4.08-.84-6.14.02-1.42.05-2.83.04-4.23Z"/>
    <path d="m38.69,571.61c.47,3.7.82,7.33,1.28,11.07l-.48-.63c-1.06-1.88-.95-4.12-.96-6.19.07-1.42.14-2.84.16-4.25Z"/>
    <path d="m40.08,583.46c.21,1.18.63,3.52.84,4.69l-.03.49c-1.92.08-2.67-2.89-1.8-4.31.25-.22.74-.65.99-.87Z"/>
    <path d="m40.92,588.15c.84,2.93,1.89,5.8,3.06,8.62l-.53-.35c-2.75-1.48-2.55-5.11-2.56-7.78l.03-.49Z"/>
    <path d="m44.93,598.65c.94,1.16,1.85,2.42,2.21,3.92-.36.04-1.06.12-1.42.16-1.51-.79-1.93-2-1.25-3.62l.46-.46Z"/>
    <path d="m652.19,605.28c.32-1.46,1.23-2.64,2.49-3.42.81,1.51-.67,4.04-2.49,3.42Z"/>
    <path d="m638.74,617.23c4.87-3.52,9.44-7.47,13.45-11.95-3.26,4.56-6.27,11.61-12.71,11.9l-.74.05Z"/>
    <path d="m57.11,613.36c1.21.92,2.37,1.91,3.47,2.97-1.19.88-2.26.73-3.22-.43-.07-.64-.19-1.9-.25-2.54Z"/>
    <path d="m637.47,620c-2.02.37-1.53-2.13.06-2.16.12.35.36,1.07.49,1.43l-.55.73Z"/>
  </g>
</svg>