<?xml version="1.0" encoding="UTF-8"?>
<svg id="_图层_1" data-name="图层 1" xmlns="http://www.w3.org/2000/svg" viewBox="0 0 192 192">
  <defs>
    <style>
      .cls-1 {
        fill: none;
        stroke: #000;
        stroke-linecap: round;
        stroke-linejoin: round;
        stroke-width: 4px;
      }
    </style>
  </defs>
  <path class="cls-1" d="m138.05,53.35c5.56-.21,14.36-1.43,17.1,4.93.67,3.01.64,8.72-2.94,9.88,2.81-6.64-3.01-11.3-9.16-11.39-15.19-2.11-29.66,4.25-43.47,9.58,11.45-7.14,24.92-11.75,38.47-13.01Z"/>
  <path class="cls-1" d="m54.46,60.03c.36,3.72-2.92,12.59-3.97,18.26-6.07-6.35-16.85-3.29-21.92,3.04-5.94,5.54-5.89,19.19,3.44,20.48.46-5.14,4.22-11.17,1.11-16.06,5.66-.03,11.32.02,16.98.15-4.65,7.63-5.55,16.81-7.63,25.32-1.49,2.61,6.15,4.88-2.33,3.74-10.56,1.24-24.18-.85-28.23-12.25-4.7-17.83,9.31-37.81,27.55-40.05,4.93-1.08,10.85,1.05,14.99-2.63h.01,0Z"/>
  <path class="cls-1" d="m81.57,65.19c1.48-1.54,1.12,1.02,1.48,1.95.22,2.91,3.18,3.98,4.93,5.84-3.6,1.73-7.06,3.57-9.37,6.97-3.27-2.46-6.25-6.55-10.83-5.94-3.52,9.78-5.67,20.15-7.74,30.34,4.53.02,9.42.98,13.35-1.73.59,3.94,1.53,7.83,1.86,11.82-10.18.37-20.43-.65-30.53.92,5.97-7.97,5.68-19.06,8.99-28.41,1.6-4.73,2.75-9.73,1.62-14.68,8.84.57,20.47,1.28,26.25-7.08h-.01Z"/>
  <path class="cls-1" d="m162.55,65.52c6.14,0,12.3-.16,18.45.17-7.49,1.2-11.02,9.7-13.28,15.8-10.14,8.54-15.41,23.32-24.93,32.95-2.56-6.07-2.98-15.49-5.25-22.79-6.05,6.93-10.89,15-16.06,22.67-2.55.45-1.39-4.22-3.13-5.74-1.34-10.24-3.67-20.48-5.57-30.69.21-3.34-1.93-5.77-3.85-8.11,5.33-.02,10.67-.12,16.02,0-3.7,5.56,1.57,12.67,1.98,18.69,6.23-6.07,9.38-15.99,16.54-20.36,1.93,6.68,2.98,13.63,5.38,20.18,3.66-2.43,5.87-7.64,8.71-11.4,1.78-3.59,6.42-6.87,4.98-11.37h0Z"/>
  <path class="cls-1" d="m98.37,74.45c5.41,1.19,11.93,4.18,13.33,10.4,3.39,14.17-8.58,28.11-22.42,30.03-4.98-1.11-11.36-3.36-13.13-8.87-3.02-9.01,1.25-18.8,7.69-25.11,3.9-3.91,9.78-4.12,14.53-6.45m-4.23,11.69c-6.44,1.05-11.44,9.55-7.56,15.36,5.6,5.69,15.81-.84,15.71-8.06,1.49-4.79-3.5-9.48-8.14-7.29,0,0-.01,0-.01,0Z"/>
  <path class="cls-1" d="m111.86,112.31c1.51-.57,1.71-.37.6.58-14.01,10.63-29.93,18.76-46.67,24.1-7.67.97-15.85,3.63-23.31.13-5.76-4.89-3.4-14.65,1.49-19.38-2.57,6.2-2.48,15.08,6.05,16.09,22.57,1.53,43.25-10.14,61.84-21.53h0Z"/>
</svg>