<?xml version="1.0" encoding="UTF-8"?>
<svg id="_图层_1" data-name="图层 1" xmlns="http://www.w3.org/2000/svg" viewBox="0 0 157 151.33">
  <defs>
    <style>
      .cls-1 {
        fill: none;
        stroke: #000;
        stroke-linecap: round;
        stroke-linejoin: round;
        stroke-width: 5px;
      }
    </style>
  </defs>
  <g id="_ffffffff" data-name="#ffffffff">
    <path class="cls-1" d="m112.45,10.51c3.09-2.59,5.66-5.76,9.04-8.01.43,3.22-1.46,5.96-2.96,8.62-3.53,5.88-7.4,11.55-11.21,17.26,8.61-6.92,18.19-13.07,29.04-15.71,5.98-1.41,11.88-3.86,18.14-3.45-.13,1.18.17,2.49-.58,3.51-2.79,4.34-5.57,8.75-7.14,13.7-.64,1.75-.98,3.75-2.39,5.1-1.82,2.06-4.56,2.78-6.82,4.18-2.26,2.67-1.99,6.66-4.22,9.37-2.05,2.52-5.97,2.37-7.93,4.92-1.11,2.75-1.35,6.06-3.74,8.13-2.88,2.49-6.81,3.32-9.64,5.9-4.35,3.65-10.34,5.58-13.38,10.62-.67,3.25,2.07,6.05,2.91,9.1,6.19,13.75,10.1,28.4,16.66,42,1.85,4.85,4.71,9.5,5.09,14.77-4.2-2.85-6.61-7.53-10-11.21.95,5.29,3.53,10.06,5.2,15.12.57,1.42.3,2.94,0,4.39-4.49-5.66-7.15-12.48-11.01-18.56-.18,4.98,2.6,9.56,1.98,14.56-4.38-2.27-4.35-8.07-6.48-12.02-.25.76-.75,2.27-1,3.02-.41-.05-1.22-.13-1.64-.17-3.55-8.34-4.38-17.46-6.29-26.24-.98-4.24-3.51-8.41-7.76-10-6.18-2.18-11.6-5.96-16.59-10.12-5.5-4.96-10.82-10.4-14.06-17.15-3.56-6.51-7.47-12.95-12.76-18.22-1.64-1.62-3.59-3.18-5.98-3.4-11.45-1.22-22.95.7-34.41.05,1.68-1.24,3.82-1.35,5.81-1.66,7.03-.81,14.09-1.63,21.1-2.61,2.5-.55,5.57-.62,7.11-3.01,3.09-4.01,7.68-7.6,13.05-7.04,6.36.05,11.27,4.92,14.58,9.88,2.27.23,4.35-.65,6.09-2.05,9.22-6.77,17.29-14.96,26.5-21.74,5.34-3.78,10.83-7.42,15.7-11.83Z"/>
  </g>
</svg>