<?xml version="1.0" encoding="UTF-8"?>
<svg id="_图层_1" data-name="图层 1" xmlns="http://www.w3.org/2000/svg" viewBox="0 0 139.87 144.25">
  <defs>
    <style>
      .cls-1 {
        fill: none;
        stroke: #000;
        stroke-miterlimit: 10;
        stroke-width: 10px;
      }
    </style>
  </defs>
  <path class="cls-1" d="m40.01,34.83c7.72-1.6,15.04,2.76,21.64,6.13,7.97,4.94,16.9,10.38,20.3,19.65,1.63,9.17-5.46,17.02-12.22,22.08-7.52,5.09-15.41,11.27-24.94,11.41-10.59,1.61-20.3-6.87-23.11-16.63-3.33-13.07,1.27-27.19,9.91-37.21,2.14-2.62,4.98-4.94,8.43-5.43m11.24,18.13c-7.77,2.57-10.11,14.3-3.8,19.57,6.28,6.21,19.47,1.49,19.1-7.74,1.21-8.2-7.85-14.4-15.3-11.83Z"/>
  <path class="cls-1" d="m57.28,59.74c2.23-.5,5.81-.05,6.37,2.68,1.32,3.55-2.42,7.34-5.97,6.02-4.2-.96-4.3-7.14-.41-8.7Z"/>
  <path class="cls-1" d="m101.16,79.51c3.46-3.58,8.59-4.17,13.07-5.78,7.29,4.6,17.08,7.62,20.55,16.24,1.23,13.73-9.85,25.54-21.51,31.09-16.72,7.88-35.71,5.56-53.6,6.47,1.45-2.79,2.87-5.91,5.74-7.52,5.45-2.99,12.24-3.13,17.16-7.16,10.52-8.43,8.03-24.92,18.59-33.34Z"/>
  <path class="cls-1" d="m42.13,5h3.17c14.53,5.97,27.56,15.79,36.77,28.57,5.12,6.73,8.25,14.69,13.07,21.62,4.68,7.65,11.35,14.03,19.09,18.54-4.48,1.61-9.6,2.2-13.07,5.78-10.56,8.42-8.07,24.91-18.59,33.34-4.92,4.04-11.72,4.17-17.16,7.16-2.87,1.6-4.29,4.73-5.74,7.52-15.22,1.51-30.11,5.36-44.33,10.94-6.43-5.86-8.69-14.26-9.74-22.57.82-1.13.63-2.03-.59-2.71V42.29c1.22-.68,1.41-1.58.59-2.71,1.37-7.31,3.2-14.87,8.11-20.69,6.03-8.21,16.22-11.8,25.92-13.28,1.19.87,2.03.67,2.51-.61m-2.12,29.83c-3.45.49-6.29,2.81-8.43,5.43-8.63,10.02-13.24,24.14-9.91,37.21,2.81,9.77,12.52,18.24,23.11,16.63,9.53-.14,17.42-6.32,24.94-11.41,6.76-5.07,13.85-12.91,12.22-22.08-3.39-9.27-12.33-14.7-20.3-19.65-6.6-3.37-13.92-7.73-21.64-6.13Z"/>
  <path class="cls-1" d="m51.25,52.96c7.46-2.57,16.51,3.63,15.3,11.83.36,9.23-12.82,13.95-19.1,7.74-6.31-5.27-3.97-17,3.8-19.57m6.04,6.78c-3.9,1.56-3.79,7.74.41,8.7,3.55,1.32,7.29-2.47,5.97-6.02-.56-2.74-4.14-3.19-6.37-2.68Z"/>
</svg>