<?xml version="1.0" encoding="UTF-8"?>
<svg id="_图层_1" data-name="图层 1" xmlns="http://www.w3.org/2000/svg" viewBox="0 0 192 192">
  <defs>
    <style>
      .cls-1 {
        fill: none;
        stroke-linecap: round;
        stroke-linejoin: round;
        stroke-width: 4px;
      }

      .cls-1, .cls-2 {
        stroke: #000;
      }

      .cls-3 {
        fill: #020202;
      }

      .cls-2 {
        fill: #fff;
        stroke-width: .75px;
      }
    </style>
  </defs>
  <path class="cls-3" d="m68.78,22.4c5.12-1.81,10.55-2.83,15.99-2.62,9.88-.17,19.57,3.94,26.87,10.5,3.1,2.49,5.44,5.8,7.36,9.25,5.56.4,11.19.9,16.48,2.79,10.18,3.33,19.1,10.13,25.24,18.88,8.6,12.67,11.51,29.11,7.43,43.91-2.5,8.99-7.27,17.28-13.4,24.27-5.41,6.3-11.8,11.84-19.13,15.76-9.83,5.43-21.42,7.73-32.55,6.06-9.46-1.38-18.69-5.07-26.21-11.04-10.02-8.66-16.69-21.15-18.21-34.32-.19-1.57-.21-3.16-.46-4.72-8.1-5.4-15.01-13.1-18.2-22.41-3.44-9.53-2.17-20.17,1.48-29.44.26-2.53-.18-5.14.39-7.66,2.01-9.32,9.91-17.15,19.32-18.79,2.48-.67,5.09-.02,7.59-.42m2.07,4.79c-2.65,1.31-5.66.12-8.47.66-9.17,1.48-16.65,10.57-15.82,19.92.08,1.18.28,2.41-.27,3.52-2.1,5.1-3.32,10.61-3.17,16.15.19,7.53,3.22,14.9,8.12,20.59,1.85,2.13,3.68,4.37,6.02,5.99.13,0,.38-.01.51-.02,1.56-1.37,2.91-2.97,4.46-4.36,4.56-4.55,9.09-9.13,13.67-13.66,4.64-4.81,13.37-4.61,17.7.53,3.61,3.83,4.13,10.08,1.38,14.52-1.26,1.97-3.06,3.49-4.67,5.16-5.85,5.88-11.77,11.69-17.57,17.62-1.73,1.65-3.38,3.4-5.13,5.05,2.7,6.85,7.39,12.82,12.92,17.63,5.62,4.32,12.27,7.17,19.13,8.87,10.31,2.29,21.42,1.23,30.93-3.45,6.83-3.17,12.79-7.95,17.99-13.35,5.48-5.81,10.11-12.51,13.03-19.97,1.84-5.17,3.33-10.58,3.06-16.11-2.65,2.5-4.5,5.86-7.69,7.75l-.08.34c-3.07,1.25-6.47,1.61-9.71.88-1.82-.67-3.5-1.72-4.99-2.96-2.53-2.56-3.66-6.27-3.6-9.83-2.18,0-4.41.19-6.51-.5-2.88-.76-5.26-2.86-6.8-5.36-1.19-1.86-1.4-4.1-1.96-6.19-2.33.52-4.79.72-7.11.05-4.16-1.22-7.6-4.79-8.46-9.07-.81-2.78-.11-5.73,1-8.32,1.48-2.64,3.95-4.55,5.49-7.16.77-.3,1.21-1.1,1.79-1.67,1.49-1.86,3.24-3.53,4.54-5.54-1.48-.11-3.01.16-4.46-.18-1.47-2.54-2.91-5.13-4.74-7.44-5.67-6.43-13.6-10.9-22.11-12.09-3.43-.18-6.88-.18-10.3,0-2.76.4-5.49,1.04-8.11,2.01m54.82,19.05c-3.99,4.5-7.9,9.08-11.82,13.64-2.35,2.6-2.48,6.88-.28,9.61,1.41,1.88,3.76,2.86,6.06,2.99,2.19-.14,4.42-1.04,5.8-2.79,2.74-3.2,5.49-6.41,8.26-9.59,1.81-1.91,3.76-3.8,4.83-6.25.29-1.51.11-3.06.14-4.58-3.23-1.68-6.75-2.69-10.29-3.45-.9-.13-2.08-.45-2.71.43m19.15,9.78c-1.35.41-2.44,1.37-3.36,2.4-1.34,1.5-2.73,2.94-3.98,4.52-2.59,3.35-5.74,6.22-8.2,9.68-2.3,3.36-.93,8.32,2.49,10.38,2.89,1.89,7.06,1.36,9.4-1.17,3-3.12,5.65-6.56,8.56-9.76,1.44-1.71,3.05-3.29,4.24-5.19.99-1.45,1.07-3.36.7-5.02-1.32-2.02-3.16-3.66-4.89-5.32-1.29-1.35-3.36-.97-4.96-.52m10.54,16.78c-3.49,4.1-7.16,8.03-10.57,12.2-2.06,2.52-2.01,6.31-.27,8.99,1.99,2.71,5.72,3.91,8.91,2.75,2.2-.71,3.57-2.68,5.02-4.33,1.68-2.04,3.5-3.96,5.19-5.99,1.09-1.11.38-2.74.23-4.07-.71-4.56-2.34-8.91-4.28-13.08-1.88.47-2.98,2.2-4.22,3.53m-76.69,6.84c-5.67,5.74-11.48,11.33-17.05,17.16.76.63,1.79,1.24,1.79,2.36.2,2.39-.09,4.82.42,7.19.51,2.54,1.03,5.1,1.82,7.57,1.56-1.07,2.78-2.53,4.11-3.84,5.96-5.96,11.91-11.92,17.87-17.89,1.57-1.59,3.43-3.09,4.06-5.33,1.43-3.87-1.21-8.62-5.2-9.56-2.8-.79-5.87.23-7.82,2.34Z"/>
  <path class="cls-1" d="m72.17,34.38c5.62-2.3,11.94-3.11,17.92-1.92,6.01.97,11.38,4.33,15.64,8.58,3,3.14,4.66,7.2,6.27,11.15.87-.03,1.75-.05,2.62-.11-1.53,2.61-4.01,4.52-5.49,7.16-1.11,2.59-1.81,5.55-1,8.32.86,4.28,4.29,7.85,8.46,9.07,2.31.67,4.78.47,7.11-.05.56,2.09.77,4.33,1.96,6.19,1.54,2.49,3.91,4.6,6.8,5.36,2.1.69,4.33.5,6.51.5-.05,3.55,1.07,7.26,3.6,9.83,1.48,1.24,3.17,2.29,4.99,2.96,3.24.74,6.64.38,9.71-.88-1.35,6.69-4.78,12.73-8.79,18.17-7.16,9.01-16.55,16.83-27.88,19.79-6.52,1.73-13.43,1.39-19.97-.02-4.69-1.23-9.18-3.23-13.3-5.75-6.59-4.61-11.3-11.52-14.21-18.94,5.8-5.93,11.72-11.74,17.57-17.62,1.61-1.66,3.41-3.19,4.67-5.16,2.76-4.45,2.23-10.69-1.38-14.52-4.33-5.14-13.05-5.34-17.7-.53-4.58,4.53-9.11,9.11-13.67,13.66-4.21-3.8-8.2-8.06-10.43-13.36-2.02-4.4-2.01-9.37-1.58-14.1.66-3.99,2.17-7.78,3.79-11.45-.15-1.96-1.08-3.9-.46-5.88.65-4.24,3.79-7.82,7.69-9.43,3.41-1.39,7.26.67,10.56-1.05v.03Z"/>
  <path class="cls-2" d="m125.67,46.24c.63-.88,1.81-.56,2.71-.43,3.54.76,7.06,1.77,10.29,3.45-.03,1.52.15,3.07-.14,4.58-1.06,2.44-3.02,4.34-4.83,6.25-2.77,3.18-5.52,6.39-8.26,9.59-1.39,1.76-3.62,2.65-5.8,2.79-2.3-.12-4.65-1.1-6.06-2.99-2.21-2.73-2.08-7.01.28-9.61,3.92-4.56,7.83-9.13,11.82-13.64h0Z"/>
  <path class="cls-2" d="m144.81,56.02c1.6-.45,3.67-.83,4.96.52,1.73,1.67,3.57,3.3,4.89,5.32.38,1.66.29,3.57-.7,5.02-1.19,1.9-2.8,3.49-4.24,5.19-2.91,3.21-5.55,6.64-8.56,9.76-2.34,2.53-6.52,3.06-9.4,1.17-3.41-2.06-4.79-7.02-2.49-10.38,2.45-3.46,5.61-6.34,8.2-9.68,1.24-1.58,2.64-3.02,3.98-4.52.93-1.03,2.01-1.99,3.36-2.4Z"/>
  <path class="cls-2" d="m155.36,72.8c1.25-1.33,2.35-3.06,4.22-3.53,1.94,4.17,3.57,8.51,4.28,13.08.15,1.33.87,2.96-.23,4.07-1.69,2.03-3.51,3.95-5.19,5.99-1.46,1.65-2.82,3.62-5.02,4.33-3.18,1.15-6.92-.04-8.91-2.75-1.73-2.68-1.79-6.47.27-8.99,3.41-4.16,7.08-8.1,10.57-12.2h0Z"/>
  <path class="cls-2" d="m78.67,79.64c1.95-2.11,5.02-3.13,7.82-2.34,3.99.94,6.64,5.69,5.2,9.56-.63,2.24-2.49,3.74-4.06,5.33-5.95,5.97-11.91,11.93-17.87,17.89-1.34,1.31-2.55,2.78-4.11,3.84-.8-2.48-1.31-5.03-1.82-7.57-.5-2.37-.21-4.8-.42-7.19,0-1.12-1.03-1.73-1.79-2.36,5.57-5.82,11.38-11.42,17.05-17.16Z"/>
</svg>