<?xml version="1.0" encoding="UTF-8"?>
<svg id="_图层_1" data-name="图层 1" xmlns="http://www.w3.org/2000/svg" viewBox="0 0 192 192">
  <defs>
    <style>
      .cls-1 {
        fill: none;
        stroke: #000;
        stroke-linecap: round;
        stroke-linejoin: round;
        stroke-width: 7px;
      }
    </style>
  </defs>
  <g id="_ffffffff" data-name="#ffffffff">
    <path class="cls-1" d="M21.04,73.92c-.33-12.98,11.28-24.85,24.29-24.71,11.25-.09,22.51-.13,33.75.06-2.84,3.59-5.13,7.56-8.14,10.99-7.86,3.04-16.11,5.04-24.16,7.58-4.44,1.45-7.28,6.16-6.95,10.76-.05,11.59-.05,23.18,0,34.78-.24,4.32,2.13,8.85,6.27,10.44,7.92,2.72,16.08,4.73,24,7.42,3.86,2.98,5.84,7.81,9.01,11.51-11.61.11-23.25.24-34.86-.05-12.55-.55-23.52-12.02-23.22-24.62-.05-14.73-.05-29.44,0-44.16Z"/>
    <path class="cls-1" d="M113.06,49.32c11.06-.31,22.13-.14,33.19-.13,9.51-.2,18.59,5.84,22.54,14.41,2.99,5.61,1.95,12.13,2.16,18.22-.25,14.25.54,28.56-.49,42.78-3.31,9.88-12.44,17.86-23.09,18.14-11.45.17-22.9.17-34.34-.05,2.74-3.61,5.02-7.53,8.05-10.91,7.7-3.18,15.97-4.88,23.86-7.56,3.94-1.26,7.42-5.01,7.12-9.34.11-13.06.31-26.13-.11-39.19-.6-6.63-8-8.46-13.31-10-.88-.2-2.66-.61-3.54-.82-4.6-1.8-9.58-2.5-14.02-4.68-2.95-3.4-5.28-7.31-8.02-10.88Z"/>
    <path class="cls-1" d="M70.99,90.28c16.74.06,33.5-.08,50.24.08.03,3.69.08,7.36.16,11.03-16.77.68-33.6.09-50.38.3-.05-3.8-.05-7.59-.02-11.4Z"/>
  </g>
</svg>