<?xml version="1.0" encoding="UTF-8"?>
<svg id="_图层_1" data-name="图层 1" xmlns="http://www.w3.org/2000/svg" viewBox="0 0 192 192">
  <defs>
    <style>
      .cls-1 {
        fill: none;
        stroke: #000;
        stroke-miterlimit: 10;
        stroke-width: 7px;
      }
    </style>
  </defs>
  <g id="_ffffffff" data-name="#ffffffff">
    <path class="cls-1" d="M39.48,21.26c17.41-.48,34.81-.13,52.2-.21.04,24.35.04,48.67.02,73.02-17.29,7.11-34.58,14.36-52.2,20.63.02-31.15.06-62.3-.02-93.43Z"/>
    <path class="cls-1" d="M100.22,21.01c17.41.12,34.83-.17,52.24.17-.04,22.36-.02,44.74,0,67.12-17.91-5.3-34.83-13.49-52.18-20.38-.1-15.63.02-31.27-.06-46.92Z"/>
    <path class="cls-1" d="M100.32,77.07c17.29,7.34,35.01,13.67,52.2,21.22-.15,24.17-.06,48.36-.06,72.54-17.39.31-34.79.1-52.2.12,0-31.29-.1-62.59.06-93.88Z"/>
    <path class="cls-1" d="M39.52,124.33c17.21-7.32,34.52-14.52,52.2-20.66,0,22.44-.04,44.88.02,67.31-17.43-.13-34.85.25-52.26-.23.08-15.46.02-30.94.04-46.42Z"/>
  </g>
</svg>