<?xml version="1.0" encoding="UTF-8"?>
<svg id="_图层_1" data-name="图层 1" xmlns="http://www.w3.org/2000/svg" viewBox="0 0 192 192">
  <defs>
    <style>
      .cls-1 {
        fill: none;
        stroke: #000;
        stroke-linecap: round;
        stroke-linejoin: round;
        stroke-width: 4px;
      }
    </style>
  </defs>
  <g id="_fefefeff" data-name="#fefefeff">
    <path class="cls-1" d="M21,27.03l.74-2.82c7.02,1.23,14.03,3.55,19.84,7.78-7.11,1.05-12.91-4.66-19.99-4.71l-.58.72v-.96Z"/>
    <path class="cls-1" d="M43.46,37.05c1.47.03,2.93.07,4.4.08,5.42,5.85,8.15,14.7,4.49,22.19-5.65,12.06-19.05,17.56-31.34,20.1v-4.48c1.42-1.85,4.06-1.53,6.08-2.29,9.24-2.5,18.96-8.18,21.74-17.96,2.01-6.4-1.21-12.88-5.36-17.64Z"/>
    <path class="cls-1" d="M116.1,98.61c16.86-8.51,36.47-9.79,54.9-6.91v7.84c-17.98-5.87-38.5-4.6-55.12,4.66-8.01,4.41-14.62,11.82-16.7,20.89-2.18.01-4.38.01-6.56,0,2.55-12.22,12.57-21.34,23.49-26.47Z"/>
    <path class="cls-1" d="M92.84,133.01c1.98-.02,3.95-.03,5.93-.04,1.79,5.45,4.14,10.9,8.4,14.91,11.55,11.09,28.09,15.26,43.75,14.96,6.81-.29,13.44-1.77,20.08-3.17v5.46c-.25.47-.74,1.41-.99,1.89-19.91,1.91-41.24.85-58.75-9.85-8.61-5.5-17.04-13.54-18.43-24.16Z"/>
  </g>
</svg>