<?xml version="1.0" encoding="UTF-8"?>
<svg id="_图层_1" data-name="图层 1" xmlns="http://www.w3.org/2000/svg" viewBox="0 0 192 192">
  <defs>
    <style>
      .cls-1 {
        fill: none;
        stroke: #000;
        stroke-linecap: round;
        stroke-linejoin: round;
        stroke-width: 7px;
      }
    </style>
  </defs>
  <g id="_0090ffff" data-name="#0090ffff">
    <path class="cls-1" d="M83.59,23.35c5.57-2.81,12.03-2.54,18.06-2.01,11.71,2.12,21.04,11.89,23.8,23.32-.37,21.97.3,43.95-.34,65.89-4.29-.1-8.59-.08-12.88-.11.01-4.7-.01-9.38-.03-14.08-1.99.01-3.99.01-5.99.01-.01,4.68-.03,9.37-.01,14.05-6.76.05-13.52.05-20.28.03.04-4.68.04-9.35.01-14.04-2.16,0-4.31-.01-6.47-.03-.03,4.7-.03,9.38,0,14.08-4.56.07-9.11-.08-13.67-.07-.04-19.87.03-39.75-.04-59.61-.31-11.67,7.35-22.68,17.83-27.44M76.44,51.29c1.27-.03,3.82-.07,5.09-.1,2.48-1.3,1.43-4.63,2.92-6.65,2.06-4.38,6.77-6.99,11.52-7.11.05-2.14.11-4.29.16-6.43-10.77-.48-20.58,9.53-19.7,20.29Z"/>
  </g>
  <g id="_99d3ffff" data-name="#99d3ffff">
    <path class="cls-1" d="M76.44,51.29c-.87-10.76,8.93-20.77,19.7-20.29-.05,2.14-.11,4.29-.16,6.43-4.75.12-9.46,2.73-11.52,7.11-1.49,2.02-.44,5.35-2.92,6.65-1.27.03-3.82.07-5.09.1Z"/>
  </g>
  <g id="_86caffff" data-name="#86caffff">
    <path class="cls-1" d="M125.11,110.56c.64-21.94-.03-43.92.34-65.89,1.86,4.6,1.15,9.6,1.23,14.42.01,17.08-.03,34.16.01,51.24,1.17.07,3.51.19,4.68.26.19,5.3.2,10.6-.01,15.89-6.36-.01-12.71-.03-19.07,0h-6.12c-6.74-.03-13.5-.03-20.26-.01h-6.46c-6.31-.01-12.62.05-18.92-.07-.08-5.28-.08-10.57.01-15.84,1.75-.07,3.5-.12,5.26-.15,4.56-.01,9.11.14,13.67.07,2.16-.01,4.3-.01,6.46-.01,6.76.03,13.52.03,20.28-.03,2.01-.01,4.03,0,6.03.01,4.29.03,8.59.01,12.88.11Z"/>
  </g>
  <g id="_96b3c9ff" data-name="#96b3c9ff">
    <path class="cls-1" d="M106.22,96.38c2.01,0,4,0,5.99-.01.01,4.7.04,9.38.03,14.08-2.01-.01-4.03-.03-6.03-.01-.01-4.68,0-9.37.01-14.05Z"/>
  </g>
  <g id="_96b3c8ff" data-name="#96b3c8ff">
    <path class="cls-1" d="M79.47,96.4c2.16.01,4.31.03,6.47.03.03,4.68.03,9.35-.01,14.04-2.16,0-4.3,0-6.46.01-.03-4.7-.03-9.38,0-14.08Z"/>
  </g>
  <g id="_bebebeff" data-name="#bebebeff">
    <path class="cls-1" d="M79.46,126.46h6.46c.07,14.06.05,28.14.03,42.2,0,.59-.01,1.75-.03,2.33h-6.46c0-.86-.01-2.57-.03-3.43.03-13.71,0-27.42.03-41.11Z"/>
    <path class="cls-1" d="M112.46,166.97c-.06,0-.11.02-.17.03-.11-13.52-.1-27.02,0-40.52h-6.12c.08,14.1-.04,28.19.07,42.3,0,.56.01,1.67.03,2.23h5.68c.08-.48.21-1.28.33-1.98-.03-.69.03-1.38.18-2.05Z"/>
  </g>
</svg>