<?xml version="1.0" encoding="UTF-8"?>
<svg id="_图层_1" data-name="图层 1" xmlns="http://www.w3.org/2000/svg" viewBox="0 0 192 192">
  <defs>
    <style>
      .cls-1 {
        stroke-width: 4px;
      }

      .cls-1, .cls-2, .cls-3 {
        fill: none;
        stroke: #000;
        stroke-linecap: round;
        stroke-linejoin: round;
      }

      .cls-2 {
        stroke-width: 7px;
      }

      .cls-3 {
        stroke-width: 5px;
      }
    </style>
  </defs>
  <path class="cls-3" d="M77.3,23.05c9.49-5.44,21.4-6.52,31.64-2.63,7.42,2.56,13.7,7.76,18.27,14.06,6.23,8.7,7.76,20.12,5.54,30.44-3.27,14.52-16.07,26.24-30.74,28.42-5.8.13-11.87.84-17.4-1.3-11.23-3.48-20.6-12.55-24.4-23.69-2.17-6.29-2.26-13.08-1.43-19.63,2.04-10.74,9.08-20.26,18.52-25.67M76.5,27.39c-6.87,4.49-11.72,11.7-13.9,19.56-1.7,4.84-1.04,10.06-.87,15.08,2.39,11.46,10.31,21.51,21.14,26.09,10.23,3.87,22.29,3.16,31.56-2.87,12.93-7.95,19.46-25.01,14.58-39.46-2.54-8.9-9.03-16.5-17.28-20.64-10.97-5.76-25.09-4.9-35.23,2.24Z"/>
  <path class="cls-3" d="M73.58,35.38c2.64-1.17,5.58-.79,8.39-.82,11.34,0,22.68.02,34.02,0,1.23.02,2.44.25,3.6.67-.06,1.78-.11,3.55-.14,5.32-4.54.2-9.11-.27-13.62.24-2.2,1.03-3.66,3.1-5.39,4.75,0,12.29.02,24.58,0,36.87-2.37.06-4.74.08-7.1.07-.07-9.47-.1-18.94.01-28.41-.45.05-1.37.15-1.82.2-4.43,4.32-8.68,8.84-13.23,13.04-2.18,1-3.45-2.02-5.09-2.98,0-2.19,2.06-3.36,3.39-4.81,3.99-4.04,8.18-7.88,12.13-11.96,1.92-2.07,4.47-3.71,5.49-6.47-6.86-.58-13.98.94-20.67-.8.03-1.63.04-3.26.03-4.9Z"/>
  <path class="cls-3" d="M104.46,47.81c5.82,4.86,11.01,10.46,16.3,15.89-1.74,1.51-3.11,4.33-5.83,3.79-3.14-3.89-7.02-7.09-10.57-10.59-.18-3.03-.24-6.07.1-9.09Z"/>
  <path class="cls-2" d="M75.51,108.81c8.98-6.82,21.16-8.97,31.95-5.81,11.56,3.3,21.2,12.74,24.44,24.36,1.01,4.31,2.2,8.69,1.69,13.16-.88,3.46-1.25,7.06-2.61,10.4-4.02,10.26-13.01,18.55-23.68,21.45-11.7,3.77-25.16.38-34.17-7.84-8.71-7.63-13.16-19.67-11.97-31.13,1.56-9.59,6.39-18.82,14.35-24.59"/>
  <path class="cls-1" d="M86.97,112.76c-.07,1.61-.14,3.21-.2,4.82-3.98.04-7.95.03-11.93.03-.02,1.61-.03,3.23-.03,4.84,4,0,8,0,12,.04.01,1.01.01,3.02.01,4.03-4.57.26-9.26-.21-13.69,1.21.01,1.25.01,2.5,0,3.76,6.84.34,13.69-.2,20.53-.27.39-6.14.26-12.3.08-18.44-2.26,0-4.52-.02-6.77-.02"/>
  <path class="cls-1" d="M98.8,113.29c0,5.79,0,11.58,0,17.37,6.72.57,13.44,1.1,20.2,1.07.01-1.82.01-3.64.01-5.46-4.31-.08-8.52,1.17-12.84.88-.17-1.27-.33-2.53-.5-3.79,3.92-1.2,8.08-1.34,12.11-1.99.02-1.05.06-3.16.07-4.22-4.01.18-8.01.49-12.02.7,0-1.51.02-3.03.03-4.54-2.36-.04-4.71-.04-7.07-.02"/>
  <path class="cls-1" d="M79.72,134.4c-.54,8.54.6,17.22-.59,25.66.19.71.58,2.12.78,2.82,2.3.04,4.6.04,6.91,0,0-2.36.03-4.73.11-7.09,4.89-.11,9.81.34,14.67-.32.08-1.02.24-3.07.33-4.09-5.02-.11-10.04-.05-15.06-.06,0-.95-.02-2.86-.02-3.81,4.91-.05,9.82.14,14.72-.17.09-1.55.18-3.1.27-4.66-5-.03-10,0-15.01-.02,0-1.12-.01-2.24-.01-3.35,6.35-.01,12.7-.05,19.05.03-.02,6.34-.01,12.69-.01,19.03-.56.05-1.68.14-2.24.18.22,1.68.73,3.29,1.56,4.77,2.54-.03,5.08-.02,7.62-.02.28-9.63.1-19.26.1-28.9-11.06-.06-22.12-.06-33.18,0Z"/>
</svg>