<?xml version="1.0" encoding="UTF-8"?>
<svg id="_图层_1" data-name="图层 1" xmlns="http://www.w3.org/2000/svg" viewBox="0 0 192 192">
  <defs>
    <style>
      .cls-1 {
        fill: #000;
        stroke-width: 0px;
      }

      .cls-2 {
        fill: none;
        stroke: #000;
        stroke-linecap: round;
        stroke-linejoin: round;
        stroke-width: 7px;
      }
    </style>
  </defs>
  <path class="cls-1" d="M99.59,16c-1.17,0-2.34.02-3.51.08.07,23.4,0,46.82.03,70.22,1.35.31,2.7.62,4.06.91.87,1.25,1.73,2.48,2.61,3.72,19.29-11.9,39.21-22.8,58.2-35.15-1.25-2.3-2.46-4.62-3.68-6.93-4.84,1.14-8.73,4.38-12.96,6.79-13.34,7.47-26.25,15.67-39.52,23.29-.18-20.93-.13-41.86.13-62.78-1.79-.09-3.58-.15-5.36-.15h0Z"/>
  <path class="cls-2" d="M66.09,66.81c8.69-4.89,17.11-10.23,25.76-15.19.41,10.28.22,20.58.01,30.86-8.69-5.03-17.87-9.45-25.77-15.67"/>
  <path class="cls-1" d="M35.42,53.52c-1.84,2.54-3.33,5.32-4.41,8.27,17.08,9.78,33.86,20.1,50.79,30.18-11.48,6.37-22.5,13.5-33.9,20-5.59,3.37-11.5,6.33-16.54,10.5.08,2.95,2.04,5.35,3.24,7.9,6.36-2.93,12.04-7.05,18.07-10.57,13.53-8.04,27.14-15.99,40.58-24.17-1.33-2.43-1.54-4.98.22-7.26-19.13-11.97-38.8-23.08-58.06-34.86h0Z"/>
  <path class="cls-2" d="M108.18,93.16c8.42-5.52,17.14-10.58,25.97-15.44-.18,10.3-.13,20.59-.15,30.9-8.76-4.9-17.45-9.93-25.82-15.46"/>
  <path class="cls-1" d="M103.07,94.89c-2.3,1.29-4.63,2.53-6.96,3.75,0,23.57-.01,47.13.01,70.7.73-.14,2.19-.42,2.93-.56.44-4.62.8-9.56,5.52-11.9.59-16.86-.03-33.75.41-50.62,17.11,10.16,34.04,20.68,51.42,30.34,2.18-2.09,3.19-5.03,4.59-7.64-19.27-11.41-38.45-22.98-57.92-34.06h0Z"/>
  <path class="cls-2" d="M66.12,117.18c8.62-5.04,17.13-10.25,25.84-15.11.1,10.29.15,20.58.03,30.87-8.63-5.24-17.69-9.85-25.87-15.76"/>
  <path class="cls-1" d="M107.83,167.3h0,0M104.41,161.46c-.3,0-.64.13-1,.42-1.39.93-.74,3.73.69,3.73.3,0,.65-.13,1.01-.43,1.37-.94.73-3.72-.7-3.72h0Z"/>
  <path class="cls-1" d="M97.57,171.44c-.32,0-.67.12-1.03.41-1.4,1.13-.52,4.15,1.07,4.15.32,0,.68-.13,1.05-.42,1.37-1.13.5-4.14-1.09-4.14h0Z"/>
</svg>