<?xml version="1.0" encoding="UTF-8"?>
<svg id="_图层_1" data-name="图层 1" xmlns="http://www.w3.org/2000/svg" viewBox="0 0 192 192">
  <defs>
    <style>
      .cls-1 {
        fill: none;
        stroke: #000;
        stroke-linecap: round;
        stroke-linejoin: round;
        stroke-width: 3px;
      }
    </style>
  </defs>
  <g id="_1c202cff" data-name="#1c202cff">
    <path class="cls-1" d="M94.13,14.21c6.12-1.02,12.28-.84,18.42-.13,1.92,4.66,5.55,8.23,8.51,12.22,2.61,3.5,6.4,6.46,6.91,11.09-7.67-5.61-16.57-10.19-26.24-10.56-6.39-1.44-12.23,2.1-17.7,4.86,3.28-5.87,10.07-10.07,10.09-17.47Z"/>
    <path class="cls-1" d="M101.83,93.03c2.01-1.03,4.23-.47,6.2.36,1.95,4.53-.98,10.1-5.48,11.72-2.54.68-5.23.32-7.56-.85-.05-.4-.14-1.21-.19-1.61,2.24,1.3,4.71,2.1,7.33,2,3.16-2.92,6.23-7.31,3.81-11.68-4.11.86-7.99,2.55-11.79,4.28-.51,1.45-.85,2.97-1.27,4.45-.67-1.13-1.31-2.26-1.92-3.41,2.58-3.45,7.22-3.58,10.87-5.28Z"/>
  </g>
  <g id="_111723ff" data-name="#111723ff">
    <path class="cls-1" d="M83.09,16.44c3.32-2,7.3-1.99,11.04-2.22-.02,7.41-6.81,11.6-10.09,17.47-2.03,2.33-3.93,4.75-5.52,7.4-2.74.54-5.68.56-8.23,1.79-3.2,2.67-5.94,5.86-8.79,8.89-3.06,3.21-3.92,7.69-4.87,11.86-.23-.47-.7-1.4-.93-1.87.41-6.42,4.94-11.28,8.46-16.26.54-6.15,3.29-11.92,6.33-17.22,2.75-4.82,8.03-7.12,12.6-9.83Z"/>
  </g>
  <g id="_0f1214ff" data-name="#0f1214ff">
    <path class="cls-1" d="M112.55,14.08c2.94,0,5.9.12,8.78.74,2.27,4.41,7.39,6.56,9.01,11.42,1.89,4.71,6.04,10.5,2.44,15.39-1.52-1.51-3.09-2.96-4.8-4.23-.51-4.63-4.3-7.59-6.91-11.09-2.96-3.98-6.6-7.56-8.51-12.22Z"/>
    <path class="cls-1" d="M132.04,114.76c.47-4.64-1.03-11.06,4.2-13.46,1.75.33,1.71,2.29,2.07,3.67.74,3.6.24,7.29-.27,10.88-2-.34-3.99-.71-5.99-1.08Z"/>
    <path class="cls-1" d="M42.82,110.47c1.04-.62,2.07-1.26,3.15-1.81-.21.46-.64,1.37-.86,1.83-.61,1.22-1.25,2.43-1.85,3.66-.11-.92-.33-2.75-.45-3.68Z"/>
    <path class="cls-1" d="M31.05,118.68c1.3-.59,2.61-1.15,3.88-1.78-.26,1.42-.54,2.86-.83,4.29-.49-.96-.65-1.99-.49-3.1-.63.15-1.92.44-2.56.59Z"/>
  </g>
  <g id="_11182aff" data-name="#11182aff">
    <path class="cls-1" d="M121.34,14.82c1.93.39,3.83.85,5.74,1.33,2.61,5.1,8.05,8.15,10.02,13.63,2.97,7.55,3.42,15.82,6.42,23.37,4.49,3.29,10.23,4.08,15.59,4.99-5.05.51-9.87-1.27-14.4-3.26,1.81,4.67,3.92,9.27,4.93,14.2.48,1.95.48,4.2,1.97,5.72,4.4,4.76,5.79,11.91,4.32,18.12-3.32,3.02-5.42,7.11-8.72,10.17.1,5.86-.24,11.72.05,17.59.34.31,1.03.92,1.38,1.23l.92,2.35c-.76-.3-2.29-.91-3.05-1.22,2.15,2.15,1.95,5.46,2.68,8.23,1.46,8.97,5.18,18,2.74,27.17-.13.81-.38,2.43-.51,3.24-.55-.51-1.11-1.02-1.66-1.54,1.27-5.27,1.46-10.8.2-16.09-1.58-6.62-2.29-13.53-5.19-19.75-1.55-3.35-5.16-4.98-8.23-6.63,1.84,5.21.79,10.74,1.07,16.12.09,4.99.86,9.93,1.67,14.83.62,3.43-.2,6.99.75,10.37.74,2.84,1.67,5.62,2.49,8.44-2.84,1.68-5.26,3.94-7.84,5.95-.32-.45-.94-1.32-1.25-1.77-.25-.49-.76-1.49-1.01-1.98-2.24-4.36-3.67-9.13-4.03-14.02-.2-2.79-.57-5.56-.97-8.33-.11-10.1-1.11-20.19-.6-30.3l.84-1.13c-1.24-.47-2.47-.93-3.7-1.39-1.5,6.07-3.63,11.93-5.79,17.78,1.88,1.58,4.03,3.15,4.44,5.77-1.36.09-2.72.2-4.08.3-3.46,1.48-7.22,1.76-10.92,1.34,1.51,6.22,2.97,12.44,4.24,18.7,1.37,6.88,5.19,13.07,5.74,20.13h-2.72l1.32-.28c-1.85-8.04-5.59-15.47-7.41-23.53-2.07-5.74-2.99-11.7-3.41-17.76-1.19,10.1.93,20.17,1.4,30.26-.6,0-1.79-.02-2.38-.02-.07-3.68-.07-7.39-.6-11.04-.87-5.4-.42-10.89-.88-16.32-2.97,7.58-2.85,15.88-3.87,23.87-.74,4.91-.7,9.91-1.4,14.83h-1.46c-.94-6.68.05-13.39.33-20.08.47-4.22,1.86-8.26,2.64-12.42.87-4.48,3.26-8.82,2.02-13.49-.58,2.34-.49,4.97-1.94,7-3.01,3.95-7.9,7.19-13.08,5.9.07,2.09.1,4.19.2,6.28.23,3.42,1.07,6.81.78,10.25-.7,4.19,1.24,8.78-1.39,12.55-1.6-.16-3.2-.29-4.8-.39-.65-.55-1.31-1.1-1.97-1.66-1.13-.02-2.26-.04-3.39-.05-1.15-8.45-.67-16.98-.62-25.47-.95-6.51-.76-13.08-.83-19.64-2.61.47-5.07,1.52-7.46,2.66-.19,8.98,2.82,17.58,3.31,26.47-.67-.24-2-.74-2.67-.99-2.31-6.72-1.94-13.84-2.66-20.81-.96,2.06-1.9,4.12-2.63,6.27-.6,1.91-1.16,3.82-1.72,5.74l-1.94.62c1.15-5.96,4.3-11.35,5.15-17.37,2.75-3.54,7.51-4.11,11.3-6.04-.3-1.27-.6-2.55-.89-3.81-1.83-.26-3.68-.44-5.54-.46-1.1-.8-2.2-1.6-3.31-2.37,1.36,1.33,2.84,2.52,4.55,3.4-1.01-.04-3.05-.1-4.07-.14-1.69-.69-2.31-2.79-3.45-4.12.23,2.05.48,4.09.79,6.13-2.32-.9-4.63-1.81-7-2.59-.07-1.01-.12-2.03-.19-3.04-3.07-1.5-4.54-4.65-6.53-7.22.81-7.15,6.12-12.35,9.34-18.44-3.99-3.89-4.35-9.89-5.44-15.04-1.24-5.73,2.38-10.78,2.64-16.39.23.47.7,1.4.93,1.87.08,3.52-.02,7.03.15,10.55.18,2.49.12,5.02-.71,7.41-1.23,3.12.7,6.25,2.34,8.79.45-4.54-.22-9.25,1.5-13.59.2,3.43.31,6.87.28,10.31,1.6.57,3.2,1.14,4.82,1.65-1.78-.09-3.55-.08-5.33-.08.37,1.45.82,2.88,1.34,4.29-.28.19-.82.56-1.1.74-.19,1.6-.4,3.2-.52,4.81.39.07,1.17.23,1.56.31-.37.29-1.13.86-1.5,1.14-.18,1.07-.35,2.14-.52,3.21-.67,5.88-1.92,11.89-1,17.8.63.54,1.91,1.63,2.54,2.17.07-2.99.09-5.98.39-8.96,1.54,1.5,2.91,3.14,4.2,4.87.38-.28,1.14-.84,1.53-1.12,1.71,1.15,3.46,2.25,5.22,3.34-.35-5.09-.4-10.28-1.94-15.19,0-2.07.06-4.16-.14-6.23-.33-1.85-.76-3.69-1.09-5.55-.23-1.64-.4-3.29-.49-4.94,0-5.28-.44-10.56-.33-15.84,1.39-7.84.71-16.48,5.55-23.29-.64,4.05-2,7.97-2.08,12.1-.13,5.03-1.56,9.95-1.54,14.99-.1,1.44,1.38,3.26,2.9,2.42,1.43-4.88,3.17-9.66,5.1-14.37-1.06-.44-2.13-.87-3.19-1.29,1.2-.03,2.39-.06,3.59-.07.48.37,1.43,1.12,1.92,1.49-.46,4.47-.31,8.96.1,13.42,1.85-.4,3.69-.81,5.55-1.21-.17-.73-.5-2.19-.66-2.91-.62-6.71-.67-13.44-.07-20.13.27-.49.82-1.48,1.1-1.97,4.36,3,6.67,8.04,8.98,12.64,1.4,5.44,5.55,10.2,11.17,11.41,0-.47,0-1.41,0-1.88,2.07.18,4.14.29,6.22.36-.74-.49-1.48-.99-2.21-1.48-2.97-5.66-5.92-11.32-9.23-16.79.47-.07,1.41-.23,1.88-.32,2.16,1.4,4.22,2.93,6.34,4.39,1.03-.59,2.07-1.16,3.1-1.74-1.83-2.16-3.67-4.32-5.29-6.63,2.72,1.4,5,3.46,7.05,5.69,1.12-.06,2.23-.11,3.35-.17-.47.6-.92,1.21-1.38,1.81,4.95,4.14,5.15,11.71,10.58,15.31-.47-7.22-3.05-14.26-7.36-20.06-2.05-2.71-4.51-5.03-6.75-7.57,3.43,2.03,7.52,3.78,9.33,7.57,3.7,7,6.77,14.76,6.37,22.8-1.17-.26-2.34-.53-3.52-.8.07,7.2,1.67,14.28,1.82,21.48,2.35-1.51,4.89-2.86,6.75-4.99.47-1.46.34-3.02.44-4.53-.03-2.72.23-5.45-.07-8.16-.81-3.07-2.34-5.9-3.06-9.01,3.66,2.95,4.49,8.14,8.41,10.94-.3-6.69-3.36-12.81-6.54-18.56-2.36-4.34-5.67-8.12-7.64-12.68,4.59,4.26,7.43,10,10.57,15.33,3.05,5.5,4.75,11.61,6.08,17.73.36,1.65.03,3.32-.18,4.97-1.7-2.63-3.35-5.31-5.28-7.78-.75,3.93-.1,7.94-.63,11.87-1.74,1.78-3.85,3.13-5.81,4.65.33,2.56.53,5.14.63,7.72,3.98-2.07,6.62-5.67,9.05-9.29.87-1.62,2.76-1.74,4.35-2.11-.32,3.9-1.44,7.66-2.58,11.38,5.9-1.02,9.17-6.57,12.2-11.16,2.63-3.71,1.37-8.61.07-12.58-2.36-5.26-6.97-9.03-11.47-12.41.44-.09,1.33-.29,1.78-.39,1.26.89,2.41,1.9,3.61,2.86-.19-5.66-2.5-11.03-5.43-15.79-3.7-3.47-8.22-5.98-12.1-9.25.11-.45.33-1.34.44-1.78,2.68,1.97,5.29,4.05,8.16,5.75-1.37-2.9-3.26-5.54-5.52-7.81,3.6-4.88-.55-10.68-2.44-15.39-1.62-4.86-6.74-7.01-9.01-11.42M87.56,52.05c-.87,3.79-1.18,7.65-1.21,11.53.37.09,1.1.28,1.47.37l-1.42.68c-.08,4.02,1.28,7.9,1.2,11.92.85-.02,2.53-.05,3.38-.07-.49.65-1.13,1.13-1.89,1.44.55,3.9.33,7.87-.75,11.67-2.53-.87-3.23,2.64-5.73,2.03l.02.69c-.76-.4-1.54-.79-2.32-1.17-.76-3.76-2.43-8.24-.05-11.7-2.46-.38-5.24-.72-7.32.96l-.25-1.61-.65-.05c-.31.18-.91.53-1.22.72.76,6.85,2.04,13.63,3.41,20.38.26,1.21.31,2.63,1.53,3.31,3.01,2.25,6.65,3.43,10.04,4.97-1.46.58-3.01.22-4.49-.03,2.71,3.27,6.76,6.6,11.22,4.48-.82-1-1.67-1.99-2.49-2.98,3.98,2.07,8.58,1.17,12.67,2.79-1.14.86-2.41,1.57-3.93,1.44,1.61,2.57,2.59,5.45,2.79,8.48.31-.08.92-.24,1.23-.32,3.27-3.6,7.4-6.19,11.57-8.59-.11-1.9-.44-3.76-.81-5.61-2.59,2.01-5.67,3.57-9.03,3.51,4.03-3.42,9.13-5.28,13.11-8.77,1.18,1.59,2.56,3.03,4.19,4.16,1.87-1.89,3.14-4.23,4.14-6.67-1.51-.2-3.02-.41-4.53-.61,1.14-1.03,2.14-2.21,3.11-3.41.03-3.72.27-7.5-.67-11.14-.57-.02-1.71-.06-2.28-.07.54-.45,1.62-1.34,2.16-1.79-.33-2.95-.66-5.9-.85-8.86-.42.03-1.26.08-1.68.1.03,2.33-.08,4.77-1.55,6.7-1.96,2.93-4.64,7.05-8.76,5.83-.78-3.73-1.59-7.67-.36-11.4-2.61.26-5.22.4-7.83.28-.69-2.4-3.62-2.72-5.02-4.58-4.81-5.48-7-12.56-10.13-19.01M104.71,57.61c-.46,1.02.75,2.75,1.89,2.33.53-1.02-.75-2.76-1.89-2.33M109.38,59.28c3.15,4.77,6.55,9.93,11.96,12.36-1.32-4.91-3.02-10.29-7.31-13.43-1.67-.68-3.18.43-4.64,1.07M106.82,60.13c.13,2.88,2,5.22,3.28,7.69,1.58,3.01,4.5,6.07,8.25,4.87-2.38-3.16-5.4-5.78-7.78-8.94-1.07-1.38-2.2-2.76-3.76-3.61M75.98,70.64c-.42,2.32-.86,4.64-1,7.01.55-.09,1.65-.28,2.2-.36-.08-2.26-.6-4.47-1.2-6.64M111.5,76.7c.63,3.05-1.22,7.95,2.47,9.39,1.77-2.57,5.09-4.71,4.08-8.26-2.19-.37-4.36-.77-6.55-1.13M80.56,82.3c.18,3.04.32,6.16,1.59,8.98,1.83-.77,2.81-3.07,5.06-2.74.24-2.41.44-4.82.51-7.25-2.45-.3-5.02-.43-7.16,1.01M72.86,109.77c2.86,1.89,5.13,4.83,8.59,5.63-2.3-3.86-3.4-9.22-8.15-10.8-.5-3.08-.92-6.18-1.72-9.2-.77,4.84.56,9.62,1.28,14.38M52.18,108.61c.5,1.98.55,5.59,3.28,5.6.92-5.21,2.12-10.47,2-15.79-2.26,3.11-3.63,6.75-5.28,10.19M132.04,114.76c2,.37,3.99.74,5.99,1.08.51-3.59,1-7.28.27-10.88-.35-1.38-.32-3.34-2.07-3.67-5.23,2.4-3.73,8.82-4.2,13.46M107.12,123.22c-.18.05-.52.14-.7.19-.32.38-.96,1.16-1.27,1.55.02.38.06,1.14.07,1.51,3.4,1.94,7.02,3.45,10.8,4.48,1.45-4.1,1.83-8.49,3.19-12.62l.27-.03c1.12-1.83,2.1-3.75,2.88-5.75-5.09,3.54-10.39,6.79-15.24,10.67M86.03,120.98c1.95,4.21,4.85,7.87,7.45,11.69,3.7-.6,5.89-3.82,8.02-6.57,0-.45-.04-1.34-.05-1.79-1.42-.12-2.85-.22-4.26-.33-2.49-1.98-5.19-3.68-7.47-5.92-1.24.97-2.47,1.94-3.69,2.91M83.74,120.38c.75,6.3,2.72,12.5,2.01,18.92,1.81-2.25,4.33-3.73,6.7-5.32-3.96-3.8-6.52-8.64-8.71-13.6M108.83,129.66c1.69,1.7,3.93,2.68,6.22,3.29-.87-2.52-4.14-2.38-6.22-3.29M105.96,131.11c.38,1.95.73,3.92,1.01,5.89,2.26.97,4.64,1.64,7.08,1.94,1.44-1.44,3.7-1.27,5.53-1.91-.11-.53-.33-1.59-.44-2.12-1.45.24-2.77,1.36-4.28,1.02-3.22-1.09-6.28-2.65-8.9-4.82M94.56,136.35c-2.01-2.58-4.34.68-5.9,2.07-1.86,1.56-1.34,4.1-1.14,6.22,2.6.67,4.99-.81,6.93-2.38,2.74-2.4,5.36-5.33,5.77-9.13-1.56,1.6-3.52,2.65-5.66,3.22Z"/>
  </g>
  <g id="_406197ff" data-name="#406197ff">
    <path class="cls-1" d="M84.04,31.69c5.47-2.75,11.3-6.3,17.7-4.86,4.35,1.06,8.6,2.82,12.01,5.79,5.18,4.44,10.44,8.8,15.95,12.84,3.89,3.27,8.4,5.78,12.1,9.25,2.93,4.75,5.25,10.13,5.43,15.79-1.2-.96-2.35-1.96-3.61-2.86-2.37-1.76-5.41-2.02-8.21-2.61-3.14-5.33-5.98-11.07-10.57-15.33,1.97,4.56,5.28,8.35,7.64,12.68,3.18,5.75,6.24,11.87,6.54,18.56-3.92-2.8-4.75-7.99-8.41-10.94.73,3.11,2.25,5.94,3.06,9.01.3,2.71.04,5.44.07,8.16-.61.94-1.22,1.88-1.83,2.83-1.35-4.63-2.61-9.29-3.67-13.99.4-8.04-2.67-15.8-6.37-22.8-1.81-3.8-5.9-5.55-9.33-7.57,2.23,2.54,4.7,4.87,6.75,7.57,4.31,5.8,6.89,12.84,7.36,20.06-5.43-3.59-5.63-11.17-10.58-15.31.46-.6.91-1.21,1.38-1.81-1.12.06-2.23.11-3.35.17-2.06-2.23-4.34-4.3-7.05-5.69,1.63,2.32,3.46,4.48,5.29,6.63-1.03.58-2.07,1.15-3.1,1.74-2.11-1.46-4.18-2.99-6.34-4.39-1.02-.68-2.06-1.36-3.09-2.03-.19,7.63,3.88,15.22,10.44,19.14.74.49,1.47.99,2.21,1.48-2.07-.07-4.15-.19-6.22-.36,0,.47,0,1.4,0,1.88-5.63-1.21-9.77-5.96-11.17-11.41-2.31-4.6-4.61-9.64-8.98-12.64-.28.49-.83,1.48-1.1,1.97-2.65,3.13-1.13,7.93-3.94,10.8-.14-1.97-.24-3.95-.39-5.94-1.43,1.12-1.94,2.85-2.51,4.48-1.2,0-2.39.04-3.59.07,1.06.43,2.13.86,3.19,1.29-1.93,4.71-3.67,9.48-5.1,14.37-1.53.84-3.01-.98-2.9-2.42-.03-5.04,1.4-9.96,1.54-14.99.08-4.13,1.44-8.06,2.08-12.1-4.84,6.81-4.16,15.45-5.55,23.29-.1,5.28.33,10.55.33,15.84-1.05-.2-2.1-.4-3.15-.6-1.62-.51-3.22-1.08-4.82-1.65.03-3.44-.07-6.88-.28-10.31,0-.6.03-1.79.04-2.38-.79-.06-2.37-.17-3.16-.22-.17-3.52-.07-7.03-.15-10.55.95-4.17,1.81-8.65,4.87-11.86,2.86-3.02,5.59-6.22,8.79-8.89,2.55-1.23,5.5-1.25,8.23-1.79,1.59-2.64,3.49-5.07,5.52-7.4M64.57,63.95c-.47,2.88-.41,5.85-.03,8.75.56.1,1.67.3,2.22.39-.3-3.64-.47-7.28-.68-10.92-.92.26-1.42.85-1.52,1.79Z"/>
    <path class="cls-1" d="M58.94,101.14c3.61,1.09,7.24,2.12,10.94,2.9,1.54,4.91,1.58,10.1,1.94,15.19-1.76-1.09-3.51-2.19-5.22-3.34-.38.28-1.14.84-1.53,1.12-1.28-1.72-2.66-3.37-4.2-4.87-.3,2.98-.33,5.97-.39,8.96-.63-.54-1.91-1.63-2.54-2.17-.92-5.91.33-11.92,1-17.8Z"/>
  </g>
  <g id="_2c477cff" data-name="#2c477cff">
    <path class="cls-1" d="M101.74,26.83c9.67.37,18.57,4.95,26.24,10.56,1.71,1.27,3.28,2.73,4.8,4.23,2.26,2.27,4.15,4.9,5.52,7.81-2.87-1.7-5.48-3.78-8.16-5.75-.11.44-.33,1.33-.44,1.78-5.51-4.04-10.77-8.4-15.95-12.84-3.41-2.97-7.66-4.73-12.01-5.79Z"/>
    <path class="cls-1" d="M135.42,65.03c2.8.59,5.83.85,8.21,2.61-.45.1-1.34.3-1.78.39,4.5,3.39,9.11,7.15,11.47,12.41,1.3,3.97,2.57,8.87-.07,12.58-3.02,4.59-6.3,10.13-12.2,11.16,1.14-3.72,2.26-7.48,2.58-11.38-1.59.37-3.48.49-4.35,2.11-2.43,3.63-5.07,7.22-9.05,9.29-.1-2.59-.31-5.16-.63-7.72,1.95-1.53,4.07-2.88,5.81-4.65.53-3.94-.12-7.95.63-11.87,1.94,2.47,3.58,5.15,5.28,7.78.2-1.65.54-3.32.18-4.97-1.32-6.12-3.02-12.24-6.08-17.73Z"/>
  </g>
  <g id="_28416bff" data-name="#28416bff">
    <path class="cls-1" d="M81.06,63.44c2.81-2.88,1.28-7.68,3.94-10.8-.6,6.7-.56,13.43.07,20.13-.87-2.62-1.69-5.28-2.39-7.95-.87-.44-1.74-.88-2.6-1.35-.48-.37-1.43-1.12-1.92-1.49.57-1.64,1.08-3.37,2.51-4.48.15,1.98.25,3.96.39,5.94Z"/>
  </g>
  <g id="_f4e8daff" data-name="#f4e8daff">
    <path class="cls-1" d="M87.56,52.05c3.14,6.45,5.32,13.53,10.13,19.01,1.4,1.86,4.33,2.18,5.02,4.58,2.61.12,5.23-.02,7.83-.28-1.23,3.73-.42,7.67.36,11.4,4.12,1.22,6.8-2.9,8.76-5.83,1.47-1.93,1.58-4.37,1.55-6.7.43-.02,1.27-.07,1.68-.1.19,2.96.51,5.91.85,8.86-.54.45-1.62,1.34-2.16,1.79.57.02,1.71.06,2.28.07.94,3.64.7,7.42.67,11.14-.97,1.19-1.96,2.37-3.11,3.41-1.23,1.09-2.51,2.1-3.8,3.13-3.98,3.5-9.08,5.35-13.11,8.77,3.36.07,6.44-1.5,9.03-3.51.37,1.85.7,3.71.81,5.61-4.18,2.4-8.31,4.99-11.57,8.59-.31.07-.92.23-1.23.32-.2-3.02-1.18-5.91-2.79-8.48,1.52.13,2.78-.59,3.93-1.44-4.09-1.62-8.69-.72-12.67-2.79-1.41-.49-2.83-.95-4.23-1.47-3.39-1.54-7.02-2.72-10.04-4.97-1.22-.68-1.27-2.1-1.53-3.31-1.38-6.75-2.65-13.53-3.41-20.38.31-.19.91-.54,1.22-.72l.65.05.25,1.61c2.08-1.67,4.87-1.34,7.32-.96-2.38,3.46-.72,7.95.05,11.7.78.38,1.55.77,2.32,1.17l-.02-.69c2.5.61,3.2-2.89,5.73-2.03,1.08-3.8,1.3-7.77.75-11.67.76-.32,1.4-.79,1.89-1.44-.85.02-2.53.05-3.38.07.08-4.02-1.28-7.9-1.2-11.92l1.42-.68c-.37-.09-1.1-.28-1.47-.37.03-3.88.34-7.74,1.21-11.53M101.83,93.03c-3.65,1.69-8.29,1.82-10.87,5.28.6,1.14,1.25,2.28,1.92,3.41.48.23,1.44.71,1.92.95.05.4.14,1.21.19,1.61,2.34,1.16,5.02,1.53,7.56.85,4.5-1.62,7.43-7.19,5.48-11.72-1.96-.83-4.19-1.4-6.2-.36Z"/>
    <path class="cls-1" d="M38.73,140.08c3.29-.91,6.51-2.11,9.89-2.66.79-.05,2.38-.14,3.17-.2-2.28,3.23-6.22,4.43-9.07,7.02,3.08-.6,6.17-1.3,9.32-1.24-1.76,2.2-4.22,3.61-6.41,5.31,2.34-.44,4.68-.96,7.04-1.33-.54,2.91-3.36,4.08-5.57,5.52.97.1,2.9.31,3.88.41-2.27,4.15-7.11,1.43-10.73,1.83-1.77-4.69-1.77-9.73-1.53-14.67Z"/>
  </g>
  <g id="_2b487bff" data-name="#2b487bff">
    <path class="cls-1" d="M99.81,52.58c1.03.67,2.07,1.35,3.09,2.03-.47.08-1.4.24-1.88.32,3.31,5.47,6.26,11.14,9.23,16.79-6.56-3.92-10.63-11.51-10.44-19.14Z"/>
  </g>
  <g id="_999795ff" data-name="#999795ff">
    <path class="cls-1" d="M104.71,57.61c1.14-.44,2.42,1.3,1.89,2.33-1.14.43-2.34-1.3-1.89-2.33Z"/>
  </g>
  <g id="_345588ff" data-name="#345588ff">
    <path class="cls-1" d="M109.38,59.28c1.46-.64,2.98-1.75,4.64-1.07,4.29,3.14,5.99,8.51,7.31,13.43-5.41-2.43-8.8-7.58-11.96-12.36Z"/>
  </g>
  <g id="_f3e8d9ff" data-name="#f3e8d9ff">
    <path class="cls-1" d="M106.82,60.13c1.56.85,2.69,2.23,3.76,3.61,2.38,3.16,5.4,5.78,7.78,8.94-3.75,1.2-6.67-1.85-8.25-4.87-1.28-2.47-3.15-4.81-3.28-7.69Z"/>
    <path class="cls-1" d="M75.98,70.64c.6,2.18,1.12,4.38,1.2,6.64-.55.08-1.65.27-2.2.36.14-2.36.58-4.69,1-7.01Z"/>
    <path class="cls-1" d="M51.93,154.65c.42.16,1.27.46,1.69.6-.2,1.54-.38,3.1-.56,4.65-.18-1.21-.33-2.41-.47-3.62-1.27,1.17-2.53,2.34-3.79,3.53-1.22-.72-2.44-1.43-3.64-2.18-.51-.02-1.53-.05-2.04-.06-.83-.81-1.66-1.62-2.48-2.43,3.72.88,7.82,1.62,11.29-.5Z"/>
  </g>
  <g id="_263a5cff" data-name="#263a5cff">
    <path class="cls-1" d="M64.57,63.95c.09-.94.6-1.53,1.52-1.79.21,3.65.38,7.29.68,10.92-.55-.09-1.67-.29-2.22-.39-.38-2.89-.45-5.86.03-8.75Z"/>
  </g>
  <g id="_3f6196ff" data-name="#3f6196ff">
    <path class="cls-1" d="M80.07,63.48c.86.47,1.72.91,2.6,1.35.7,2.67,1.52,5.32,2.39,7.95.16.73.49,2.19.66,2.91-1.85.4-3.69.81-5.55,1.21-.41-4.46-.56-8.95-.1-13.42Z"/>
  </g>
  <g id="_27416eff" data-name="#27416eff">
    <path class="cls-1" d="M56.78,72.17c.79.06,2.37.17,3.16.22,0,.6-.03,1.79-.04,2.38-1.72,4.35-1.05,9.05-1.5,13.59-1.64-2.54-3.56-5.68-2.34-8.79.83-2.38.88-4.91.71-7.41Z"/>
  </g>
  <g id="_2b477bff" data-name="#2b477bff">
    <path class="cls-1" d="M124.73,75.2c1.17.27,2.34.54,3.52.8,1.06,4.71,2.32,9.36,3.67,13.99.61-.95,1.22-1.89,1.83-2.83-.09,1.51.03,3.07-.44,4.53-1.86,2.13-4.4,3.48-6.75,4.99-.16-7.2-1.75-14.28-1.82-21.48Z"/>
  </g>
  <g id="_ded652ff" data-name="#ded652ff">
    <path class="cls-1" d="M111.5,76.7c2.19.35,4.36.75,6.55,1.13,1,3.55-2.32,5.69-4.08,8.26-3.68-1.44-1.83-6.34-2.47-9.39Z"/>
    <path class="cls-1" d="M80.56,82.3c2.14-1.44,4.72-1.31,7.16-1.01-.07,2.43-.27,4.84-.51,7.25-2.25-.33-3.23,1.97-5.06,2.74-1.27-2.82-1.41-5.94-1.59-8.98Z"/>
  </g>
  <g id="_404550ff" data-name="#404550ff">
    <path class="cls-1" d="M59.68,86.65c1.78,0,3.55,0,5.33.08,1.05.2,2.1.4,3.15.6.09,1.65.26,3.3.49,4.94-2.91-.18-5.82-.38-8.74-.59.28-.19.82-.56,1.1-.74-.52-1.4-.97-2.84-1.34-4.29Z"/>
    <path class="cls-1" d="M60.96,96.8c2.91.47,5.85.71,8.78,1.01.2,2.07.14,4.16.14,6.23-3.7-.78-7.33-1.81-10.94-2.9.17-1.07.34-2.14.52-3.21.37-.28,1.13-.85,1.5-1.14Z"/>
  </g>
  <g id="_3f6197ff" data-name="#3f6197ff">
    <path class="cls-1" d="M59.92,91.68c2.91.2,5.82.41,8.74.59.33,1.85.76,3.69,1.09,5.55-2.93-.31-5.87-.54-8.78-1.01-.39-.07-1.17-.23-1.56-.31.12-1.61.33-3.21.52-4.81Z"/>
  </g>
  <g id="_f1b89eff" data-name="#f1b89eff">
    <path class="cls-1" d="M94.16,97.26c3.8-1.73,7.68-3.42,11.79-4.28,2.42,4.36-.65,8.76-3.81,11.68-2.62.1-5.09-.7-7.33-2-.47-.24-1.43-.72-1.92-.95.43-1.48.76-3,1.27-4.45Z"/>
  </g>
  <g id="_2b477aff" data-name="#2b477aff">
    <path class="cls-1" d="M72.86,109.77c-.73-4.75-2.06-9.54-1.28-14.38.8,3.02,1.22,6.12,1.72,9.2,4.75,1.58,5.85,6.94,8.15,10.8-3.46-.8-5.73-3.74-8.59-5.63Z"/>
    <path class="cls-1" d="M117.64,102.51c1.28-1.02,2.57-2.04,3.8-3.13,1.51.2,3.02.41,4.53.61-1,2.44-2.27,4.78-4.14,6.67-1.63-1.13-3.01-2.57-4.19-4.16Z"/>
  </g>
  <g id="_2a487bff" data-name="#2a487bff">
    <path class="cls-1" d="M52.18,108.61c1.65-3.44,3.01-7.08,5.28-10.19.12,5.32-1.08,10.58-2,15.79-2.73,0-2.77-3.62-3.28-5.6Z"/>
  </g>
  <g id="_737272ff" data-name="#737272ff">
    <path class="cls-1" d="M37.95,104.2c1.57-1.34,3.71-.6,5.56-.51.07.42.2,1.26.28,1.67-2.67,2.38-6.54,3.41-8.3,6.69.82-.43,2.47-1.28,3.28-1.71l.2,1.89c0,.48,0,1.44.02,1.93l-1.35.52c-.15-.66-.46-1.99-.61-2.66-.56.51-1.68,1.53-2.25,2.03-.75-.69-1.51-1.37-2.26-2.06,1.92-2.52,2.87-5.8,5.43-7.79M36.23,108.89c2.23-1.27,4.39-2.67,6.47-4.19-3.15-1.77-5.38,1.73-6.47,4.19Z"/>
  </g>
  <g id="_e4e5e4ff" data-name="#e4e5e4ff">
    <path class="cls-1" d="M36.23,108.89c1.09-2.46,3.31-5.95,6.47-4.19-2.07,1.52-4.23,2.91-6.47,4.19Z"/>
  </g>
  <g id="_2a477aff" data-name="#2a477aff">
    <path class="cls-1" d="M81.3,108.09c1.49.25,3.03.6,4.49.03,1.4.52,2.82.98,4.23,1.47.83.99,1.67,1.97,2.49,2.98-4.46,2.12-8.51-1.21-11.22-4.48Z"/>
  </g>
  <g id="_bbbebcff" data-name="#bbbebcff">
    <path class="cls-1" d="M38.97,112.23c1.29-.57,2.57-1.16,3.84-1.76.11.92.33,2.75.45,3.68.6-1.23,1.24-2.44,1.85-3.66.77.31,2.34.92,3.11,1.24-1.21,1.55-2.88,2.61-4.87,2.88-.46-.63-.91-1.27-1.38-1.89-.99.48-1.98.98-2.99,1.44,0-.48-.02-1.44-.02-1.93Z"/>
    <path class="cls-1" d="M124.21,129.19c.46-4.11-.65-8.97,2.6-12.2-.5,10.11.49,20.2.6,30.3-2.18-5.77-3.81-11.88-3.2-18.11Z"/>
  </g>
  <g id="_9ea1a3ff" data-name="#9ea1a3ff">
    <path class="cls-1" d="M107.12,123.22c4.85-3.88,10.15-7.13,15.24-10.67-.77,2-1.76,3.92-2.88,5.75l-.27.03c-4.54.17-7.64,4.3-12.1,4.89Z"/>
  </g>
  <g id="_d5d9daff" data-name="#d5d9daff">
    <path class="cls-1" d="M123.94,114.48c1.24.46,2.47.91,3.7,1.39l-.84,1.13c-3.25,3.23-2.14,8.09-2.6,12.2-.6,6.22,1.02,12.34,3.2,18.11.4,2.76.77,5.54.97,8.33-1,.88-2.24,1.65-2.65,3.01-1.53,4.03-3.51,8.04-3.53,12.45,3.51.57,6.8-.87,10.21-1.43.25.49.76,1.49,1.01,1.98-2.1.55-4.36,1.06-5.77,2.88-2.3,2.89-6.22,3.11-9.54,4h-.54c-.55-7.06-4.37-13.26-5.74-20.13-1.27-6.26-2.74-12.49-4.24-18.7,3.7.42,7.46.14,10.92-1.34,1.36-.1,2.72-.2,4.08-.3-.41-2.61-2.56-4.19-4.44-5.77,2.16-5.85,4.29-11.71,5.79-17.78Z"/>
    <path class="cls-1" d="M107.12,123.22c4.46-.6,7.56-4.73,12.1-4.89-1.36,4.13-1.74,8.51-3.19,12.62-3.78-1.02-7.41-2.53-10.8-4.48-.02-.37-.06-1.13-.07-1.51.32-.39.96-1.17,1.27-1.55.18-.05.52-.14.7-.19Z"/>
    <path class="cls-1" d="M136.52,117.68c3.07,1.66,6.68,3.28,8.23,6.63,2.9,6.22,3.61,13.14,5.19,19.75,1.27,5.28,1.08,10.82-.2,16.09.55.51,1.11,1.02,1.66,1.54.13-.81.38-2.43.51-3.24,3.07,2.28,4.75,5.79,6.72,8.95l.41.82c-3.92,1.23-7.39,3.77-11.5,4.37-2.93.46-5.78-.66-8.68-.72-1.11.64-2.03,1.54-3.02,2.33-.29-.2-.88-.6-1.17-.81,2.59-2.02,5.01-4.27,7.84-5.95-.82-2.82-1.75-5.6-2.49-8.44-.95-3.39-.13-6.94-.75-10.37-.82-4.9-1.58-9.84-1.67-14.83-.28-5.38.77-10.9-1.07-16.12Z"/>
    <path class="cls-1" d="M66.65,129.95c2.39-1.14,4.85-2.19,7.46-2.66.07,6.56-.12,13.13.83,19.64-.05,8.49-.53,17.02.62,25.47,1.13,0,2.26.03,3.39.05.66.56,1.32,1.11,1.97,1.66,1.6.1,3.2.23,4.8.39,2.62-3.77.69-8.36,1.39-12.55.28-.5.84-1.53,1.12-2.04,1.72,5.17.9,12.08,6,15.41,1.16.65,1.13,2.04,1.45,3.19h-2.63c-2.07-1.06-3.89-2.5-5.65-4-2.28.75-4.68,1.14-7.06.73-2.95-.21-6.04-1.67-8.87-.15-3.56,1.66-7.52,2.02-11.41,1.82-.78-2.98-1.85-5.87-3.35-8.56.72-.61,1.43-1.23,2.16-1.84-.5-2.74-.53-5.54.02-8.26.8-3.83.57-7.78,1.39-11.6.56-1.92,1.12-3.83,1.72-5.74,1.89,8.09,2.49,16.51,5.56,24.29,1.14,2.45.87,6.08,3.62,7.36,1.76-1.14,1.45-3.38,1.31-5.15-.33-3.77-1.84-7.28-2.53-10.97-.49-8.89-3.5-17.49-3.31-26.47Z"/>
    <path class="cls-1" d="M99.22,139.51c1.45-2.03,1.37-4.66,1.94-7,1.24,4.67-1.15,9.02-2.02,13.49-.78,4.16-2.18,8.2-2.64,12.42-2.02-3.7-4.28-7.34-7.56-10.07-.87,1.11-1.74,2.21-2.61,3.33-.09-2.09-.13-4.19-.2-6.28,5.18,1.29,10.07-1.94,13.08-5.9Z"/>
    <path class="cls-1" d="M94.56,136.35c2.14-.57,4.09-1.62,5.66-3.22-.41,3.8-3.02,6.73-5.77,9.13-1.94,1.57-4.34,3.05-6.93,2.38-.2-2.11-.72-4.65,1.14-6.22,1.56-1.4,3.89-4.65,5.9-2.07Z"/>
    <path class="cls-1" d="M105.37,136.93c.42,6.06,1.34,12.02,3.41,17.76,1.81,8.06,5.55,15.49,7.41,23.53-3.48-2.04-7.35-1.38-10.79.28h-7.75c.7-4.92.65-9.92,1.4-14.83,1.02-7.98.9-16.28,3.87-23.87.47,5.43,0,10.92.88,16.32.53,3.66.54,7.36.6,11.04.6,0,1.79,0,2.38.02-.47-10.09-2.6-20.15-1.4-30.26Z"/>
  </g>
  <g id="_383c48ff" data-name="#383c48ff">
    <path class="cls-1" d="M36.11,120.28c.34-1.36,1.27-2.41,2.11-3.48l-.34,2.23c1.96-.98,4.01-1.8,6.23-1.88l-.48,1.93c2.36-1.6,5.18-1.5,7.87-1.91-.2.62-.62,1.88-.83,2.5.6-.07,1.78-.21,2.37-.28-1.28.55-2.59,1.07-3.9,1.56l.7-3.14c-.84.78-2.52,2.33-3.36,3.11.02-.75.06-2.26.07-3.01-1.1.79-2.18,1.6-3.25,2.44-1.5,0-3.5.61-3.61-1.6-2.66,1.01-3.3,4.03-4.67,6.23-.51.06-1.54.17-2.05.22.69-1.88,2.62-2.97,3.13-4.93M41.46,118.29c-1.67,2.73,3.15.1,0,0Z"/>
    <path class="cls-1" d="M41.99,137.56c-.07-3.67-2.7-7.87.09-11.09,3.92,1.99,5.66,6.13,7.7,9.75,1,.08,1.99.17,2.99.25-.09,5.03,2.21,9.78,1.49,14.88-.59-.12-1.75-.34-2.33-.47-.24.51-.72,1.53-.95,2.04-.98-.1-2.91-.31-3.88-.41,2.21-1.44,5.03-2.61,5.57-5.52-2.36.37-4.7.89-7.04,1.33,2.19-1.7,4.65-3.12,6.41-5.31-3.15-.07-6.24.64-9.32,1.24,2.85-2.6,6.79-3.8,9.07-7.02-.79.06-2.38.15-3.17.2-.4-.74-.79-1.47-1.17-2.21-1.28-2.59-2.98-4.92-4.91-7.05.06,2.17.09,4.4.83,6.49.29.99.58,1.98.87,2.97-.57,0-1.69-.04-2.25-.06M50.15,140.4c-.49.32-1.48.94-1.97,1.26.35,1.26,2.51.87,3.24.08.45-1.14.03-1.58-1.27-1.34Z"/>
  </g>
  <g id="_d5d9d9ff" data-name="#d5d9d9ff">
    <path class="cls-1" d="M86.03,120.98c1.23-.98,2.46-1.94,3.69-2.91,2.28,2.23,4.98,3.94,7.47,5.92,1.41.1,2.84.2,4.26.33,0,.45.04,1.34.05,1.79-2.13,2.74-4.32,5.97-8.02,6.57-2.61-3.81-5.5-7.47-7.45-11.69Z"/>
  </g>
  <g id="_c1c3c2ff" data-name="#c1c3c2ff">
    <path class="cls-1" d="M83.74,120.38c2.19,4.96,4.75,9.81,8.71,13.6-2.37,1.59-4.88,3.07-6.7,5.32.71-6.42-1.26-12.63-2.01-18.92Z"/>
  </g>
  <g id="_c0c0bfff" data-name="#c0c0bfff">
    <path class="cls-1" d="M148.63,121.91c.81.73,1.55,1.54,1.7,2.68-.4.17-1.19.51-1.58.68,2.88,7.37,4,15.24,5.61,22.94,1.34,6.42,4.07,12.56,4.27,19.19-1.97-3.16-3.65-6.67-6.72-8.95,2.45-9.16-1.27-18.2-2.74-27.17-.73-2.77-.53-6.08-2.68-8.23.76.31,2.29.92,3.05,1.22l-.92-2.35Z"/>
    <path class="cls-1" d="M62,140.89c.74-2.15,1.67-4.21,2.63-6.27.73,6.97.35,14.1,2.66,20.81.67.25,2,.74,2.67.99.69,3.69,2.21,7.2,2.53,10.97.14,1.78.45,4.01-1.31,5.15-2.74-1.28-2.47-4.91-3.62-7.36-3.07-7.79-3.68-16.2-5.56-24.29Z"/>
  </g>
  <g id="_161e2bff" data-name="#161e2bff">
    <path class="cls-1" d="M148.76,125.27c.39-.17,1.18-.51,1.58-.68.23.23.71.69.94.92.98,5.65,2.98,11.06,3.9,16.73,1.41,8.63,4.24,16.94,5.78,25.56-.48.1-1.43.32-1.91.42l-.41-.82c-.2-6.63-2.93-12.77-4.27-19.19-1.61-7.69-2.73-15.57-5.61-22.94Z"/>
    <path class="cls-1" d="M39.32,155.37c-2.79-4.3-2.61-10.02-1.84-14.91l1.26-.38c-.24,4.94-.24,9.98,1.53,14.67,3.62-.4,8.46,2.32,10.73-1.83.77-.35,2.33-1.05,3.1-1.4-.11.94-.35,2.81-.47,3.74-.43-.15-1.27-.45-1.69-.6-3.47,2.12-7.56,1.39-11.29.5.83.81,1.66,1.62,2.48,2.43.51,0,1.53.04,2.04.06,1.2.74,2.42,1.46,3.64,2.18,1.26-1.18,2.52-2.35,3.79-3.53.14,1.21.3,2.41.47,3.62.79,1.93,1.71,3.8,2.62,5.68.16-2.55.25-5.1.44-7.65,1.33-3.19,1.38-6.66,1.6-10.06.16-.15.47-.47.62-.62l1.94-.62c-.82,3.82-.59,7.77-1.39,11.6-.55,2.73-.52,5.53-.02,8.26-.73.61-1.44,1.23-2.16,1.84,1.5,2.69,2.57,5.58,3.35,8.56l-1.27-.08c-.47-.85-.93-1.7-1.38-2.57-2.18.2-4.08,1.14-5.87,2.34-1.56-2.12-2.97-4.35-4.43-6.54-3.17-4.6-3.76-10.63-7.81-14.67M52.03,168.44c-.78.84.26,2.78,1.4,2.19.8-.84-.26-2.81-1.4-2.19Z"/>
  </g>
  <g id="_e9dfd2ff" data-name="#e9dfd2ff">
    <path class="cls-1" d="M42.54,128.16c1.94,2.13,3.63,4.47,4.91,7.05-.65.38-1.94,1.14-2.6,1.54-.37-.53-1.12-1.58-1.49-2.1-.74-2.08-.77-4.32-.83-6.49Z"/>
  </g>
  <g id="_d5d9d8ff" data-name="#d5d9d8ff">
    <path class="cls-1" d="M108.83,129.66c2.07.91,5.35.77,6.22,3.29-2.29-.61-4.52-1.59-6.22-3.29Z"/>
    <path class="cls-1" d="M105.96,131.11c2.62,2.17,5.68,3.73,8.9,4.82,1.51.33,2.83-.78,4.28-1.02.11.53.33,1.59.44,2.12-1.82.64-4.08.47-5.53,1.91-2.44-.3-4.82-.97-7.08-1.94-.29-1.97-.63-3.94-1.01-5.89Z"/>
  </g>
  <g id="_989695ff" data-name="#989695ff">
    <path class="cls-1" d="M43.37,134.65c.37.52,1.12,1.57,1.49,2.1.65-.39,1.94-1.15,2.6-1.54.38.74.77,1.47,1.17,2.21-3.38.55-6.6,1.75-9.89,2.66l-1.26.38c.75-1.9,2.58-2.72,4.51-2.9.56.02,1.68.05,2.25.06-.3-.99-.59-1.98-.87-2.97Z"/>
  </g>
  <g id="_aaa7a3ff" data-name="#aaa7a3ff">
    <path class="cls-1" d="M50.15,140.4c1.29-.24,1.71.2,1.27,1.34-.73.79-2.88,1.17-3.24-.08.49-.32,1.48-.94,1.97-1.26Z"/>
  </g>
  <g id="_babebdff" data-name="#babebdff">
    <path class="cls-1" d="M86.33,151.69c.87-1.12,1.74-2.22,2.61-3.33,3.28,2.73,5.55,6.36,7.56,10.07-.28,6.69-1.27,13.4-.33,20.08h-.49c-.33-1.15-.29-2.54-1.45-3.19-5.1-3.33-4.28-10.23-6-15.41-.28.51-.84,1.54-1.12,2.04.29-3.44-.55-6.83-.78-10.25Z"/>
    <path class="cls-1" d="M125.73,158.63c.41-1.36,1.65-2.12,2.65-3.01.36,4.89,1.79,9.66,4.03,14.02-3.41.56-6.7,2-10.21,1.43.02-4.41,2-8.42,3.53-12.45Z"/>
  </g>
  <g id="_383e49ff" data-name="#383e49ff">
    <path class="cls-1" d="M52.03,168.44c1.14-.62,2.21,1.35,1.4,2.19-1.14.6-2.19-1.35-1.4-2.19Z"/>
  </g>
  <g id="_f6f7f7ff" data-name="#f6f7f7ff">
    <path class="cls-1" d="M105.39,178.5c3.44-1.66,7.31-2.32,10.79-.28l-1.32.28h-9.47Z"/>
  </g>
</svg>