<?xml version="1.0" encoding="UTF-8"?>
<svg id="_图层_1" data-name="图层 1" xmlns="http://www.w3.org/2000/svg" viewBox="0 0 192 192">
  <defs>
    <style>
      .cls-1 {
        fill: none;
        stroke: #000;
        stroke-linecap: round;
        stroke-linejoin: round;
        stroke-width: 7px;
      }
    </style>
  </defs>
  <g id="_e0ca86ff" data-name="#e0ca86ff">
    <path class="cls-1" d="M49.67,26c2.08-2.89,6.35-7.28,9.69-3.58,7.82,8.06,11,19.31,17.19,28.54,8.47-.49,16.92-1.5,25.41-1.01,4.89.19,9.75,1.04,14.63.76,5.99-7.31,9.11-16.58,14.89-24.1,1.88-2.2,3.85-6.35,7.36-5.19,3.97,2.36,6.01,6.8,8.03,10.77,6.86,15.27,11.8,31.36,15.25,47.74,2.69,8.47,3.3,17.42,5.75,25.93,3.62,1.32,7.55.85,11.33.96.11,1.68.23,3.36.33,5.03-3.58.17-7.16.29-10.76.41.49,2.25.99,4.51,1.48,6.76,3.08.17,6.14.35,9.21.55-.08,1.62-.16,3.25-.25,4.87-2.85.15-5.7.32-8.55.51.17,2.53.15,5.13,1.03,7.55,2.42.77,4.97,1.05,7.48,1.38.05,1.66.08,3.34.12,5.01-2.88.24-5.74.49-8.59.81-1,6.23-2.4,12.94-7.23,17.42-7.66,7.6-18.78,9.41-28.96,11.08-21.76,3.02-43.88,3.77-65.74,1.45-11.11-.35-22.06-3.08-32.4-7.06-8.02-3.4-12.46-11.68-13.48-20.01-.33-5.1-6.64-2.94-10.04-3.6-.15-1.62-.28-3.24-.41-4.86,3.42-.24,6.84-.43,10.27-.61.16-2.85.32-5.69.49-8.52-3.48-.24-6.96-.41-10.44-.55-.09-1.62-.17-3.26-.24-4.89,3.86-.24,7.71-.43,11.57-.64.15-2.24.31-4.47.47-6.7-4.03-.08-8.07-.17-12.1-.33.11-1.69.23-3.38.36-5.07,4.34,0,8.68-.13,13.01-.57,2.32-12.26,3.1-24.89,7.34-36.71,4.35-14.86,7.72-30.48,16.5-43.52M98.33,77.19c1.69,4.19,3.26,8.47,3.94,12.96,2.53,16.8,2.04,34.21-2.64,50.61,21.64-.92,43.25-11.21,55.77-29.22-3.91-5.74-8.4-11.11-13.68-15.66-12.01-10.44-27.08-18.8-43.4-18.7M52.02,102.94c-4.31,5.03-8.9,10.27-11,16.67.49,1.84,2.25,2.96,3.56,4.22,13.38,11.05,30.75,17.02,48.07,17.02-5.62-20.43-5.7-42.28.03-62.69-15.75,3.61-29.68,13.12-40.65,24.78Z"/>
  </g>
</svg>