<?xml version="1.0" encoding="UTF-8"?>
<svg id="_图层_1" data-name="图层 1" xmlns="http://www.w3.org/2000/svg" viewBox="0 0 192 192">
  <defs>
    <style>
      .cls-1 {
        fill: none;
        stroke: #000;
        stroke-linecap: round;
        stroke-linejoin: round;
        stroke-width: 7px;
      }
    </style>
  </defs>
  <path class="cls-1" d="M80.09,24.72c6.53-1.66,13.56,3.93,13.63,10.62.01,18.58-.15,37.16-.13,55.73-1.08-1.3-1.51-2.97-2.21-4.47-5.72-13.67-11.47-27.33-17.24-40.97-1.35-3.65-3.7-7.27-3.02-11.33.59-4.66,4.32-8.75,8.98-9.57Z"/>
  <path class="cls-1" d="M98.23,35.32c.11-6.91,7.63-12.58,14.29-10.47,5.68,1.31,9.54,7.56,8.22,13.22-.81,3.09-2.31,5.94-3.44,8.91-6.27,14.57-12.23,29.28-18.54,43.84-.1-.11-.29-.31-.39-.42-.03-18.36-.11-36.72-.15-55.08Z"/>
  <path class="cls-1" d="M52.25,36.02c4.12-2.05,9.42-1.2,12.73,1.98,2.21,1.92,3.01,4.84,4.14,7.43,6.65,15.82,12.96,31.79,19.71,47.56-1.11-.46-1.86-1.42-2.7-2.24-12.45-12.38-25.09-24.57-37.47-37.02-1.82-1.95-2.78-4.57-2.98-7.21-.04-4.37,2.55-8.7,6.57-10.51Z"/>
  <path class="cls-1" d="M132.04,35.26c4.53-1.24,9.65.75,12.23,4.65,3.07,4.24,2.48,10.56-1.3,14.17-13.24,13.14-26.44,26.33-39.89,39.27,7.17-17.21,14.17-34.48,21.34-51.68,1.31-3.2,4.28-5.59,7.61-6.41Z"/>
  <path class="cls-1" d="M30.71,56.6c4.1-3.52,10.81-3.41,14.73.33,4.3,4.12,8.39,8.44,12.67,12.58,8.91,9.2,18.23,18.01,27.02,27.31-17.4-6.95-34.74-14.13-52.1-21.18-4.06-1.78-6.63-6.24-6.46-10.63.06-3.24,1.64-6.38,4.15-8.41Z"/>
  <path class="cls-1" d="M146.2,57.27c4.32-4.54,12.5-4.23,16.43.67,4.83,5.11,3.11,14.52-3.28,17.51-17.49,7.19-35.01,14.32-52.53,21.42,3.79-4.23,8-8.05,11.92-12.15,9.19-9.12,18.24-18.37,27.45-27.45Z"/>
  <path class="cls-1" d="M16.33,88.01c1.24-6.44,8.78-10.62,14.9-8.23,16.18,6.62,32.27,13.47,48.45,20.12,1.16.49,2.41.85,3.42,1.64-18.6.08-37.2.13-55.8.2-6.89.18-12.78-7.03-10.97-13.74Z"/>
  <path class="cls-1" d="M161.25,79.61c6.22-2.1,13.5,2.42,14.52,8.86,1.41,6.45-4.13,13.15-10.67,13.25-18.79-.01-37.56-.11-56.35-.18,6.52-3.12,13.38-5.5,19.98-8.47,10.86-4.43,21.63-9.1,32.52-13.45Z"/>
  <path class="cls-1" d="M16.15,115.92c.79-5.34,5.77-9.75,11.19-9.73,14.94.04,29.89.07,44.84.11,3.6-.15,7.18.49,10.77-.03-.38.49-.85.86-1.43,1.09-15.55,6.48-31.11,12.93-46.65,19.45-3.07,1.22-6.39,2.77-9.75,1.79-5.73-.94-9.96-6.97-8.98-12.66Z"/>
  <path class="cls-1" d="M108.98,106.81c2.58-.86,5.32-.46,7.98-.31,1.86.15,3.71-.2,5.58-.21,14.2,0,28.39-.07,42.59-.08,7.04.21,12.75,7.98,10.3,14.73-1.77,6.18-9.26,9.66-15.14,7.11-17.14-6.97-34.13-14.33-51.3-21.23Z"/>
  <path class="cls-1" d="M90.12,108.85c1.85-.54,3.72-1.16,5.67-1.2-5.87,3.37-11.22,7.73-15.4,13.07-6.32,7.7-9.92,17.39-17.19,24.34-5.33,5.34-12.41,8.51-19.54,10.67-2.5.8-5.13,1.1-7.62,1.93.39-4.94-1.33-10.1-5.23-13.28-1.3-1.47-3.32-1.99-4.63-3.4,11.75.38,24.15-2.45,33.14-10.4,4.64-3.76,8.46-8.39,13.1-12.13,5.05-4.53,11.22-7.65,17.69-9.59Z"/>
  <path class="cls-1" d="M106.91,111.03c16.91,7.24,34.07,13.89,51.06,20.93,3.53,1.26,6.4,4.37,7.17,8.06.8,3.44-.06,7.23-2.39,9.91-4.01,4.97-12.27,5.29-16.68.68-11.84-11.85-23.69-23.67-35.52-35.53-1.19-1.37-2.84-2.39-3.65-4.05Z"/>
  <path class="cls-1" d="M94.63,118.17c2.49-.63,5.31.63,6.53,2.88,6.61,11.49,13.27,22.95,19.85,34.45,1.04,1.85,2.42,3.6,2.77,5.75.26,3.2-2.49,6.24-5.7,6.31-14.55.05-29.1,0-43.65.02-2.63.12-5.24-1.61-5.95-4.18-1.06-2.57.74-5.07,2.04-7.17,6.7-11.76,13.53-23.44,20.24-35.19.86-1.42,2.26-2.51,3.87-2.88Z"/>
</svg>