<?xml version="1.0" encoding="UTF-8"?>
<svg id="_图层_1" data-name="图层 1" xmlns="http://www.w3.org/2000/svg" viewBox="0 0 192 192">
  <defs>
    <style>
      .cls-1, .cls-2 {
        fill: none;
        stroke: #000;
        stroke-linecap: round;
        stroke-linejoin: round;
        stroke-width: 7px;
      }

      .cls-2 {
        isolation: isolate;
        opacity: .05;
      }
    </style>
  </defs>
  <g id="_ce72e2ff" data-name="#ce72e2ff">
    <path class="cls-1" d="M69.53,23.7c11.68-4.31,25.38-3.24,36.76,1.67-9.06,9.91-21.93,15.47-32.56,23.61-13.88,9.79-27.82,19.72-42.15,28.69-1.14,2.31-1.18.55-1.21-1.15,4.59-12.58,20.14-16.9,23.46-30.32,3.48-8.52,6.33-18.66,15.7-22.5Z"/>
  </g>
  <g id="_da71ddff" data-name="#da71ddff">
    <path class="cls-1" d="M106.29,25.37c5.77,3.37,10.48,8.2,14.91,13.13-1.64,5.8-10.2,5.66-12.53,11-10.4.68-21.3-1.47-31.47.57-6,2-3.79,9.18-5.64,13.85-1.14,4.07-3.32,7.81-6.03,11.03-2.98,4.79-10.37.48-13.32,5.46-1.82,1.78-.94,4.3-.57,6.54-4.14,6.55-12.3,9.74-18.7,13.98-1.81-2.56-3.38-5.38-4.11-8.44.08-4.02.17-8.03.09-12.05.33-1.36.89-2.65,1.46-3.92.02,1.7.07,3.46,1.21,1.15,14.33-8.98,28.27-18.91,42.15-28.69,10.63-8.14,23.5-13.71,32.56-23.61Z"/>
  </g>
  <g id="_e971d7ff" data-name="#e971d7ff">
    <path class="cls-1" d="M121.2,38.5c5.1,6.68,8.99,14.33,10.9,22.55-4.44,1.74-8.14,5-12.63,7.17-.16-2.68.42-5.53-.6-8.11-1.71-4.56-5.42-9.19-10.46-10.03l.26-.58c2.33-5.35,10.89-5.21,12.53-11Z"/>
  </g>
  <g id="_edaceaff" data-name="#edaceaff">
    <path class="cls-1" d="M77.2,50.07c10.17-2.03,21.07.11,31.47-.57l-.26.58c-10.4.18-20.81.24-31.21,0Z"/>
  </g>
  <g id="_ffe4f7ff" data-name="#ffe4f7ff">
    <path class="cls-1" d="M71.56,63.92c1.85-4.67-.36-11.85,5.64-13.85,10.4.25,20.81.19,31.21,0,5.03.84,8.74,5.47,10.46,10.03-.27,17.04-.48,34.1.02,51.14-4.05,6.72-12.24,11.88-12.01,20.84-1.01,6.52-.47,13.21,1.32,19.55,1.02,3.36,1.54,6.99,3.42,10.03,7.65,1.84,16.71.12,24.89.82.02,2.13.06,6.38.09,8.51H43.84c0-2.87,0-5.7,0-8.56,5.17-.57,10.79,1.17,15.76-.6,1.47-4.52.18-10.44.77-15.6,1.17-9.41.43-18.91.52-28.36.04-.33.13-.98.17-1.31,1.22-8.51.72-17.18.64-25.75-1.1,0-2.19.02-3.28.07-2.6-.68-5.03-1.88-6.79-3.94-.37-2.24-1.25-4.75.57-6.54,2.95-4.99,10.34-.67,13.32-5.46,2.71-3.22,4.89-6.96,6.03-11.03M79.9,76.05c-3.47,1.91-2.17,8.56,1.99,8.41,2.65-2.46,2.69-9.3-1.99-8.41M108.73,76.05c-3.02,1.76-2.09,6.11-.06,8.39,4.93,1.08,5.44-9.73.06-8.39M71.31,92.37c-2.82,1.66.9,6.22,3.16,4.08,2.97-1.57.44-6.62-3.16-4.08M113.39,92.37c-2.81,1.66.92,6.21,3.16,4.07,2.86-1.38-.04-6.69-3.16-4.07M89.74,104.79c-.1,4.04,9.65,4.04,9.48,0-3.16-.12-6.32-.12-9.48,0M92.42,108.82c1.18,4.1,4.92-1.81,0,0Z"/>
  </g>
  <g id="_fcbae7ff" data-name="#fcbae7ff">
    <path class="cls-1" d="M118.87,60.11c1.02,2.57.44,5.42.6,8.11-.1,11.17-.04,22.34,0,33.5-.33,3.14.36,6.46-.57,9.53-.5-17.04-.3-34.1-.02-51.14Z"/>
  </g>
  <g id="_f86fcdff" data-name="#f86fcdff">
    <path class="cls-1" d="M119.47,68.21c4.49-2.17,8.18-5.43,12.63-7.17,1.57,8.45,5.94,16.42,13.45,20.93.03,2.7-2,4.61-4.33,5.63-7.6,4.25-13.93,10.28-21.76,14.11-.03-11.17-.09-22.34,0-33.5Z"/>
  </g>
  <g id="_684f51ff" data-name="#684f51ff">
    <path class="cls-1" d="M79.9,76.05c4.68-.89,4.64,5.95,1.99,8.41-4.15.16-5.46-6.5-1.99-8.41Z"/>
  </g>
  <g id="_684f50ff" data-name="#684f50ff">
    <path class="cls-1" d="M108.73,76.05c5.38-1.34,4.86,9.46-.06,8.39-2.03-2.28-2.96-6.62.06-8.39Z"/>
  </g>
  <g id="_e9afecff" data-name="#e9afecff">
    <path class="cls-1" d="M28.83,92.49c-.8-3.97-.93-8.11.09-12.05.09,4.01,0,8.03-.09,12.05Z"/>
  </g>
  <g id="_fa75c2ff" data-name="#fa75c2ff">
    <path class="cls-1" d="M145.55,81.98c6.57,3.67,14.53,8.71,13.26,17.47.12-2.15-1.38-1.43-2.6-.74-16.65,10.81-32.47,22.94-49.32,33.38-.23-8.96,7.96-14.12,12.01-20.84.93-3.07.24-6.39.57-9.53,7.82-3.83,14.16-9.87,21.76-14.11,2.32-1.02,4.36-2.92,4.33-5.63Z"/>
  </g>
  <g id="_ea70d6ff" data-name="#ea70d6ff">
    <path class="cls-1" d="M51.64,86.95c1.76,2.06,4.19,3.26,6.79,3.94.8.3,1.6.62,2.39.96.4,7.21.1,14.43.12,21.65-2.17-5.02-5.76,1.66-8.53,2.93-5.56,3.16-10.82,6.74-15.45,11.18,5.47-8.71,2.68-19.48-4.02-26.67,6.4-4.24,14.56-7.43,18.7-13.98Z"/>
  </g>
  <g id="_f6ade6ff" data-name="#f6ade6ff">
    <path class="cls-1" d="M58.43,90.88c1.09-.05,2.18-.08,3.28-.07.08,8.57.58,17.24-.64,25.75-.03-1.02-.08-2.05-.13-3.07-.02-7.22.28-14.44-.12-21.65-.79-.34-1.59-.66-2.39-.96Z"/>
  </g>
  <g id="_ff9a9eff" data-name="#ff9a9eff">
    <path class="cls-1" d="M71.31,92.37c3.59-2.55,6.13,2.51,3.16,4.08-2.25,2.14-5.98-2.42-3.16-4.08Z"/>
  </g>
  <g id="_ff999dff" data-name="#ff999dff">
    <path class="cls-1" d="M113.39,92.37c3.13-2.63,6.02,2.69,3.16,4.07-2.24,2.14-5.98-2.41-3.16-4.07Z"/>
  </g>
  <g id="_fb79b9ff" data-name="#fb79b9ff">
    <path class="cls-1" d="M156.2,98.71c1.22-.69,2.73-1.41,2.6.74-1.31,7.45-4.97,14.53-4.47,22.27-16.21,8.58-30.07,21.21-46.13,29.93-1.79-6.34-2.34-13.03-1.32-19.55,16.85-10.44,32.66-22.57,49.32-33.38Z"/>
  </g>
  <g id="_fb6c92ff" data-name="#fb6c92ff">
    <path class="cls-1" d="M89.74,104.79c3.16-.11,6.31-.11,9.48,0,.17,4.04-9.58,4.03-9.48,0Z"/>
  </g>
  <g id="_f870ccff" data-name="#f870ccff">
    <path class="cls-1" d="M52.41,116.42c2.77-1.27,6.35-7.95,8.53-2.93.05,1.02.1,2.05.13,3.07-.04.33-.13.98-.17,1.31-1.41,9.38-.49,18.91-.52,28.36-.59,5.16.7,11.08-.77,15.6-5.26-.04-10.52-.43-15.78-.15-1.21.15-3.63.44-4.84.59-1.74-.34-3.47-.72-5.21-1.06-11.83-8.88-6.19-25.37,3.19-33.62,4.63-4.43,9.88-8.02,15.45-11.18Z"/>
  </g>
  <g id="_fba9e1ff" data-name="#fba9e1ff">
    <path class="cls-1" d="M60.38,146.23c.03-9.45-.89-18.98.52-28.36-.09,9.45.65,18.95-.52,28.36Z"/>
  </g>
  <g id="_fc7db0ff" data-name="#fc7db0ff">
    <path class="cls-1" d="M108.21,151.64c16.06-8.72,29.92-21.35,46.13-29.93,2.21,6.23,8.65,9.05,12.68,13.89-12.72,7.73-24.25,17.25-37.14,24.66.09.35.27,1.06.37,1.42-6.21-.04-12.41,0-18.61,0-1.88-3.04-2.4-6.67-3.42-10.03Z"/>
  </g>
  <g id="_fc82a6fe" data-name="#fc82a6fe">
    <path class="cls-1" d="M129.88,160.26c12.89-7.41,24.42-16.93,37.14-24.66.84.89,1.57,1.88,2.29,2.88v15.82c-2.48,6.41-6.3,12.73-13.1,15.06-.55-6.94-8.62-8.18-14.16-7.84-1.57-.33-3.16-.3-4.7.06-2.38.04-4.74.11-7.11.09-.09-.36-.27-1.07-.37-1.42Z"/>
  </g>
  <g id="_0d08090d" data-name="#0d08090d">
    <path class="cls-2" d="M156.21,169.36c6.8-2.33,10.62-8.66,13.1-15.06v16.7h-16.71c1.21-.54,2.42-1.06,3.61-1.64Z"/>
  </g>
  <g id="_fde2f5fe" data-name="#fde2f5fe">
    <path class="cls-1" d="M33.78,161.22c1.74.34,3.47.72,5.21,1.06.09,2.9.18,5.81.21,8.72h-9.81c-2.27-1-4.56-1.98-6.69-3.25,2.61-3.81,6.7-5.6,11.09-6.53Z"/>
  </g>
  <g id="_bc75eaff" data-name="#bc75eaff">
    <path class="cls-1" d="M137.35,161.59c1.54-.37,3.13-.39,4.7-.06,0,3.16-.02,6.31-.02,9.48h-4.67c0-3.14-.02-6.28-.02-9.41Z"/>
  </g>
  <g id="_bb74ebff" data-name="#bb74ebff">
    <path class="cls-1" d="M38.98,162.28c1.21-.15,3.63-.44,4.84-.59l.02.75c0,2.86,0,5.7,0,8.56h-4.64c-.03-2.91-.12-5.82-.21-8.72Z"/>
  </g>
  <g id="_fcaddcff" data-name="#fcaddcff">
    <path class="cls-1" d="M43.82,161.69c5.26-.28,10.52.11,15.78.15-4.97,1.77-10.59.03-15.76.6l-.02-.75Z"/>
  </g>
  <g id="_f6b2daff" data-name="#f6b2daff">
    <path class="cls-1" d="M111.63,161.67c6.2,0,12.4-.03,18.61,0,2.37.02,4.72-.05,7.11-.09,0,3.13,0,6.27.02,9.41h-.76c-.02-2.13-.06-6.38-.09-8.51-8.18-.7-17.24,1.02-24.89-.82Z"/>
  </g>
  <g id="_fddef3fe" data-name="#fddef3fe">
    <path class="cls-1" d="M142.05,161.52c5.54-.34,13.61.9,14.16,7.84-1.18.58-2.4,1.1-3.61,1.64h-10.57c0-3.16,0-6.32.02-9.48Z"/>
  </g>
</svg>