<?xml version="1.0" encoding="UTF-8"?>
<svg id="_图层_1" data-name="图层 1" xmlns="http://www.w3.org/2000/svg" viewBox="0 0 192 192">
  <defs>
    <style>
      .cls-1 {
        fill: none;
        stroke: #000;
        stroke-linecap: round;
        stroke-linejoin: round;
        stroke-width: 7px;
      }
    </style>
  </defs>
  <g id="_00d6b9ff" data-name="#00d6b9ff">
    <path class="cls-1" d="M45.04,38.15c.06-1.32.77-1.86,2.12-1.62,20.41-.07,40.83.02,61.25-.04,3.03-.08,6.44.38,8.39,3.01,7.85,9.71,13.69,21.2,16.41,33.41-7.36,2.32-14.09,6.45-19.67,11.79-4.95,4.74-9.62,9.8-14.68,14.45-11.02-19.65-25.34-37.49-42.6-51.98-3.57-3.23-7.61-5.85-11.21-9.02Z"/>
  </g>
  <g id="_133c9aff" data-name="#133c9aff">
    <path class="cls-1" d="M133.2,72.92c12.38-4,26.12-3.04,37.8,2.71-10.95,11.08-14.41,27.01-23.63,39.23-5.25,5.06-11.61,9.22-18.89,10.56-8.36,1.89-16.82-.5-24.73-3.1-8.27-2.47-16.22-5.87-24.13-9.3,6.89-3.94,13.35-8.55,19.23-13.88,5.06-4.65,9.73-9.71,14.68-14.45,5.58-5.33,12.31-9.46,19.67-11.79Z"/>
  </g>
  <g id="_3370ffff" data-name="#3370ffff">
    <path class="cls-1" d="M21.18,72.42c.38-.18,1.14-.53,1.52-.7,6.32,5.88,12.21,12.27,19.12,17.49,11.49,9.55,24.38,17.33,37.81,23.82,7.91,3.42,15.86,6.82,24.13,9.3,7.91,2.6,16.37,4.99,24.73,3.1,7.28-1.34,13.64-5.5,18.89-10.56-5.74,10.44-14.78,18.93-24.61,25.53-28.93,20.12-70.44,20.32-99.15-.34-2.92-2.36-2.56-6.44-2.6-9.78.15-19.29-.2-38.59.17-57.86Z"/>
  </g>
</svg>