<?xml version="1.0" encoding="UTF-8"?>
<svg id="_图层_1" data-name="图层 1" xmlns="http://www.w3.org/2000/svg" viewBox="0 0 192 192">
  <defs>
    <style>
      .cls-1 {
        fill: none;
        stroke: #000;
        stroke-miterlimit: 10;
        stroke-width: 7px;
      }
    </style>
  </defs>
  <path class="cls-1" d="M81.96,22.88c20.18-4.23,41.71,1.13,58.35,13.13,14.97,11.37,26.08,28.15,29.23,46.83,4.71,21.7-2.3,44.86-16.28,61.8-22.26,26.56-63.65,33.68-93.77,16.82-16.8-9.16-29.93-24.98-35.16-43.47-6.18-19.44-3.56-41.28,6.38-59.01,11.04-18.53,30.01-32.1,51.26-36.09M83.97,31.08c-26.6,4.54-49.17,26.63-53.47,53.38-1.35,13.67-1.02,28.06,5.66,40.43,13.58,29.97,51.69,45.35,82.29,33.27,32.77-10.92,52.26-50.54,40.39-83.09-7.6-22.76-28.28-40.3-51.93-44.14-7.62-.59-15.34-.67-22.94.15Z"/>
  <path class="cls-1" d="M70.09,64.37c-9.7,3.08-10.66-12.31-5.38-16.67,19.21-.67,38.5-.33,57.72-.17,5.27,1.5,2.89,9.66-2.17,9.11-15.76.45-31.55.02-47.33.17-.98,2.5-1.91,5.04-2.84,7.57Z"/>
  <path class="cls-1" d="M64.64,65.74c2.34.17,4.62.65,6.81,1.43-.02,2.36-.02,4.71-.02,7.07-4.08,2.91-7.97.74-10-3.34.82-1.28,2.41-3.88,3.21-5.16Z"/>
  <path class="cls-1" d="M110.64,73.62c3.78-1.56,10.63-1.09,9.05,4.71-9.16,6.95-20.79,9.44-30.6,15.3,1.89,2.65,4.01,5.16,6.27,7.47,12.11,12.07,23.59,24.78,35.09,37.41,1.85,4.04-1.04,7.9-5.4,7.36-15.15-15.23-29.15-31.58-44.59-46.53-2.32-.76-4.78.09-7.14.2-.87,2.63-2.06,5.27-1.87,8.14-.07,12.15.32,24.33-.28,36.48-2.58.11-5.16.22-7.73.33-1.76-5.9-1.21-12.07-1.24-18.14.06-13.63,0-27.24-.02-40.88-.26-3.08.98-5.93,2-8.77,1.59.26,4.8.78,6.42,1.04,1.34,3.58.76,7.47.85,11.2,2.84-.26,5.81-.22,8.42-1.52,10.22-4.67,20.36-9.57,30.77-13.82Z"/>
</svg>