<?xml version="1.0" encoding="UTF-8"?>
<svg id="_图层_1" data-name="图层 1" xmlns="http://www.w3.org/2000/svg" viewBox="0 0 192 192">
  <defs>
    <style>
      .cls-1 {
        fill: none;
        stroke: #000;
        stroke-linecap: round;
        stroke-linejoin: round;
        stroke-width: 9px;
      }
    </style>
  </defs>
  <g id="_ffffffff" data-name="#ffffffff">
    <path class="cls-1" d="M22.05,34.18c-.58-6.61,5.62-12.91,12.26-12.11,6.83.27,11.35,7.41,10.75,13.81-.03,31.08.02,62.13-.05,93.19,4.42-1.5,7.1-5.65,10.4-8.68,10.91-10.78,21.53-21.89,32.64-32.46,3.13-3.3,7.85-3.85,12.1-2.67,4.75,2.82,8.21,7.16,12.25,10.86,17.68,17.88,35.56,35.54,53.29,53.35,3.57,3.32,5.43,8.4,3.58,13.11-2.13,7.91-13.66,9.75-18.91,3.85-17.7-17.28-34.87-35.11-52.59-52.37-1.78-2.02-4.07.23-5.38,1.6-16.33,16.45-32.77,32.79-49.12,49.22-3.48,3.83-8.83,6.5-13.98,4.32-5.15-1.22-7.38-6.71-7.21-11.55-.07-41.16-.02-82.33-.02-123.49Z"/>
    <path class="cls-1" d="M149.3,26.08c3.55-3.9,9.5-3.65,14.2-2.48,6.28,3.02,6.96,11.83,3.88,17.26-11.15,11.03-22.28,22.09-33.34,33.21-4.88,4.65-9.16,10-14.76,13.86-5.7-4.65-10.58-10.43-17.71-12.98.5-2.02,2.18-3.37,3.53-4.82,14.85-14.58,29.36-29.49,44.21-44.06Z"/>
  </g>
</svg>