<?xml version="1.0" encoding="UTF-8"?>
<svg id="_图层_1" data-name="图层 1" xmlns="http://www.w3.org/2000/svg" viewBox="0 0 192 192">
  <defs>
    <style>
      .cls-1 {
        fill: none;
        stroke: #000;
        stroke-linecap: round;
        stroke-linejoin: round;
        stroke-width: 7px;
      }
    </style>
  </defs>
  <path class="cls-1" d="M74.71,21.66c12.02-2.69,23.46,3.18,33.83,8.5,15.17,7.73,29.15,17.94,40.38,30.8,9.49,9.68,18.15,20.93,21.67,34.25,1.8,7.36-2.82,13.98-6.61,19.85-4.89,7.72-11.03,14.57-18.08,20.4-18.55,17.78-41.92,31.19-67.49,35.21-7.01.47-15.08,1.2-20.81-3.72-10.24-8.14-10.42-22.6-12.84-34.42-8.63,7.27-9.5,19.41-8.66,29.89-8.48-3.06-15.67-11.2-15.05-20.62-.52-7.58,2.44-14.91,6.9-20.92,8.16-11.37,20.41-18.92,32.87-24.79,18.83-8.99,40.84-10.76,60.96-5.35,1.95.58,3.78,1.52,5.62,2.41-18.28,2.99-36.67,7.08-53.29,15.56.8,4.58,4.88,7.29,8.37,9.83,11.54,8.01,27.43,10.21,40.32,4.18,9.67-4.42,18.46-11.26,24.09-20.38,1.03-1.82,2.68-4.14.99-6.13-7.48-12.39-21.08-19.72-34.9-22.72-24.39-4.05-49.78,4.83-68.14,20.99-.06-15.39,3.61-30.51,7.95-45.19,4.08-11.03,10.01-23.46,21.91-27.63Z"/>
</svg>