<?xml version="1.0" encoding="UTF-8"?>
<svg id="_图层_1" data-name="图层 1" xmlns="http://www.w3.org/2000/svg" viewBox="0 0 160.43 157.51">
  <defs>
    <style>
      .cls-1 {
        fill: none;
        stroke: #000;
        stroke-width: 12px;
      }
    </style>
  </defs>
  <path class="cls-1" d="m62.81,7.67c14.03-2.92,29-2.09,42.41,3.13,16.57,6.67,31.14,19.16,38.78,35.48,9.84,19,9.84,42.5,1.68,62.08-2.29,6.3-8.41,11.3-8.37,18.29,3.25,6.64,12.22,4.79,16.7,9.94-1.2,6.47-7.31,10.46-13.56,10.86-10.72.64-21.59-5.44-26.72-14.87-.92-3.87-1.51-8.29.62-11.88,2.02-3.31,4.9-5.99,7.28-9.02,6.64-8.22,10.28-18.56,11.18-29.02,1.7-20.08-9.19-40.4-26.59-50.42-20.4-12.43-49.16-8.99-65.62,8.49-17.33,16.55-20.73,45.14-8.32,65.51,7.95,12.97,21.19,23.09,36.4,25.53,7.85,1.74,15.84.3,23.76.18,4-.23,6.11,3.63,8.39,6.23.38,5.36-2.53,11.44-8.33,12.24-15.48,2.5-32,.97-46.03-6.44-16.18-7.86-29-22.14-35.63-38.83-6.04-15.75-6.44-33.64-1.08-49.64C17.6,31.82,38.45,13.03,62.81,7.67Z"/>
  <path class="cls-1" d="m93.87,62.51c3.39-3.1,6.14-7.89,11.18-8.31,4.44-.73,8.96,2.14,10.62,6.23.79,3.53.82,7.8-2.13,10.38-10.2,10.38-20.72,20.45-30.93,30.84-2.82,2.75-5.94,6.2-10.28,5.72-4.34.42-7.32-3.16-10.09-5.91-5.29-5.61-11.09-10.74-16.17-16.53-4.25-4.7-2.17-13.65,4.1-15.43,3.23-.81,7.08-.74,9.67,1.63,4.37,3.78,8.05,8.29,12.5,12.01,7.75-6.25,14.35-13.76,21.54-20.63Z"/>
</svg>