<?xml version="1.0" encoding="UTF-8"?>
<svg id="_图层_1" data-name="图层 1" xmlns="http://www.w3.org/2000/svg" viewBox="0 0 192 192">
  <defs>
    <style>
      .cls-1 {
        fill: none;
        stroke: #000;
        stroke-linecap: round;
        stroke-linejoin: round;
        stroke-width: 7px;
      }
    </style>
  </defs>
  <g id="_fdfcfdff" data-name="#fdfcfdff">
    <path class="cls-1" d="M49.21,38.76c7.51-15.31,26.46-22.45,42.53-16.69,14.1,7.58,12.82,25.19,14.58,38.85,4.95-14.69,11.53-33.45,30.87-31.75,4.31,1.56,8.51,3.38,12.6,5.44,11.72,7.59,17.57,23.1,13.16,36.42-4.7,14.44-23.27,13.82-33.67,19.25,9.09,1.73,23.1.72,33.27,6.62,8.24,6.35,9.15,17.35,8.1,27.02-4.26,17.16-22.91,32.06-40.4,22.66-6.56-6.71-11.7-14.59-17.74-21.72,1.9,14.25,10.56,30.98-2.89,42.54-5.85,6.93-16.09,3.78-24.11,3.83-9.41-1.91-20.85-3.28-26.87-11.75-2.4-5.6-1.42-11.96-1.99-17.86,3.12-9.45,12.01-15.58,15.92-24.49-11.12,6.4-22.29,15.69-36.17,12.89-8.04-3.56-12.36-10.82-14.55-18.95-.65-5.98-.9-12-.84-18,2.91-10.12,10.76-22.78,22.94-20.9,8.47,1.17,15.25,7.04,23.34,9.21-9.92-11.67-27.11-25.57-18.09-42.62M81.72,60.74c-6.03,3.65,6.48,8.38,4.92,2.38,1.19-3.67-2.69-2.63-4.92-2.38M129.48,69.67c-2.76,2.21-2.49,8.42,2.25,6.31,5.07-.43,1.33-7.26-2.25-6.31M87.83,70.79c1.55,5.22,3.42,10.34,3.12,15.93-1.95,5.87-8.5,7.13-13.2,10.03-3.15-.3-6.43.93-8.17,3.67,6.11.37,12.24.13,18.37.1,1.91,2.58,3.65,5.42,4.24,8.64-.1,3.68-.32,11.05-.43,14.73,5.22.14,3.2-7.58,3.46-10.81.97-8.81,10.88-12.59,18.8-11.34.85,3.02,6.31,2.05,8.57.79,1.06.15,3.18.46,4.24.62-2.96-7.9-22.09-5.45-17.37-15.77,5.19-2.63,9.03-7.72,13.47-11.41-4.44,1.46-10.17,2.98-12.96,6.48-6.03,4.09-13.26,1.82-17.38-3.98-.04-2.84-1.24-7.82-4.76-7.7M62.35,98.12c-3.1,1.65-1.56,7.4,2.22,6.3,4.95-.46,2.44-8.68-2.22-6.3M133.03,104.44c-1.14,3.38,3.68,8.96,6.35,4.87,1.63-4.29-3.02-5.71-6.35-4.87M89.47,129.17c-4.51,2.16,2.52,9.18,4.67,4.67,1.46-4.05-.62-6.13-4.67-4.67Z"/>
  </g>
  <g id="_f48277ff" data-name="#f48277ff">
    <path class="cls-1" d="M81.72,60.74c2.23-.26,6.11-1.29,4.92,2.38,1.56,6-10.95,1.28-4.92-2.38Z"/>
  </g>
  <g id="_f4847aff" data-name="#f4847aff">
    <path class="cls-1" d="M129.48,69.67c3.58-.94,7.32,5.89,2.25,6.31-4.74,2.1-5.01-4.11-2.25-6.31Z"/>
  </g>
  <g id="_facac0ff" data-name="#facac0ff">
    <path class="cls-1" d="M87.83,70.79c3.52-.13,4.73,4.85,4.76,7.7-.4,2.78-.96,5.53-1.64,8.24.3-5.59-1.58-10.72-3.12-15.93Z"/>
  </g>
  <g id="_f59cb4ff" data-name="#f59cb4ff">
    <path class="cls-1" d="M109.97,82.47c2.79-3.5,8.52-5.02,12.96-6.48-4.44,3.69-8.28,8.78-13.47,11.41.5-1.86,4.82-5.75.5-4.93Z"/>
  </g>
  <g id="_f2655aff" data-name="#f2655aff">
    <path class="cls-1" d="M90.95,86.73c.68-2.71,1.24-5.46,1.64-8.24,4.12,5.8,11.35,8.07,17.38,3.98,4.31-.81,0,3.07-.5,4.93-4.73,10.32,14.41,7.86,17.37,15.77-1.06-.15-3.18-.46-4.24-.62-2.84-.8-5.69-1.07-8.57-.79-7.91-1.25-17.83,2.53-18.8,11.34-1.92,7.72-2.23,1.42-3.03-3.93-.58-3.22-2.32-6.06-4.24-8.64-1.63-3.24-18.79,1.27-10.2-3.77,4.7-2.91,11.25-4.16,13.2-10.03Z"/>
  </g>
  <g id="_f6c09bff" data-name="#f6c09bff">
    <path class="cls-1" d="M69.58,100.43c1.74-2.74,5.02-3.96,8.17-3.67-8.59,5.04,8.57.53,10.2,3.77-6.13.03-12.27.27-18.37-.1Z"/>
  </g>
  <g id="_f48072ff" data-name="#f48072ff">
    <path class="cls-1" d="M62.35,98.12c4.66-2.38,7.17,5.84,2.22,6.3-3.78,1.1-5.32-4.65-2.22-6.3Z"/>
  </g>
  <g id="_f3acc4ff" data-name="#f3acc4ff">
    <path class="cls-1" d="M114.03,101.76c2.88-.28,5.73-.01,8.57.79-2.26,1.27-7.72,2.23-8.57-.79Z"/>
  </g>
  <g id="_f4827dff" data-name="#f4827dff">
    <path class="cls-1" d="M133.03,104.44c3.33-.84,7.98.58,6.35,4.87-2.67,4.09-7.49-1.48-6.35-4.87Z"/>
  </g>
  <g id="_f9bfafff" data-name="#f9bfafff">
    <path class="cls-1" d="M92.19,109.17c.8,5.35,1.11,11.65,3.03,3.93-.26,3.23,1.76,10.95-3.46,10.81.1-3.68.32-11.05.43-14.73Z"/>
  </g>
  <g id="_f48781ff" data-name="#f48781ff">
    <path class="cls-1" d="M89.47,129.17c4.05-1.46,6.13.62,4.67,4.67-2.16,4.51-9.18-2.52-4.67-4.67Z"/>
  </g>
</svg>