<?xml version="1.0" encoding="UTF-8"?>
<svg id="_图层_1" data-name=" 图层 1" xmlns="http://www.w3.org/2000/svg" viewBox="0 0 192 192">
  <defs>
    <style>
      .cls-1 {
        fill: none;
        stroke: #000;
        stroke-linecap: round;
        stroke-linejoin: round;
        stroke-width: 12px;
      }
    </style>
  </defs>
  <path class="cls-1" d="m115.83,33.95c10.55.08,21.21-.62,31.68.32,8.52,8.51,17.28,16.84,25.46,25.71-.15,30.97.03,61.93-.09,92.9.25,2.17-2.17,3.59-4.1,3.35-10.59-.03-21.18.1-31.75-.06-2.52.32-3.4-2.54-3.12-4.54.06-28.81,0-57.62.03-86.43-.05-2.71.24-5.47-.32-8.15-5.61-6.16-11.92-11.72-17.64-17.83-1.88-1.38-.6-3.52-.17-5.26h.01Z"/>
  <g id="_f64f59ff" data-name=" f64f59ff">
    <path class="cls-1" d="m20.84,38.19c5.86-.55,11.83-.55,17.7-.09,8.06,8.21,16.41,16.19,24.23,24.61.44,29.86.03,59.75.21,89.63-.21,1.53.51,4.57-2.04,4.38-13.3.19-26.67.45-39.96-.16-.54-39.45-.27-78.92-.14-118.37h0Z"/>
  </g>
  <g id="_ffde5bff" data-name=" ffde5bff">
    <path class="cls-1" d="m61.41,36.15c10.37-.38,20.88-.65,31.22.08,8.36,8.16,16.52,16.53,24.83,24.74.11,30.63.03,61.28.05,91.93.61,2.64-2.39,3.57-4.46,3.31-10.93-.27-21.9.41-32.81-.38-1.96-5.87-.5-12.02-.6-18.04-.43-9.95-.14-19.9,0-29.85-.85-16.22.5-32.46-.2-48.7-5.46-6.59-12.33-11.98-17.92-18.48-1.12-1.33-.19-3.1-.11-4.6h0Z"/>
  </g>
</svg>