<?xml version="1.0" encoding="UTF-8"?>
<svg id="_图层_1" data-name=" 图层 1" xmlns="http://www.w3.org/2000/svg" viewBox="0 0 113.1 127.54">
  <defs>
    <style>
      .cls-1 {
        isolation: isolate;
      }

      .cls-2 {
        stroke: #000;
        stroke-miterlimit: 10;
        stroke-width: .1px;
      }
    </style>
  </defs>
  <path id="path_0" data-name="path 0" class="cls-2" d="m96.54.13V.05h-31.7l.04.06-1.75,10.46h-5.26l-1.05,6.29L49.22.05h-31.68l-6.15,36.84-5.26,31.58,21.05,21.05h26.32l2.42-15.79h2.84l15.79,15.79h26.32l5.26-68.42L96.54.13Zm-6.21,5.18l-2.63,15.79h-9.64l1.75-10.53h-11.33l.88-5.26s20.97,0,20.97,0Zm-16.74,10.53l-.88,5.26h-11.24l.86-5.26s11.26,0,11.26,0Zm-30.63-10.53l-.88,5.26h-20.97l.88-5.26h20.97Zm-22.74,10.53h26.23l-1.75,10.53h42.11l-6.13,36.84h-20.99l4.4-26.32h-5.35l-1.75,10.53h-15.79l1.75-10.53h-5.26l-.88,5.26h-10.53l.88-5.26h-10.44l3.49-21.05h0Zm-4.38,26.32h5.14l-2.61,15.79h15.81l-.88,5.26H12.33l3.52-21.05h0Zm19.22,10.53h-10.48l.86-5.26h10.51l-.88,5.26h0Z"/>
  <g class="cls-1">
    <path d="m0,123.91h6.42v-17.82l-5.8,3.71v-3.36l6.05-4.04h3.78v21.52h5.47v3.25H0v-3.25Z"/>
    <path d="m19.67,127.17v-4.61h4.24v4.61h-4.24Z"/>
    <path d="m28.67,123.91h6.42v-17.82l-5.8,3.71v-3.36l6.05-4.04h3.78v21.52h5.47v3.25h-15.91v-3.25Z"/>
    <path d="m64.41,114.33c0,4.36-.76,7.65-2.29,9.86s-3.79,3.32-6.79,3.32c-2.06,0-3.69-.44-4.89-1.33s-2.04-2.24-2.55-4.05l3.81-.58c.56,1.84,1.8,2.76,3.71,2.76,3.23,0,4.91-2.94,5.03-8.81-.48.9-1.23,1.61-2.26,2.14s-2.17.78-3.44.78c-2.2,0-3.95-.73-5.24-2.19s-1.93-3.47-1.93-6.04.73-4.58,2.18-6.02,3.5-2.15,6.15-2.15c2.84,0,4.96,1.01,6.38,3.03s2.13,5.11,2.13,9.27Zm-4.29-3.38c0-1.71-.39-3.09-1.16-4.15s-1.83-1.58-3.16-1.58-2.35.44-3.07,1.32-1.08,2.11-1.08,3.69.37,2.86,1.1,3.75,1.75,1.34,3.05,1.34,2.29-.4,3.1-1.2,1.22-1.86,1.22-3.18Z"/>
    <path d="m68.33,127.17v-4.61h4.24v4.61h-4.24Z"/>
    <path d="m93.04,105.65c-2.2,3.41-3.84,6.23-4.91,8.47s-1.89,4.42-2.44,6.55-.83,4.29-.83,6.5h-4.18c0-3.11.64-6.31,1.92-9.62s3.49-7.22,6.64-11.76h-12.64v-3.39h16.45v3.25Z"/>
    <path d="m113.1,120.31c0,2.34-.73,4.13-2.19,5.37s-3.55,1.85-6.28,1.85c-2.54,0-4.55-.58-6.01-1.73s-2.34-2.88-2.62-5.18l4.1-.37c.19,1.36.66,2.36,1.41,3.01s1.79.98,3.13.98,2.46-.36,3.2-1.07,1.11-1.73,1.11-3.06c0-1.22-.46-2.17-1.37-2.84s-2.26-1.01-4.03-1.01h-1.81v-3.36h1.72c1.58,0,2.79-.33,3.64-.99s1.27-1.61,1.27-2.84-.33-2.21-.98-2.84-1.58-.94-2.8-.94c-2.41,0-3.76,1.22-4.04,3.67l-4.01-.3c.25-2.11,1.08-3.74,2.51-4.9s3.29-1.74,5.59-1.74c2.51,0,4.44.57,5.78,1.71s2.02,2.76,2.02,4.86c0,1.49-.42,2.75-1.26,3.77s-2.12,1.72-3.86,2.08v.07c1.8.2,3.22.81,4.25,1.85s1.54,2.34,1.54,3.94Z"/>
  </g>
</svg>
