<?xml version="1.0" encoding="UTF-8"?>
<svg id="_图层_1" data-name=" 图层 1" xmlns="http://www.w3.org/2000/svg" viewBox="0 0 113.08 127.52">
  <defs>
    <style>
      .cls-1 {
        isolation: isolate;
      }

      .cls-2 {
        stroke: #000;
        stroke-miterlimit: 10;
        stroke-width: .1px;
      }
    </style>
  </defs>
  <path id="path_0" data-name="path 0" class="cls-2" d="m96.54.13V.05h-31.7l.04.06-1.75,10.46h-5.26l-1.05,6.29L49.22.05h-31.68l-6.15,36.84-5.26,31.58,21.05,21.05h26.32l2.42-15.79h2.84l15.79,15.79h26.32l5.26-68.42L96.54.13Zm-6.21,5.18l-2.63,15.79h-9.64l1.75-10.53h-11.33l.88-5.26s20.97,0,20.97,0Zm-16.74,10.53l-.88,5.26h-11.24l.86-5.26s11.26,0,11.26,0Zm-30.63-10.53l-.88,5.26h-20.97l.88-5.26h20.97Zm-22.74,10.53h26.23l-1.75,10.53h42.11l-6.13,36.84h-20.99l4.4-26.32h-5.35l-1.75,10.53h-15.79l1.75-10.53h-5.26l-.88,5.26h-10.53l.88-5.26h-10.44l3.49-21.05h0Zm-4.38,26.32h5.14l-2.61,15.79h15.81l-.88,5.26H12.33l3.52-21.05h0Zm19.22,10.53h-10.48l.86-5.26h10.51l-.88,5.26h0Z"/>
  <g class="cls-1">
    <path d="m0,123.91h6.42v-17.82l-5.8,3.71v-3.36l6.05-4.04h3.78v21.52h5.47v3.25H0v-3.25Z"/>
    <path d="m19.67,127.17v-4.61h4.24v4.61h-4.24Z"/>
    <path d="m28.67,123.91h6.42v-17.82l-5.8,3.71v-3.36l6.05-4.04h3.78v21.52h5.47v3.25h-15.91v-3.25Z"/>
    <path d="m64.58,120.22c0,2.36-.73,4.16-2.18,5.41s-3.54,1.88-6.28,1.88-4.81-.63-6.28-1.9-2.21-3.05-2.21-5.36c0-1.57.45-2.9,1.34-3.99s2.08-1.78,3.57-2.06v-.07c-1.3-.32-2.35-1.01-3.15-2.07s-1.2-2.29-1.2-3.67c0-1.96.69-3.51,2.08-4.65s3.31-1.71,5.77-1.71,4.44.56,5.84,1.67,2.09,2.69,2.09,4.73c0,1.38-.4,2.61-1.2,3.67s-1.85,1.73-3.16,2v.07c1.56.28,2.77.95,3.65,2.01s1.31,2.41,1.31,4.03Zm-4.17-.35c0-1.36-.37-2.41-1.12-3.15s-1.83-1.11-3.26-1.11c-1.35,0-2.4.39-3.15,1.17s-1.12,1.83-1.12,3.16c0,1.54.37,2.7,1.12,3.48s1.84,1.18,3.28,1.18,2.54-.39,3.23-1.16,1.03-1.96,1.03-3.57Zm-.58-11.11c0-2.54-1.26-3.81-3.78-3.81s-3.74,1.27-3.74,3.81c0,1.27.33,2.24.98,2.92s1.59,1.02,2.79,1.02,2.13-.33,2.78-.99.97-1.64.97-2.94Z"/>
    <path d="m68.33,127.17v-4.61h4.24v4.61h-4.24Z"/>
    <path d="m77.33,123.91h6.42v-17.82l-5.8,3.71v-3.36l6.05-4.04h3.78v21.52h5.47v3.25h-15.91v-3.25Z"/>
    <path d="m96.42,127.17v-2.83c.59-1.36,1.42-2.7,2.5-4.01s2.52-2.72,4.32-4.22c2.17-1.8,3.6-3.2,4.3-4.18s1.05-1.94,1.05-2.87c0-1.2-.33-2.12-1-2.77s-1.61-.98-2.83-.98c-2.34,0-3.68,1.26-4.01,3.78l-4.08-.28c.25-2.13,1.06-3.8,2.45-4.99s3.24-1.79,5.55-1.79c2.53,0,4.5.6,5.92,1.8s2.12,2.9,2.12,5.09c0,1.03-.2,2-.61,2.89s-.99,1.78-1.75,2.65-2,2-3.73,3.38c-3,2.38-4.87,4.35-5.61,5.92h12.08v3.39h-16.66Z"/>
  </g>
</svg>
