<?xml version="1.0" encoding="UTF-8"?>
<svg id="_图层_1" data-name="图层 1" xmlns="http://www.w3.org/2000/svg" viewBox="0 0 192 192">
  <defs>
    <style>
      .cls-1 {
        fill: none;
        stroke: #000;
        stroke-linecap: round;
        stroke-linejoin: round;
        stroke-width: 3px;
      }
    </style>
  </defs>
  <g id="_c47c4eff" data-name="#c47c4eff">
    <path class="cls-1" d="m91.91,15.37c2.02-2.69,6.18-2.63,8.2,0-2.66,2.12-5.54,2.12-8.2,0Z"/>
    <path class="cls-1" d="m54.28,34.07c4.43-2.65,9.48-5.13,14.29-7.09,1.12.59,2.28,1.13,3.37,1.78.29,1.81-2.93,1.63-3.87,2.75,1.51.86,3.1,1.56,4.7,2.26-1.65.84-3.31,1.66-4.99,2.45-1.95-.83-4.04-3.05-6.21-1.5-2.41,1.91-4.92.35-7.29-.64Z"/>
    <path class="cls-1" d="m123.45,27c4.79,1.9,9.84,4.45,14.3,7.07-2.93,1.98-5.98,1.84-8.94.07-3.12,2.07-6.62,2.55-9.44-.41,1.52-.76,3.09-1.42,4.58-2.23-1.31-.66-2.62-1.33-3.92-2,.04-1.57,2.37-1.63,3.43-2.51Z"/>
    <path class="cls-1" d="m156.59,47.57c1.48-.67,2.99-1.28,4.5-1.87,3.02,1.45,6.49,2.51,9.06,4.68-2.94,1.56-5.93,3.03-8.93,4.46-1.3-.67-2.62-1.29-3.89-2.02-.28-1.81,2.91-1.63,3.86-2.73-1.49-.91-3.26-1.38-4.6-2.51Z"/>
    <path class="cls-1" d="m119.65,61.85c1.5-.81,3.01-1.6,4.55-2.34,1.98.88,4.12,3.2,6.28,1.31,3.15-3.41,6.3,2.6,9.45,0,2.45-2.22,5.09-.39,7.34,1.01-6.27,3.23-12.63,6.27-18.9,9.49-1.48.73-2.95,1.47-4.45,2.17-1.53-.81-3.12-1.54-4.56-2.5,1.52-.76,3.1-1.43,4.59-2.24-1.31-.66-2.61-1.33-3.91-2-.34-1.85,3.45-1.15,3.04-2.95-1.12-.68-2.3-1.26-3.42-1.94Z"/>
  </g>
  <g id="_ac6434ff" data-name="#ac6434ff">
    <path class="cls-1" d="m82.08,20.17c2.95-1.77,6.55-3.9,9.83-4.8,2.66,2.12,5.54,2.12,8.2,0,3.28,1.1,6.85,2.83,9.85,4.8-2.38.97-4.93,2.69-7.28.58-2.22-1.93-4.44.55-6.56,1.31-2.21-.65-4.5-3.25-6.77-1.31-2.35,2.11-4.9.39-7.27-.58Z"/>
    <path class="cls-1" d="m110.38,24.52c1.3-.81,2.69-1.47,4.06-2.15,3.02,1.42,6.41,2.52,9.02,4.63-1.06.87-3.39.94-3.43,2.51,1.3.67,2.61,1.33,3.92,2-1.49.81-3.06,1.47-4.58,2.23,2.83,2.95,6.33,2.48,9.44.41,2.97,1.77,6.01,1.91,8.94-.07,3.04,1.39,6.5,2.49,9.07,4.66-4.22,4.16-9.12-2.81-13.21,2.08-.17-.02-.51-.06-.68-.07-2.77-2.52-5.83-1.97-8.63.13l-.37.08c-2.94-2.47-6.23-2.43-9.17,0-1.53-.73-3.04-1.5-4.54-2.3,1.42-.85,2.86-1.65,4.28-2.5-1.48-.83-3.05-1.48-4.62-2.11l.07-.37c1.54-.67,3.09-1.32,4.56-2.13-1.31-.67-2.62-1.35-3.92-2.02-.2-1.83,2.9-1.65,3.89-2.75-1.33-.79-2.74-1.46-4.09-2.22Z"/>
  </g>
  <g id="_d0ab93ff" data-name="#d0ab93ff">
    <path class="cls-1" d="m89.35,20.74c2.27-1.94,4.56.66,6.77,1.31-1.56.83-3.14,1.63-4.7,2.45-3.22,1.51-6.36,3.2-9.61,4.67-1.4-.83-2.84-1.62-4.24-2.45,1.33-.79,2.72-1.45,4.07-2.2-1.3-.82-2.69-1.48-4.06-2.16,1.11-1.21,2.99-1.61,4.49-2.21,2.37.97,4.92,2.69,7.27.58Z"/>
    <path class="cls-1" d="m142.4,50.31c1.72-.8,3.42-1.65,5.16-2.45,1.4.72,2.81,1.41,4.14,2.25-1.3.64-2.59,1.3-3.87,1.95-.17,1.84,2.92,1.67,3.92,2.79-2.26,1.38-4.96,3.06-7.38.92-2.08-1.76-4.25.38-6.22,1.25l-.37.07c-1.35-.78-2.71-1.54-4.06-2.32,2.89-1.51,5.81-2.93,8.68-4.46Z"/>
  </g>
  <g id="_c68d6aff" data-name="#c68d6aff">
    <path class="cls-1" d="m96.12,22.06c2.12-.76,4.34-3.24,6.56-1.31,2.36,2.1,4.9.38,7.28-.58,1.48.6,3.37,1,4.48,2.21-1.37.68-2.76,1.34-4.06,2.15,1.35.76,2.76,1.43,4.09,2.22-.99,1.1-4.09.92-3.89,2.75,1.3.68,2.61,1.35,3.92,2.02-1.47.82-3.02,1.47-4.56,2.13-1.57-.65-3.14-1.31-4.62-2.13,1.01-1.13,4.09-.96,3.94-2.81-4.1-2.01-8.84-6.04-12.89-1.83-.17.01-.52.02-.69.03-1.38-.86-2.81-1.65-4.25-2.4,1.56-.82,3.14-1.62,4.7-2.45Z"/>
    <path class="cls-1" d="m105.36,36.2c1.48-.76,2.99-1.49,4.5-2.17,1.57.63,3.14,1.28,4.62,2.11-1.42.85-2.86,1.65-4.28,2.5-1.63-.78-3.25-1.59-4.84-2.44Z"/>
    <path class="cls-1" d="m40.33,40.94c1.52-.95,3.14-1.97,4.9-2.32,1.25.72,2.5,1.43,3.72,2.2-1.47.83-2.97,1.62-4.49,2.37-1.38-.75-2.76-1.5-4.14-2.25Z"/>
    <path class="cls-1" d="m49.64,40.78c2.77-2.53,6.05-2.51,8.8.01-2.76,2.52-6.05,2.53-8.8-.01Z"/>
    <path class="cls-1" d="m59.12,40.76c1.48-.82,2.97-1.61,4.5-2.35,1.43.75,2.85,1.53,4.24,2.38-1.41.81-2.82,1.58-4.22,2.41,1.48.83,3.06,1.49,4.64,2.14l-.14.37c-1.51.69-3,1.41-4.48,2.17-1.6-.84-3.53-1.27-4.86-2.5,1.51-.75,3.06-1.4,4.54-2.2-1.4-.83-2.81-1.61-4.21-2.43Z"/>
    <path class="cls-1" d="m114.74,40.93c2.95-2.43,6.23-2.47,9.17,0-1.5.76-3.02,1.5-4.55,2.18-1.56-.69-3.11-1.41-4.62-2.19Z"/>
    <path class="cls-1" d="m124.29,40.86c2.8-2.1,5.86-2.65,8.63-.13-1.36.87-2.76,1.66-4.18,2.42l-.39.04c-1.36-.76-2.72-1.53-4.06-2.33Z"/>
    <path class="cls-1" d="m133.6,40.81c4.1-4.89,8.99,2.07,13.21-2.08,1.68.06,3.36,1.35,4.88,2.22-1.38.73-2.76,1.46-4.12,2.22,1.5.82,3.07,1.48,4.59,2.25-1.42,1.01-3.07,1.65-4.6,2.45-1.73.79-3.44,1.65-5.16,2.45-1.41-.85-2.85-1.65-4.25-2.49,1.48-.81,3.05-1.46,4.57-2.22-2.9-1.84-6.22-2.94-9.12-4.8Z"/>
    <path class="cls-1" d="m96.3,64.22c1.38-.89,2.81-1.7,4.25-2.5h.38c1.41.79,2.83,1.58,4.2,2.45-2.78,2.5-6,2.42-8.83.05Z"/>
    <path class="cls-1" d="m105.83,64.13c1.38-.83,2.79-1.62,4.18-2.41l.39.05c1.43.76,2.85,1.56,4.21,2.43-1.42.76-2.85,1.5-4.25,2.29,1.35.81,2.76,1.5,4.13,2.28-1.46.81-3.01,1.45-4.54,2.11-1.52-.58-3.02-1.18-4.5-1.85,1.28-1.18,3.1-1.58,4.57-2.5-1.4-.82-2.81-1.59-4.2-2.4Z"/>
  </g>
  <g id="_a45f30ff" data-name="#a45f30ff">
    <path class="cls-1" d="m73.14,24.6c1.11-1.21,2.96-1.58,4.45-2.22,1.37.68,2.76,1.34,4.06,2.16-1.35.75-2.75,1.41-4.07,2.2,1.4.83,2.84,1.61,4.24,2.45-1.42.76-2.83,1.54-4.22,2.33l-.38-.04c-1.18-.98-3.7-1.08-3.88-2.75,1.3-.66,2.59-1.31,3.89-1.95-1.3-.82-2.7-1.49-4.07-2.17Z"/>
    <path class="cls-1" d="m35.39,43.5c1.26-1.3,3.27-1.84,4.95-2.56,1.38.74,2.76,1.5,4.14,2.25-1.5.76-3.02,1.45-4.56,2.11-1.52-.59-3.02-1.21-4.53-1.8Z"/>
    <path class="cls-1" d="m35.4,47.58c1.46-.67,2.95-1.28,4.44-1.88,1.56.64,3.14,1.3,4.61,2.12-1.37.78-2.79,1.47-4.14,2.28,1.3.65,2.6,1.31,3.89,1.97.17,1.84-2.93,1.67-3.92,2.79,2.26,1.38,4.96,3.06,7.38.92,2.08-1.76,4.25.38,6.22,1.25-4.2,4.8-9.29-2.23-13.53,2.49l-.39.07c-1.3-.77-2.64-1.46-3.99-2.15l-.09-.41c1.37-.72,2.77-1.39,4.09-2.22-1.3-.65-2.58-1.3-3.87-1.96-.18-1.84,2.91-1.67,3.91-2.77-1.5-.89-3.24-1.4-4.6-2.49Z"/>
    <path class="cls-1" d="m54.24,57.08c2.76-2.41,6-2.55,8.96-.08l.09.4c-3,2.06-6.23,2.01-9.05-.32Z"/>
    <path class="cls-1" d="m128.85,57.02c1.63-.73,3.26-1.48,4.88-2.24,1.35.78,2.71,1.53,4.06,2.32-2.82,2.31-6.05,2.36-9.04.31l.11-.39Z"/>
    <path class="cls-1" d="m77.19,64.27h.4c1.36.73,2.73,1.46,4.07,2.22-1.34.81-2.76,1.48-4.12,2.26,1.29.99,3.66,1.17,4.43,2.49-1.46.74-2.99,1.37-4.43,2.16,1.39.82,2.81,1.59,4.2,2.4-1.38.85-2.8,1.63-4.22,2.41l-.42-.19c-1.28-.64-2.56-1.25-3.85-1.86l-.29-.36c1.41-.81,2.85-1.57,4.26-2.38-1.51-.89-3.1-1.63-4.66-2.42,1.58-.69,3.17-1.38,4.67-2.23-1.36-.78-2.78-1.47-4.12-2.28,1.35-.76,2.71-1.48,4.07-2.22Z"/>
    <path class="cls-1" d="m82.44,75.81c2.76-2.54,6.04-2.52,8.79,0-2.75,2.54-6.04,2.52-8.79,0Z"/>
    <path class="cls-1" d="m91.9,75.81c2.61-2.38,5.6-2.32,8.23,0-2.63,2.36-5.6,2.36-8.23,0Z"/>
    <path class="cls-1" d="m100.8,75.81c1.47-.84,2.96-1.65,4.49-2.4,1.23,1.01,3.77,1.1,4.02,2.85-2.8,2.26-5.89,1.78-8.51-.45Z"/>
  </g>
  <g id="_cb8d65ff" data-name="#cb8d65ff">
    <path class="cls-1" d="m68.57,26.98c1.06-1.35,3.04-1.71,4.56-2.38,1.38.68,2.77,1.35,4.07,2.17-1.3.64-2.6,1.3-3.89,1.95.18,1.67,2.7,1.77,3.88,2.75-1.47.79-2.94,1.56-4.43,2.3-1.6-.7-3.19-1.4-4.7-2.26.95-1.12,4.16-.95,3.87-2.75-1.1-.64-2.25-1.18-3.37-1.78Z"/>
    <path class="cls-1" d="m53.87,57.03l.37.06c2.82,2.32,6.05,2.37,9.05.32,1.5.67,2.99,1.38,4.46,2.11-1.36.77-2.72,1.53-4.07,2.31-3.05-2.25-6.37-2.59-9.48-.22-3.17-1.71-6.53-2.71-9.48.26-1.48-.75-2.94-1.52-4.37-2.34,4.24-4.73,9.33,2.31,13.53-2.49Z"/>
    <path class="cls-1" d="m137.78,57.09l.37-.07c4.21,4.8,9.32-2.25,13.55,2.51-1.46.79-2.94,1.58-4.44,2.29-2.25-1.4-4.89-3.22-7.34-1.01-3.15,2.59-6.3-3.42-9.45,0-2.16,1.89-4.3-.43-6.28-1.31,1.49-.75,3.01-1.44,4.55-2.11,3,2.05,6.23,2,9.04-.31Z"/>
    <path class="cls-1" d="m72.3,61.9c.18,0,.54.01.72.02,1.37.82,2.76,1.6,4.17,2.36-1.36.73-2.73,1.46-4.07,2.22,1.35.81,2.76,1.5,4.12,2.28-1.5.85-3.09,1.55-4.67,2.23-1.36-.83-3.25-1.07-4.31-2.27,1.5-.76,3.06-1.4,4.54-2.21-1.41-.8-2.85-1.56-4.27-2.32,1.25-.79,2.52-1.53,3.77-2.3Z"/>
  </g>
  <g id="_6d482bff" data-name="#6d482bff">
    <path class="cls-1" d="m81.81,29.18c3.25-1.47,6.38-3.16,9.61-4.67,1.45.75,2.87,1.54,4.25,2.4-4.39,2.47-8.95,4.6-13.45,6.85-1.57-.71-3.11-1.48-4.64-2.26,1.4-.79,2.81-1.57,4.22-2.33Z"/>
    <path class="cls-1" d="m96.36,26.88c4.05-4.21,8.79-.18,12.89,1.83.15,1.85-2.93,1.68-3.94,2.81,1.48.83,3.05,1.48,4.62,2.13l-.07.37c-1.52.68-3.02,1.41-4.5,2.17l-.38-.03c-1.49-.74-2.99-1.46-4.5-2.13l-.03-.4c1.57-.64,3.15-1.28,4.61-2.13-1.48-.81-2.98-1.56-4.5-2.28-1.43-.72-2.84-1.49-4.2-2.33Z"/>
    <path class="cls-1" d="m67.86,40.79c.18-.01.53-.03.71-.04,1.4.83,2.82,1.62,4.22,2.45-1.46.81-3,1.46-4.52,2.14-1.57-.65-3.15-1.31-4.64-2.14,1.4-.83,2.81-1.61,4.22-2.41Z"/>
    <path class="cls-1" d="m123.92,40.94l.37-.08c1.34.8,2.7,1.57,4.06,2.33-1.5.73-3,1.45-4.52,2.11-1.49-.58-2.97-1.19-4.46-1.76v-.42c1.52-.69,3.04-1.43,4.54-2.18Z"/>
    <path class="cls-1" d="m132.92,40.73c.17.02.51.06.68.07,2.9,1.86,6.22,2.96,9.12,4.8-1.52.76-3.09,1.41-4.57,2.22,1.41.84,2.85,1.64,4.25,2.49-2.87,1.53-5.8,2.96-8.68,4.46-1.62.76-3.25,1.51-4.88,2.24-1.56-.69-3.1-1.43-4.6-2.22,4.41-2.46,9.13-4.33,13.48-6.88-1.11-1.21-2.97-1.49-4.36-2.31-1.55-.81-3.09-1.62-4.62-2.45,1.42-.76,2.82-1.55,4.18-2.42Z"/>
    <path class="cls-1" d="m63.65,47.89c1.47-.76,2.96-1.48,4.48-2.17,1.53.58,3.05,1.21,4.59,1.8l-.09.39c-1.53.68-3.08,1.33-4.55,2.15.93,1.11,4.16.94,3.87,2.75-1.25.73-2.55,1.35-3.82,2.03h-.38c-1.27-.69-2.57-1.31-3.82-2.03-.32-1.79,2.89-1.6,3.82-2.69-1.32-.83-2.72-1.52-4.1-2.23Z"/>
    <path class="cls-1" d="m63.68,61.81c1.35-.78,2.71-1.54,4.07-2.31h.38c1.4.78,2.79,1.57,4.16,2.39-1.25.77-2.52,1.51-3.77,2.3-1.63-.76-3.26-1.54-4.85-2.38Z"/>
    <path class="cls-1" d="m82.46,61.95c1.37-.87,2.78-1.66,4.19-2.45h.38c1.36.77,2.72,1.53,4.06,2.33-2.81,2.08-5.86,2.69-8.63.12Z"/>
    <path class="cls-1" d="m91.46,61.75c2.86-2.44,6.22-2.43,9.08-.03-1.43.8-2.87,1.61-4.25,2.5-1.63-.79-3.25-1.6-4.84-2.47Z"/>
    <path class="cls-1" d="m100.93,61.73c2.86-2.43,6.2-2.38,9.08-.01-1.4.79-2.8,1.58-4.18,2.41-.17.01-.52.03-.7.04-1.37-.86-2.79-1.65-4.2-2.44Z"/>
  </g>
  <g id="_75727fff" data-name="#75727fff">
    <path class="cls-1" d="m95.67,26.91c.17,0,.52-.02.69-.03,1.37.84,2.77,1.61,4.2,2.33-1.55.86-3.12,1.68-4.68,2.51-6.25,3-12.39,6.23-18.63,9.22-1.46-.77-2.91-1.57-4.3-2.46,3.05-1.65,6.19-3.12,9.27-4.73,4.5-2.25,9.06-4.38,13.45-6.85Z"/>
    <path class="cls-1" d="m110.03,43.12c2.96,2.07,6.24,2.68,9.34.42,1.49.57,2.97,1.18,4.46,1.76v.42c-2.91,2.02-5.95,1.85-8.92.09-3.25,2.26-6.49,2.28-9.54-.36,1.57-.73,3.13-1.51,4.66-2.32Z"/>
  </g>
  <g id="_c2bfccff" data-name="#c2bfccff">
    <path class="cls-1" d="m100.57,29.21c1.52.72,3.02,1.47,4.5,2.28-1.47.85-3.05,1.5-4.61,2.13-1.53-.63-3.04-1.29-4.57-1.91,1.56-.83,3.13-1.66,4.68-2.51Z"/>
    <path class="cls-1" d="m68.07,50.06c1.47-.82,3.01-1.47,4.55-2.15,1.57.65,3.15,1.31,4.64,2.15-1.31.67-2.62,1.35-3.92,2.02-.18,1.83,2.93,1.67,3.92,2.79-1.49.83-3.07,1.49-4.65,2.13-1.51-.69-3-1.42-4.48-2.16,1.27-.69,2.57-1.31,3.82-2.03.29-1.81-2.94-1.63-3.87-2.75Z"/>
  </g>
  <g id="_463621ff" data-name="#463621ff">
    <path class="cls-1" d="m77.2,31.47l.38.04c1.53.78,3.07,1.55,4.64,2.26-3.08,1.6-6.22,3.08-9.27,4.73-1.48.72-2.94,1.47-4.38,2.26-.18.01-.53.03-.71.04-1.38-.85-2.8-1.63-4.24-2.38,1.38-.73,2.77-1.46,4.16-2.18,1.67-.79,3.34-1.61,4.99-2.45,1.49-.74,2.96-1.51,4.43-2.3Z"/>
    <path class="cls-1" d="m100.93,38.45c1.31-.84,2.7-1.53,4.05-2.28l.38.03c1.6.85,3.21,1.66,4.84,2.44,1.5.79,3.01,1.56,4.54,2.3,1.51.78,3.06,1.5,4.62,2.19v.42c-3.09,2.26-6.37,1.65-9.33-.42-1.6-.85-3.23-1.63-4.87-2.4-1.41-.76-2.83-1.5-4.22-2.28Z"/>
    <path class="cls-1" d="m110.4,61.77c4.51-2.53,9.22-4.67,13.85-6.98,1.51.79,3.04,1.53,4.6,2.22l-.11.39c-1.53.67-3.06,1.36-4.55,2.11-1.53.74-3.05,1.53-4.55,2.34-1.68.77-3.35,1.58-5.04,2.35-1.37-.87-2.79-1.67-4.21-2.43Z"/>
  </g>
  <g id="_b1aeb8ff" data-name="#b1aeb8ff">
    <path class="cls-1" d="m77.25,40.95c6.25-3,12.39-6.23,18.63-9.22,1.53.62,3.04,1.28,4.57,1.91l.03.4c-1.52.59-3.02,1.2-4.5,1.87,1.35,1.11,3.1,1.6,4.6,2.5-1.03,1.11-4.06.94-3.94,2.8,1.38.71,2.81,1.33,4.22,1.98,1.49.76,2.99,1.52,4.49,2.27,3.05,2.64,6.3,2.62,9.54.36,2.97,1.76,6.01,1.93,8.93-.09,1.53.67,3.05,1.4,4.54,2.17-7.17,3.71-14.41,7.26-21.62,10.87-2.76,1.51-5.33-3.07-7.96-.76-3.86,2.87-8.09-3.02-11.77,1.51h-.38c-2.86-2.4-6.21-2.42-9.07,0h-.38c-1.48-.74-2.98-1.46-4.49-2.13l-.09-.37c1.58-.64,3.16-1.3,4.65-2.13-.99-1.12-4.1-.96-3.92-2.79,1.3-.68,2.61-1.36,3.92-2.02-1.49-.83-3.06-1.5-4.64-2.15l.09-.39c1.53-.64,3.07-1.28,4.53-2.08-1.37-.79-2.79-1.48-4.14-2.3,1.36-.76,2.75-1.47,4.14-2.19m8.92.04c-1.4.63-2.76,1.34-4.11,2.08,2.18,2.65,6.91,2.67,8.88,0-1.43-.9-3.14-2.06-4.77-2.08m9.28,4.88c-.9.64-5.85,1.6-2.79,2.71,2.55,2.52,5.35,1.11,7.84-.62-1.2-1.16-3.3-2.21-5.05-2.09m-8.91,4.46c-1.1.9-4.12.71-3.81,2.58,2.63,2,5.57,2,8.21,0,.19-1.9-3.1-2.1-4.39-2.58m18.52.12c-1.41.62-2.76,1.34-4.11,2.07,2.21,2.51,5.75,2.42,8.32.39.24-1.82-3.02-2.15-4.21-2.46Z"/>
  </g>
  <g id="_ae6535ff" data-name="#ae6535ff">
    <path class="cls-1" d="m45.24,38.62c2.72-1.84,5.93-3.41,9.04-4.54,2.37,1,4.88,2.55,7.29.64,2.17-1.55,4.26.67,6.21,1.5-1.39.73-2.78,1.45-4.16,2.18-1.52.74-3.02,1.53-4.5,2.35-.17,0-.51.02-.68.03-2.75-2.52-6.03-2.55-8.8-.01-.17.01-.51.03-.68.04-1.22-.77-2.47-1.48-3.72-2.2Z"/>
    <path class="cls-1" d="m114.61,64.2c1.68-.77,3.35-1.57,5.04-2.35,1.13.68,2.3,1.26,3.42,1.94.41,1.81-3.38,1.1-3.04,2.95,1.3.67,2.6,1.34,3.91,2-1.5.81-3.07,1.48-4.59,2.24,1.45.96,3.03,1.69,4.56,2.5-1.51.78-3.04,1.55-4.54,2.34-1.49.72-2.97,1.46-4.45,2.2l-.42.18c-1.17-1.01-3.75-1.11-3.93-2.79,1.31-.68,2.62-1.35,3.93-2.02-1.48-.83-3.06-1.49-4.64-2.13l.09-.38c1.53-.66,3.07-1.3,4.54-2.11-1.37-.78-2.79-1.47-4.13-2.28,1.4-.79,2.82-1.53,4.25-2.29Z"/>
  </g>
  <g id="_d2cfdcff" data-name="#d2cfdcff">
    <path class="cls-1" d="m95.99,35.9c1.47-.67,2.98-1.28,4.5-1.87,1.51.67,3.01,1.4,4.5,2.13-1.36.76-2.75,1.45-4.05,2.28,1.4.78,2.82,1.52,4.22,2.28-1.39.88-2.84,1.67-4.29,2.45-1.41-.65-2.84-1.27-4.22-1.98-.13-1.86,2.91-1.69,3.94-2.8-1.5-.9-3.25-1.39-4.6-2.5Z"/>
  </g>
  <g id="_96949fff" data-name="#96949fff">
    <path class="cls-1" d="m68.57,40.75c1.44-.79,2.9-1.55,4.38-2.26,1.39.89,2.84,1.68,4.3,2.46-1.39.72-2.78,1.43-4.14,2.19,1.35.82,2.77,1.51,4.14,2.3-1.46.8-3,1.44-4.53,2.08-1.53-.59-3.05-1.22-4.59-1.8l.14-.37c1.52-.68,3.06-1.33,4.52-2.14-1.4-.83-2.82-1.62-4.22-2.45Z"/>
  </g>
  <g id="_cfa990ff" data-name="#cfa990ff">
    <path class="cls-1" d="m48.96,40.82c.17-.01.51-.03.68-.04,2.75,2.54,6.04,2.53,8.8.01.17-.01.51-.03.68-.03,1.4.82,2.81,1.61,4.21,2.43-1.48.8-3.03,1.45-4.54,2.2,1.33,1.23,3.26,1.66,4.86,2.5,1.38.71,2.79,1.4,4.1,2.23-.94,1.08-4.14.9-3.82,2.69,1.25.73,2.55,1.35,3.82,2.04-1.5.76-3.02,1.48-4.56,2.16-2.95-2.47-6.19-2.32-8.96.08l-.37-.06c-1.96-.87-4.14-3.01-6.22-1.25-2.42,2.14-5.12.47-7.38-.92,1-1.12,4.1-.95,3.92-2.79-1.3-.66-2.59-1.32-3.89-1.97,1.35-.81,2.77-1.5,4.14-2.28-1.48-.82-3.05-1.48-4.61-2.12l.08-.4c1.53-.67,3.06-1.36,4.56-2.11,1.52-.74,3.01-1.54,4.49-2.37Z"/>
    <path class="cls-1" d="m81.76,61.9c.18.01.53.04.7.05,2.77,2.56,5.82,1.96,8.63-.12l.37-.08c1.59.87,3.21,1.68,4.84,2.47,2.82,2.37,6.05,2.45,8.83-.05.18,0,.53-.03.7-.04,1.4.81,2.81,1.58,4.2,2.4-1.47.92-3.29,1.32-4.57,2.5,1.48.67,2.98,1.27,4.5,1.85l-.09.38c-1.55.69-3.08,1.38-4.58,2.15-1.52.74-3.02,1.55-4.49,2.4-.17,0-.5,0-.67-.01-2.63-2.31-5.62-2.38-8.23,0h-.67c-2.75-2.52-6.04-2.54-8.79,0-.17,0-.52,0-.69,0-1.4-.81-2.81-1.58-4.2-2.4,1.44-.79,2.96-1.41,4.43-2.16-.76-1.32-3.14-1.5-4.43-2.49,1.36-.78,2.78-1.46,4.12-2.26-1.35-.77-2.71-1.49-4.07-2.22,1.41-.75,2.8-1.53,4.16-2.37Z"/>
  </g>
  <g id="_f05f5bff" data-name="#f05f5bff">
    <path class="cls-1" d="m86.17,40.98c1.63.02,3.34,1.18,4.77,2.08-1.97,2.67-6.69,2.65-8.88,0,1.35-.74,2.71-1.45,4.11-2.08Z"/>
  </g>
  <g id="_8f8d98ff" data-name="#8f8d98ff">
    <path class="cls-1" d="m105.16,40.73c1.64.76,3.27,1.55,4.87,2.4-1.53.82-3.09,1.6-4.66,2.32-1.51-.74-3-1.51-4.49-2.27,1.45-.78,2.9-1.57,4.29-2.45Z"/>
    <path class="cls-1" d="m128.35,43.19l.39-.04c1.53.83,3.07,1.64,4.62,2.45-1.68.73-3.33,1.51-4.98,2.29-1.49-.77-3-1.5-4.54-2.17v-.42c1.51-.67,3.01-1.38,4.51-2.11Z"/>
  </g>
  <g id="_ab6334ff" data-name="#ab6334ff">
    <path class="cls-1" d="m151.69,40.95c3.14,1.48,6.53,2.79,9.39,4.75-1.51.59-3.02,1.21-4.5,1.87,1.34,1.13,3.11,1.6,4.6,2.51-.95,1.1-4.15.92-3.86,2.73,1.27.73,2.59,1.35,3.89,2.02-1.58.83-3.18,1.63-4.75,2.48-1.46.72-2.92,1.45-4.35,2.22h-.41c-4.23-4.76-9.34,2.29-13.55-2.51,1.97-.87,4.14-3.01,6.22-1.25,2.42,2.14,5.12.47,7.38-.92-1-1.12-4.1-.95-3.92-2.79,1.28-.66,2.58-1.31,3.87-1.95-1.33-.84-2.74-1.53-4.14-2.25,1.53-.81,3.18-1.44,4.6-2.45-1.52-.76-3.1-1.42-4.59-2.25,1.36-.77,2.74-1.49,4.12-2.22Z"/>
  </g>
  <g id="_c8845aff" data-name="#c8845aff">
    <path class="cls-1" d="m21.9,50.37c4.1-2.67,8.9-4.91,13.49-6.87,1.51.59,3.01,1.21,4.53,1.8l-.08.4c-1.49.61-2.97,1.22-4.44,1.88,1.36,1.1,3.1,1.6,4.6,2.49-1,1.11-4.09.93-3.91,2.77,1.29.66,2.58,1.31,3.87,1.96-1.31.83-2.71,1.5-4.09,2.22-4.86-1.76-9.4-4.27-13.98-6.65Z"/>
  </g>
  <g id="_cb7876ff" data-name="#cb7876ff">
    <path class="cls-1" d="m95.46,45.87c1.75-.12,3.85.93,5.05,2.09-2.5,1.73-5.29,3.14-7.84.62-3.06-1.12,1.9-2.07,2.79-2.71Z"/>
  </g>
  <g id="_cac7d4ff" data-name="#cac7d4ff">
    <path class="cls-1" d="m128.38,47.89c1.65-.78,3.3-1.56,4.98-2.29,1.39.82,3.26,1.1,4.36,2.31-4.35,2.55-9.07,4.43-13.48,6.88-4.63,2.31-9.34,4.45-13.85,6.98l-.39-.05c-2.87-2.37-6.22-2.42-9.08.01h-.38c-2.87-2.41-6.23-2.42-9.08.02l-.37.08c-1.33-.8-2.7-1.56-4.06-2.32,3.67-4.53,7.91,1.36,11.77-1.51,2.63-2.32,5.2,2.26,7.96.76,7.21-3.61,14.45-7.16,21.62-10.87Z"/>
    <path class="cls-1" d="m68.14,59.51c1.51-.75,3.02-1.47,4.57-2.13,1.51.68,3.01,1.4,4.49,2.13-1.4.78-2.8,1.57-4.17,2.41-.18,0-.54-.02-.72-.02-1.37-.82-2.77-1.61-4.16-2.39Z"/>
  </g>
  <g id="_a36842ff" data-name="#a36842ff">
    <path class="cls-1" d="m21.59,67.9c.18-5.49-.68-13.11.31-17.53,4.58,2.38,9.12,4.89,13.98,6.65l.09.41c0,2.39-.54,5.45-3.41,4.1-2.85-1.17-.77,2.95-2.21,4.25-1.88-.41-5.94-3.07-4.42,1.67.13,2.91-2.83.69-4.34.44Z"/>
  </g>
  <g id="_802423ff" data-name="#802423ff">
    <path class="cls-1" d="m86.55,50.32c1.3.48,4.59.68,4.39,2.58-2.63,2-5.58,2-8.21,0-.31-1.87,2.71-1.68,3.81-2.58Z"/>
  </g>
  <g id="_bf853eff" data-name="#bf853eff">
    <path class="cls-1" d="m105.08,50.44c1.2.32,4.45.64,4.21,2.46-2.57,2.03-6.11,2.12-8.32-.39,1.35-.73,2.7-1.45,4.11-2.07Z"/>
  </g>
  <g id="_6d4123ff" data-name="#6d4123ff">
    <path class="cls-1" d="m170.14,50.37c.88,4.4.16,11.61.36,17.08-1.44.79-2.92,1.51-4.4,2.2-.03-1.39-.08-4.16-.11-5.55-1.7.58-3.25,1.68-5.06,1.88.05-1.75.17-3.5.11-5.24-1.5.48-2.86,1.27-4.34,1.8-.09-1.75-.13-3.48-.23-5.22,1.57-.86,3.16-1.66,4.75-2.48,3-1.43,5.99-2.9,8.93-4.46Z"/>
  </g>
  <g id="_3f3320ff" data-name="#3f3320ff">
    <path class="cls-1" d="m67.75,54.84h.38c1.48.74,2.97,1.46,4.48,2.16l.09.37c-1.55.66-3.06,1.38-4.57,2.13h-.38c-1.48-.73-2.96-1.44-4.46-2.11l-.09-.4c1.54-.67,3.06-1.4,4.56-2.16Z"/>
    <path class="cls-1" d="m73.02,61.91c1.37-.83,2.77-1.62,4.17-2.41h.38c1.4.78,2.8,1.57,4.17,2.4-1.36.84-2.76,1.62-4.16,2.37h-.4c-1.41-.76-2.8-1.53-4.17-2.36Z"/>
  </g>
  <g id="_a87452ff" data-name="#a87452ff">
    <path class="cls-1" d="m35.97,57.43c1.35.69,2.69,1.38,3.99,2.15-.05,1.71-.02,3.44-.14,5.15-1.49-.48-2.85-1.28-4.34-1.8-.05,1.87-.09,3.76-.05,5.64-1.45-.78-2.92-1.5-4.42-2.18-.02,1.4-.08,4.19-.11,5.58-1.68-.67-3.29-1.51-4.95-2.23-.01,1.84-.02,3.69,0,5.53-1.46-.77-2.95-1.48-4.4-2.28-.1-1.7-.09-3.4.04-5.09,1.51.24,4.46,2.46,4.34-.44-1.52-4.74,2.54-2.08,4.42-1.67,1.45-1.31-.64-5.43,2.21-4.25,2.86,1.36,3.4-1.71,3.41-4.1Z"/>
    <path class="cls-1" d="m30.93,109.71c-1.51-4.89,2.53-1.75,4.46-1.56.03,2,.02,4,.04,6-1.46-.77-2.94-1.48-4.44-2.16-.03,1.4-.08,4.18-.11,5.57-1.68-.67-3.29-1.52-4.95-2.23-.01,1.83-.02,3.67,0,5.51-1.47-.76-2.95-1.47-4.4-2.26-.09-1.85-.09-3.69-.02-5.53,1.41.53,4.48,2.94,4.38,0-2.12-6.58,5.15.84,5.01-3.34Z"/>
  </g>
  <g id="_cfccd9ff" data-name="#cfccd9ff">
    <path class="cls-1" d="m77.58,59.51c2.86-2.42,6.2-2.4,9.07,0-1.41.79-2.82,1.58-4.19,2.45-.17-.01-.52-.04-.7-.05-1.37-.83-2.77-1.61-4.17-2.4Z"/>
  </g>
  <g id="_816a5bff" data-name="#816a5bff">
    <path class="cls-1" d="m152.12,59.54c1.43-.77,2.89-1.5,4.35-2.22.09,1.74.13,3.47.23,5.22,1.48-.52,2.84-1.32,4.34-1.8.06,1.75-.06,3.49-.11,5.24-1.56.67-2.97,1.62-4.38,2.55-3.01,1.69-6.15,3.14-9.24,4.67-.07-1.92-.14-3.82-.17-5.74,1.63-.8,3.3-1.53,4.91-2.4.12-1.84.13-3.67.08-5.52Z"/>
  </g>
  <g id="_884e28ff" data-name="#884e28ff">
    <path class="cls-1" d="m39.95,59.59l.39-.07c1.43.82,2.9,1.59,4.37,2.34l.1.52c.03,1.68.03,3.37.06,5.06-1.61-.82-3.25-1.6-4.93-2.27-.03,1.4-.08,4.19-.11,5.59-1.49-.69-2.97-1.4-4.41-2.18-.04-1.88,0-3.76.05-5.64,1.48.51,2.85,1.31,4.34,1.8.13-1.72.09-3.44.14-5.15Z"/>
    <path class="cls-1" d="m31,66.4c1.5.68,2.97,1.4,4.42,2.18.04,1.88,0,3.75-.05,5.64-1.48-.51-2.84-1.31-4.32-1.79-.12,1.71-.09,3.4-.17,5.12-1.68-.68-3.32-1.45-4.93-2.28-.02-1.84-.01-3.69,0-5.53,1.66.72,3.27,1.56,4.95,2.23.03-1.39.08-4.18.11-5.58Z"/>
    <path class="cls-1" d="m44.88,67.44c3.74,1.16,5.75,3.66,4.44,7.83-4.53-.46-5.24-3.76-4.44-7.83Z"/>
    <path class="cls-1" d="m49.35,75.72c1.8.71,3.49,1.66,5.14,2.67-.08,1.75-.17,3.51-.22,5.26-3.94-.96-6.46-3.5-4.91-7.93Z"/>
    <path class="cls-1" d="m77.11,78.02l.42.19c1.58.81,3.16,1.6,4.73,2.43-.07,1.73-.14,3.47-.18,5.21-1.67-.71-3.35-1.43-4.96-2.26-.02-1.85,0-3.72,0-5.57Z"/>
    <path class="cls-1" d="m72.69,81.41c1.5.68,2.98,1.41,4.43,2.18,0,1.86.07,3.74-.06,5.6-1.49-.48-2.85-1.28-4.32-1.79-.03,1.4-.08,4.19-.1,5.59-1.5-.69-2.97-1.41-4.43-2.17-.02-1.86,0-3.72.06-5.58,1.46.53,2.88,1.16,4.34,1.7.02-1.38.07-4.15.09-5.53Z"/>
    <path class="cls-1" d="m82.11,86.32c4.51.49,5.27,3.76,4.44,7.84-3.76-1.13-5.73-3.68-4.44-7.84Z"/>
    <path class="cls-1" d="m86.55,94.17c4.2,1.11,6.38,3.64,5.03,8.31-4.2-1.12-6.38-3.65-5.03-8.31Z"/>
    <path class="cls-1" d="m91.58,102.48c1.47.76,2.97,1.49,4.44,2.28,0,1.85,0,3.71.02,5.56-3.72-1.18-5.79-3.67-4.45-7.85Z"/>
    <path class="cls-1" d="m31,111.99c1.5.68,2.98,1.4,4.44,2.16,0,1.86.06,3.75-.07,5.62-1.48-.48-2.84-1.27-4.31-1.8-.07,1.7-.03,3.43-.16,5.13-1.73-.55-3.32-1.45-4.94-2.27-.02-1.83-.02-3.68,0-5.51,1.66.72,3.27,1.56,4.95,2.23.03-1.39.08-4.17.11-5.57Z"/>
    <path class="cls-1" d="m86.55,139.74c4.19,1.12,6.39,3.64,5.03,8.32-4.2-1.11-6.38-3.65-5.03-8.32Z"/>
    <path class="cls-1" d="m91.58,148.06c1.48.76,2.97,1.49,4.44,2.29,0,1.84,0,3.71,0,5.56-3.71-1.2-5.77-3.68-4.44-7.85Z"/>
  </g>
  <g id="_c47e51ff" data-name="#c47e51ff">
    <path class="cls-1" d="m44.72,61.86c2.95-2.97,6.3-1.97,9.48-.26,3.11-2.37,6.44-2.03,9.48.22,1.6.84,3.22,1.62,4.85,2.38,1.42.77,2.86,1.52,4.27,2.32-1.48.81-3.04,1.45-4.54,2.21,1.06,1.2,2.95,1.45,4.31,2.27,1.56.78,3.15,1.53,4.66,2.42-1.41.81-2.85,1.57-4.26,2.38-9.41-4.42-18.6-9.34-28.15-13.43l-.1-.52Z"/>
  </g>
  <g id="_653b1eff" data-name="#653b1eff">
    <path class="cls-1" d="m147.26,61.83c1.51-.71,2.98-1.5,4.44-2.29h.41c.06,1.85.04,3.68-.08,5.52-1.61.86-3.27,1.6-4.91,2.4.03-1.88.02-3.75.13-5.63Z"/>
    <path class="cls-1" d="m142.72,75.29c-.51-3.74.32-6.88,4.41-7.83.03,1.92.1,3.82.17,5.74-1.5.77-3.04,1.43-4.59,2.09Z"/>
    <path class="cls-1" d="m114.5,78.2l.42-.18c-.01,1.87.02,3.73.03,5.61-1.65.77-3.32,1.51-5,2.22-.05-1.73-.08-3.46-.17-5.18,1.56-.86,3.14-1.66,4.72-2.47Z"/>
    <path class="cls-1" d="m105.48,94.17c-.84-4.1-.07-7.34,4.44-7.84.49,3.75-.34,6.88-4.44,7.84Z"/>
    <path class="cls-1" d="m100.44,102.48c-1.35-4.67.83-7.21,5.03-8.32,1.36,4.67-.84,7.19-5.03,8.32Z"/>
    <path class="cls-1" d="m96.01,104.76c1.46-.79,2.95-1.52,4.43-2.28,0,1.86.01,3.7.01,5.56-1.48.75-2.98,1.47-4.43,2.28-.02-1.85-.02-3.71-.02-5.56Z"/>
    <path class="cls-1" d="m100.46,108.05c1.61-.83,3.21-1.73,4.95-2.28.13,1.88.07,3.75.07,5.64-1.62.83-3.27,1.61-4.96,2.28-.07-1.89-.09-3.75-.07-5.64Z"/>
    <path class="cls-1" d="m105.48,111.41c1.45-.78,2.9-1.56,4.41-2.2.09,1.83.02,3.65.01,5.49-1.46.78-2.91,1.56-4.43,2.21-.08-1.83-.03-3.67,0-5.5Z"/>
    <path class="cls-1" d="m105.48,139.75c-.54-3.76.35-6.86,4.45-7.8.49,3.74-.37,6.84-4.45,7.8Z"/>
    <path class="cls-1" d="m100.44,148.07c-1.35-4.68.83-7.21,5.03-8.32,1.36,4.68-.83,7.2-5.03,8.32Z"/>
    <path class="cls-1" d="m96.01,150.35c1.46-.8,2.95-1.52,4.43-2.28,0,1.86.01,3.7.01,5.56-1.48.76-2.99,1.47-4.44,2.28,0-1.85,0-3.72,0-5.56Z"/>
    <path class="cls-1" d="m100.46,153.63c1.61-.83,3.21-1.73,4.95-2.28.13,1.88.07,3.75.07,5.64-1.62.83-3.27,1.6-4.96,2.28-.07-1.89-.09-3.75-.07-5.64Z"/>
    <path class="cls-1" d="m105.48,156.99c1.45-.78,2.9-1.56,4.41-2.2.09,1.83.02,3.65,0,5.5-1.46.77-2.91,1.55-4.43,2.19-.08-1.82-.03-3.67,0-5.49Z"/>
    <path class="cls-1" d="m109.9,160.29c1.61-.82,3.26-1.58,4.89-2.36.09,1.91.12,3.8.14,5.72-1.62.81-3.22,1.72-4.96,2.27-.13-1.87-.08-3.76-.07-5.63Z"/>
  </g>
  <g id="_7b5035ff" data-name="#7b5035ff">
    <path class="cls-1" d="m128.36,71.32c6.27-3.22,12.64-6.26,18.9-9.49-.11,1.87-.11,3.75-.13,5.63-4.1.96-4.92,4.09-4.41,7.83l-.03.48c-3.21,1.31-6.31,2.89-9.41,4.45.36-1.87.53-5.99-2.45-4.67-2.92,1.31-1.87-2.39-2.47-4.24Z"/>
  </g>
  <g id="_a46a46ff" data-name="#a46a46ff">
    <path class="cls-1" d="m44.82,62.38c9.56,4.09,18.74,9.01,28.15,13.43l.29.36c-.45,1.97.28,5.64-2.62,4.4-2.91-1.33-2.05,2.44-3.04,4.2-4.52-1.77-8.73-4.27-13.12-6.37-1.65-1.02-3.34-1.96-5.14-2.67l-.03-.45c1.31-4.16-.7-6.67-4.44-7.83-.03-1.69-.03-3.38-.06-5.06Z"/>
  </g>
  <g id="_7b5742ff" data-name="#7b5742ff">
    <path class="cls-1" d="m160.92,65.98c1.81-.21,3.36-1.3,5.06-1.88.03,1.39.08,4.16.11,5.55,1.48-.69,2.96-1.41,4.4-2.2.02,1.83.12,3.69-.03,5.53-3.96,1.21-5.34,4.08-4.55,8.24-1.6.84-3.25,1.56-4.86,2.36-.04-3.72.14-7.44-.06-11.16-1.49.48-2.85,1.28-4.32,1.8-.07-1.9-.1-3.79-.13-5.69,1.41-.93,2.82-1.88,4.38-2.55Z"/>
    <path class="cls-1" d="m156.61,85.81c1.48-.76,2.97-1.47,4.45-2.23.49,3.74-.35,6.85-4.44,7.8-.01-1.86-.03-3.71-.02-5.56Z"/>
    <path class="cls-1" d="m152.17,93.62c1.47-.79,2.97-1.51,4.46-2.25.79,4.06.02,7.3-4.44,7.85-.03-1.87-.04-3.74-.02-5.61Z"/>
    <path class="cls-1" d="m152.19,104.81c1.45-.6,2.86-1.34,4.36-1.81.13,1.87.07,3.73.07,5.61-1.48.74-2.99,1.46-4.45,2.23.01-2.01,0-4.02.03-6.03Z"/>
    <path class="cls-1" d="m156.62,108.61c1.46-.76,2.91-1.54,4.42-2.18.09,1.83.02,3.65.02,5.49-1.47.77-2.97,1.49-4.44,2.25,0-1.86-.02-3.7,0-5.56Z"/>
    <path class="cls-1" d="m161.06,111.92c1.6-.83,3.23-1.61,4.91-2.27.03,1.4.09,4.2.12,5.59,1.48-.69,2.96-1.41,4.4-2.21.02,1.83.13,3.69-.02,5.53-3.96,1.2-5.34,4.07-4.55,8.23-1.68,1.08-4.17,1.27-5.01,3.31-1.46.32-2.87.79-4.26,1.32-.02-1.88-.05-3.75-.05-5.62l.04-.48c7.2-.58,3.64-8.61,4.43-13.4Z"/>
  </g>
  <g id="_ac8c79ff" data-name="#ac8c79ff">
    <path class="cls-1" d="m39.95,65.17c1.68.67,3.32,1.45,4.93,2.27-.81,4.07-.09,7.37,4.44,7.83l.03.45c-1.55,4.43.98,6.97,4.91,7.93l.11.44c-.02,1.68-.06,3.39-.07,5.08-1.68-.69-3.31-1.48-4.99-2.17-.01,1.37-.04,4.13-.06,5.5-1.45-.53-2.86-1.16-4.31-1.69-.07,1.68-.02,3.39-.14,5.07-1.73-.56-3.31-1.47-4.94-2.26-1.46-.78-2.95-1.49-4.43-2.24,1.28-4.13-.68-6.72-4.47-7.79-4.17-1.15-6.34-3.66-5.01-8.32,1.61.83,3.25,1.6,4.93,2.28.07-1.72.04-3.41.17-5.12,1.49.48,2.85,1.28,4.32,1.79.05-1.88.09-3.76.05-5.64,1.45.78,2.92,1.49,4.41,2.18.03-1.4.08-4.19.11-5.59Z"/>
    <path class="cls-1" d="m77.12,83.59c1.62.83,3.29,1.55,4.96,2.26l.03.47c-1.29,4.16.68,6.71,4.44,7.84-1.36,4.66.83,7.19,5.03,8.31-1.34,4.18.73,6.67,4.45,7.85,0,1.9.13,3.85-.43,5.68-1.26-.73-2.56-1.38-3.87-2.02-1.71-.9-3.42-1.8-5.19-2.59-.02,1.84-.02,3.7.02,5.54-1.47-.76-2.96-1.49-4.45-2.22-1.62-.84-3.3-1.56-4.97-2.28l-.03-.48c1.08-3.98-.32-6.78-4.43-7.29l-.03-.46c1.3-4.16-.64-6.72-4.41-7.85-.02-1.86,0-3.69-.03-5.54,1.46.77,2.93,1.48,4.43,2.17.02-1.4.07-4.19.1-5.59,1.47.51,2.83,1.31,4.32,1.79.13-1.86.07-3.74.06-5.6Z"/>
  </g>
  <g id="_442d1bff" data-name="#442d1bff">
    <path class="cls-1" d="m147.3,73.2c3.09-1.53,6.23-2.98,9.24-4.67.03,1.9.06,3.79.13,5.69,1.47-.52,2.84-1.32,4.32-1.8.2,3.71.02,7.44.06,11.16-1.48.76-2.97,1.48-4.45,2.23,0-1.88,0-3.76-.02-5.64,0-1.85.09-3.7-.03-5.54-4.76,1.91-9.22,4.53-13.85,6.72,0-1.87-.01-3.72-.02-5.58l.03-.48c1.55-.66,3.09-1.32,4.59-2.09Z"/>
    <path class="cls-1" d="m152.17,88.06c1.47-.77,2.96-1.5,4.44-2.25-.01,1.86,0,3.7.02,5.56-1.49.74-2.99,1.46-4.46,2.25,0-1.86-.01-3.71,0-5.56Z"/>
    <path class="cls-1" d="m123.81,96.37c-.59-3.91.27-7.44,4.97-7.82.04,1.73.1,3.45.17,5.19-1.7.91-3.44,1.74-5.14,2.63Z"/>
    <path class="cls-1" d="m119.32,98.64c1.48-.78,3-1.51,4.49-2.27.8,4.06.07,7.33-4.43,7.82,0-1.85-.04-3.71-.07-5.55Z"/>
    <path class="cls-1" d="m114.91,111.97c-.38-3.6-.04-6.99,4.44-7.3.38,3.6.05,6.99-4.44,7.3Z"/>
    <path class="cls-1" d="m152.17,110.85c1.47-.78,2.97-1.49,4.45-2.23-.02,1.86-.01,3.7,0,5.56-1.48.75-2.99,1.47-4.48,2.22.04-1.85,0-3.7.03-5.54Z"/>
    <path class="cls-1" d="m156.61,114.17c1.47-.76,2.97-1.48,4.44-2.25-.79,4.8,2.78,12.82-4.43,13.4-.02-1.73-.02-3.45-.06-5.17.02-2,.03-3.99.04-5.98Z"/>
    <path class="cls-1" d="m142.72,132.54c4.56-2.37,9.13-4.73,13.87-6.74,0,1.87.03,3.74.05,5.62-3.22,1.6-6.5,3.09-9.63,4.86-1.42.63-2.85,1.22-4.29,1.82,0-1.87-.02-3.71,0-5.56Z"/>
  </g>
  <g id="_c78459ff" data-name="#c78459ff">
    <path class="cls-1" d="m105.29,73.42c1.5-.77,3.04-1.46,4.58-2.15,1.57.64,3.15,1.3,4.64,2.13-1.31.67-2.62,1.34-3.93,2.02.18,1.68,2.76,1.77,3.93,2.79-1.58.81-3.16,1.61-4.72,2.47-4.61,2.23-9.23,4.45-13.76,6.85-4.55-2.37-9.16-4.62-13.76-6.88-1.57-.84-3.15-1.63-4.73-2.43,1.42-.78,2.84-1.56,4.22-2.41.17,0,.52,0,.69,0,2.76,2.52,6.04,2.54,8.79,0h.67c2.63,2.36,5.6,2.36,8.23,0,.17,0,.5.01.67.01,2.61,2.23,5.7,2.71,8.51.45-.24-1.75-2.79-1.84-4.02-2.85Z"/>
  </g>
  <g id="_6c3f21ff" data-name="#6c3f21ff">
    <path class="cls-1" d="m123.92,73.49c1.5-.7,2.96-1.44,4.45-2.17.6,1.85-.45,5.55,2.47,4.24,2.98-1.32,2.8,2.8,2.45,4.67-1.48.77-2.99,1.5-4.45,2.29-1.62.8-3.26,1.58-4.94,2.25-.02-1.39-.07-4.17-.1-5.56-1.5.67-2.95,1.45-4.45,2.12-.02-1.84-.01-3.67.03-5.5,1.51-.79,3.03-1.56,4.54-2.34Z"/>
  </g>
  <g id="_90532cff" data-name="#90532cff">
    <path class="cls-1" d="m21.55,72.99c1.45.79,2.94,1.51,4.4,2.28-1.33,4.66.83,7.18,5.01,8.32-1.28,4.15.72,6.67,4.47,7.79.01,2.01-.02,4.04.02,6.05-.02,1.53-.04,3.07-.06,4.6-5.81-.42-1.85-7.64-7.13-9.06-2.57-.86-1.24-3.76-2.07-5.7-.63-1.98-3.01-2.31-4.59-3.25-.13-3.68-.15-7.36-.04-11.04Z"/>
  </g>
  <g id="_6a3e20ff" data-name="#6a3e20ff">
    <path class="cls-1" d="m165.92,81.22c-.79-4.16.58-7.03,4.55-8.24.02,3.52.18,7.05,0,10.57-5.71.67-3.91,8-8.29,10.1-1.34,1.76-3.27,4.35-1.51,6.45,1.35,1.6,4.51-1.11,4.43,1.75.22,3.01,3.55,2.29,5.33,1.12.07,3.35.19,6.71.05,10.06-1.43.79-2.91,1.51-4.4,2.21-.03-1.4-.09-4.19-.12-5.59-1.68.67-3.31,1.45-4.91,2.27,0-1.84.07-3.66-.02-5.49-1.51.64-2.96,1.42-4.42,2.18,0-1.88.07-3.74-.07-5.61-1.5.47-2.91,1.21-4.36,1.81-.02-1.87-.04-3.72,0-5.58,4.45-.56,5.23-3.79,4.44-7.85,4.09-.95,4.93-4.06,4.44-7.8,1.61-.81,3.26-1.52,4.86-2.36Z"/>
  </g>
  <g id="_4c4a52ff" data-name="#4c4a52ff">
    <path class="cls-1" d="m142.7,81.35c4.64-2.19,9.09-4.8,13.85-6.72.12,1.85.03,3.69.03,5.54-9.35,4.22-18.36,9.17-27.63,13.56-.07-1.73-.13-3.46-.17-5.19l.04-.48c4.74-2,9.31-4.38,13.89-6.73Z"/>
  </g>
  <g id="_7b5945ff" data-name="#7b5945ff">
    <path class="cls-1" d="m114.92,78.02c1.48-.74,2.96-1.47,4.45-2.2-.04,1.83-.05,3.66-.03,5.5,1.5-.67,2.95-1.45,4.45-2.12.03,1.39.08,4.17.1,5.56,1.68-.67,3.32-1.45,4.94-2.25-.03,1.85.01,3.71-.01,5.56l-.04.48c-4.7.37-5.56,3.9-4.97,7.82-1.5.77-3.01,1.5-4.49,2.27-1.42-3.35-.34-6.47,3.04-7.59,1.6-1.03,1.72-6.07-1.13-4.44-2.72,1.28-2.12-2.4-2.55-4.1-1.27.27-2.5.71-3.72,1.12-.01-1.88-.04-3.74-.03-5.61Z"/>
    <path class="cls-1" d="m119.28,138.62c1.52-.73,3.04-1.45,4.54-2.21-.04,1.82-.05,3.64-.03,5.47,1.67-.71,3.25-1.61,4.97-2.2.13,1.87.06,3.72.06,5.6-4.09,1.16-6.29,3.59-5.15,8.19-4.26.78-5.02,3.86-4.4,7.85-1.41.85-2.88,1.56-4.33,2.33-.02-1.92-.04-3.81-.14-5.72,4.33-.95,4.25-4.48,4.69-8.05,3.34-.92,4.79-3.34,3.78-6.82-3.32,2.19-6.1-.62-3.98-4.45Z"/>
  </g>
  <g id="_2b2215ff" data-name="#2b2215ff">
    <path class="cls-1" d="m133.28,80.23c3.1-1.56,6.19-3.14,9.41-4.45,0,1.86.01,3.71.02,5.58-4.58,2.35-9.14,4.73-13.89,6.73.02-1.85-.02-3.71.01-5.56,1.47-.79,2.97-1.52,4.45-2.29Z"/>
    <path class="cls-1" d="m147.16,95.86c1.68-.71,3.37-1.42,5.01-2.23-.02,1.87,0,3.74.02,5.61-.03,1.86-.02,3.71,0,5.58-.03,2.01-.02,4.02-.03,6.03-1.62.83-3.27,1.61-4.96,2.28-.1-3.75-.04-7.49-.06-11.23,0-1.86,0-3.71-.02-5.56l.02-.48Z"/>
  </g>
  <g id="_a87453ff" data-name="#a87453ff">
    <path class="cls-1" d="m73.26,76.16c1.29.61,2.57,1.22,3.85,1.86,0,1.85-.02,3.72,0,5.57-1.45-.78-2.93-1.5-4.43-2.18-.02,1.38-.07,4.14-.09,5.53-1.46-.53-2.88-1.17-4.34-1.7-.05,1.86-.08,3.72-.06,5.58-4.6-2.26-9.09-4.78-13.84-6.73l-.11-.44c.06-1.75.14-3.51.22-5.26,4.39,2.09,8.6,4.59,13.12,6.37,1-1.76.13-5.53,3.04-4.2,2.9,1.25,2.17-2.43,2.62-4.4Z"/>
  </g>
  <g id="_6e6c73ff" data-name="#6e6c73ff">
    <path class="cls-1" d="m128.95,93.74c9.27-4.4,18.28-9.34,27.63-13.56.02,1.88.02,3.75.02,5.64-1.48.75-2.97,1.48-4.44,2.25-4.3.84-5.71,3.75-5.01,7.8l-.02.48c-4.5.49-5.26,3.77-4.44,7.85.02,3.71-.14,7.42.07,11.13,1.48-.48,2.84-1.27,4.3-1.8.05,1.7.04,3.43.16,5.13,1.72-.54,3.31-1.43,4.9-2.27-.03,1.93-.19,3.95.48,5.8-7.5,4.62-15.94,7.44-23.74,11.51-.02-1.39-.07-4.17-.09-5.56-1.65.71-3.22,1.6-4.9,2.22-.09-1.73-.03-3.42-.16-5.13-1.48.48-2.84,1.27-4.31,1.78-.01-1.37-.04-4.1-.06-5.46-1.46.53-2.88,1.17-4.37,1.61-.07-1.72-.07-3.4-.08-5.11,0-1.87,0-3.73-.02-5.6l.02-.48c4.49-.31,4.82-3.7,4.44-7.3l.03-.48c4.5-.49,5.23-3.76,4.43-7.82,1.71-.89,3.45-1.72,5.14-2.63m8.36,1.71c-3.88.91-4.96,3.77-4.08,7.59,3.91-.68,6.1-4.85,4.08-7.59m-.16,11.61c-4.14.41-4.58,3.57-3.86,7.17,4.21.04,6.01-4.93,3.86-7.17m-9.28,4.54c-3.91.82-4.95,3.76-4.1,7.54,4.06-.14,7.52-5.91,4.1-7.54m9.44,6.64c-3.88.91-4.96,3.77-4.08,7.59,3.91-.68,6.1-4.85,4.08-7.59Z"/>
  </g>
  <g id="_a66e4bff" data-name="#a66e4bff">
    <path class="cls-1" d="m82.26,80.65c4.6,2.26,9.21,4.51,13.76,6.88-.01,5.74,0,11.49,0,17.24-1.46-.79-2.96-1.52-4.44-2.28,1.35-4.67-.82-7.2-5.03-8.31.83-4.09.07-7.35-4.44-7.84l-.03-.47c.04-1.74.11-3.48.18-5.21Z"/>
  </g>
  <g id="_7c5238ff" data-name="#7c5238ff">
    <path class="cls-1" d="m96.02,87.52c4.53-2.4,9.15-4.63,13.76-6.85.08,1.72.12,3.45.17,5.18l-.04.48c-4.5.49-5.28,3.74-4.44,7.84-4.2,1.11-6.38,3.65-5.03,8.32-1.48.76-2.97,1.48-4.43,2.28,0-5.75,0-11.5,0-17.24Z"/>
  </g>
  <g id="_80685aff" data-name="#80685aff">
    <path class="cls-1" d="m114.95,83.63c1.23-.41,2.46-.85,3.72-1.12.43,1.71-.17,5.38,2.55,4.1,2.86-1.63,2.74,3.41,1.13,4.44-3.39,1.12-4.46,4.24-3.04,7.59.02,1.84.07,3.7.07,5.55l-.03.48c-4.49.31-4.82,3.7-4.44,7.3l-.02.48c-1.68.71-3.36,1.42-4.99,2.23,0-1.84.08-3.66-.01-5.49-1.51.64-2.97,1.42-4.41,2.2,0-1.88.06-3.76-.07-5.64-1.75.54-3.34,1.45-4.95,2.28,0-1.86-.01-3.71-.01-5.56,4.19-1.12,6.39-3.65,5.03-8.32,4.1-.96,4.93-4.09,4.44-7.84l.04-.48c1.68-.71,3.35-1.45,5-2.22Z"/>
    <path class="cls-1" d="m109.92,131.95c1.61-.83,3.19-1.72,4.91-2.27.13,1.71.08,3.4.16,5.13,1.47-.53,2.83-1.32,4.32-1.8.12,1.87.01,3.72-.03,5.6-2.12,3.82.66,6.64,3.98,4.45,1.01,3.47-.44,5.89-3.78,6.82-.44,3.57-.36,7.1-4.69,8.05-1.63.78-3.28,1.54-4.89,2.36.01-1.85.08-3.67,0-5.5-1.51.64-2.97,1.42-4.41,2.2,0-1.89.06-3.76-.07-5.64-1.75.54-3.34,1.45-4.95,2.28,0-1.87-.01-3.71-.01-5.56,4.2-1.12,6.39-3.65,5.03-8.32,4.08-.96,4.94-4.06,4.45-7.8Z"/>
  </g>
  <g id="_a47558ff" data-name="#a47558ff">
    <path class="cls-1" d="m30.96,83.59c3.79,1.07,5.75,3.66,4.47,7.79-3.75-1.12-5.75-3.64-4.47-7.79Z"/>
    <path class="cls-1" d="m35.43,91.38c1.48.75,2.97,1.46,4.43,2.24.02,1.86,0,3.7,0,5.56-1.47-.58-2.94-1.16-4.41-1.75-.03-2.01,0-4.04-.02-6.05Z"/>
    <path class="cls-1" d="m86.55,111.4c1.76.79,3.47,1.7,5.19,2.59-.08,1.73-.08,3.49-.24,5.23-1.73-.54-3.32-1.45-4.93-2.27-.03-1.85-.03-3.7-.02-5.54Z"/>
    <path class="cls-1" d="m82.12,114.72c1.48.73,2.97,1.47,4.45,2.22.02,1.87-.02,3.73-.03,5.61-1.47-.58-2.94-1.17-4.4-1.74l-.03-.48c0-1.87.02-3.75.01-5.61Z"/>
    <path class="cls-1" d="m39.88,122.42c1.68.73,3.36,1.47,5,2.28,0,1.85-.02,3.71-.02,5.56-3.86-1.12-6.59-3.29-4.98-7.85Z"/>
    <path class="cls-1" d="m44.87,130.27c1.47.76,2.97,1.48,4.45,2.26,0,1.85-.02,3.72,0,5.58-4.5-.49-5.25-3.76-4.45-7.84Z"/>
    <path class="cls-1" d="m49.36,138.58c1.67.71,3.34,1.43,4.97,2.24,0,1.84-.02,3.7.01,5.55-1.62-.81-3.26-1.58-4.94-2.25-.03,1.4-.08,4.19-.11,5.58-1.5-.69-2.98-1.41-4.43-2.18-.02-1.87.01-3.77.07-5.64,1.48.51,2.85,1.32,4.34,1.8.12-1.7.08-3.41.09-5.1Z"/>
    <path class="cls-1" d="m77.1,140.86c1.64.82,3.32,1.55,5,2.28.04,1.86,0,3.69-.04,5.56-1.69-.67-3.34-1.45-4.95-2.28-.02-1.85,0-3.72-.02-5.56Z"/>
    <path class="cls-1" d="m72.68,144.18c1.47.76,2.97,1.48,4.44,2.25.04,1.88,0,3.74-.05,5.61-1.48-.51-2.85-1.32-4.34-1.8-.12,1.7-.1,3.39-.11,5.1-1.52-.67-3.05-1.35-4.52-2.12.08-1.74.13-3.49.17-5.22,1.46.57,2.85,1.3,4.35,1.77.13-1.86.07-3.75.07-5.6Z"/>
    <path class="cls-1" d="m40.01,145.16c1.62.77,3.26,1.53,4.85,2.36.03,1.83.02,3.65.04,5.49-1.61-.93-4.07-1.22-5.06-2.7.03-1.72.1-3.45.16-5.15Z"/>
    <path class="cls-1" d="m72.67,155.81c4.49.49,5.25,3.76,4.45,7.83-3.78-1.11-5.75-3.66-4.45-7.83Z"/>
    <path class="cls-1" d="m77.12,163.65c1.7.88,3.42,1.72,5.1,2.66-.07,1.71-.12,3.41-.14,5.14-1.71-.61-3.46-1.24-4.94-2.31-.04-1.82-.02-3.67-.02-5.49Z"/>
  </g>
  <g id="_784b2eff" data-name="#784b2eff">
    <path class="cls-1" d="m162.18,93.65c4.38-2.1,2.57-9.43,8.29-10.1-.02,6.47.19,12.96-.03,19.42-1.78,1.17-5.11,1.89-5.33-1.12.08-2.86-3.09-.15-4.43-1.75-1.77-2.1.17-4.69,1.51-6.45Z"/>
    <path class="cls-1" d="m164.66,136.74c.46-3.24,1.98-7.4,5.77-7.72.13,4.1.16,8.21.04,12.32-3.46,1.81-6.88,3.8-10.58,5.06-.51-3.98,1.66-7.37,4.77-9.66Z"/>
  </g>
  <g id="_a26640ff" data-name="#a26640ff">
    <path class="cls-1" d="m21.6,84.03c1.57.94,3.96,1.26,4.59,3.25.83,1.94-.51,4.85,2.07,5.7,5.28,1.42,1.32,8.63,7.13,9.06.03,2.03.04,4.08.01,6.11-1.93-.19-5.97-3.33-4.46,1.56.13,4.18-7.14-3.24-5.01,3.34.1,2.94-2.97.53-4.38,0-.02-9.67-.09-19.35.06-29.02Z"/>
  </g>
  <g id="_392d1bff" data-name="#392d1bff">
    <path class="cls-1" d="m54.37,84.09c4.75,1.95,9.23,4.48,13.84,6.73.03,1.85.01,3.69.03,5.54-4.65-2.21-9.13-4.77-13.89-6.74l-.04-.46c0-1.69.04-3.39.07-5.08Z"/>
    <path class="cls-1" d="m54.33,140.82c1.46.78,2.95,1.5,4.43,2.23,3.09,1.63,6.22,3.17,9.45,4.49l.06.47c-.04,1.73-.09,3.48-.17,5.22-4.6-2.26-9.23-4.45-13.75-6.87-.03-1.85,0-3.71-.01-5.55Z"/>
  </g>
  <g id="_5b3c23ff" data-name="#5b3c23ff">
    <path class="cls-1" d="m49.31,86.99c1.68.69,3.31,1.48,4.99,2.17l.04.46c-.01,1.87-.03,3.74-.02,5.61-1.61-.82-3.25-1.6-4.92-2.27-.08,1.7-.04,3.42-.17,5.12-1.49-.48-2.85-1.28-4.32-1.79-.05,1.87-.08,3.75-.06,5.63-1.62-.83-3.3-1.55-4.97-2.27l-.04-.48c0-1.86.02-3.7,0-5.56,1.63.79,3.21,1.7,4.94,2.26.12-1.68.08-3.39.14-5.07,1.45.53,2.86,1.16,4.31,1.69.02-1.37.04-4.13.06-5.5Z"/>
    <path class="cls-1" d="m68.24,96.36c3.77,1.13,5.71,3.69,4.41,7.85-1.56-.8-3.61-1.07-4.63-2.63.13-1.73.16-3.49.21-5.21Z"/>
    <path class="cls-1" d="m72.69,104.67c4.11.51,5.51,3.31,4.43,7.29-1.48-.58-2.96-1.16-4.44-1.74-.01-1.85,0-3.71.01-5.55Z"/>
    <path class="cls-1" d="m77.15,112.44c1.67.72,3.35,1.44,4.97,2.28,0,1.86-.02,3.74-.01,5.61-1.68-.72-3.36-1.44-5-2.25,0-1.88.03-3.77.04-5.64Z"/>
    <path class="cls-1" d="m39.86,116.4c1.63.82,3.3,1.55,4.98,2.28.04,2.01.02,4,.04,6.01-1.64-.82-3.32-1.55-5-2.28-.03-2-.01-4.01-.02-6.01Z"/>
    <path class="cls-1" d="m44.88,124.7c1.47.78,2.96,1.5,4.43,2.27.01,1.85,0,3.71,0,5.56-1.47-.78-2.97-1.5-4.45-2.26,0-1.85.02-3.72.02-5.56Z"/>
    <path class="cls-1" d="m49.31,132.53c1.63.82,3.32,1.53,5,2.25l.03.46c0,1.85-.03,3.72-.02,5.58-1.63-.81-3.3-1.53-4.97-2.24l-.04-.47c-.02-1.86,0-3.72,0-5.58Z"/>
    <path class="cls-1" d="m77.17,135.21c1.69.67,3.34,1.45,4.95,2.28,0,1.88-.01,3.77-.03,5.66-1.68-.73-3.36-1.47-5-2.28-.02-1.88.02-3.78.08-5.65Z"/>
    <path class="cls-1" d="m72.67,138.6c1.47.77,2.97,1.49,4.43,2.26.01,1.85,0,3.71.02,5.56-1.47-.77-2.96-1.49-4.44-2.25-.02-1.86,0-3.72-.01-5.58Z"/>
    <path class="cls-1" d="m68.22,141.95c1.47.77,2.97,1.48,4.45,2.23,0,1.86.07,3.74-.07,5.6-1.5-.47-2.89-1.2-4.35-1.77l-.06-.47c-.01-1.86.01-3.74.02-5.6Z"/>
  </g>
  <g id="_828089ff" data-name="#828089ff">
    <path class="cls-1" d="m147.16,95.86c-.71-4.05.71-6.95,5.01-7.8-.01,1.86,0,3.7,0,5.56-1.64.81-3.32,1.53-5.01,2.23Z"/>
    <path class="cls-1" d="m142.7,104.2c-.83-4.08-.07-7.36,4.44-7.85.01,1.85.02,3.7.02,5.56-1.47.79-2.98,1.51-4.45,2.3Z"/>
  </g>
  <g id="_a7a4afff" data-name="#a7a4afff">
    <path class="cls-1" d="m54.35,89.63c4.76,1.97,9.24,4.53,13.89,6.74-.05,1.73-.08,3.48-.21,5.21-4.69-1.83-9.27-3.94-13.7-6.34-.02-1.87,0-3.74.02-5.61Z"/>
  </g>
  <g id="_a8a6b1ff" data-name="#a8a6b1ff">
    <path class="cls-1" d="m49.41,92.97c1.67.67,3.31,1.45,4.92,2.27,0,1.83.06,3.68-.02,5.51-1.65-.71-3.25-1.55-4.91-2.21-.03,1.4-.08,4.18-.11,5.58-1.49-.69-2.97-1.41-4.42-2.19-.03-1.87,0-3.76.06-5.63,1.48.51,2.84,1.31,4.32,1.79.13-1.7.08-3.42.17-5.12Z"/>
  </g>
  <g id="_918f98ff" data-name="#918f98ff">
    <path class="cls-1" d="m54.33,95.24c4.43,2.4,9.01,4.51,13.7,6.34,1.02,1.57,3.06,1.83,4.63,2.63l.03.46c0,1.84-.02,3.7-.01,5.55-1.33,4.17.67,6.7,4.43,7.86,0,1.83-.02,3.69.01,5.53-.06,3.72.14,7.45-.06,11.17-1.5-.48-2.86-1.28-4.34-1.8-.06,1.86-.08,3.75-.05,5.61-1.46-.76-2.95-1.48-4.45-2.16-.02,1.82-.03,3.67.01,5.5-3.09-1.57-6.2-3.08-9.31-4.61-1.49-.77-3.02-1.44-4.56-2.1l-.03-.46c1.57-4.54-1.14-6.7-5.01-7.8-1.47-.77-2.96-1.49-4.43-2.27-.02-2.01,0-4.01-.04-6.01.03-5.59.07-11.18.03-16.77,1.45.78,2.93,1.5,4.42,2.19.03-1.4.08-4.18.11-5.58,1.67.67,3.26,1.51,4.91,2.21.08-1.83.03-3.68.02-5.51m4.43,7.84c-.87,4.05-.04,7.35,4.43,7.82,1.15-4.05-.26-7.09-4.43-7.82m-9.46,6.68c-1.42,4.66.82,7.22,5.04,8.27,1.3-4.55-.69-7.35-5.04-8.27m9.49,4.89c-1.24,4.16.54,6.81,4.43,7.84.87-4.05.06-7.37-4.43-7.84m9.41,4.55c-.87,4.05-.04,7.35,4.43,7.82,1.15-4.05-.26-7.09-4.43-7.82m-9.45,6.67c-.87,4.05-.04,7.35,4.43,7.82,1.15-4.05-.26-7.09-4.43-7.82Z"/>
  </g>
  <g id="_943b39ff" data-name="#943b39ff">
    <path class="cls-1" d="m137.31,95.45c2.02,2.74-.17,6.92-4.08,7.59-.88-3.82.2-6.69,4.08-7.59Z"/>
  </g>
  <g id="_3a2d1bff" data-name="#3a2d1bff">
    <path class="cls-1" d="m35.44,97.43c1.47.58,2.94,1.17,4.41,1.75l.04.48c0,5.58-.06,11.17-.03,16.75-1.47-.77-2.96-1.48-4.43-2.25-.02-2.01-.01-4-.04-6,.03-2.03.02-4.08-.01-6.11.02-1.53.04-3.07.06-4.6Z"/>
    <path class="cls-1" d="m82.13,120.81c1.47.57,2.94,1.16,4.4,1.74.04,2.01.02,4.01.05,6.02-.02,3.72-.04,7.44-.04,11.17-1.47-.76-2.96-1.48-4.42-2.25-.04-3.86.03-7.72-.04-11.57.02-1.7.03-3.41.04-5.1Z"/>
  </g>
  <g id="_a9a6b1ff" data-name="#a9a6b1ff">
    <path class="cls-1" d="m39.9,99.65c1.67.72,3.35,1.44,4.97,2.27.04,5.59,0,11.18-.03,16.77-1.67-.73-3.35-1.47-4.98-2.28-.02-5.58.03-11.17.03-16.75Z"/>
  </g>
  <g id="_4e4c54ff" data-name="#4e4c54ff">
    <path class="cls-1" d="m142.7,104.2c1.47-.78,2.98-1.51,4.45-2.3.02,3.74-.04,7.48.06,11.23,1.69-.67,3.34-1.45,4.96-2.28-.02,1.84.01,3.7-.03,5.54-1.6.84-3.18,1.73-4.9,2.27-.12-1.7-.11-3.44-.16-5.13-1.47.52-2.82,1.32-4.3,1.8-.21-3.71-.05-7.42-.07-11.13Z"/>
  </g>
  <g id="_842624ff" data-name="#842624ff">
    <path class="cls-1" d="m58.76,103.08c4.17.73,5.58,3.76,4.43,7.82-4.47-.47-5.3-3.77-4.43-7.82Z"/>
  </g>
  <g id="_7e4b4aff" data-name="#7e4b4aff">
    <path class="cls-1" d="m137.15,107.06c2.15,2.25.34,7.21-3.86,7.17-.71-3.6-.27-6.76,3.86-7.17Z"/>
  </g>
  <g id="_7c5137ff" data-name="#7c5137ff">
    <path class="cls-1" d="m96.03,110.33c1.45-.81,2.95-1.53,4.43-2.28-.03,1.88,0,3.75.07,5.64,1.69-.67,3.34-1.45,4.96-2.28-.03,1.82-.08,3.67,0,5.5,1.51-.65,2.97-1.43,4.43-2.21-.01,1.87.03,3.75.02,5.63l-.04.48c-1.84,1.18-6,.93-4.42,4.5-2.67,7.38,7.05-3.51,4.46,3.86.01.93.01,1.86,0,2.79-4.1.94-4.99,4.04-4.45,7.8-4.2,1.11-6.38,3.65-5.03,8.32-1.48.76-2.97,1.48-4.43,2.28-.02-7.77.04-15.53-.02-23.29.08-3.69-.33-7.37-.39-11.05.56-1.83.42-3.79.43-5.68Z"/>
    <path class="cls-1" d="m96.01,155.91c1.46-.81,2.96-1.52,4.44-2.28-.03,1.88,0,3.75.07,5.64,1.69-.68,3.34-1.45,4.96-2.28-.03,1.82-.08,3.67,0,5.49,1.52-.64,2.97-1.42,4.43-2.19-.01,1.86-.06,3.75.07,5.63,1.75-.55,3.34-1.46,4.96-2.27-.03,1.83-.03,3.65-.05,5.49-6.2,3.32-12.59,6.31-18.87,9.49-.01-3.68.03-7.35-.02-11.03,0-2.06.04-4.09,0-6.13.02-1.85,0-3.71.02-5.55Z"/>
  </g>
  <g id="_9f6e33ff" data-name="#9f6e33ff">
    <path class="cls-1" d="m49.3,109.76c4.34.92,6.34,3.71,5.04,8.27-4.22-1.05-6.46-3.6-5.04-8.27Z"/>
  </g>
  <g id="_77757eff" data-name="#77757eff">
    <path class="cls-1" d="m72.68,110.22c1.48.58,2.96,1.16,4.44,1.74l.03.48c-.02,1.87-.04,3.76-.04,5.64-3.75-1.16-5.75-3.69-4.43-7.86Z"/>
    <path class="cls-1" d="m77.1,118.08c1.64.81,3.32,1.53,5,2.25l.03.48c-.01,1.69-.02,3.41-.04,5.1-1.67-.73-3.35-1.47-4.98-2.31-.03-1.84,0-3.7-.01-5.53Z"/>
    <path class="cls-1" d="m49.31,126.97c3.87,1.1,6.58,3.26,5.01,7.8-1.68-.71-3.37-1.43-5-2.25-.01-1.85,0-3.71,0-5.56Z"/>
    <path class="cls-1" d="m54.35,135.24c1.54.66,3.07,1.33,4.56,2.1-.06,1.9-.14,3.81-.16,5.71-1.48-.73-2.97-1.45-4.43-2.23-.01-1.86.02-3.73.02-5.58Z"/>
  </g>
  <g id="_4f1716ff" data-name="#4f1716ff">
    <path class="cls-1" d="m127.87,111.6c3.42,1.63-.03,7.4-4.1,7.54-.86-3.79.18-6.73,4.1-7.54Z"/>
  </g>
  <g id="_272014ff" data-name="#272014ff">
    <path class="cls-1" d="m109.91,114.69c1.63-.81,3.3-1.53,4.99-2.23.01,1.87.02,3.72.02,5.6-1.62.83-3.31,1.56-4.99,2.26.01-1.87-.03-3.76-.02-5.63Z"/>
  </g>
  <g id="_ab8b76ff" data-name="#ab8b76ff">
    <path class="cls-1" d="m35.44,114.15c1.47.77,2.96,1.48,4.43,2.25.01,2,0,4.01.02,6.01-1.61,4.56,1.12,6.73,4.98,7.85-.81,4.07-.06,7.35,4.45,7.84l.04.47c-.01,1.68.03,3.4-.09,5.1-1.5-.48-2.86-1.28-4.34-1.8-.06,1.87-.09,3.76-.07,5.64-1.6-.83-3.23-1.6-4.85-2.36-4.16-1.01-5.54-3.84-4.7-8.08-3.85-1.08-5.32-3.81-4.46-7.79-4.16-1.25-6.1-3.92-4.89-8.46,1.62.82,3.21,1.72,4.94,2.27.13-1.7.09-3.44.16-5.13,1.47.52,2.82,1.32,4.31,1.8.13-1.87.07-3.76.07-5.62Z"/>
    <path class="cls-1" d="m82.13,137.49c1.46.77,2.95,1.49,4.42,2.25-1.35,4.67.83,7.21,5.03,8.32-1.33,4.17.72,6.65,4.44,7.85-.01,1.84,0,3.7-.02,5.55-1.45-.59-2.89-1.21-4.35-1.75-.08,1.67-.02,3.41-.15,5.09-1.7-.59-3.27-1.49-4.92-2.19-.02,1.38-.06,4.14-.08,5.53-1.45-.56-2.86-1.21-4.26-1.84-1.68-.93-3.4-1.77-5.1-2.66.8-4.07.04-7.34-4.45-7.83l-.06-.46c.01-1.71-.01-3.4.11-5.1,1.5.48,2.86,1.28,4.34,1.8.04-1.88.09-3.74.05-5.61,1.61.83,3.26,1.61,4.95,2.28.04-1.87.08-3.7.04-5.56.02-1.88.02-3.78.03-5.66Z"/>
  </g>
  <g id="_91542dff" data-name="#91542dff">
    <path class="cls-1" d="m91.73,113.99c1.31.63,2.61,1.29,3.87,2.02.06,3.69.47,7.36.39,11.05-1.29.05-3.65-2.15-4.1-.42,1.16,4.64-3.11,2.75-5.31,1.93-.03-2.01-.01-4.01-.05-6.02.01-1.88.04-3.74.03-5.61,1.61.83,3.2,1.73,4.93,2.27.16-1.73.16-3.49.24-5.23Z"/>
    <path class="cls-1" d="m49.4,144.12c1.68.67,3.32,1.45,4.94,2.25,4.52,2.41,9.16,4.61,13.75,6.87,1.47.77,3,1.45,4.52,2.12l.06.46c-1.3,4.17.67,6.72,4.45,7.83,0,1.82-.02,3.66.02,5.49-2.65-1.52-6.3-2.41-8.32-4.37,1.87-7.8-7.69-9.03-12.47-12.02-3.15-1.38-2.66,2.63-2.59,4.72-2.96-1.44-6.03-2.74-8.85-4.44-.03-1.85-.02-3.66-.04-5.49,1.45.77,2.93,1.49,4.43,2.18.02-1.4.08-4.19.11-5.58Z"/>
  </g>
  <g id="_59575fff" data-name="#59575fff">
    <path class="cls-1" d="m152.14,116.39c1.48-.75,2.99-1.47,4.48-2.22-.02,2-.02,3.98-.04,5.98-1.38.55-2.71,1.22-3.95,2.04-.67-1.86-.51-3.87-.48-5.8Z"/>
  </g>
  <g id="_6e3736ff" data-name="#6e3736ff">
    <path class="cls-1" d="m58.8,114.65c4.49.47,5.3,3.79,4.43,7.84-3.89-1.03-5.67-3.67-4.43-7.84Z"/>
  </g>
  <g id="_7d7b84ff" data-name="#7d7b84ff">
    <path class="cls-1" d="m109.92,120.32c1.68-.71,3.36-1.43,4.99-2.26.02,1.71.01,3.39.08,5.11,1.5-.43,2.91-1.08,4.37-1.61.02,1.37.05,4.1.06,5.46,1.47-.51,2.82-1.31,4.31-1.78.13,1.71.07,3.4.16,5.13,1.68-.63,3.26-1.51,4.9-2.22.02,1.39.07,4.17.09,5.56,7.8-4.07,16.23-6.89,23.74-11.51,1.24-.82,2.57-1.49,3.95-2.04.04,1.72.04,3.44.06,5.17l-.04.48c-4.74,2.01-9.31,4.37-13.87,6.74-4.65,2.15-9.09,4.76-13.82,6.73-.09-1.73-.03-3.42-.17-5.14-1.73.54-3.31,1.44-4.91,2.28,0-1.88.07-3.74-.07-5.61-1.48.48-2.84,1.27-4.31,1.8-.09-1.73-.03-3.41-.16-5.13-1.48.48-2.84,1.27-4.31,1.78-.02-1.38-.06-4.16-.08-5.55-1.66.72-3.24,1.61-4.93,2.23-.07-1.73-.09-3.41-.09-5.13l.04-.48Z"/>
  </g>
  <g id="_765226ff" data-name="#765226ff">
    <path class="cls-1" d="m137.31,118.24c2.02,2.74-.17,6.92-4.08,7.59-.88-3.82.2-6.69,4.08-7.59Z"/>
  </g>
  <g id="_8f522bff" data-name="#8f522bff">
    <path class="cls-1" d="m21.56,118.58c1.45.79,2.93,1.5,4.4,2.26-1.21,4.54.73,7.2,4.89,8.46-.86,3.97.61,6.71,4.46,7.79-.84,4.24.54,7.07,4.7,8.08-.06,1.7-.13,3.44-.16,5.15-2.85-1.08-5.66-2.36-8.25-3.96,1.15-4.14-1.42-7.21-4.49-9.39-.08-3.34-1.81-7.04-5.51-7.38-.12-3.67-.16-7.34-.03-11Z"/>
  </g>
  <g id="_693d20ff" data-name="#693d20ff">
    <path class="cls-1" d="m165.92,126.79c-.79-4.16.59-7.03,4.55-8.23,0,3.48.24,6.98-.04,10.46-3.79.32-5.31,4.49-5.77,7.72-3.11,2.3-5.28,5.68-4.77,9.66-1.73,1.92-5.23,2.67-7.68,3.91-.03-1.71.02-3.39-.09-5.08-1.71.58-3.29,1.48-4.94,2.18-.02-1.37-.06-4.1-.07-5.48-1.46.53-2.88,1.16-4.34,1.7-.06-1.71-.08-3.37-.08-5.06l.04-.48c1.43-.59,2.86-1.19,4.29-1.82.05,1.71.07,3.45.22,5.18,1.7-.58,3.27-1.48,4.93-2.19.02,1.38.07,4.15.09,5.54,4.41-.48,5.06-3.8,4.48-7.73,3.6-.99,5.21-3.35,4.19-6.97.84-2.05,3.34-2.23,5.01-3.31Z"/>
  </g>
  <g id="_c74e4cff" data-name="#c74e4cff">
    <path class="cls-1" d="m68.21,119.2c4.17.73,5.58,3.76,4.43,7.82-4.47-.47-5.3-3.77-4.43-7.82Z"/>
  </g>
  <g id="_3c2919ff" data-name="#3c2919ff">
    <path class="cls-1" d="m105.46,125.3c-1.58-3.56,2.58-3.32,4.42-4.5,0,1.72.03,3.4.09,5.13,1.69-.62,3.27-1.51,4.93-2.23.02,1.39.07,4.16.08,5.55,1.47-.51,2.82-1.31,4.31-1.78.13,1.71.07,3.4.16,5.13,1.47-.52,2.82-1.32,4.31-1.8.13,1.87.06,3.74.07,5.61-1.5.76-3.02,1.48-4.54,2.21.04-1.88.16-3.74.03-5.6-1.49.47-2.85,1.27-4.32,1.8-.08-1.73-.03-3.42-.16-5.13-1.72.54-3.31,1.44-4.91,2.27.01-.93.01-1.86,0-2.79,2.58-7.37-7.13,3.52-4.46-3.86Z"/>
  </g>
  <g id="_615f6aff" data-name="#615f6aff">
    <path class="cls-1" d="m77.11,123.61c1.62.84,3.3,1.57,4.98,2.31.07,3.86,0,7.72.04,11.57-1.62-.83-3.26-1.61-4.95-2.28-.06,1.87-.09,3.77-.08,5.65-1.46-.77-2.96-1.49-4.43-2.26-.03-1.87,0-3.75.05-5.61,1.48.51,2.85,1.31,4.34,1.8.2-3.72,0-7.45.06-11.17Z"/>
    <path class="cls-1" d="m68.21,136.44c1.5.68,2.99,1.4,4.45,2.16,0,1.85-.01,3.72.01,5.58-1.48-.74-2.98-1.46-4.45-2.23-.04-1.83-.03-3.68-.01-5.5Z"/>
    <path class="cls-1" d="m58.91,137.34c3.11,1.53,6.23,3.04,9.31,4.61,0,1.86-.03,3.74-.02,5.6-3.23-1.32-6.37-2.86-9.45-4.49.01-1.9.09-3.82.16-5.71Z"/>
  </g>
  <g id="_405829ff" data-name="#405829ff">
    <path class="cls-1" d="m58.76,125.87c4.17.73,5.58,3.76,4.43,7.82-4.47-.47-5.3-3.77-4.43-7.82Z"/>
  </g>
  <g id="_a46b47ff" data-name="#a46b47ff">
    <path class="cls-1" d="m91.89,126.64c.45-1.73,2.81.47,4.1.42.07,7.76,0,15.53.02,23.29-1.46-.8-2.96-1.53-4.44-2.29,1.36-4.68-.84-7.2-5.03-8.32,0-3.72.02-7.45.04-11.17,2.2.82,6.47,2.71,5.31-1.93Z"/>
  </g>
  <g id="_a1653eff" data-name="#a1653eff">
    <path class="cls-1" d="m21.59,129.58c3.7.34,5.43,4.04,5.51,7.38,3.07,2.18,5.64,5.25,4.49,9.39-3.36-1.63-6.86-3.05-10.02-5.06-.12-3.9-.12-7.81.01-11.71Z"/>
    <path class="cls-1" d="m53.75,157.45c-.07-2.09-.56-6.1,2.59-4.72,4.78,2.99,14.34,4.22,12.47,12.02-5.19-2.03-10.12-4.75-15.07-7.3Z"/>
  </g>
  <g id="_816a5cff" data-name="#816a5cff">
    <path class="cls-1" d="m156.64,131.42c1.4-.52,2.81-1,4.26-1.32,1.02,3.62-.59,5.98-4.19,6.97.58,3.94-.07,7.25-4.48,7.73-.02-1.38-.07-4.15-.09-5.54-1.66.71-3.22,1.61-4.93,2.19-.14-1.72-.17-3.46-.22-5.18,3.13-1.77,6.41-3.27,9.63-4.86Z"/>
  </g>
  <g id="_312516ff" data-name="#312516ff">
    <path class="cls-1" d="m128.9,139.27c4.73-1.97,9.17-4.58,13.82-6.73-.02,1.86,0,3.7,0,5.56l-.04.48c-3.39,1.42-6.69,3.04-9.94,4.77-1.31.63-2.61,1.28-3.92,1.92,0-1.87.07-3.73-.06-5.6-1.72.58-3.3,1.48-4.97,2.2-.02-1.83-.01-3.65.03-5.47,1.6-.84,3.19-1.73,4.91-2.28.13,1.72.08,3.41.17,5.14Z"/>
  </g>
  <g id="_7b4f34ff" data-name="#7b4f34ff">
    <path class="cls-1" d="m132.74,143.35c3.25-1.73,6.55-3.35,9.94-4.77,0,1.69.02,3.35.08,5.06,1.46-.53,2.88-1.17,4.34-1.7.02,1.37.06,4.11.07,5.48,1.65-.71,3.23-1.61,4.94-2.18.12,1.69.06,3.37.09,5.08-9.04,5.06-18.99,9.67-28.46,14.38-1.78-4.59,2.03-6.44,4.66-8.66-1.96-6.08,7.46-7.12,4.34-12.68Z"/>
  </g>
  <g id="_6c3f22ff" data-name="#6c3f22ff">
    <path class="cls-1" d="m128.82,145.28c1.31-.64,2.61-1.3,3.92-1.92,3.12,5.56-6.29,6.6-4.34,12.68-2.63,2.22-6.44,4.07-4.66,8.66-2.82,1.71-5.89,3.01-8.86,4.44.02-1.84.02-3.66.05-5.49,1.45-.77,2.92-1.48,4.33-2.33-.62-3.99.14-7.07,4.4-7.85-1.13-4.6,1.06-7.03,5.15-8.19Z"/>
  </g>
  <g id="_8a4f29ff" data-name="#8a4f29ff">
    <path class="cls-1" d="m91.64,159.71c1.47.53,2.91,1.15,4.35,1.75.03,2.05,0,4.07,0,6.13-1.72-.46-5.37-3.09-3.98,1.52-.43,2.76-3.06.9-4.74.58-.13,1.37-.29,2.74-.49,4.1-1.4-.84-3.93-.88-4.7-2.35.03-1.73.08-3.43.14-5.14,1.41.63,2.82,1.28,4.26,1.84.02-1.38.06-4.14.08-5.53,1.65.7,3.22,1.6,4.92,2.19.13-1.68.07-3.42.15-5.09Z"/>
  </g>
  <g id="_9c5e36ff" data-name="#9c5e36ff">
    <path class="cls-1" d="m92.01,169.12c-1.39-4.61,2.26-1.98,3.98-1.52.06,3.68.01,7.35.02,11.03-2.89-1.72-6.89-2.83-9.23-4.83.19-1.37.36-2.74.49-4.1,1.68.32,4.31,2.18,4.74-.58Z"/>
  </g>
</svg>