<?xml version="1.0" encoding="UTF-8"?>
<svg id="_图层_1" data-name="图层 1" xmlns="http://www.w3.org/2000/svg" viewBox="0 0 136.83 158">
  <defs>
    <style>
      .cls-1 {
        fill: none;
        stroke: #000;
        stroke-linecap: round;
        stroke-linejoin: round;
        stroke-width: 6px;
      }
    </style>
  </defs>
  <g id="_293237ff" data-name="#293237ff">
    <path class="cls-1" d="m66.76,3.74c11.15-2.01,23.32,0,32.63,6.68,7.11,4.94,11.42,13.08,13.23,21.39,1.05,4.38.84,8.92,1.1,13.39.3,6.93,2.7,13.54,3.22,20.44,1.28,9.79-.25,19.89,2.68,29.45,1.34,5.2,3.99,9.99,5.19,15.24.84,3.72-1.33,7.23-1.32,10.91.83,3.28,2.95,6.04,4.12,9.2,2.93,7.54,4.5,15.51,6.22,23.39-.39.06-1.17.16-1.56.22-2.04-8.92-3.55-18.12-7.61-26.41-1.9-3.93-4.2-7.65-6.74-11.19-2.42-3.36-5.35-6.81-9.29-8.33-6.34-.3-12.47-3.02-18.87-1.96l-.17.75c-.21,1.01-.43,2.02-.66,3.02-.23-.22-.68-.66-.9-.88-.11-1.05-.23-2.1-.35-3.14-.15-1.25-.27-2.52-.4-3.78-1.52-.21-3.06-.42-4.58-.62-.13-1.61-.25-3.21-.52-4.8,3.9-.15,7.79-1.07,11.15-3.11,2.79-1.5,5.43-3.38,7.47-5.83,5.02-5.25,4.69-12.93,4.48-19.66-.17-6.76.19-13.53-.12-20.29.02-5.15-4.82-8.06-7.87-11.51-2.18-2.89-4.21-5.91-5.99-9.06-.16,2.5-.25,5.06-1.11,7.45-1.57,1.66-3.84,2.34-5.9,3.18-2.66,1.17-5.41-.8-8.14-.28-2.93.63-5.65,1.97-8.56,2.67-.07-4.21.54-8.6-1.18-12.59-3.45,5.86-6.47,12.08-11.2,17.06-1.38,1.57-3.11,2.93-3.89,4.93-1.2,5.15-.68,10.47-1.09,15.7-3.01-.33-5.01-2.67-7.44-4.16-3.2-1.31-7.04,1.86-6.59,5.25-.48,3.7,1.95,6.93,4.67,9.14,2.81,2.36,6.8,2.14,9.88,3.98,2.07,1.51,3.32,3.81,4.77,5.87,3.43,5.19,9.29,8.24,15.19,9.71-.05,2.19-.1,4.37-.16,6.56-1.92.03-3.84.05-5.76.11.07,2.8.08,5.6.12,8.4-3.26-1.97-7.03-1.34-10.33.14-1.44.46-2.86,1-4.26,1.57,2.19,4.54,3.93,9.27,5.89,13.91.78,2.09,2.42,3.66,4.08,5.07,1.65.86,3.43,1.42,5.2,1.99-1.04.26-2.08.53-3.12.82-.16,3.8-.75,8.43-4.91,9.88-3.91,2.54-8.11-.12-11.29-2.51-1.75,4.42-1.71,9.2-1.56,13.88h-1.66c.31-3.83.66-7.65.75-11.49.02-3.81,1.33-7.56.81-11.38-1.59-4.91-3.77-9.61-6.01-14.25-9.8,9.83-11.85,24.17-14.78,37.12h-14.25c-2.14-.22-4.29-.46-6.43-.66.04-3.29-.02-6.67,1.11-9.82,1.38-4.26,4.27-7.98,4.86-12.49.41-3.57-2.44-6.23-4.08-9.08-2.5-3.61-2.51-8.62-.28-12.35,2.56-4.42,7.48-7.01,9.52-11.78,2.43-5.54,1.76-11.71,1.87-17.59.02-6.31,1.33-12.53,1.36-18.84.03-4.69-.1-9.41.59-14.06,1.12-8.56,2.11-17.52,6.79-25,5.7-9.02,14.97-16.1,25.56-18.09,5.41-1.1,10.99-.58,16.43-1.51m-26.37,112.75c1.66,5.78,4.23,11.3,6.73,16.77,2.73-1.18,5.56-2.16,8.12-3.7-.55-6.16-4.23-11.54-6.89-17.01-2.76.99-5.91,1.66-7.96,3.94m9.44,20.43c.23.49.7,1.48.93,1.98,2.79-.91,7.4-1.39,6.84-5.39-2.71.84-5.28,2.07-7.78,3.41m-.31,4.93c2.48.28,5.11.89,7.53-.02,2.23-1.2,3.25-3.71,3.2-6.15-3.2,2.68-6.99,4.4-10.73,6.16Z"/>
    <path class="cls-1" d="m87.58,49.16c1.69-3.25,5.31-5.2,8.96-4.46,1.74-.18,2.38,1.68,3.35,2.75-1.64-.57-3.24-1.26-4.93-1.66-2.63.73-4.86,2.39-7.38,3.37Z"/>
    <path class="cls-1" d="m58.22,53.36c1.75-4.84,7.74-7.02,12.44-5.41.04.47.13,1.4.17,1.88-1.46-.47-2.93-1.14-4.5-.98-2.95,1.01-5.38,3.05-8.11,4.52Z"/>
    <path class="cls-1" d="m88.48,62.04c-1.97-2.25.98-4.02,2.61-5.17.66,1.66,1.33,3.34,1.9,5.04-.98,1.91-3.6,2.26-4.52.13Z"/>
    <path class="cls-1" d="m59.35,61.59c2.61-2.92,7.56-3.93,10.8-1.52-2.04.23-4.1.24-6.15.17l.05.43c.16,1.42.3,2.84.46,4.26-2.42,1.19-5.9-.29-5.16-3.34Z"/>
    <path class="cls-1" d="m84.49,70.86c.7-.32,1.39-.62,2.08-.93-.23.98-.46,1.98-.71,2.96-.44-.69-.91-1.36-1.37-2.03Z"/>
    <path class="cls-1" d="m84.77,78.02c.94-.76,1.47-.55,1.57.63-.95.75-1.48.55-1.57-.63Z"/>
    <path class="cls-1" d="m112.58,121.19c1.2,5.75,3.15,11.31,5.11,16.84,1,5.67,2.12,11.32,3.24,16.97h-1.56c-1.11-6.26-2.16-12.56-4.2-18.61-4.29,2.66-11.46,5.25-14.87.03,2.83.57,5.61,1.73,8.53,1.52,2.35-.48,3.58-2.79,5.06-4.44-3.7,1.11-7.68,2.12-11.42.55,3.46-.61,7.56-.12,10.07-3.09-3.66-.25-7.33-.23-10.94-.79,4-1.75,8.47-.47,12.6-1.68-4.28-.93-8.67-.79-12.99-.3-.19,2.31-.43,4.61-.75,6.92-.79-1.14-1.58-2.27-2.37-3.4-7.27.16-14.53.86-21.82.5.15-.38.44-1.14.59-1.52,7.24.24,14.45-.19,21.66-.72.55-1.29,1.11-2.58,1.62-3.88,3.9.19,7.81.34,11.73.18.23-1.69.46-3.38.7-5.06Z"/>
  </g>
  <g id="_fadbcfff" data-name="#fadbcfff">
    <path class="cls-1" d="m91.3,27.26c1.78,3.16,3.81,6.17,5.99,9.06,1.87,3.07,4.83,5.52,6.14,8.88.78,7.28-.17,14.63.49,21.91.79,6.96.37,14.45-3.12,20.67-2.05,2.44-4.68,4.33-7.47,5.83-7.2,2.74-15.12,3.31-22.63,1.57-5.89-1.48-11.76-4.52-15.19-9.71-1.45-2.06-2.7-4.36-4.77-5.87-3.07-1.84-7.06-1.62-9.88-3.98-2.72-2.21-5.15-5.43-4.67-9.14-.45-3.38,3.38-6.56,6.59-5.25,2.43,1.48,4.43,3.83,7.44,4.16.41-5.23-.11-10.56,1.09-15.7.79-1.99,2.52-3.36,3.89-4.93,4.73-4.98,7.75-11.2,11.2-17.06,1.72,3.99,1.11,8.38,1.18,12.59,2.92-.7,5.64-2.04,8.56-2.67,2.73-.52,5.47,1.45,8.14.28,2.06-.84,4.33-1.52,5.9-3.18.86-2.38.95-4.95,1.11-7.45m-3.71,21.91c2.52-.98,4.75-2.64,7.38-3.37,1.69.39,3.29,1.09,4.93,1.66-.97-1.07-1.61-2.93-3.35-2.75-3.65-.74-7.27,1.21-8.96,4.46m-29.36,4.2c2.73-1.47,5.16-3.51,8.11-4.52,1.57-.16,3.04.52,4.5.98-.04-.48-.13-1.41-.17-1.88-4.7-1.61-10.7.57-12.44,5.41m32.88,3.51c-1.64,1.15-4.58,2.92-2.61,5.17.92,2.13,3.53,1.78,4.52-.13l.22.65c.02.39.08,1.19.11,1.58,1.43-.24,2.89-.36,4.27-.84,1.75-.89.9-2.93.84-4.44.43-.02,1.32-.07,1.76-.08-2.29-2.57-5.97-2.99-9.11-1.91m-31.75,4.72c-.74,3.05,2.75,4.52,5.16,3.34.05.41.16,1.23.2,1.64,2.7-.23,4.99-1.62,6.53-3.84-2.2-1.27-4.64-2.08-7.2-2.07l-.05-.43c2.05.07,4.11.06,6.15-.17-3.25-2.41-8.19-1.39-10.8,1.52m25.14,9.28c.46.67.93,1.34,1.37,2.03.25-.98.48-1.98.71-2.96-.7.3-1.39.61-2.08.93m-.98,6.56c-2.42.31-4.85-.02-7.28-.1.05.47.14,1.4.19,1.87,4.31,1.11,10.78,1.95,12.94-3.05-2,.16-3.9.85-5.85,1.28Z"/>
    <path class="cls-1" d="m70.96,97.75c3.55.43,7.31-.33,10.71.87,0,.53.02,1.6.02,2.13-3.52,1.29-7.38.4-10.89-.47.04-.63.12-1.9.16-2.53Z"/>
  </g>
  <g id="_5a9997ff" data-name="#5a9997ff">
    <path class="cls-1" d="m97.29,36.32c3.05,3.45,7.88,6.36,7.87,11.51.31,6.76-.05,13.53.12,20.29.2,6.73.53,14.41-4.48,19.66,3.49-6.22,3.91-13.71,3.12-20.67-.66-7.29.29-14.64-.49-21.91-1.31-3.36-4.27-5.8-6.14-8.88Z"/>
    <path class="cls-1" d="m91.1,56.87c3.13-1.08,6.81-.66,9.11,1.91-.44.02-1.33.06-1.76.08-1.8.04-3.61.02-5.41.03.06,1.22.12,2.44.19,3.66l-.22-.65c-.57-1.7-1.24-3.38-1.9-5.04Z"/>
    <path class="cls-1" d="m83.52,77.43c1.95-.43,3.85-1.11,5.85-1.28-2.16,5-8.63,4.16-12.94,3.05-.05-.47-.14-1.4-.19-1.87,2.43.07,4.86.41,7.28.1m1.25.59c.09,1.18.61,1.39,1.57.63-.1-1.18-.62-1.39-1.57-.63Z"/>
    <path class="cls-1" d="m70.69,95.17c7.51,1.75,15.43,1.17,22.63-1.57-3.36,2.05-7.24,2.97-11.15,3.11.28,1.59.39,3.2.52,4.8,1.52.2,3.06.41,4.58.62.13,1.26.25,2.52.4,3.78-.53-1.21-1.11-2.41-1.69-3.6-4.05.87-8.21,1.61-12.35.98-2.44-.24-4.85-1.17-7.33-.85-1.84.93-1.03,3.37-1.29,5.03-.4,2.7,2.31,4.17,4.44,4.97,3.7,1.2,7.71,1.2,11.53.7,2.83-.33,4.95-2.38,7.03-4.11.22.22.67.66.9.88-1.46,3.65-5.52,5.16-9.16,5.42-3.82.28-7.79.31-11.43-1.02-2.51-.95-4.45-2.86-6.34-4.68-2.48.3-4.95.56-7.43.73,3.3-1.48,7.07-2.11,10.33-.14-.04-2.8-.05-5.6-.12-8.4,1.92-.07,3.84-.08,5.76-.11.06-2.19.11-4.37.16-6.56m.27,2.58c-.04.63-.12,1.9-.16,2.53,3.52.87,7.38,1.76,10.89.47,0-.53,0-1.6-.02-2.13-3.4-1.2-7.16-.44-10.71-.87Z"/>
    <path class="cls-1" d="m66.1,105.84c3.2.73,5.84,3.02,9.15,3.38,2.86.3,5.74-.09,8.61-.03-2.32,3.03-6.63,3.35-10,2.15-3.02-1-6.53-2.24-7.76-5.49Z"/>
    <path class="cls-1" d="m89.76,106.17c6.4-1.07,12.52,1.66,18.87,1.96,3.94,1.52,6.88,4.97,9.29,8.33-1.39-1.22-2.88-2.33-4.36-3.43.05,4.84-.51,9.93,1.42,14.51,1.36,3.36,2.25,6.89,2.7,10.49-1.96-5.53-3.9-11.09-5.11-16.84-.24,1.69-.47,3.38-.7,5.06-3.92.16-7.83,0-11.73-.18-.72-6.38-.83-12.79-1.1-19.19-3.16.02-6.31.06-9.47.04l.17-.75Z"/>
    <path class="cls-1" d="m40.39,116.5c2.05-2.29,5.2-2.95,7.96-3.94,2.66,5.47,6.34,10.84,6.89,17.01-2.56,1.54-5.39,2.52-8.12,3.7-2.5-5.47-5.07-10.99-6.73-16.77Z"/>
    <path class="cls-1" d="m101.21,128.18c4.32-.49,8.71-.63,12.99.3-4.13,1.21-8.61-.07-12.6,1.68,3.61.57,7.29.55,10.94.79-2.52,2.97-6.61,2.48-10.07,3.09,3.75,1.57,7.72.56,11.42-.55-1.48,1.66-2.7,3.97-5.06,4.44-2.92.21-5.7-.94-8.53-1.52,3.41,5.21,10.58,2.62,14.87-.03,2.03,6.05,3.08,12.35,4.2,18.61H44.6c-.16-4.67-.2-9.46,1.56-13.88,3.17,2.38,7.38,5.05,11.29,2.51,4.16-1.46,4.75-6.08,4.91-9.88,1.04-.29,2.08-.56,3.12-.82-1.76-.57-3.55-1.13-5.2-1.99,5.53.06,11.06-.4,16.6-.26-.15.39-.44,1.15-.59,1.52,7.29.36,14.55-.34,21.82-.5.79,1.13,1.57,2.26,2.37,3.4.31-2.3.56-4.61.75-6.92Z"/>
    <path class="cls-1" d="m49.83,136.93c2.5-1.34,5.06-2.57,7.78-3.41.56,4.01-4.05,4.48-6.84,5.39-.23-.5-.7-1.49-.93-1.98Z"/>
    <path class="cls-1" d="m49.52,141.85c3.74-1.76,7.53-3.48,10.73-6.16.06,2.43-.97,4.95-3.2,6.15-2.42.91-5.06.3-7.53.02Z"/>
  </g>
  <g id="_f7f6f2ff" data-name="#f7f6f2ff">
    <path class="cls-1" d="m93.03,58.89c1.8,0,3.61,0,5.41-.03.06,1.51.91,3.56-.84,4.44-1.38.48-2.84.6-4.27.84-.02-.39-.08-1.19-.11-1.58-.07-1.22-.13-2.44-.19-3.66Z"/>
    <path class="cls-1" d="m64.05,60.66c2.56-.02,4.99.79,7.2,2.07-1.54,2.21-3.83,3.61-6.53,3.84-.05-.41-.16-1.23-.2-1.64-.16-1.42-.3-2.84-.46-4.26Z"/>
    <path class="cls-1" d="m65.03,107.49c.25-1.66-.56-4.11,1.29-5.03,2.48-.32,4.88.61,7.33.85,4.14.62,8.3-.11,12.35-.98.57,1.19,1.16,2.38,1.69,3.6.12,1.04.25,2.09.35,3.14-2.08,1.73-4.2,3.78-7.03,4.11-3.82.5-7.83.5-11.53-.7-2.13-.8-4.84-2.27-4.44-4.97m1.07-1.65c1.23,3.25,4.74,4.49,7.76,5.49,3.37,1.2,7.68.89,10-2.15-2.87-.06-5.75.33-8.61.03-3.31-.35-5.95-2.65-9.15-3.38Z"/>
    <path class="cls-1" d="m89.59,106.92c3.16.02,6.31-.02,9.47-.04.27,6.4.38,12.82,1.1,19.19-.51,1.3-1.07,2.59-1.62,3.88-7.21.53-14.42.96-21.66.72-5.53-.14-11.06.32-16.6.26-1.66-1.41-3.3-2.98-4.08-5.07-1.97-4.64-3.7-9.37-5.89-13.91,1.4-.57,2.82-1.11,4.26-1.57,2.48-.17,4.96-.43,7.43-.73,1.89,1.82,3.84,3.73,6.34,4.68,3.64,1.34,7.61,1.3,11.43,1.02,3.65-.25,7.7-1.77,9.16-5.42.22-1.01.44-2.02.66-3.02Z"/>
    <path class="cls-1" d="m113.56,113.02c1.48,1.11,2.97,2.21,4.36,3.43,2.55,3.53,4.84,7.26,6.74,11.19,4.06,8.29,5.56,17.49,7.61,26.41-3.02.31-6.06.48-9.07.94h-2.28c-1.11-5.65-2.24-11.3-3.24-16.97-.46-3.6-1.34-7.13-2.7-10.49-1.93-4.58-1.37-9.67-1.42-14.51Z"/>
    <path class="cls-1" d="m23.71,155c2.93-12.95,4.98-27.28,14.78-37.12,2.24,4.64,4.42,9.34,6.01,14.25.52,3.82-.79,7.56-.81,11.38-.09,3.84-.44,7.66-.75,11.49h-19.23Z"/>
  </g>
</svg>