<?xml version="1.0" encoding="UTF-8"?>
<svg id="_图层_1" data-name=" 图层 1" xmlns="http://www.w3.org/2000/svg" viewBox="0 0 192 192">
  <g id="_1b1b1bfe" data-name=" 1b1b1bfe">
    <path d="m81.47,90.19c-.38-1.48-2.09-4.39.45-4.89,2.06-1.88,4.11.98,5.09,2.57-.51.4-1.54,1.19-2.06,1.58,1.68,5.5.71,11.3.98,16.94-1.28-.05-3.84-.12-5.11-.16.12-5.35-.44-10.77.64-16.05h.01,0Z"/>
    <path d="m108.9,87.52h19.41c0,1.05.08,3.18.09,4.24-4.65,0-9.3,0-13.94-.03v3.82c2.48-.06,4.95-.29,7.43-.43,1.07.1,3.2.31,4.26.43.08.76.23,2.28.3,3.05-3.2,2.61-7.82,1.49-11.67,1.99-.19,1.88-.35,3.75-.51,5.64-1.82,0-3.65,0-5.44-.03-.03-.83-.06-2.47-.08-3.28-2.94.58-5.1,2.92-7.96,3.68-3.03.51-6.08-.16-9.1-.54-1.97-2.78-4.19-5.79-3.12-9.44,2.42-7.39,14.36-8.33,17.9-1.29-1,.29-3.03.9-4.04,1.2-2.74-2.26-8.25-2.67-8.77,1.79-.71,4.86,6.49,5.39,8.68,2.13,1.77,1.47,4.19,1.22,6.35,1.57.15-4.85.16-9.69.19-14.55v.03h.02Z"/>
    <path d="m11.06,87.58c1.39-.06,4.17-.16,5.56-.21,2.76,2.88,5.06,6.09,7.72,9.04,2.14-2.94,4.36-5.88,6.53-8.82,2.03,0,4.05-.03,6.07-.05,0,5.18,0,10.34.05,15.53v3.21c-1.39-.08-4.17-.21-5.58-.28v-4.04c0-2.54,0-5.1-.06-7.63-1.54,1.93-3.06,3.87-4.59,5.84-.89,1.13-1.75,2.27-2.62,3.41-2.67-2.92-5.23-5.98-7.66-9.06,0,2.53-.03,5.07-.03,7.62,0,1,.03,3.05.03,4.07-1.35,0-4.08.05-5.47.06v-18.66h.05v-.02Z"/>
    <path d="m62.91,92.18c4.69-2.24,9.85-1.7,14.6.08-.58,1.27-1.22,2.49-1.97,3.66-2.74-1.35-7.61-3.13-9.66.08,4.25.73,8.71.99,12.44,3.4,1.47,8.92-12.73,10.09-16.89,4.55-.43-3.96,3.66-1.78,5.58-1.05,1.4.12,4.21.35,5.63.48,0-.64,0-1.9.03-2.53-4.55-.2-10.55.12-12.04-5.35.58-.83,1.74-2.47,2.32-3.28h-.01l-.02-.05Z"/>
    <path d="m53.13,91.51c1.55-.05,3.11-.08,4.66-.1.2.98.63,2.91.84,3.88-.76,3.68-.58,7.48-.44,11.23-1.9-.43-3.81-.85-5.7-1.3-3.82,2.17-8.17,1.95-11.43-1.04-1.18-4.11-.59-8.46-.7-12.66h5.38c-.03,3.32,0,6.66.21,9.96.63.41,1.86,1.23,2.49,1.64,1.42-.58,2.85-1.19,4.26-1.77.4-3.27.45-6.57.41-9.85h0v.02Z"/>
    <path d="m136.31,92.92c1.62-.68,3.21-1.37,4.81-2.09.21.56.64,1.69.85,2.26.19,3.61-4.9,2.33-6.05,5.25-.56,2.56-.24,5.24-.29,7.85-1.68.03-3.32.09-5,.14-.83-2.85-.83-5.85-.85-8.77.12-1.82.36-3.62.75-5.39,1.39-2.13,4.27-.24,5.79.76h-.01Z"/>
    <path d="m143.09,94.65c2.77-2.87,6.58-4.25,10.54-4.11,3.55.84,7.37,3.08,7.27,7.23l1.75.08c.83-7.14,10.45-9.51,15.66-5.39,3.06,1.37,2.68,4.96,2.68,7.72-4.51-.05-9.02-.09-13.52.08,1.74,2.94,5.3,3.66,8.31,2.29,2.36-1.67,4.86-.41,4.1,2.56-5.91,3.48-17.41,2.21-17.18-6.5-4.75,2.62-10.23,1.09-15.34,1.7,1.11.94,1.88,2.78,3.56,2.77,3.55,1.22,7.98-3.88,9.85,1.35-5.5,3.58-15.01,3.82-18.05-3.05-.36-2.22-.28-4.57.38-6.74m4.65,2.56c2.96.06,5.93.03,8.88-.09-1.79-3.41-7.41-3.76-8.88.09m20.4.03c2.53,0,5.07.03,7.61,0-.1-4.07-6.97-3.62-7.61,0Z"/>
  </g>
</svg>