<?xml version="1.0" encoding="UTF-8"?>
<svg id="_图层_1" data-name=" 图层 1" xmlns="http://www.w3.org/2000/svg" viewBox="0 0 192 192">
  <defs>
    <style>
      .cls-1 {
        stroke-width: 12px;
      }

      .cls-1, .cls-2 {
        fill: none;
        stroke: #000;
        stroke-linecap: round;
        stroke-linejoin: round;
      }

      .cls-2 {
        stroke-width: 6px;
      }
    </style>
  </defs>
  <path class="cls-1" d="m16.21,48.82c.89-8.31,8.88-15.1,17.25-14.55,41.95,0,83.91-.06,125.86.02,7.99-.2,15.42,6.35,16.4,14.24.51,5.61.14,11.25.24,16.88-53.3.02-106.61,0-159.92.01.06-5.54-.23-11.09.17-16.62h0Z"/>
  <path class="cls-1" d="m16.05,82.82c53.3-.01,106.61,0,159.91,0-.03,19.78.17,39.58-.11,59.36-.37,8.97-8.92,15.76-17.62,15.55-41.64.02-83.27.06-124.9-.01-8.56.11-16.83-6.69-17.17-15.46-.28-19.81-.05-39.62-.11-59.43"/>
  <path class="cls-2" d="m99.72,126.05c-.02,4.78-.02,9.58,0,14.36,4.83.01,9.66.01,14.49,0,.03-4.78.03-9.58,0-14.36-4.83-.02-9.66-.02-14.49,0"/>
  <path class="cls-2" d="m121.77,140.45c4.82-.03,9.65-.02,14.48-.03.02-4.78.02-9.58,0-14.36-4.81-.02-9.61.02-14.43-.06-.17,4.82-.11,9.64-.05,14.46"/>
  <path class="cls-2" d="m143.35,140.44c4.83,0,9.66.01,14.5-.01.01-4.78.01-9.58,0-14.36-4.84-.02-9.67-.01-14.5-.01-.03,4.8-.03,9.59,0,14.39h0Z"/>
</svg>