<?xml version="1.0" encoding="UTF-8"?>
<svg id="_图层_1" data-name=" 图层 1" xmlns="http://www.w3.org/2000/svg" viewBox="0 0 192 192">
  <defs>
    <style>
      .cls-1 {
        stroke-width: 6px;
      }

      .cls-1, .cls-2, .cls-3, .cls-4 {
        fill: none;
        stroke: #000;
        stroke-linecap: round;
        stroke-linejoin: round;
      }

      .cls-2 {
        stroke-width: 8px;
      }

      .cls-3 {
        stroke-width: 10px;
      }

      .cls-4 {
        stroke-width: 9px;
      }
    </style>
  </defs>
  <path class="cls-3" d="m60.8,26.16c23.5-.13,46.99-.04,70.49-.05,4.47-.07,9.12,3.79,8.67,8.49,0,40.88,0,81.75,0,122.63.45,3.96-2.79,7.46-6.45,8.41-2.09.39-4.25.21-6.36.25-21.94-.04-43.88.02-65.81-.03-4.53.1-8.65-4.03-8.59-8.54-.06-40.57,0-81.15-.03-121.73-.4-4.66,3.35-9.23,8.07-9.43"/>
  <path class="cls-1" d="m77.01,76.86c.03,13.91-.06,27.82.04,41.73,2.58,0,5.17,0,7.76,0,.19-10.39-.11-20.78.16-31.17,6.89,8.9,13.45,18.04,20.21,27.03,1.2,1.39,1.9,3.52,3.79,4.09,2.67.13,5.34.02,8.01.12.11-.55.33-1.63.44-2.18.1-13.21,0-26.41.04-39.61-2.67-.04-5.35-.05-8.02,0,0,10.29.11,20.57-.05,30.85-7.76-10.18-15.21-20.6-22.89-30.85-3.16-.04-6.32-.04-9.48,0Z"/>
  <path class="cls-4" d="m162.46,72.5c1.91-3.2,3.28-6.71,5.45-9.75,7.84,6.48,13.76,15.51,15.65,25.59,3.35,15.57-2.36,33.46-15.47,42.89-1.26-3.41-3.9-6.2-4.83-9.7,6.11-6.11,10.32-14.41,10.47-23.16.44-9.77-4.11-19.36-11.26-25.88Z"/>
  <path class="cls-4" d="m9.22,85.46c2.4-8.53,7.65-16.13,14.36-21.85,1.86,3.23,3.71,6.47,5.53,9.72-8.68,7.9-12.83,20.67-9.84,32.11,1.57,6.58,5.32,12.35,10.06,17.07-1.14,3.47-3.41,6.45-4.86,9.8-14.17-10.51-20.23-30.02-15.25-46.84Z"/>
  <path class="cls-2" d="m29.22,96.42c.56-6.19,3.52-12.54,8.82-16.02,1.62,3.02,3.49,5.92,4.92,9.05-.26,2.16-2.27,3.73-2.48,5.97-1.09,3.68.84,7.1,2.57,10.19-1.13,3.49-3.11,6.7-5.11,9.77-5.47-4.67-9.22-11.63-8.72-18.96Z"/>
  <path class="cls-2" d="m149.56,89.5c1.86-3.29,3.5-6.71,5.47-9.94,4.84,4.25,8.72,10.2,8.64,16.86.52,6.71-2.63,13.36-7.68,17.68-.31,0-.92,0-1.23,0-1.52-2.44-2.96-4.94-4.21-7.54-.85-1.67.57-3.2,1.2-4.66,2.09-4.07.94-9.2-2.2-12.4Z"/>
</svg>