<?xml version="1.0" encoding="UTF-8"?>
<svg id="_图层_1" data-name=" 图层 1" xmlns="http://www.w3.org/2000/svg" viewBox="0 0 192 192">
  <defs>
    <style>
      .cls-1 {
        stroke-width: 11px;
      }

      .cls-1, .cls-2 {
        fill: none;
        stroke: #000;
        stroke-linecap: round;
        stroke-linejoin: round;
      }

      .cls-2 {
        stroke-width: 6px;
      }
    </style>
  </defs>
  <path class="cls-1" d="m88.11,15.48c5.47-5.74,16.34-3.24,18.5,4.47,1,5.07.27,10.3.44,15.44,5.21,1.22,10.41,2.65,15.16,5.19,4.5-4.62,6.63-12.16,13.41-14.03,6.24-1.88,13.54,2.75,13.91,9.4.87,7.37-5.96,12.02-9.11,17.89,3.96,3.52,6.33,8.42,9.61,12.4,5.19-.68,9.85-3.78,15.17-3.7,5.71-.25,10.89,5.06,10.76,10.71.36,4.93-3.31,9.62-7.94,11.03-3.83,1.19-7.7,2.3-11.44,3.75.93,5.28.95,10.66,0,15.93,5.79,2.61,13.41,2.46,17.4,8.09,4.24,5.46,1.56,14.33-4.93,16.66-6.48,2.59-12.56-2.42-18.95-2.91-1.19.44-1.5,1.86-2.23,2.77-2.02,3.52-4.69,6.59-7.41,9.58,3.19,5.84,9.99,10.53,9.08,17.9-.41,6.86-8.31,11.58-14.62,9.12-6.26-2.32-8.3-9.38-12.75-13.78-4.68,2.63-9.94,3.83-15.11,5.13-.52,6.95,2.34,16.03-4.33,20.86-5.98,5.06-16.16,1.19-17.64-6.38-.41-4.8-.13-9.63-.12-14.44-5.12-1.46-10.41-2.48-15.11-5.15-3.5,3.7-5.7,8.49-9.44,11.95-4.61,3.9-12.13,2.96-15.75-1.81-2.57-2.96-2.72-7.29-1.68-10.88,2.29-4.52,6.13-8.05,8.37-12.61-3.47-3.94-6.62-8.14-9.2-12.7-4.39,1.25-8.68,2.86-13.1,3.95-6.33,1.37-13.08-3.99-12.96-10.49-.43-4.92,3.14-9.56,7.71-11.1,3.83-1.39,7.84-2.27,11.64-3.76-.97-5.26-.99-10.66,0-15.91-5.86-2.9-13.92-2.52-17.71-8.64-4.03-5.81-.58-14.8,6.26-16.54,6.33-1.4,12.12,2.31,18.12,3.63,2.79-4.47,5.71-8.91,9.41-12.68-2.59-4.43-6.31-8.13-8.59-12.74-1.12-3.74-.72-8.23,2.12-11.16,4.2-5.05,12.87-4.91,16.96.19,2.55,3.43,5.02,6.94,7.56,10.38,4.91-2.25,10.07-3.92,15.34-5.11.63-6.6-2.1-14.64,3.21-19.9m-2.05,42.63c-9.39,2.61-17.94,8.67-23.04,17.06-5.15,8.13-7.36,18.26-5.4,27.75,1.91,10.86,8.7,20.81,18.18,26.46,11.62,7.35,27.31,7.55,39.19.69,8.72-4.8,15.27-13.14,18.31-22.57,2.84-10.27,2.06-21.84-3.6-31.06-8.28-14.93-27.14-23.05-43.65-18.32Z"/>
  <path class="cls-2" d="m75.59,74.9c3.07-.01,6.16-.02,9.23-.1,8.02,10.17,15.23,20.98,23.33,31.07.27-10.31.03-20.65.12-30.97,2.72-.03,5.44-.03,8.16.02-.12,14.07.08,28.13-.1,42.2-3.19-.01-6.39-.02-9.58-.16-7.43-10.51-15.29-20.74-22.98-31.08-.26,10.38-.05,20.77-.12,31.15-2.64.03-5.3.07-7.94.14-.28-14.09-.02-28.18-.13-42.27Z"/>
</svg>