<?xml version="1.0" encoding="UTF-8"?>
<svg id="_图层_1" data-name="图层 1" xmlns="http://www.w3.org/2000/svg" viewBox="0 0 192 192">
  <defs>
    <style>
      .cls-1 {
        fill: #494949;
        stroke-width: 0px;
      }
    </style>
  </defs>
  <g id="_494949fe" data-name="#494949fe">
    <path class="cls-1" d="M68.49,37.98c12.31-5.58,26.28-6.69,39.53-4.72,28.8,4.6,53.11,29.73,56,58.86,1.21,7.89.69,16.1-1.32,23.8-.02.92-.04,1.84-.05,2.76l-.94-.18c-.08.88-.24,2.63-.32,3.5-1.03,1.71-1.65,3.63-1.98,5.59h-1.14c.16.5.47,1.49.63,1.99l-1.56-.03c.15.51.44,1.53.59,2.03l-1.6-.04c.15.51.44,1.53.58,2.03l-1.19-.14c-1.4,7.66-.64,15.47-.79,23.21.68,0,2.04.03,2.72.04.98-7.6-.57-15.38.84-22.94,4.08.11,8.16.09,12.24.06l.27,2.85c-3.39.07-6.77.06-10.15.14-.16,7.55-.02,15.11-.09,22.66-2.82.05-5.64.05-8.46,0,.06-7.58-.5-15.14-.74-22.71-.5.01-1.51.04-2.01.06.35,7.55-.28,15.12-.25,22.68-10.54-.08-21.07.43-31.6-.03-.16-7.51.27-15.05-.21-22.55-.67-.06-2.01-.19-2.68-.26-.17,7.63.02,15.26-.12,22.88-2.78.02-5.56.01-8.34-.05-.06-7.59-.11-15.19-.52-22.78-7.47.12-14.94.03-22.41.05-1.14-7.4-.27-14.95-.53-22.42-.59,0-1.76,0-2.34-.02-.04,7.44,0,14.88-.03,22.32-2.95.13-5.89.14-8.84.03-.08-7.59.12-15.19-.13-22.78-8.55-.03-17.09-.09-25.63.03-.17,7.64-.13,15.28-.03,22.91-1.89.26-4.42-.82-5.76,1.09-5.76-.87-3.16-7.88-2.83-11.7-.61-4.16.17-8.4-.64-12.5-.54.05-1.6.14-2.13.19-.49,7.59.92,15.2-.31,22.75-4.41.12-8.82.18-13.22-.08l.65-2.34c3.22-.77,6.59-.28,9.88-.49.38-4.32-.68-8.73.09-12.97l.2-.78c.14-2.69-.33-5.36-.61-8.02-.49,2.33-.58,5.58-3.72,5.66l2.18-1.22c-2.12-7.57-2.37-15.54-1.73-23.34.82-3.91,1.23-7.9,2.36-11.74,5.6-19.11,19.99-35.31,38.19-43.33M86.03,35.88c-2.92.7-5.87,1.28-8.79,1.93.62,2.35,1.26,4.7,1.68,7.1-.94-.12-1.88-.24-2.82-.37-.48-1.87-1.03-3.72-1.6-5.57-2.65.76-5.21,1.78-7.7,2.96,2.14,2.74,5.01,4.97,6.47,8.2,2.88,6.03,6.07,11.89,9.03,17.88.67,1.34,1.31,2.69,2.01,4.03.52,1.06,1.05,2.13,1.57,3.19,2.23,4.8,4.92,9.38,6.99,14.25l.88.28c-.07.45-.21,1.33-.28,1.77l1.27.2c-.03.37-.11,1.1-.15,1.47,1.24,2.29,2.69,4.52,5.01,5.86.07,1.41.13,2.83.19,4.25,1.47,2.09,2.36,4.49,1.9,7.07-1.25.09-2.51.18-3.76.28-.5-1.59-1.05-3.16-1.57-4.75-1.25-.88-2.51-1.74-3.77-2.61-.02-1.54-.04-3.08-.04-4.62l-.62-.23c-3.07-6.26-6.45-12.35-9.53-18.59-1-1.93-2.01-3.85-2.99-5.78-3.93-7.48-7.84-14.96-11.62-22.51-1.46-2.82-1.4-6.1-2.1-9.14-2.67,2.16-7.89,3.02-7.37,7.38l1.53-.43-.48,1.43,1.34-.18c-.04.68-.11,2.04-.15,2.72-1.15-1.71-2.31-3.42-3.37-5.19-4.34,2.52-7.81,6.24-11.17,9.91-1.15,1.07-1.69,2.51-1.79,4.07,1.43.92,2.84,1.89,4.25,2.85,0,.47-.03,1.41-.04,1.88-2.54-.34-4.53-2.01-6.45-3.56-3.13,4.3-5.68,8.99-7.72,13.9-.73,1.4-.51,3.03-.63,4.55l-.96-.15c-.47,1.87-.96,3.73-1.43,5.6-.61,4.12-1.67,8.22-1.57,12.4,2.04,1.81,5.66.35,8.19,1.49-2.36.74-4.84.7-7.28.64l.1,1-1.11-.27c.1,2.73.16,5.46.16,8.19l1.17-.05-.67,1.81c2.69-2.24,6.25-1.49,9.45-1.66,1.35,7.59.3,15.37.63,23.03.63,0,1.87-.03,2.5-.04.08-7.26-.16-14.53.08-21.78.29-.26.89-.77,1.18-1.03,6.01-.31,12.05-.02,18.07-.11,4.18.13,8.45-.48,12.55.6-.15,7.43-.05,14.87-.08,22.31.98,0,1.95.02,2.92.03.1-7.64-.13-15.29.14-22.94,2.65,0,5.29-.01,7.94-.06,1.59,7.54.34,15.35.74,23.01,6.96.05,13.93-.07,20.9.03,1.23-.29,2.28,1.11,2.13,2.24.08,6.88-.07,13.76.04,20.64.58,0,1.75-.05,2.33-.07.04-6.85-.02-13.71,0-20.56-.15-1,.23-1.73,1.15-2.19,2.54-.21,5.09-.08,7.64-.05.19,7.6.03,15.2.1,22.8,3.87-.05,7.76.32,11.62-.16,1.49-.01,3.27-1.34,4.44.36-.78-2.58.75-3.9,3.04-4.32,1.84-1.77,3.51-3.75,5.67-5.16.32-1.09.66-2.17,1.01-3.24.13-2.27-.07-4.54-.66-6.74l-1.19.33c.04-.51.12-1.53.16-2.04.36.04,1.09.12,1.46.16.2-.47.59-1.4.79-1.87,2.58-.32,5.18-.16,7.77-.23l-.22-1.32,1.52.33c-.19-.53-.57-1.58-.76-2.11l1.28.08c.4-1.68.86-3.35,1.26-5.03l.84.05c.05-1.05.15-3.14.21-4.19-1.94-.46-3.87-.94-5.81-1.36-.15-.35-.43-1.07-.57-1.43,2.29,1.73,5.13,2.12,7.92,2.13.97-6.12,1.8-12.26,1.56-18.49-2.06,0-4.11.02-6.17.04-.07-.48-.23-1.43-.31-1.9,2.36-.01,4.72-.03,7.08-.04.08-6.41-1.38-12.7-3-18.85l-1.07.11c0-1.21,0-2.42,0-3.63-2.46-5.1-4.83-10.3-8.3-14.82-1.34,1.07-2.69,2.13-4.03,3.21-.54.07-1.61.22-2.15.3.22-2.82,2.9-4.07,4.88-5.61-3.75-4.61-8.03-8.73-12.53-12.59-.75.06-2.27.17-3.02.23.15-.46.45-1.39.61-1.85-5.07-3.21-10.27-6.47-16.15-7.92-.68,1.91-1.36,3.83-2.05,5.75-.6.01-1.82.03-2.42.04.41-2.38,1.05-4.7,1.64-7.03-2.92-.67-5.86-1.23-8.77-1.93-3.2-.35-6.41-.47-9.62-.46-.01,2.15-.01,4.29-.03,6.44-.22,0-.66-.03-.88-.04,0-2.13-.02-4.27-.02-6.4-3.22-.01-6.44.11-9.64.46M137.52,153.68c-.05.75-.13,2.25-.17,3,3.05,0,6.1,0,9.15-.08-.12-2.95.58-6.16-1.05-8.83-2.62,1.91-4.3,5.85-7.93,5.91Z"/>
  </g>
</svg>