<?xml version="1.0" encoding="UTF-8"?>
<svg id="_图层_1" data-name=" 图层 1" xmlns="http://www.w3.org/2000/svg" viewBox="0 0 192 192">
  <defs>
    <style>
      .cls-1 {
        fill: #030303;
      }
    </style>
  </defs>
  <g id="_030303ff" data-name="#030303ff">
    <path class="cls-1" d="m76.4,23.52c5.14-1.95,11.27-.81,15.35,2.85,4.12,4,5.05,9.93,6.94,15.11,4.17,11.65,7.95,23.45,12.14,35.09,1.72-2.72,3.08-5.65,4.75-8.4,2.07-3.65,7.35-4.54,10.84-2.53,12.77,6.5,25.35,13.41,38.14,19.89,3.6,1.49,6.22,5.59,5.25,9.52-.92,3.31-2.88,6.22-4.4,9.28-10.45,20.11-21.08,40.12-31.54,60.23-1.65,4.01-6.65,6.31-10.68,4.5-6.32-2.87-12.23-6.56-18.52-9.51-10.01,2.67-19.61,6.9-29.61,9.73-7.11,1.87-15.25-2.46-17.31-9.62-11.56-33.58-22.98-67.2-34.55-100.78-2.14-5.32-1.43-11.92,2.59-16.18,2.61-3.05,6.61-4.19,10.28-5.37,13.44-4.64,26.91-9.19,40.35-13.8m-.79,7.71c-.37,2.36-.72,5.51-3.48,6.24-9.11,3.24-18.27,6.4-27.48,9.35-2.86,1.29-5.1-1.14-7.08-2.81-2.68,1.05-5.81,1.75-7.45,4.37-1.72,2.43-1.35,5.57-.37,8.21,11.56,33.53,22.97,67.12,34.51,100.65,1.22,4.19,6.29,6.82,10.36,4.95,14.95-5.11,29.91-10.23,44.85-15.36,3.9-1.38,6.24-6.27,4.49-10.1-11.47-33.89-23.22-67.66-34.7-101.54-.8-2.57-2.85-4.75-5.52-5.36-2.76-1.15-5.53.54-8.12,1.39m44.82,40.57c-2.22,4.38-4.91,8.55-6.62,13.17.45,2.58,1.64,4.94,2.65,7.34,3.48-6.56,7.02-13.1,10.25-19.78-1.91-.58-4.87-3.53-6.28-.73m.8,35.26c2.68,7.45,5.14,14.98,7.82,22.43,1.86,5.27,4.1,11.31,1.1,16.62-3.03,7-11.21,8.44-17.71,10.47,4.55,2.53,9.2,4.86,13.77,7.38,1.93-1.17,2.88-3.24,3.88-5.17,10.74-20.89,21.79-41.63,32.66-62.46.45-1.17,1.54-2.33,1.17-3.68-1.24-1.34-2.92-2.1-4.5-2.95-7.72-3.87-15.31-7.99-22.97-11.96-5.2,9.71-10.52,19.36-15.22,29.32Z"/>
    <path class="cls-1" d="m130.23,22.3c9.79.25,19.59,3.79,26.71,10.62,8,7.22,12.5,17.99,12.6,28.72-2.19-.06-4.37-.11-6.56-.11-.38-7.18-2.43-14.49-7.16-20.07-6.03-7.85-15.73-12.47-25.6-12.54-.01-2.22,0-4.42,0-6.63Z"/>
    <path class="cls-1" d="m130.24,33.04c8.25.14,16.4,3.81,21.7,10.2,4.51,4.97,6.61,11.66,6.96,18.28-2.22-.01-4.42.02-6.62.11-.1-11.68-10.21-22.15-22.02-21.99-.02-2.2-.03-4.39-.02-6.6Z"/>
    <path class="cls-1" d="m130.27,43.63c4.61.53,9.35,2.02,12.57,5.54,3.47,3.17,4.86,7.85,5.35,12.38-2.16,0-4.32,0-6.48.05-.68-5.99-5.31-10.95-11.43-11.38,0-2.2-.01-4.4-.01-6.6Z"/>
    <path class="cls-1" d="m87.09,82.97c2.44-1.88,5.71-3.11,8.76-2.06-.01.65-.04,1.97-.06,2.64-2.36.53-5.11.59-6.88,2.5-2.8,3.83.38,10.88,5.47,10.07,1.89-.57,3.56-1.66,5.25-2.65.39,1.21.77,2.45,1.11,3.68-3.15,1.43-6.63,3.55-10.18,2.2-6.7-1.79-8.72-11.99-3.46-16.38Z"/>
    <path class="cls-1" d="m69.57,88.75c3.23-1.38,6.54-2.55,9.89-3.61.48,1.02.95,2.04,1.43,3.06-2.2.87-4.41,1.65-6.63,2.4.38,1.19.78,2.39,1.2,3.58,2.05-.58,4.09-1.21,6.12-1.85.31,1.01.64,2.03.98,3.04-1.96.83-3.95,1.62-5.91,2.43.89,2.33,1.76,4.69,2.19,7.16-1.2.34-2.4.69-3.6,1-1.64-5.82-3.87-11.44-5.67-17.21Z"/>
    <path class="cls-1" d="m62.76,90.55c.76-.18,2.28-.53,3.04-.71,1.97,5.39,3.94,10.8,5.59,16.3.71,1.81-1.88,2.07-3.05,1.95-3.4-2.49-6.47-5.39-9.94-7.78,1.01,3.62,2.42,7.13,3.26,10.8-1.25.1-2.49.14-3.75.13-1.48-5.85-3.94-11.38-5.48-17.2,1.2-.22,2.42-.41,3.63-.59,3.25,2.5,6.32,5.24,9.67,7.6-.89-3.54-2.62-6.85-2.98-10.5Z"/>
    <path class="cls-1" d="m151.9,92.49c1.24.56,2.45,1.15,3.65,1.77-5.25,9.7-10.08,19.63-15.5,29.25-1.09-.59-2.16-1.17-3.25-1.75,4.92-9.82,10.07-19.52,15.1-29.27Z"/>
  </g>
</svg>