<?xml version="1.0" encoding="UTF-8"?>
<svg id="_图层_1" data-name=" 图层 1" xmlns="http://www.w3.org/2000/svg" viewBox="0 0 192 192">
  <defs>
    <style>
      .cls-1 {
        fill: none;
        stroke: #000;
        stroke-linecap: round;
        stroke-linejoin: round;
        stroke-width: 3px;
      }
    </style>
  </defs>
  <path class="cls-1" d="m49.47,161.78c.88-1.32,2.08-2.33,3.77-1.98,5.27.16,10.53.2,15.81.22,1.91-.13,3.57.89,5.18,1.74h-1.39c-6.83-2.37-14.66-2.52-21.47,0h-1.9v.02Z"/>
  <path class="cls-1" d="m117.09,36.76c1.72-2.69,3.53-6.29,7.16-6.52,2.5-.11,4.27,1.91,5.53,3.8,4.17,6.63,8.24,13.34,12.76,19.76,4.18,3.62,7.27,8.22,10.12,12.92,2.48,4.07,5.77,7.57,7.97,11.79,4.9,9.68,11.83,18.09,17.71,27.16,3.39,4.5,6.2,9.51,7.26,15.11-40.96.16-81.93.16-122.88,0,1.08-7.92,6.13-14.29,9.96-21.03,3.32-5.87,7.29-11.33,11.58-16.53,3.39-4.11,5.6-8.99,8.61-13.36,5.73-8.51,12.15-16.56,17.72-25.18,1.8-2.94,4.83-4.89,6.52-7.9h-.01v-.02Z"/>
  <path class="cls-1" d="m62.78,60.69c2.36-1.91,4.73-4.27,7.94-4.46,3.51.49,5.72,3.59,8.12,5.88,3.08,3.36,6.51,6.36,9.56,9.73-3.56,9.12-11.72,15.48-16.19,24.12-3.48,4.89-6.61,9.99-9.06,15.5-3.32-3.87-4.04-9.78-.86-13.96-1.12-.4-2.26-.82-3.38-1.22-.92-6.12,1.46-11.97,5.62-16.39-2.31-2.39-5.63-.86-8.42-.6,1.66-5.26,5.59-9.1,8.94-13.28-9.18,2.87-15.69,10.24-23.29,15.62,5.11-8.62,13.54-14.51,21.02-20.93h-.02.02Z"/>
  <path class="cls-1" d="m31.58,90.94c1.4-2.76,4.1-4.44,6.7-5.91-2.54,6.63-6.72,12.49-9.16,19.17,5-2.54,7.53-7.77,11.62-11.34,2.86-2.46,5.52-5.64,9.53-6.02-2.14,3.72-5.22,6.84-6.82,10.87-2.28,5.38-4.72,10.94-9.51,14.58,1.96.13,4.14.04,5.29,1.94,2.03,2.74,5.23,3.99,8.17,5.51-9.02.18-18.03.07-27.06.04,2.6-2.96,5.43-5.73,8.02-8.7-2.06-.23-4.27-.39-5.97.98-5.22,2.78-9.67,7.79-15.92,7.97,5.52-6.83,11.13-13.87,18.39-18.93,3.43-2.47,4.8-6.56,6.7-10.13h-.01v-.03Z"/>
  <path class="cls-1" d="m47.38,111.45c2.81-4.68,4.5-10.72,9.78-13.25,1.46,6.2-3.62,12.57-9.78,13.25Z"/>
  <path class="cls-1" d="m6.02,125.58c1.8-1.57,4.32-1.54,6.59-1.62,13.56-.04,27.12-.02,40.69-.02,2.56-.04,5.07.42,7.53,1.06-6.73,1.54-13.69,1.42-20.53,2.27-.04.33-.14,1.02-.19,1.34,5.61.18,11.22.56,16.82.74.07.37.22,1.1.3,1.47-7.96,1.54-16.12,1.11-24.07,2.68,9.44,1.92,19.19.8,28.72,2.01-11.76,2.46-23.82,1.98-35.76,1.68-4.03-.04-8.06-.58-12.06-1.08,2.72-1.82,6.2-1.57,9.14-2.87-4.64-1.3-9.53-1.43-14.13-2.88,6.81-2.69,14.36-.67,21.28-2.89-8.04-1.33-16.26-.84-24.33-1.9h.02Z"/>
  <path class="cls-1" d="m80.49,124.61c20.14-.43,40.29-.14,60.45-.21,15.01.2,30.12-.42,45.06,1.52-.67.74-1.29,1.64-2.41,1.64-13.13,1.12-26.28,2.18-39.46,2.73-4.18.78-8.67-.16-12.63,1.57,10.31,2.08,20.91.91,31.34,1.81,7.18.06,14.29,1.19,21.44,1.72.08.4.22,1.22.31,1.63-14.09,2-28.36,2.34-42.52,3.66-2.61.28-5.24.69-7.76,1.54,6.92,1.76,14.12.92,21.13,1.9,2.96.46,6.19.08,8.8,1.8-5.7,1.76-11.82,1.56-17.44,3.54,10.59,1.61,21.36.91,31.92,2.76-2.72,1-5.57,1.62-8.44,1.83-18.08,1.8-36.27,1.9-54.42,1.54-8.29-.57-16.66-.6-24.79-2.39,7.23-2.77,15.2-1.69,22.71-3.07,1.73-.26,3.48-.48,5.22-.71-17.18-1.13-34.41-1.63-51.58-2.93,1.07-.67,2.14-1.42,3.41-1.62,14.58-2.78,29.45-3.19,44.17-4.68,1.63-.18,3.19-.74,4.72-1.27-5.44-.69-10.94-.34-16.42-.41-12.24.08-24.5-.1-36.74-.59-.13-.38-.39-1.11-.51-1.49,12.63-2.77,25.58-3.27,38.28-5.44-7.61-.22-15.2-1.06-22.79-1.72-6.61-.8-13.72-.04-19.91-2.68,6.02-2.18,12.58-1.38,18.86-1.99h.02v.03Z"/>
  <path class="cls-1" d="m13.79,142.71c9.81-2.5,20.03-2.77,30.08-1.77,6.81.67,13.67.51,20.49,1.02-3.12,1.78-6.73,1.68-10.22,1.84l-.74.49c-12.97.4-25.94.6-38.9-.19-.18-.34-.53-1.04-.71-1.4h.01-.01Z"/>
  <path class="cls-1" d="m167.73,144.98c4.97-1.72,10.35-1.69,15.32-.12-4.66,2.21-10.76,2.77-15.32.12Z"/>
  <path class="cls-1" d="m38.61,149.43c8.66-1.67,17.72-2.5,26.33-.19-8.58,1.96-17.79,2.53-26.33.19Z"/>
  <path class="cls-1" d="m70.64,152.61c5.1-1.16,10.43-1.23,15.59-.4,1.21,1.59-1.63,1.67-2.58,1.99-4.27.43-9.38,1.19-13.01-1.59Z"/>
  <path class="cls-1" d="m23.92,154.58c9.12-.58,18.47-1.34,27.51.51-9,2.1-18.66,2.33-27.51-.51Z"/>
  <path class="cls-1" d="m120.1,158.41c14.83-.23,29.68-.41,44.51-.28,2.08.39,5.58-.4,5.87,2.64-8.51.31-17.02.69-25.54,1h-67.16c.38-.39,1.13-1.18,1.52-1.57,13.51-1.8,27.24-.54,40.8-1.8h0Z"/>
  <path class="cls-1" d="m51.34,161.78c6.82-2.52,14.63-2.37,21.47,0h-21.47Z"/>
</svg>