<?xml version="1.0" encoding="UTF-8"?>
<svg id="_图层_1" data-name="图层 1" xmlns="http://www.w3.org/2000/svg" viewBox="0 0 192 192">
  <defs>
    <style>
      .cls-1 {
        fill: none;
        stroke: #000;
        stroke-linecap: round;
        stroke-linejoin: round;
        stroke-width: 7px;
      }
    </style>
  </defs>
  <g id="_41b148ff" data-name="#41b148ff">
    <path class="cls-1" d="M79.71,24.89c7.26-3.98,15.88-4.61,23.92-3.22,7.99,1.76,14.68,6.72,21.71,10.63-7.69-3.59-16.72-4.81-24.87-2.08-11.91,3.51-20.91,13-27.16,23.36-1.97,3.39-3.46,7.02-5.02,10.6-8.72,23.79-6.44,50.3,2.19,73.76,1.49,6.09,6.69,10.73,7.2,17.08-2.39-2.58-3.63-5.92-5.09-9.05-.24-3.15-1.07-7.23-3.79-8.96-12.01-.28-24.54-3.94-33.09-12.76-4.54-4.27-7.36-9.98-9.25-15.84-.25-12.92-.37-25.89.22-38.81,2.3-10.61,9.41-19.91,18.95-25.04,11.44-6.41,22.56-13.43,34.08-19.68Z"/>
  </g>
  <g id="_fe9203ff" data-name="#fe9203ff">
    <path class="cls-1" d="M100.46,30.23c8.15-2.73,17.19-1.52,24.87,2.08,7.53,4.33,15.03,8.72,22.59,13,10.4,6.01,17.68,17.38,17.78,29.5.02,13.85.03,27.71.04,41.56.15,9.4-3.93,18.78-10.82,25.15-5.29,5.37-12.49,8.03-18.75,12.02,7.56-4.81,13.22-12.71,14.83-21.57.57-5.17.5-10.43.04-15.61-1-6.43-3.58-12.51-6.69-18.19-12.2-21.15-34.15-35.3-57.28-41.86-4.55-1.04-9.04-2.8-13.77-2.72,6.25-10.35,15.25-19.85,27.16-23.36Z"/>
    <path class="cls-1" d="M116.66,90.49c.35-1.02.11-2.69,1.65-2.77,2.38.64,4.07,2.48,5.75,4.16,1.22,6.76-5.04,11.16-9.92,14.44-7.72,4.25-16.3,7.19-25.13,7.79l-.22.66c-5.62-.25-12.42.44-16.73-3.89-3.5-3.03-1.07-10.46,3.71-9.98-.68,2.75-2.21,5.46-1.4,8.38,2.45,1.12,5.11,1.6,7.8,1.53,12.25.9,24.84-2.94,34.58-10.41,2.1-1.91,5.04-4.14,4.14-7.39-1-1.41-2.75-1.86-4.24-2.51Z"/>
  </g>
  <g id="_007bf7ff" data-name="#007bf7ff">
    <path class="cls-1" d="M76.48,90.33c2.53-10.03,13.3-16.24,23.3-14.83,6.79,1.66,12.99,6.19,15.66,12.78,1.91,3.75,1.5,8.06,1.31,12.12-9.74,7.47-22.33,11.31-34.58,10.41l-1.22-.07c-4.02-5.87-7.2-13.32-4.48-20.41Z"/>
    <path class="cls-1" d="M106.53,128.21c14.73-6.92,27.4-17.65,37.83-30.04,3.11,5.68,5.69,11.77,6.69,18.19.46,5.18.53,10.44-.04,15.61-1.61,8.86-7.27,16.76-14.83,21.57-5.69,3.49-11.54,6.73-17.31,10.08-6.79,4-14.28,8.18-22.46,7.24-5.99-10.95-10.67-23.3-9.64-35.98,6.94-.92,13.46-3.73,19.76-6.67Z"/>
    <path class="cls-1" d="M89.02,114.11c8.83-.6,17.42-3.54,25.13-7.79-4.61,9.05-16.27,12.73-25.61,9.29.06-.21.2-.62.26-.84l.22-.66Z"/>
    <path class="cls-1" d="M26.46,108.42c1.89,5.86,4.71,11.57,9.25,15.84,8.55,8.83,21.08,12.48,33.09,12.76,2.72,1.73,3.55,5.82,3.79,8.96,1.45,3.13,2.7,6.47,5.09,9.05,3.58,4.69,5.99,10.19,9.49,14.97-3.87-.75-7.36-2.64-10.77-4.54-10.14-5.72-20.11-11.72-30.27-17.38-8.42-4.46-15.28-12.01-18.22-21.13-2.22-5.92-1.44-12.35-1.45-18.52Z"/>
  </g>
</svg>