<?xml version="1.0" encoding="UTF-8"?>
<svg id="_图层_1" data-name="图层 1" xmlns="http://www.w3.org/2000/svg" viewBox="0 0 192 192">
  <defs>
    <style>
      .cls-1 {
        fill: none;
        stroke: #000;
        stroke-linecap: round;
        stroke-linejoin: round;
        stroke-width: 7px;
      }
    </style>
  </defs>
  <g id="_40b047ff" data-name="#40b047ff">
    <path class="cls-1" d="M77.24,26.41c6.48-3.97,14.09-5.95,21.69-5.29,8.55.08,15.93,4.87,23.02,9.08.98.75,3.3.44,3.55,1.74-.07.16-.21.47-.27.61-8.14-4.78-18.56-4.82-27.24-1.37-10.42,4.06-18.4,12.56-24.06,21.99-2.2,3.48-3.74,7.31-5.39,11.06-.61,2.14-1.16,4.32-2.02,6.38-4.94,18.01-4.45,37.29.52,55.23.78,3.62,2.5,7.03,2.67,10.78-11.96.84-24.47-3.5-33.15-11.82-5.01-5.03-9.87-11.65-8.96-19.14-.25-.05-.74-.16-.99-.22l-.3-.06c.8-11.91-.23-23.88.7-35.78,2.25-10.6,9.4-19.9,18.93-24.99,10.5-5.97,20.8-12.25,31.3-18.2Z"/>
    <path class="cls-1" d="M91.65,72.67c1.93-1,4.03-1.86,6.25-1.47,2.69.07,4.12,2.73,5.75,4.49.61,3.54-.75,6.76-3.43,9.06-2.8.08-6.37,1.12-8.46-1.35-3.06-2.74-2.34-7.67-.11-10.72Z"/>
    <path class="cls-1" d="M89.51,90.63c1.9-3.54,6.21-3.01,9.6-2.82,1.86-.05,3.18,1.41,4.66,2.31.11,2.83.49,5.79-.61,8.5-1.67,4.08-.05,8.66-1.82,12.74-2.16,1.91-5.22,1.84-7.86,1.19-4.09-2.92-1.2-8.43-2.81-12.41-1.23-2.93-2.42-6.43-1.15-9.51Z"/>
    <path class="cls-1" d="M147.52,103.86c4.34,7.9,5.76,17.42,4.45,26.3-.88,7.81-5.23,14.61-10.6,20.14-1.5,1.29-3.26,2.21-4.93,3.24,5.33-4,10.26-8.9,12.59-15.29,2.82-5.84,2.72-12.45,2.37-18.76-.24-5.43-2.69-10.39-3.87-15.63Z"/>
  </g>
  <g id="_fe9203ff" data-name="#fe9203ff">
    <path class="cls-1" d="M98,31.19c8.68-3.45,19.1-3.41,27.24,1.37.06-.15.2-.46.27-.61l.1-.26c8.04,6.33,17.9,10.14,26.26,16.11,8.42,6.29,14.08,16.43,14.12,27.03,0,14.52.08,29.03,0,43.55.05,2.9-.77,5.69-1.38,8.48-3.62,10.85-12.64,19.48-23.24,23.44,5.37-5.52,9.72-12.33,10.6-20.14,1.31-8.88-.11-18.4-4.45-26.3-.9-1.93-1.86-3.84-2.89-5.71-14.64-25.25-42.58-40.14-70.7-44.96,5.66-9.43,13.64-17.93,24.06-21.99Z"/>
    <path class="cls-1" d="M104.6,105.47c3.29.94,6.68,2,9.07,4.61.38,1.08.78,2.16,1.19,3.23-2.27,5.53-8.57,6.79-13.84,7.58-6.27.53-12.83.15-18.63-2.51-2.87-1.41-6.19-5.24-3.33-8.27,2.36-2.64,6.95-5.98,10.25-3.17-.4.59-1.24,1.77-1.64,2.35-2.21.34-4.28,1.29-5.94,2.8-.42,2.46,2.15,3.12,3.87,3.9,7.62,2.7,16.38,2.59,23.73-.88,1.31-.59,1.88-1.64,1.71-3.16-1.6-1.89-4.05-2.42-6.4-2.68-.04-1.27-.05-2.54-.04-3.81Z"/>
  </g>
  <g id="_007cf7ff" data-name="#007cf7ff">
    <path class="cls-1" d="M86.72,135.44c22.82-5.45,43.14-19.22,57.91-37.29,1.03,1.87,1.98,3.78,2.89,5.71,1.18,5.23,3.63,10.2,3.87,15.63.35,6.31.46,12.93-2.37,18.76-2.33,6.39-7.26,11.29-12.59,15.29-6.5,4.06-13.25,7.72-19.87,11.6-6.03,3.45-12.86,6.66-19.99,5.69-5.9-10.82-10.08-22.91-9.87-35.39Z"/>
    <path class="cls-1" d="M26.62,105.46c.25.06.74.17.99.22-.9,7.49,3.96,14.11,8.96,19.14,8.68,8.32,21.18,12.66,33.15,11.82l.64-.05c3.88,11.94,10.21,22.95,17.1,33.37-4.11-.64-7.71-2.87-11.32-4.8-10.3-5.87-20.5-11.92-30.84-17.73-11.03-6.11-19.09-18.22-18.63-31.05-.27-3.59.72-7.38-.71-10.8.16-.03.49-.09.65-.12Z"/>
  </g>
</svg>