<?xml version="1.0" encoding="UTF-8"?>
<svg id="_图层_1" data-name=" 图层 1" xmlns="http://www.w3.org/2000/svg" viewBox="0 0 192 192">
  <defs>
    <style>
      .cls-1 {
        fill: none;
        stroke: #000;
        stroke-linecap: round;
        stroke-linejoin: round;
        stroke-width: 12px;
      }
    </style>
  </defs>
  <path class="cls-1" d="m36.74,33.05c-1.93-2.71-.24-6.9,3.13-7.23,3.46-.67,5.15,2.91,6.7,5.28,3.61,6.09,7.68,11.9,11.03,18.14,7.23-2.88,14.2-6.6,21.94-8.01,14.89-2.76,30.78-2.18,44.89,3.71,3.4,1.31,6.57,3.17,10.05,4.27,3.41-6.43,7.66-12.4,11.35-18.67,1.27-1.86,2.39-4.41,4.92-4.71,2.92-.61,5.73,2.17,5.38,5.08-.58,2.18-1.88,4.08-3.04,5.99-3.75,5.77-7.24,11.71-11.04,17.45,1.79,1.43,3.52,2.94,5.19,4.5-8.9-.82-18.05-1.25-26.78,1.13-8.56,1.94-16.78,6.2-25.76,5.66-8.16-.14-15.53-4.09-23.37-5.82-8.66-2.14-17.68-1.81-26.49-.94,1.59-1.55,3.22-3.05,4.94-4.45-4.04-7.31-8.95-14.1-13.05-21.36Z"/>
  <path class="cls-1" d="m16.15,124.36c-.33-17.22,4.02-34.92,14.04-49.11,1.52,1.75,1.17,4.16,1.31,6.29.07,7.27,2.26,14.82,7.27,20.25,5.56,5.32,13.77,5.98,21.07,6.28,8.04-.26,17.44-1.22,22.72-8.12,5.3-5.99,7-13.99,10.43-21.01.76-1.92,2.8-3.15,4.8-2.19,3.11,4.05,4.22,9.2,6.3,13.8,2.85,6.67,7.46,13.5,14.8,15.63,9.05,2.57,19,2.62,27.97-.38,6.7-2.09,10.9-8.55,12.74-15.01,1.46-4.82.93-9.91,1.58-14.84,2.63.93,3.64,3.68,4.86,5.93,6.1,11.41,9.45,24.3,9.81,37.23.2,14.59-.07,29.18.14,43.76-6.58,2.51-13.67,2.66-20.59,3.4H35.84c-6.66-.69-13.46-.84-19.84-3.12.34-12.92.07-25.86.15-38.79"/>
  <path class="cls-1" d="m79.49,120.93c-1.42.64-2.25,2.16-1.8,3.69,1.9,6.22,7.6,10.9,13.95,12.04,9.01,2.17,20.07-2.56,22.71-11.91.75-2.08-.97-4.11-3.1-3.92-10.58-.02-21.2-.21-31.76.1Z"/>
  <g id="_3a4042ff" data-name="#3a4042ff">
    <path class="cls-1" d="m44.85,58.86c8.81-.86,17.83-1.2,26.49.94,7.84,1.73,15.21,5.68,23.37,5.82,8.98.54,17.2-3.72,25.76-5.66,8.72-2.38,17.87-1.96,26.78-1.13,6.37,1.06,12.78,2.26,18.84,4.57-.15,3.02.28,6.07-.19,9.07-1.38,1.4-3.14,2.31-4.71,3.47-.65,4.93-.12,10.02-1.58,14.84-1.83,6.46-6.04,12.92-12.74,15.01-8.97,2.99-18.92,2.94-27.97.38-7.34-2.13-11.94-8.96-14.8-15.63-2.09-4.6-3.2-9.75-6.3-13.8-2-.96-4.04.27-4.8,2.19-3.43,7.02-5.13,15.02-10.43,21.01-5.28,6.9-14.68,7.86-22.72,8.12-7.3-.3-15.5-.96-21.07-6.28-5.01-5.43-7.2-12.97-7.27-20.25-.14-2.13.21-4.54-1.31-6.29-1.34-.87-2.82-1.62-3.95-2.78-.39-2.85-.36-5.81.13-8.64,1.06-1.17,2.7-1.48,4.13-1.96,4.72-1.28,9.5-2.4,14.35-3Z"/>
  </g>
</svg>