<?xml version="1.0" encoding="UTF-8"?>
<svg id="_图层_1" data-name=" 图层 1" xmlns="http://www.w3.org/2000/svg" viewBox="0 0 192 192">
  <defs>
    <style>
      .cls-1 {
        fill: none;
        stroke: #000;
        stroke-linecap: round;
        stroke-linejoin: round;
        stroke-width: 12px;
      }
    </style>
  </defs>
  <g id="_3f73deff" data-name="#3f73deff">
    <path class="cls-1" d="m67.17,25.52c6.47-2.37,13.23-3.69,19.97-5.07,12.47-1.5,25.13.46,36.85,4.83,5.13,1.58,9.48,4.78,14.17,7.25.27.4.81,1.18,1.09,1.57,4.66,1.51,7.18,6.15,11.26,8.65,5.84,7.02,11.84,14.2,15.08,22.9,3.9,7.24,4.88,15.55,6.26,23.54.04,6.87.67,13.91-1.14,20.63-.71,4.45-1.93,8.79-3.2,13.11-1.8,3.83-4.02,7.47-5.62,11.38-.79,4.01,1.94,7.59,2.93,11.3.35,7.25,1.61,15.32-2.74,21.7-1.42,2.44-4.88,2.14-7.03.92-2.94-1.71-6.27-2.52-9.53-3.41-4.4-1.62-9.24-.68-13.82-.61-6.13,2.3-12.37,4.78-18.86,6.13-13.36,3.15-27.42,1.61-40.54-2.02-5.44-2.23-11.44-3.95-15.87-7.93-.38-.14-1.13-.4-1.51-.52-9.4-5.77-17.03-13.97-23.17-23.08-5.2-9.54-10.06-19.67-10.74-30.69-.64-1.24-.96-2.59-.93-3.99-.25-7.89-.33-15.94,2-23.57,1.55-4.64,2.31-9.61,4.79-13.88.76-1.34,1.21-2.82,1.69-4.28,1.18-.54,1.59-1.69,1.94-2.85,8.35-14.29,21.61-25.26,36.63-32.01m19.92,42.66c-4.72,1.41-8.79,4.27-12.33,7.64-3.09,3.14-4.8,7.29-6.53,11.27-.39.98-.76,1.97-1.13,2.96-.65,5.37-.25,10.75,1.12,15.98,2.75,5.78,6.35,11.96,12.36,14.78.98.63,1.93,1.31,2.86,2.01,6.24,2.03,13.13,3.9,19.55,1.51,8.94-2.25,16.74-8.84,20.26-17.36,1.32-5.13,2.95-10.53,1.48-15.82-1-7.09-5.03-13.48-10.38-18.12-2.86-1.96-6.13-3.24-9.2-4.84-5.82-2.08-12.21-1.68-18.07,0Z"/>
  </g>
</svg>