<?xml version="1.0" encoding="UTF-8"?>
<svg id="_图层_1" data-name="图层 1" xmlns="http://www.w3.org/2000/svg" viewBox="0 0 153 145.05">
  <defs>
    <style>
      .cls-1 {
        fill: none;
        stroke: #000;
        stroke-linecap: round;
        stroke-linejoin: round;
        stroke-width: 5px;
      }
    </style>
  </defs>
  <g id="_f2f2f2ff" data-name="#f2f2f2ff">
    <path class="cls-1" d="m51.11,5.06c1.38-1.37,3.12-2.71,5.18-2.54,2.48.26,4.33,2.06,6.22,3.49,1.9,1.49,3.89,2.85,5.75,4.38.41.27.75.74,1.29.71,1.37.03,2.69-.34,4.04-.54,8.94-1.5,17.89-2.97,26.83-4.48,2.52-.35,5.07-1.11,7.63-.63,1.56.53,2.94,1.71,3.65,3.2.43,1.22.59,2.5.79,3.76.4,2.31.75,4.62,1.21,6.92.54,2.51.85,5.07,1.31,7.6.18,1.42.58,2.81.58,4.25-3.53.04-7.06,0-10.59.01-6.85.04-13.71,0-20.56.02-4.56-.13-9.13-.03-13.7-.08.47-6.52-5.33-12.67-11.84-12.72-3.44-.22-6.89,1.14-9.35,3.54-2.38,2.39-3.93,5.76-3.66,9.18-3.97.03-7.93,0-11.89.01-1.08-2.34-2.11-5.08-1.11-7.62.55-1.74,2.16-2.76,3.24-4.14,1.59-1.27,2.92-2.81,4.42-4.18,2.1-1.88,4.03-3.92,6.09-5.84,1.54-1.38,2.99-2.87,4.48-4.31m50.53,9.14c-1.35.31-1.93,2.09-1.15,3.19.79,1.31,3.04,1.15,3.61-.28.09-.76.31-1.75-.38-2.29-.52-.58-1.33-.85-2.08-.61Z"/>
    <path class="cls-1" d="m53.05,24.13c3.32-2.69,8.74-2.31,11.54.97,1.56,1.6,2.3,3.85,2.27,6.06-3.53.11-7.06.02-10.59.05-2.18-.02-4.35.06-6.53-.05.04-.87.08-1.75.32-2.59.44-1.77,1.6-3.29,2.98-4.45Z"/>
    <path class="cls-1" d="m91.64,69.82c1.05-.02,2.09-.23,3.15-.23,3.98.03,7.96,0,11.94.01.33.06,1.07-.08.9.49-.57,2.27-1.3,4.51-2.1,6.71-5,.03-10-.03-15,.03-3.99-.06-7.97,0-11.96-.04-.5,0-1.02-.02-1.51.11-.49.59-.6,1.39-.85,2.09-.82,2.88-1.96,5.66-2.73,8.55-.61,2.17-1.52,4.26-1.96,6.48,4.46.09,8.92.04,13.38.03.34-.77.63-1.56.83-2.37.47-1.6,1.03-3.18,1.56-4.76,2.46.04,4.92-.05,7.38.05-.08.48-.16.96-.29,1.44-2.08,6.35-4.09,12.71-6.12,19.07-.14.32-.2.71-.48.94-.73.12-1.48.07-2.22.07-1.67-.04-3.33.06-5-.06,0-.18.02-.55.03-.73.68-2.14,1.39-4.27,2.05-6.42-9.48-.07-18.96.07-28.43-.07.51-2.43,1.44-4.76,2.15-7.14,2.16,0,4.31,0,6.47,0,.43-.02,1.04.04,1.15-.52,1.15-3.35,2.07-6.77,3.33-10.08.52-2.56,1.78-4.88,2.33-7.44.67-2.06,1.22-4.16,1.93-6.21,6.69-.05,13.38-.01,20.08-.02Z"/>
  </g>
  <g id="_7f69e7ff" data-name="#7f69e7ff">
    <path class="cls-1" d="m111.69,8.65c.36.5.53,1.1.66,1.7.5,2.93.96,5.88,1.47,8.81,6.1.07,12.2,0,18.31.03,1.83.25,3.58,1.39,4.51,2.98-1.26-1.32-2.77-2.7-4.7-2.76-6.08-.07-12.18.07-18.26-.07-.45-2.3-.81-4.61-1.21-6.92-.2-1.27-.36-2.55-.79-3.76Z"/>
    <path class="cls-1" d="m17.52,32.26c1.63-.98,3.58-1.14,5.44-1.11,3.68.01,7.36,0,11.03,0,3.97-.02,7.93.01,11.89-.01,1.29-.02,2.58-.04,3.87.02,2.17.11,4.35.03,6.53.05,3.53-.03,7.06.07,10.59-.05,1.29-.07,2.58-.05,3.87-.03,4.56.05,9.13-.05,13.7.08,6.85-.01,13.71.02,20.56-.02,0,.41-.04.83-.16,1.23-2.79,8.37-5.38,16.81-8.15,25.18-1.25,3.93-2.49,7.87-3.76,11.79-5.68.1-11.37.01-17.05.04-1.39.02-2.79-.07-4.17.07-.03.08-.1.24-.13.32-.71,2.05-1.26,4.15-1.93,6.21-.55,2.55-1.81,4.88-2.33,7.44-1.27,3.31-2.18,6.73-3.33,10.08-.1.56-.72.5-1.15.52-2.16,0-4.32-.02-6.47,0-.71,2.38-1.64,4.71-2.15,7.14,9.47.14,18.95,0,28.43.07-.65,2.15-1.36,4.28-2.05,6.42-1.11,3.79-2.4,7.53-3.59,11.29-2.45,7.86-5.11,15.66-7.48,23.54-16.57.01-33.14,0-49.71,0-1.25-.02-2.6-.21-3.61-1.01.79.34,1.63.58,2.49.69-.83-.64-1.82-1.02-2.58-1.75-1.87-1.62-2.7-4.2-2.54-6.62.03-31.75,0-63.5.02-95.25.15-2.59,1.66-5.09,3.94-6.35Z"/>
    <path class="cls-1" d="m77.06,76.91c.49-.13,1.01-.11,1.51-.11,3.99.05,7.97-.02,11.96.04-1.02,3.38-2.13,6.74-3.25,10.09-.52,1.59-1.09,3.16-1.56,4.76-.2.82-.49,1.6-.83,2.37-4.46.01-8.92.07-13.38-.03.44-2.22,1.34-4.31,1.96-6.48.77-2.89,1.91-5.67,2.73-8.55.25-.7.36-1.5.85-2.09Z"/>
  </g>
  <g id="_c9c0f2ff" data-name="#c9c0f2ff">
    <path class="cls-1" d="m101.64,14.2c.75-.23,1.56.03,2.08.61.68.55.47,1.54.38,2.29-.57,1.43-2.82,1.59-3.61.28-.78-1.1-.2-2.88,1.15-3.19Z"/>
    <path class="cls-1" d="m49.54,21.96c2.45-2.4,5.9-3.76,9.35-3.54,6.51.05,12.32,6.19,11.84,12.72-1.29-.02-2.58-.04-3.87.03.03-2.21-.7-4.46-2.27-6.06-2.8-3.28-8.22-3.67-11.54-.97-1.38,1.15-2.54,2.67-2.98,4.45-.24.84-.28,1.72-.32,2.59-1.29-.07-2.58-.05-3.87-.02-.27-3.42,1.28-6.78,3.66-9.18Z"/>
    <path class="cls-1" d="m113.69,19.33c6.08.15,12.18,0,18.26.07,1.93.06,3.44,1.44,4.7,2.76.6.84,1.06,1.79,1.36,2.78.42,2.05.78,4.12,1.24,6.17,1.65.27,3.34.01,5,.18.95.23,1.88.6,2.73,1.09,1.94,1.39,3.34,3.6,3.52,6.01,0,32.12,0,64.25,0,96.37-.02,2.02-.74,4.11-2.26,5.49-1.39,1.52-3.46,2.32-5.49,2.3-16.83,0-33.65,0-50.48,0,.98-3.37,2.13-6.69,3.18-10.04,10.65-33.18,21.31-66.37,31.97-99.55.21-.56.3-1.15.45-1.72-1.64-.17-3.29-.07-4.94-.09-2.45.02-4.9-.04-7.36.04,0-1.44-.4-2.83-.58-4.25-.46-2.53-.77-5.08-1.31-7.6Z"/>
    <path class="cls-1" d="m2.61,25.31c.64-3.33,3.81-6.21,7.28-6.02,8.1,0,16.21,0,24.32,0,.64,0,1.28-.05,1.91.09-1.07,1.39-2.68,2.4-3.24,4.14-1.01,2.54.03,5.28,1.11,7.62-3.68,0-7.36,0-11.03,0-1.86-.03-3.81.14-5.44,1.11-2.28,1.26-3.79,3.76-3.94,6.35-.02,31.75.01,63.5-.02,95.25-.16,2.43.68,5,2.54,6.62.75.73,1.75,1.11,2.58,1.75-.86-.11-1.7-.34-2.49-.69-.97-.39-1.66-1.2-2.38-1.91-1.92-1.84-2.64-4.55-2.87-7.12-.07-1.81-.25-3.61-.44-5.41-.18-3.54-.72-7.05-.78-10.6-.54-4.49-.75-9.01-1.25-13.5-.15-3.39-.58-6.75-.8-10.13-1.68-19.97-3.3-39.95-4.99-59.92-.27-2.54-.17-5.1-.07-7.64Z"/>
  </g>
  <g id="_ad9ff0ff" data-name="#ad9ff0ff">
    <path class="cls-1" d="m104.98,31.19c3.53-.01,7.06.02,10.59-.01,2.45-.08,4.9-.02,7.36-.04,1.65.02,3.29-.08,4.94.09-.15.57-.24,1.17-.45,1.72-10.66,33.18-21.32,66.36-31.97,99.55-1.04,3.35-2.2,6.67-3.18,10.04-7.59,0-15.18,0-22.77,0,2.38-7.88,5.04-15.68,7.48-23.54,1.19-3.76,2.48-7.5,3.59-11.29,0,.18-.02.55-.03.73,1.66.12,3.33.02,5,.06.74,0,1.48.05,2.22-.07.28-.23.35-.62.48-.94,2.03-6.36,4.04-12.73,6.12-19.07.13-.47.21-.96.29-1.44-2.46-.09-4.92,0-7.38-.05,1.11-3.36,2.22-6.71,3.25-10.09,5-.07,10,0,15-.03.8-2.2,1.53-4.44,2.1-6.71.17-.57-.57-.43-.9-.49-3.98,0-7.96.02-11.94-.01-1.05,0-2.09.21-3.15.23-6.69,0-13.38-.04-20.08.02.03-.08.1-.24.13-.32,1.39-.14,2.78-.05,4.17-.07,5.69-.03,11.37.06,17.05-.04,1.26-3.93,2.51-7.86,3.76-11.79,2.77-8.37,5.35-16.81,8.15-25.18.12-.4.15-.82.16-1.23Z"/>
  </g>
</svg>