<?xml version="1.0" encoding="UTF-8"?>
<svg id="_图层_1" data-name=" 图层 1" xmlns="http://www.w3.org/2000/svg" viewBox="0 0 192 192">
  <defs>
    <style>
      .cls-1 {
        fill: none;
        stroke: #000;
        stroke-linecap: round;
        stroke-linejoin: round;
        stroke-width: 8px;
      }
    </style>
  </defs>
  <g id="_447cdcff" data-name="#447cdcff">
    <path class="cls-1" d="m53.19,16h86.83c5.31.62,10.81.82,15.76,3.09,5,1.92,9.44,5.19,12.7,9.45-8.27,11.24-19.96,20.2-33.48,24.03-8.33,2.71-16.88,4.91-25.66,5.4-12.46,1.46-25.07.63-37.43-1.25-14.2-2.88-28.35-8.18-39.26-18.01-3.5-2.92-5.92-6.91-9.56-9.68,3.24-4.34,7.66-7.76,12.68-9.79,5.45-2.52,11.54-2.76,17.42-3.24Z"/>
    <path class="cls-1" d="m78.37,71.39c4.74-5.25,11.86-8.14,18.93-7.7,8.42.03,16.4,5.13,20.43,12.44,1.17,2.13,1.71,4.54,2.94,6.63,1.14.72,2.59.56,3.88.66,17.15-.13,34.3-.03,51.45-.07v10.86c-18.72.25-37.44-.17-56.15.2-2.27,4.49-4.67,9.11-8.76,12.22-5.76,4.81-13.97,6.67-21.17,4.4-4.16-1.32-8.43-3.16-11.17-6.71-2.39-2.66-3.68-6.03-5.56-9.03-.59-1.16-2.1-.9-3.17-1.05-18,.04-36.01.08-54.01,0v-10.91c15.03.07,30.06,0,45.08.03,3.56.05,7.12.04,10.67-.15,1.8-4.14,3.34-8.58,6.62-11.83m12.45,6.74c-1.92,1.31-4.03-.43-6.06-.43-1.85,1.61-3.23,3.9-3.21,6.41,1.3.95,3.26,1.76,3.31,3.63.43,2.32-1.9,3.55-3.4,4.81.32,2.31,1.4,4.53,3.19,6.06,2.09.4,4.43-1.95,6.37-.2,1.94,1.17.72,4.15,2.51,5.31,2.15.48,4.4.25,6.53-.25.39-1.78.2-4.15,2.03-5.21,1.86-1.35,3.95.34,5.93.48,1.42-1.24,2.69-2.84,3.04-4.73.79-2.65-3.21-3.1-3.18-5.66-.43-2.79,4.11-3.38,3.15-6.18-.54-1.71-1.49-3.57-3.09-4.48-1.9,0-3.84,1.64-5.68.57-1.94-1.09-1.8-3.57-2.25-5.47-1.9-.51-3.92-.86-5.88-.41-2.7.66-.94,4.59-3.31,5.75Z"/>
    <path class="cls-1" d="m94.97,84.19c2.51-.83,5.61.77,5.78,3.56.46,3.28-3.54,6.06-6.4,4.24-3.1-1.57-2.81-6.84.62-7.8Z"/>
  </g>
  <g id="_538ff2ff" data-name="#538ff2ff">
    <path class="cls-1" d="m134.99,52.57c13.52-3.83,25.21-12.79,33.48-24.03,2.98,3.78,5.12,8.23,6.12,12.95,1.16,5.3,1.18,10.74,1.41,16.13v25.75c-17.15.04-34.3-.06-51.45.07-1.29-.1-2.74.06-3.88-.66-1.23-2.1-1.77-4.51-2.94-6.63-4.03-7.31-12.01-12.41-20.43-12.44-7.07-.44-14.18,2.44-18.93,7.7-3.28,3.25-4.82,7.69-6.62,11.83-3.56.19-7.11.2-10.67.15-15.02-.03-30.05.04-45.08-.03v-32.01c.48-7.85,2.12-15.96,7.09-22.29,3.64,2.77,6.06,6.76,9.56,9.68,10.91,9.83,25.06,15.12,39.26,18.01,12.37,1.88,24.97,2.71,37.43,1.25,8.78-.5,17.33-2.69,25.66-5.4Z"/>
    <path class="cls-1" d="m16,94.25c18,.08,36.01.04,54.01,0,1.08.16,2.58-.11,3.17,1.05,1.87,3,3.16,6.37,5.56,9.03,2.74,3.56,7.02,5.39,11.17,6.71,7.2,2.27,15.42.41,21.17-4.4,4.09-3.11,6.49-7.73,8.76-12.22,18.71-.37,37.43.05,56.15-.2v43.95c-.4,5.78-.68,11.72-2.91,17.15-2.61,6.82-7.68,12.7-14.13,16.14-3.02-18.67-15.09-35.49-31.66-44.55,2.89-5.38,6.1-10.58,9.14-15.88.86-1.51,1.29-3.21,1.68-4.89-1.05-.17-2.1-.39-3.16-.4-1.03.91-1.74,2.12-2.44,3.29-3.03,5.29-5.92,10.66-9.21,15.8-3.05-1.07-6.06-2.27-9.16-3.18-14.77-4.14-30.86-2.87-44.91,3.22-2.77-4.15-5.12-8.57-7.63-12.89-1.26-2.1-2.23-4.46-4.04-6.17-1.38-.63-2.83.15-3.1,1.64.7,2.67,2.42,4.91,3.75,7.3,2.3,4.06,4.84,7.98,6.84,12.2-10.62,6.06-19.7,14.97-25.25,25.92-3.12,5.87-5.2,12.26-6.39,18.79-6.69-3.34-11.76-9.4-14.61-16.23-2.08-5.08-2.37-10.62-2.83-16.03v-45.17Z"/>
  </g>
  <g id="_ffcc4bff" data-name="#ffcc4bff">
    <path class="cls-1" d="m90.82,78.13c2.37-1.16.6-5.09,3.31-5.75,1.96-.45,3.97-.11,5.88.41.45,1.89.31,4.38,2.25,5.47,1.84,1.08,3.78-.57,5.68-.57,1.61.91,2.55,2.77,3.09,4.48.96,2.81-3.58,3.39-3.15,6.18-.03,2.55,3.97,3,3.18,5.66-.35,1.89-1.63,3.49-3.04,4.73-1.98-.13-4.07-1.83-5.93-.48-1.82,1.05-1.63,3.42-2.03,5.21-2.13.5-4.37.73-6.53.25-1.79-1.17-.57-4.15-2.51-5.31-1.94-1.75-4.28.6-6.37.2-1.79-1.52-2.88-3.75-3.19-6.06,1.49-1.26,3.82-2.49,3.4-4.81-.05-1.87-2.02-2.69-3.31-3.63-.02-2.51,1.35-4.8,3.21-6.41,2.03,0,4.14,1.75,6.06.43m4.15,6.06c-3.43.96-3.72,6.22-.62,7.8,2.86,1.82,6.86-.96,6.4-4.24-.17-2.78-3.26-4.39-5.78-3.56Z"/>
  </g>
  <g id="_32de84ff" data-name="#32de84ff">
    <path class="cls-1" d="m54.48,107.46c.27-1.49,1.72-2.28,3.1-1.64,1.8,1.71,2.78,4.06,4.04,6.17,2.51,4.32,4.85,8.74,7.63,12.89,14.04-6.09,30.14-7.36,44.91-3.22,3.1.91,6.11,2.11,9.16,3.18,3.29-5.14,6.18-10.51,9.21-15.8.7-1.17,1.4-2.38,2.44-3.29,1.06.01,2.11.23,3.16.4-.39,1.68-.82,3.38-1.68,4.89-3.04,5.3-6.25,10.5-9.14,15.88,16.58,9.05,28.64,25.88,31.66,44.55-5.91,3.49-12.86,4.03-19.54,4.54H52.58c-6.54-.5-13.33-.98-19.15-4.32,1.19-6.53,3.26-12.92,6.39-18.79,5.55-10.95,14.63-19.87,25.25-25.92-2-4.22-4.54-8.15-6.84-12.2-1.33-2.39-3.04-4.63-3.75-7.3m10.74,41.05c-2.03.88-3.54,3.02-3.27,5.28-.06,3.07,3.08,5.55,6.06,4.9,3.97-.34,5.77-5.78,3.14-8.62-1.37-1.81-3.87-2.2-5.94-1.56m58.39-.04c-3.78,1.14-4.7,6.82-1.59,9.14,2.57,2.19,6.97,1.12,8.2-2.04,1.85-3.96-2.51-8.7-6.62-7.09Z"/>
  </g>
  <g id="_ffffffff" data-name="#ffffffff">
    <path class="cls-1" d="m65.22,148.51c2.06-.63,4.57-.25,5.94,1.56,2.62,2.84.83,8.27-3.14,8.62-2.98.65-6.13-1.83-6.06-4.9-.27-2.26,1.24-4.4,3.27-5.28Z"/>
    <path class="cls-1" d="m123.61,148.47c4.11-1.61,8.46,3.14,6.62,7.09-1.24,3.16-5.64,4.23-8.2,2.04-3.12-2.32-2.19-7.99,1.59-9.14Z"/>
  </g>
</svg>