<?xml version="1.0" encoding="UTF-8"?>
<svg id="_图层_1" data-name=" 图层 1" xmlns="http://www.w3.org/2000/svg" viewBox="0 0 192 192">
  <defs>
    <style>
      .cls-1 {
        stroke-width: 12px;
      }

      .cls-1, .cls-2 {
        fill: none;
        stroke: #000;
        stroke-linecap: round;
        stroke-linejoin: round;
      }

      .cls-2 {
        stroke-width: 11px;
      }
    </style>
  </defs>
  <path id="path_0" data-name="path 0" class="cls-2" d="m95.76,130.03c-6.43.07-12.28.66-16.42-4.72-2.69-3.49-4.86-7.12-2.85-11.59,2.11-4.7,5.72-7.84,11.06-8.12,4.81-.25,9.65-.11,14.48-.15,15.58-.12,26.02-8.28,28.88-23.69,2.15-11.58,1.7-22.97-8.05-31.76-5.8-5.24-12.96-6.77-20.39-7.63-1.56-.18-3.58.39-4.29-1.66-.67-1.96,1.08-2.96,2.17-4.13,4.44-4.73,8.96-9.37,13.36-14.12,1.76-1.9,3.5-2.34,6.01-1.38,31.46,11.95,45.87,48.97,30.64,78.98-5.01,9.87-12.89,16.8-22.33,22.35-11.51,6.76-17.51,6.84-32.26,7.63Z"/>
  <path id="path_1" data-name="path 1" class="cls-2" d="m61.13,72.59c-1.09,21.08,0,42.19-.85,63.26-.46,11.14-.52,22.26-.83,33.39-.15,5.3-3.46,8.96-7.67,11.52-3.36,2.04-6.97,1.07-9.43-1.81-3.55-4.15-6.33-8.76-6.38-14.57-.22-29.23,1.41-58.44.68-87.66-.09-3.53,1.33-4.67,4.76-4.87,5.1-.29,10.18-1.11,15.09-2.68,4.46-1.44,4.94-1.13,4.64,3.42Z"/>
  <path id="path_2" data-name="path 2" class="cls-1" d="m95,10.32c2.24.64,5.96-1.56,7.44,1.6,1.66,3.53-2.11,5.32-4.1,7.37-9.57,9.78-19.4,19.27-30.12,27.82-8.42,6.72-18.57,8.46-28.33,11.37-3.22.95-4.4-1.8-3.77-4.33,1.4-5.64,3.3-10.82,9.83-12.99,9.74-3.24,17.61-9.78,25.32-16.38,3.33-2.85,6.5-5.9,9.7-8.9q5.91-5.55,14.04-5.56Z"/>
</svg>