<?xml version="1.0" encoding="UTF-8"?>
<svg id="_图层_1" data-name=" 图层 1" xmlns="http://www.w3.org/2000/svg" viewBox="0 0 192 192">
  <defs>
    <style>
      .cls-1, .cls-2, .cls-3 {
        stroke: #000;
        stroke-linecap: round;
        stroke-linejoin: round;
      }

      .cls-1, .cls-3 {
        stroke-width: 8px;
      }

      .cls-2 {
        stroke-width: 7px;
      }

      .cls-2, .cls-3 {
        fill: none;
      }
    </style>
  </defs>
  <path class="cls-1" d="m181.45,67.94c-2.35-4.25-7.04-6.16-11.54-7.14-1.25-4.52-3.68-9.12-8.19-11.05-3.91-2.24-8.46-1.25-12.71-.87-2.92-4.07-6.04-8.4-11.02-10.11-8.16-3.55-17.9.51-22.5,7.79-2.69-1.97-5.91-2.66-9.19-2.42,0-.03,0-.05-.01-.09-.63.08-1.26.03-1.88-.09-.23.17-.46.31-.74.39-.19.02-.39.05-.58.08-.04,0-.09,0-.12-.01.18,1.57.4,3.14.7,4.69,2.59-.75,5.42-2.38,8.06-.88,2.9,1.34,3.82,4.72,4.72,7.51.32-2.93.71-6.02,2.55-8.45,3.72-5.58,11.46-7.78,17.66-5.42,5.58,1.8,9.28,7.3,10.05,12.95,3.33-3.34,8.32-3.99,12.73-2.72,3.14,1.26,5.12,4.05,6.71,6.88.11,1.82.24,3.62.32,5.44,4.02-.02,8.66.47,11.32,3.9,2.84,2.88,2.5,7.27,1.92,10.92-1.61,3.74-5.35,6.78-9.53,6.94-7.86.26-15.72-.05-23.58.13,1,1.18,2,2.37,3.02,3.53,1.05-.26,2.18-.27,3.26-.27.2,0,.41.03.6.1-.02-.14-.01-.28.02-.43.06-.28.27-.51.51-.66s.58-.18.84-.11c.25.06.54.27.66.51.13.26.29.51.45.75,6.13-.29,12.38.77,18.34-.98,8.21-2.75,11.76-13.62,7.15-20.85h-.01Z"/>
  <path class="cls-1" d="m63.37,152.06c-1.89.52-3.82,1-5.78.94-10.84-.04-21.67,0-32.51-.02-5.26.05-10.27-3.36-12.38-8.14-2.11-5.87-.63-13.27,4.89-16.74,3.15-2.39,7.25-2.27,10.99-2.1,1.64-5.59,6.13-10.52,12-11.63,4.01-1.06,7.88.8,11.52,2.24.14-1.29.27-2.57.4-3.86-1.8-.73-3.57-1.52-5.34-2.32-.28.14-.62.18-.98-.01-.39-.22-.44-.23-.84-.37-.38-.13-.76-.23-1.16-.3-.15-.03-.3-.04-.44-.06-.34.34-.83.58-1.45.58-.35,0-.67-.08-.94-.19-.08,0-.15,0-.23.01-.7.11-1.4.24-2.09.37-.02.04-.05.08-.08.12.28.17.57.34.85.53-6.04,1.31-10.76,5.71-13.48,11.12-3.64.33-7.44.92-10.46,3.19-6.54,4.11-9,13.03-6.27,20.11,2.41,6.75,9.58,11.32,16.71,10.92,12.22-.25,24.47.44,36.67-.42.08.05.16.1.24.15.14-.18.3-.33.52-.44.06-.03.13-.09.19-.12.11-.1.2-.19.3-.3.04-.06.09-.12.12-.19.19-.32.45-.59.78-.78.17-.08.34-.15.52-.22.14-.04.29-.04.43-.05-.91-.62-1.82-1.27-2.68-2h-.02Z"/>
  <path class="cls-2" d="m89.15,35.55c.39.02,1.15.06,1.54.1,3.2,10.99,1.89,23.12,7.05,33.53,3.02-2.49,3.89-6.5,5.71-9.82.46.23,1.4.67,1.86.89,1.21,4.21,1.4,8.62,2.17,12.92.09,2.19.12,4.4.15,6.59-4.01.05-8.02.22-12.03.56-3.7-5.36-5.92-11.51-8.61-17.42-1.35-3.49-3.17-7.16-2.35-11.02.86-5.6,2.31-11.13,4.5-16.35h.01Z"/>
  <path class="cls-3" d="m84.65,99.08c-2.62,6.29.95,13.22,5.35,17.74,2.8,3,7.42,6.24,11.32,3.11,1.71-8.28-3.34-16.88-10.58-20.75-1.91-1.27-4.06-.69-6.1-.11h0Z"/>
  <path class="cls-3" d="m26.48,61.6c1.1.26,2.42.23,3.06,1.35,7.39,9.28,13.24,19.75,21.38,28.44,1.23,1.42,2.89,2.31,4.6,3,.28-.75.84-2.26,1.11-3.01.08-1.56.16-3.12.26-4.68,1.09.46,2.35.78,3.06,1.83,2.99,3.63,5.4,7.71,8.57,11.2,11.61-12.42,29.25-19.01,46.17-16.98,7.24,1.01,14.61,3.3,20.14,8.28,4.42,3.71,7.48,8.76,12,12.35,3.7,1.99,8.17,2.67,11.21,5.79,3.97,4,7.7,8.6,9.23,14.13-4.14.27-8.46.28-12.26,2.19-5.14,2.25-8.76,6.76-13.73,9.3-6.62,3.58-13.8,5.97-20.77,8.79-7.77,2.53-15.53,5.72-23.82,5.74-8.29.67-16.72-1.08-23.82-5.44,3.1-4.16,4.56-9.98,1.7-14.65-2.13-4.66-7.2-6.78-12.06-7.03-.13-5.28.29-10.65,1.92-15.7-10.65-4.57-21.35-9.16-31.27-15.2-1.69-1.06-3.41-2.39-3.78-4.47-2.18-8.2-2.62-16.78-2.88-25.22"/>
</svg>