<?xml version="1.0" encoding="UTF-8"?>
<svg id="_图层_1" data-name="图层 1" xmlns="http://www.w3.org/2000/svg" viewBox="0 0 744 902.22">
  <g id="_f8fcffff" data-name="#f8fcffff">
    <path d="m610.74,11c5.67-8.97,17.3-12.29,27.39-10.56,6.56-.65,9.21,6.51,10.34,11.57-4.13,1.64-8.38,2.94-12.64,4.17,1.18,15.77,21.34,18.85,26.06,32.65,4.01,12.22-7.47,26.18-20.19,24.91-13.46.52-25.06-9.41-30.96-20.83-6.21-12.93-7.8-29.29,0-41.91Z"/>
    <path d="m165.2,17.93C178.14,7.89,193.92.11,210.71.94c10.18,1,19.75,9.24,20.26,19.85,1.67,20.79.29,41.7.79,62.54,17.77-4.8,38.06-11.77,55.29-1.76,8.5,4.07,13.09,12.86,15.1,21.66,2.3,31.51-2.02,63.35,2.67,94.72,1.03,6.86,4.36,13.96,11.29,16.63,2.04-.87,6.82,2.15,8.31-.87,3.17-4.92.5-13.61,7.3-15.8,5.2-2.64,9.63,2.56,13.71,4.91-.64,6.96-.31,16.45-7.79,20.06-6.51,5.1-15.27,3.98-22.96,4.24-16.1.26-32.33-7.16-41.8-20.34-7.3-10.02-9.04-22.68-10.43-34.67-1.83-22.01.05-44.11-.94-66.14-.33-3.73-3.09-6.75-6.05-8.77-6.57-5.22-15.33-2.55-22.99-2.52-1.73,49.07-.4,98.2-.7,147.29-.33,10.56,1.31,22.32-4.21,31.95-4.18,8.03-11.96,14.11-20.91,15.78-14.37,2.82-30.04,2.67-43.55-3.45,6.41-2.98,14.48-5.32,17.58-12.29,4.77-9.24,5.1-19.84,5.06-29.98-.07-66.67-.1-133.35.02-200.02-.11-6.83.53-15.06-4.6-20.47-4.32-3.91-10.7-3.79-15.96-5.56Z"/>
    <path d="m422.29,16.49c12.57-8.76,27.09-17.03,43.07-15.16,8.65,1.58,17.04,8.11,18.63,17.09,2.45,24.48-1.35,49.25,1.91,73.66,10.47-.06,21.01-.67,31.47.3,4.36,1.76,4.47,8.54-.09,10.09-10.11.94-20.28.54-30.4.63-.69.71-1.38,1.41-2.06,2.12.15,40.69-1.03,81.43.66,122.1,13.59-2.45,26.49-7.7,40.03-10.34-10.48,14.88-26.93,23.76-40.83,34.96-.09,36.68.17,73.37-.01,110.06-.04,17.66-9.06,35.32-23.99,44.94-15.72,11.27-36.09,12.34-54.77,12.68,7.21-5.59,16.36-8.97,21.7-16.71,10.28-13.6,12.09-31.44,12.09-47.93.04-26.5.04-52.99-.09-79.48-9.34,3.34-18.7,6.63-28.13,9.7-5.65-12.6-9.21-26-13.19-39.18,13.66-2.66,27.45-4.53,41.07-7.45.59-45.09.44-90.2.11-135.29-12.47-.52-25.05.44-37.45-.76-5.55-1.96-2.82-9.37,2.06-10,11.73-1.06,23.52-.54,35.29-.88.43-18.56.43-37.12.42-55.69-.1-4.89.3-10.85-3.37-14.71-4.31-2.6-9.41-3.24-14.13-4.75Z"/>
    <path d="m29.12,4.5C50.3-.09,68.56,17.08,76.7,34.96c8.42,16.48,10.94,39.08-2.28,53.75-6.46,6.78-20.44,12.61-27.56,3.96-.1-7.57,10.13-10.64,8.82-18.71-.54-8.34-5.55-16.19-13.07-19.85-10.71-5.98-23.91-10.58-29.9-22.12-4.69-11.68,4.15-25.84,16.41-27.49Z"/>
    <path d="m723.24,51.42c2.66-.51,5.6-1.67,8.2-.27,8.31,9.07,9.08,23.19,4.63,34.19-5.97,10.08-18.71,11.89-29.35,11.61-53.35.12-106.71-.09-160.06.11-3.98-.21-12.04.76-12.72-5.07-.23-4.34,4.28-6.08,7.88-6.39,34.47-1.53,68.98,0,103.47-.23,17.47.14,34.93-.93,52.41-.23,6.91-.16,14.31,1.72,20.89-1.29,5.65-2.28,9.01-8.54,8.53-14.52-1.11-6.01-2.83-11.89-3.88-17.91Z"/>
    <path d="m119.06,77.06c15.71.78,31.47,2.85,46.8,6.4-3.58,43.11-13.93,85.5-28.59,126.14-7.41,19.9-15.66,39.54-25.68,58.28-4.93,8.07-9.59,16.72-16.74,23.07.6-6.94,2.19-13.75,3.38-20.61,12.61-63.68,17.58-128.54,20.83-193.28Z"/>
    <path d="m24.96,113.33c14.82-6.14,31.46,1.72,41.01,13.37,14.13,16.05,23.22,40.19,14.25,60.88-3.89,9.95-13.96,16.8-24.55,17.24-4.24-.13-7.32-3.39-10.31-5.99,3.59-5.1,7.43-10.02,11.13-15.03-1.81-7.05-3.92-14.88-10.2-19.32-10.94-7.81-25.31-11.33-33.02-23.13-5.68-10.45.82-24.18,11.69-28.02Z"/>
    <path d="m566.54,133.64c8.46-1.23,18.14-.42,24.48,6,6.06,5.2,8.33,13.52,7.68,21.3.02,51.68.02,103.36-.11,155.05.06,4.91-.27,10.84,3.37,14.74,3.91,3.35,9.38,2.5,14.2,2.97.12.5.37,1.51.49,2.01-11.05,8.81-24.02,17.16-38.94,15.27-12.82.49-24.1-11.67-22.37-24.52.71-48.83.16-97.67.41-146.5-.42-8.02.67-16.77-2.78-24.31-3.47-5.55-11.49-4.14-16.8-5.76,8.66-7.52,18.52-15.14,30.37-16.25Z"/>
    <path d="m691.26,133.48c15.92-2.82,30.9,5.8,42.07,16.34-4.85,1.48-10.85.44-14.97,3.83-4.32,4.28-3.51,10.77-3.74,16.29.09,51.68.06,103.37.12,155.06,1.44,13.01-9.52,26.72-23.07,25.95-15.59,2.03-29.73-6.5-40.24-17.1,4.75-.54,9.83.34,14.24-1.89,4.72-2.88,4.42-9.2,4.87-13.99.6-53.32-.33-106.67.33-160-.56-11.75,8.5-23.23,20.39-24.49Z"/>
    <path d="m49.47,229.77c13.23-6.6,28.71-5.54,42.72-2.34-5.48,5.14-12.89,9.11-15.21,16.73-3.44,12.09-3.43,24.76-4.66,37.18-.98,23.71-2.91,47.37-4.35,71.06-1.15,18.58.24,39.84-13.19,54.67-13.52,15.73-39.14,15.91-54.78,3.35,6.32-1.65,13.13-3.4,17.74-8.4,5.13-7.32,5.99-16.43,7.05-25.04,3.15-38.9,3.83-77.98,7.49-116.85.42-12.12,6.72-24.05,17.19-30.36Z"/>
    <path d="m259.81,230.21c15.17,1.88,30.14,7.81,41.62,18.03,8.93,8.53,13.72,21.25,11.95,33.56-6.81,31.9-30.7,56.85-55.93,75.93-50.7,37.19-112.95,57.54-175.51,60.81,4.28-2.79,8.84-5.13,13.7-6.73,37.71-13.67,72.76-34.1,104.73-58.19,25.52-19.95,50.09-42.76,64.84-72.08,4.39-10.35,7.65-22,5.11-33.24-1.88-6.81-6.88-12.18-10.51-18.09Z"/>
    <path d="m727.31,362.34c2.8-.46,6.21-1.85,8.64.34,9.5,10.04,11.68,28.42.59,38.13-8.63,7.59-21.1,6.86-31.82,7.13-58.36.05-116.72.05-175.07.04-3.64-.25-9.28-.44-9.87-5.09-.11-5.47,6.46-7.4,10.91-6.77,61.65-.58,123.34.29,185-.32,6.51.75,13.27-3.26,15.33-9.5,2.25-8.23-2.35-16.04-3.71-23.96Z"/>
    <path d="m64.71,483.73c16.6,3.11,32.9,7.52,49.25,11.65-10.59,40.99-27.03,80.3-46.64,117.75,7.77,1.44,16.4,1.92,22.36,7.83,7.71,8.3,8.27,20.32,8.06,31-.14,71.68.04,143.36-.08,215.04.7,11.03-2.94,23.05-11.98,29.94-8.48,7.27-20.67,4.95-30.88,4.83-13.11-3.38-21.17-15.83-26.14-27.59,6.27.57,14.13,5.58,19.33.09,5.75-6.6,4.2-16.29,4.77-24.29-.11-61.67-.09-123.34-.03-185.01-.11-7.03.08-14.05-.71-21.03-.8.04-2.41.13-3.21.17-8.44,13.23-17.72,26.02-28.78,37.2-5.13,5.17-10.24,10.6-16.8,13.96,3.06-9.71,8.07-18.66,11.6-28.2,23.48-58.99,39.22-120.82,49.88-183.34Z"/>
    <path d="m522.41,487.67c2.43-3.17,6.62-1.79,9.89-1.26-.48,9.22-8.16,19.91-1.21,28.22,4.44,6.22,12.71,6.42,19.57,6.33,58.35.19,116.72-.23,175.07.1,4.46-.81,8.11,1.92,11.9,3.63-1.4,2.89-3.01,5.68-4.84,8.33-36.73-.08-73.45-.08-110.18-.02-3.18,21.86-5.52,43.86-7.44,65.86,14.14-.04,28.33.82,42.44-.18,9.36-3.49,17.62-10.25,27.94-10.97,9.78-1.92,21.49,2.39,25.3,12.18,2.15,3.99,1.4,8.68,1.85,13.05.19,26.07-.17,52.15.01,78.22,10.15.68,20.35.83,30.52,1.61.22,4.85-.11,12.27-7.52,10.1-65.01.29-130.03-.01-195.04.13-10.64.92-23.26-2.26-28.98-12.04-4.84-10.41-3.77-23.6,3.16-32.82,2.38-3.79,6.88-.42,10.2.26-1.9,6.74-4.16,13.48-4.34,20.56,1.03,6.6,7.03,11.36,13.39,12.49,8.01.75,16.1.61,24.15.34,2.81-27.46,6.33-54.88,8.37-82.41-13.38-1.66-29.04,3.07-40.65-5.73-10.94-8.52-10.23-25.85-3.25-36.65,1.37-4.53,9.33-5.79,10.6-.73.25,6.9-4.27,13.44-3.34,20.39,1.92,5.23,6.48,9.88,12.12,10.87,8.71,1.75,17.72,1.66,26.55.85,1.41-21.85,5.22-43.47,6.54-65.32-11.8-.11-23.62.37-35.39-.47-8.82-.22-17.18-5.81-21.09-13.59-2.76-10.21-3.08-22.58,3.7-31.33m91.09,121.93c-3.13,27.34-7.21,54.63-8.65,82.12,20.37.44,40.77.66,61.12-.43-.94-25.31.66-50.66-.8-75.93-.87-4.25-5.7-5.81-9.48-6.26-14.06-.61-28.15-.26-42.19.5Z"/>
    <path d="m143.76,522.97c22.33-10.23,44.26-21.38,65.18-34.28,7.17,13.35,13.82,27.07,19.39,41.17-10.12,2.85-20.47,4.59-30.86,6.05-1.56,33.54-.67,67.16-.56,100.74,17.48.49,34.98.47,52.47.05.82-21.24-1.94-42.38-2.03-63.6-1.19-16.15-.82-32.44-3.3-48.47-1-6.2-2.57-12.51-6.39-17.61-3.99-4.91-9.47-8.21-13.9-12.65,16.67-2.17,35.96-3.57,49.95,7.61,11.34,8.59,13.74,23.7,15.2,36.93,1.72,32.58,2.18,65.22,4.18,97.79,10.04.24,20.14.78,30.15-.38,5.66-.85,10.83-5.25,11.77-11.02.85-8.22-2.91-16.13-2.11-24.34,8.17-.07,12.15,7.5,13.24,14.44.57,5.42,1.04,10.99.34,16.45-2.01,8.8-10.49,14.62-19.09,15.88-11.32,1.94-22.94,1.03-34.37,1.66,1.76,24.99,1.01,50.09,3.21,75.05,8.13-13.32,11.48-28.83,17.49-43.1,10.97,6.14,21.67,12.81,32.18,19.73-10.84,31.04-26.31,60.39-44.1,87.99-2,2.63-2.96,5.61-2.88,8.92-.64,13.96.43,27.92,1.05,41.86,1.1,10.79,4.15,23.71,14.71,29.13,11.95,4.22,21.76-4.44,31.94-8.94-6.41,21.63-25.58,41.01-48.96,41.92-11.71,1.35-24.39-4.37-29.83-15.06-7.29-11.78-8.71-25.98-9.66-39.47-.54-.08-1.63-.25-2.17-.33-17.25,17.4-36.13,34.38-58.91,44.07,3.97-6.48,9.03-12.16,13.58-18.2,15.72-20.34,29.91-41.83,43.27-63.77,2.85-4.46,2.41-10.01,2.41-15.03-2.93-48.35-3.1-96.85-6.66-145.16-17.42-.06-34.83-.07-52.25-.01-1.19,27.02-1.24,54.14-.09,81.17,14.41-1.66,28.36-6.02,42.74-7.77-8.6,13.48-22.31,22.1-35.61,30.31-3.9,2.54-9.21,5.43-7.67,11.25-.74,26.66.54,53.35-.32,80.01-.57,16.85-8.21,33.74-21.91,43.92-17.02,12.38-39.26,14.41-59.62,12.49,9.17-4.79,19.66-8.45,25.63-17.47,7.87-9.71,9.89-22.6,11.46-34.6,1.39-22.89.43-45.84.55-68.75-9.45,3.35-18.8,7.19-28.76,8.81-3.89-15.2-8.05-30.37-11.23-45.74,13.43-1.75,27.03-2.77,40.19-6.07-.33-29.09.23-58.19-.38-87.27-10.91-.34-21.85.14-32.75-.42-2.77-.13-5.61-2.04-5.83-4.97.14-2.52,1.4-4.77,2.35-7.04,12.06.16,24.12.13,36.18-.19.62-25.23.18-50.46.43-75.69-.27-7.04.37-14.21-1.35-21.1-13.23-.37-27.31,2.4-39.69-3.71,10.12-5.59,21.47-8.45,32-13.19Z"/>
    <path d="m429.61,509.92c4.06-9.46,13.5-17.13,24.13-16.88,3.66-.11,7.5,1.19,10.2,3.7,2.09,2.89,3.18,6.39,4.35,9.75-4.13,2.82-9.06,4.83-12.21,8.86-2.95,4.14-1.29,9.86,1.91,13.33,8.78,10.47,23.6,14.01,30.83,26.11,7.37,10.63,2.56,26.92-9.43,31.86-16.38,7.32-34.23-3.39-43.52-16.81-8.09-9.89-10.7-22.91-11.69-35.33-1.11-8.55,1.45-17.11,5.43-24.59Z"/>
    <path d="m314.11,517.44c4.64-.81,12.79-1.21,14.49,4.58-.99,4.81-6.32,7.34-7.64,12.06-.45,4.98,3.82,8.48,6.72,11.9,5.36,5.62,10.9,12.51,9.77,20.81-1.41,4.07-2.96,8.74-6.88,11.09-4.13,2.52-9.72,2.57-13.89.1-8.4-4.25-12.98-13.18-14.91-22.02-3.1-10.46-2.74-22.36,3.05-31.83,1.86-3.51,5.29-6.22,9.29-6.69Z"/>
    <path d="m431.52,629.51c12.77-2.58,26.58-9.79,39.49-3.83,11.84,6.49,12.51,21.42,12.61,33.27.28,63.82-.15,127.65.18,191.48,11.84-3.02,22.1-9.86,33.11-14.9-5.36,16.7-15.65,31.42-27.5,44.17-8.06,7.22-16.92,14.61-27.61,17.38-7.63,1.09-16.22,2.1-23.08-2.19-10.53-5.52-15.43-17.13-18.54-27.98,4.45-.61,9.63-.04,13.26-3.19,3.94-4.15,2.68-10.6,3.25-15.72,0-63.36.03-126.72,0-190.07.8-5.88-2.2-11.02-4.69-16.02-10.11.1-20.23.42-30.32-.09-3.02-.15-5.69-2.22-7.01-4.86.73-2.61,2.3-4.84,3.75-7.08,11.01-.03,22.11.71,33.1-.37Z"/>
    <path d="m522.43,753.88c10.28-11.83,24.64-23.02,41.25-22.05,9.92-2.09,17.62,5.75,21.69,13.85,24.77.47,49.56.31,74.34.37,8.83,1.49,15.49-5.11,23.32-7.61,8.86-3.82,20.41-5.67,28.58.66,8.5,4.44,9.32,15.42,9.07,23.84-.01,35.02.18,70.04-.09,105.06-.38,11.07-4.65,23.37-14.86,29.01-7.66,5.54-17.82,4.19-26.63,3.5-8.73-2.04-11.58-12.06-18.79-16.05-25.1-1.3-50.26-.21-75.38-.37-4.53,6.87-9.14,15-17.63,17.45-8.48.55-17.93,1.94-25.65-2.53-10.06-5.29-17.14-14.7-21.62-24.93,5.02.31,9.98.7,15.02,1.13,5.16-7.66,4.54-17.45,4.72-26.23-.14-26.68-.03-53.36.01-80.04,0-4.57.25-10.94-4.41-13.6-4.1-1.57-8.65-1.05-12.94-1.46m63.92,4.12c-1.42,37.54-.45,75.15-.52,112.72.67.7,1.36,1.42,2.05,2.15,23.6-.02,47.21.5,70.81-.06,6.16.39,14.46-2.54,15.35-9.47,1.48-16.75.38-33.59.66-50.37-.22-15.14.75-30.34-.63-45.43-.06-4.25-2.72-9.3-7.5-9.27-26.73-.9-53.48-.04-80.22-.27Z"/>
  </g>
</svg>