<?xml version="1.0" encoding="UTF-8"?>
<svg id="_图层_1" data-name=" 图层 1" xmlns="http://www.w3.org/2000/svg" viewBox="0 0 192 192">
  <defs>
    <style>
      .cls-1 {
        fill: none;
        stroke: #000;
        stroke-linecap: round;
        stroke-linejoin: round;
        stroke-width: 11px;
      }
    </style>
  </defs>
  <g id="_f3cc44ff" data-name="#f3cc44ff">
    <path class="cls-1" d="m80.49,13.35c14.55-5.03,31.18-1.71,43.46,7.31,11.5,9.27,18.6,24.25,17.1,39.12-2.55-3.36-5.24-6.6-7.85-9.92-2.73-18.33-20.54-32.56-38.97-31.43-17.39-.35-33.33,12.8-37.07,29.66-2.61,3.19-5.3,6.32-7.83,9.54-1.96-19.73,12.57-38.64,31.16-44.29Z"/>
  </g>
  <g id="_9e7054ff" data-name="#9e7054ff">
    <path class="cls-1" d="m58.13,55.97c10.17-9.04,23.57-13.76,37.11-14.01,0,9.69.12,19.41.56,29.1-10.5,11.81-24.28,22.19-40.68,22.86-.48,14.86,2.19,30.91,12.23,42.46,7.26-7.74,18.64-8.08,27.85-4.01.21,1.44.65,4.34.86,5.78.83.46,2.48,1.4,3.3,1.88-7.01-.44-15.24,2.19-17.74,9.43,4.49-.96,9.02-1.94,13.63-2.32.17,11.29.08,22.58.08,33.86-7.79-2.73-14.49-9.27-23.15-8.87-11.79,0-23.59.15-35.38-.04-.4-16.86-.02-33.71-.19-50.58-.31-19.41,3.71-39.16,13.69-56,2.53-3.23,5.22-6.35,7.83-9.54Z"/>
  </g>
  <g id="_915f40ff" data-name="#915f40ff">
    <path class="cls-1" d="m95.24,41.96c14.4.17,28.62,5.66,38.93,15.78,2.61,3.32,5.3,6.57,7.85,9.92,9.41,17.57,13.73,37.68,13.36,57.55-.1,15.61.08,31.2-.1,46.8-14.03.61-28.09-.27-42.1.38-6.05,2.67-11.46,6.68-17.85,8.6,0-11.29.1-22.58-.08-33.86,5.36.31,10.65,1.34,15.91,2.32-3.09-4.13-7.12-7.33-11.81-9.43-.83-.48-2.48-1.42-3.3-1.88-.21-1.44-.65-4.34-.86-5.78,9.77-3.55,21.69-4.2,29.29,4.18,9.83-11.79,11.98-27.76,12.27-42.62-16.45-.63-30.43-11.02-40.97-22.88-.44-9.69-.56-19.41-.56-29.1Z"/>
    <path class="cls-1" d="m74.6,101.39c4.61-4.17,10.88,3.72,6.3,7.68-4.68,5.61-12.17-3.99-6.3-7.68Z"/>
    <path class="cls-1" d="m111.02,100.7c6.3-2.92,9.91,7.81,3.57,9.89-6.01,1.82-9.68-7.64-3.57-9.89Z"/>
  </g>
  <g id="_f2d8b8ff" data-name="#f2d8b8ff">
    <path class="cls-1" d="m55.12,93.92c16.39-.67,30.18-11.06,40.68-22.86,10.54,11.86,24.51,22.25,40.97,22.88-.29,14.86-2.44,30.83-12.27,42.62-7.6-8.39-19.52-7.74-29.29-4.18-9.21-4.07-20.6-3.72-27.85,4.01-10.04-11.56-12.71-27.61-12.23-42.46m19.49,7.47c-5.87,3.69,1.61,13.28,6.3,7.68,4.59-3.95-1.69-11.84-6.3-7.68m36.42-.69c-6.1,2.25-2.44,11.71,3.57,9.89,6.34-2.07,2.73-12.8-3.57-9.89Z"/>
    <path class="cls-1" d="m81.63,149.46c2.5-7.24,10.73-9.87,17.74-9.43,4.68,2.09,8.72,5.3,11.81,9.43-5.26-.98-10.56-2.02-15.91-2.32-4.61.38-9.14,1.36-13.63,2.32Z"/>
  </g>
</svg>