<?xml version="1.0" encoding="UTF-8"?>
<svg id="_图层_1" data-name=" 图层 1" xmlns="http://www.w3.org/2000/svg" viewBox="0 0 192 192">
  <defs>
    <style>
      .cls-1 {
        fill: none;
        stroke: #000;
        stroke-linecap: round;
        stroke-linejoin: round;
        stroke-width: 10px;
      }
    </style>
  </defs>
  <g>
    <path d="m52.85,50.54h-12.17l3.08-17.45h12.17l-.68,3.78h-7.81l-.56,3.27h6.45l-.68,3.78h-6.45l-.48,2.84h7.81l-.68,3.78Z"/>
    <path d="m72.93,36.87h-5.96l-2.4,13.67h-4.39l2.4-13.67h-5.99l.68-3.78h16.34l-.68,3.78Z"/>
    <path d="m78.65,50.88c-2.31,0-3.91-.5-4.8-1.5-.61-.71-.92-1.71-.92-2.98,0-.55.06-1.14.17-1.77l.99-5.58c.73-4.09,3.35-6.13,7.88-6.13,1.88,0,3.3.4,4.27,1.2.97.8,1.45,1.9,1.45,3.29,0,.65-.09,1.29-.28,1.93-.19.64-.37,1.11-.55,1.42l-.27.48h-4.29c.53-.61.8-1.49.8-2.62,0-.6-.15-1.07-.46-1.42-.31-.35-.76-.52-1.36-.52-1.63,0-2.6.91-2.91,2.72l-.85,4.9c-.08.42-.12.83-.12,1.24,0,1.07.64,1.6,1.92,1.6,1.54,0,2.46-.86,2.76-2.59h4.36l-.12.7c-.65,3.77-3.21,5.65-7.68,5.65Z"/>
  </g>
  <g>
    <g id="_02aaf2ff" data-name="#02aaf2ff">
      <path class="cls-1" d="m26.21,77.91c5.44-7.52,14.97-10.1,23.7-11.29,39.19-.06,78.39,0,117.59-.03,2.63.08,5.88-.77,7.5,1.99v51.68l-.55-1.15c-36.47-.21-72.96-.04-109.44-.08-8.52.13-17.19-.65-25.51,1.67-8.06,2.38-14.67,8.65-18.15,16.22-.88,1.37-2.59,3.73-4.34,2.31v-44.32l1.06.91c2-6.24,3.48-13.03,8.14-17.93Z"/>
    </g>
    <g id="_6650cdff" data-name="#6650cdff">
      <path class="cls-1" d="m40.41,17h108.56c9.04.69,18.08,5.66,22.36,13.83,1.99,2.75,2.6,6.17,3.68,9.32v28.44c-1.63-2.77-4.87-1.91-7.5-1.99-39.2.02-78.4-.03-117.59.03-8.73,1.18-18.26,3.76-23.7,11.29-4.66,4.9-6.14,11.69-8.14,17.93l-1.06-.91v-52.64c.68-6.7,3.89-13,8.55-17.79,4.25-3.68,9.4-6.21,14.86-7.51Z"/>
    </g>
    <g id="_4cc18fff" data-name="#4cc18fff">
      <path class="cls-1" d="m39.5,120.73c8.31-2.32,16.98-1.54,25.51-1.67,36.48.04,72.97-.13,109.44.08l.55,1.15v30.46c-.63,5.76-3.48,10.95-7.06,15.37-3.93,4.44-9.52,6.82-14.9,8.9H41.36c-8.2-1.31-16.37-5.92-20.37-13.42-2.15-2.91-2.89-6.5-3.99-9.87v-12.45c1.76,1.42,3.46-.94,4.34-2.31,3.48-7.57,10.09-13.84,18.15-16.22Z"/>
    </g>
  </g>
</svg>