<?xml version="1.0" encoding="UTF-8"?>
<svg id="_图层_1" data-name=" 图层 1" xmlns="http://www.w3.org/2000/svg" viewBox="0 0 192 192">
  <defs>
    <style>
      .cls-1 {
        fill: none;
        stroke: #000;
        stroke-linecap: round;
        stroke-linejoin: round;
        stroke-width: 9px;
      }
    </style>
  </defs>
  <g id="_e6d4b7ff" data-name="#e6d4b7ff">
    <path class="cls-1" d="m125.76,19.29c.39-.09.77-.14,1.17-.15.07,8.76-.03,17.53.04,26.29,4.66-.99,10.09-3.15,11.55-8.22.82-4.67,1.06-10.66,5.95-13.18,4.87-2.37,10.27-3.7,15.52-4.89.03,8.7.89,17.79-2.93,25.91-3.68,8.58-10.92,15.62-19.68,18.89-7.48,2.84-15,5.57-22.53,8.28,18.7-.59,37.17,10.32,45.17,27.31,8.22,16.22,5.81,36.97-5.72,51-10.41,13.31-28.01,20.09-44.67,17.57-16.25-2.22-30.82-13.63-37.14-28.71-6.76-15.26-4.64-34.05,5.49-47.34,2.5-3.52,5.68-6.49,8.82-9.4-27.3,9.72-54.41,20.17-81.7,29.88.75-6.72-1.81-14.24,1.61-20.45,2.64-5,8.68-5.73,13.38-7.69,28.69-10.42,57.47-20.64,86.08-31.27.13-6.68-.04-13.36.06-20.04.2-3.63,2.21-7,5.15-9.09,4.56-2.2,9.57-3.22,14.38-4.72m-11.97,74.27c-2.53.43-5.15.75-7.48,1.88-13.19,5.08-20.37,21.28-15.21,34.46,4.27,12.32,18.22,20.39,31.02,17.36,14.24-2.42,24.43-17.72,21.35-31.81-2.39-13.45-16.06-23.81-29.69-21.89Z"/>
    <path class="cls-1" d="m91.73,25.43c.99-.51,1.82.88,1.19,1.82-.28,5.67,1.22,12.28-2.69,17.09-2.06,2.56-5.22,3.86-8.34,4.59-3.28.69-6.3,2.42-9.69,2.64.37-6.43-1.66-14.02,2.95-19.4,4.32-4.41,11.08-4.62,16.58-6.75Z"/>
    <path class="cls-1" d="m106.61,110.28c6.77-.08,13.55-.06,20.32-.02.02,6.79.06,13.59,0,20.38-6.9,0-13.8.06-20.7-.02-.06-5.93.01-11.87-.03-17.8.42-.68-.47-2.03.42-2.55Z"/>
  </g>
</svg>