<?xml version="1.0" encoding="UTF-8"?>
<svg id="_图层_1" data-name="图层 1" xmlns="http://www.w3.org/2000/svg" viewBox="0 0 192 192">
  <g id="_f3f2f9ff" data-name=" f3f2f9ff">
    <path d="m92.96,59.08c9.33-7.81,17.36-19.73,30.51-20.77-5.35,7.15-12.14,13.05-17.63,20.07-7.53,9.31-14.67,20.83-27.88,22,2.12,23.16,6.19,48.33,23.42,65.46-2.04,2.64-4.06,5.27-6.17,7.85-5.21-4.78-9.71-10.27-13.92-15.94-14.41-.43-28.82-.48-43.23-.49v-10.28c2.26-.03,6.8-.1,9.06-.14v-23.22c-2.27-.04-6.8-.1-9.07-.14v-11.58c10.01-.03,20.03-.04,30.05-.06-.51-4.31-1.05-8.58-1.61-12.88-9.48-.04-18.97-.06-28.44-.09v-10.33c9.46-.03,18.93-.05,28.39-.08-.05-3.43-.1-6.82-.12-10.23,6.5.1,12.07-3.36,18.21-4.65,2.93,1.61,5.63,3.65,8.41,5.5m-15.69,2.62l-.19,6.76,7.17-.71c-2.3-2.05-4.63-4.05-6.97-6.05m-19.69,41.14c-.03,8.04-.04,16.06-.05,24.09,6.18-.03,12.36-.09,18.54-.13-1.9-7.54-3.6-15.14-6.05-22.51-3.12-.36-9.33-1.09-12.44-1.45Z"/>
    <path d="m150.65,64.1c3.99-3.63,8.04-7.19,12.23-10.58,2.31,2.71,4.57,5.48,6.76,8.28-3.84,3.34-7.72,6.65-11.5,10.06,7.57.25,15.14.44,22.72.62v10.26c-13.8,0-27.58.03-41.37.1-.55,1.66-1.1,3.34-1.66,5.01,13.89.09,27.77.12,41.64.14.47,3.5,1.04,7.04,1.53,10.55-4.93.6-9.87,1.17-14.8,1.74,4.66,3.58,9.31,7.22,14.18,10.51.17,3.71.36,7.46.48,11.2-2.7-1.18-5.39-2.38-8.06-3.58-3.12,5.62-6.2,13.05-13.24,14.24-10.18,1.01-20.42.79-30.62.83-.03-3.95.01-7.84,0-11.77,10.38-.03,20.77,0,31.15-.03v-6.63c-13.63.12-27.26.25-40.88.96,1.16,6.89-.26,14.79,3.49,21.06,17.52,3.18,35.66,1.04,53.42,1.56-.84,3.48-1.78,6.92-2.74,10.37-17.25-.13-34.53.77-51.73-.71-4.62-.8-8.8-4.27-10.74-8.5-1.71-6.87-1.31-14.08-1.86-21.11-4.67,1.79-9.28,3.73-13.93,5.61-1.73-3.14-3.44-6.3-5.13-9.45,9.49-3.57,18.16-8.91,26.49-14.63-6.24-.26-12.47-.48-18.72-.69-.01-3.86.01-7.68,0-11.53,9.46-.03,18.91-.08,28.38-.13.55-1.6,1.1-3.19,1.65-4.78-9.16-.35-18.34-.68-27.49-1.14.01-2.38.05-7.13.06-9.49,7.53-.12,15.07-.21,22.6-.39-3.14-3.19-6.35-6.33-9.5-9.52,2.23-2.61,4.43-5.24,6.66-7.85,3.48,3.12,6.92,6.27,10.32,9.45-2.1,2.92-4.17,5.88-6.04,8.96,10.55.75,9.14-9.76,11.02-16.6,3.49.39,7.09.77,10.62,1.21-.88,4.88-1.78,9.76-2.74,14.63,3.3-.05,9.92-.16,13.23-.21-1.96-2.69-3.93-5.37-5.89-8.04m-20.19,35.67c-1.45,1.66-2.89,3.32-4.35,4.98,10.1.05,20.19.04,30.27,0-.56-1.7-1.12-3.4-1.67-5.1-8.09,0-16.17.06-24.25.1h0Z"/>
    <path d="m21.33,59.14c3.99,1.97,7.96,3.99,11.93,5.98-1.32,3.4-2.78,6.74-4.24,10.07-4.04-2.28-8.04-4.65-12.02-7.01,1.41-3.04,2.87-6.05,4.34-9.05Z"/>
    <path d="m12.74,80.04c5.84.05,11.68.12,17.54.17.08,17.12-.82,34.3.73,51.37.55,4.65,4.09,8,7.04,11.32-1.14,3.14-2.31,6.27-3.45,9.41-5.8-4.54-12.36-9.4-13.81-17.13-1.54-13.95-.87-28.04-1.06-42.05-3-.73-5.89-1.7-8.71-2.89.13-3.45.99-6.83,1.74-10.19h0Z"/>
  </g>
</svg>