<?xml version="1.0" encoding="UTF-8"?>
<svg id="_图层_1" data-name="图层 1" xmlns="http://www.w3.org/2000/svg" viewBox="0 0 192 192">
  <defs>
    <style>
      .cls-1 {
        fill: none;
        stroke: #000;
        stroke-miterlimit: 10;
        stroke-width: 7px;
      }
    </style>
  </defs>
  <g id="_e14146ff" data-name="#e14146ff">
    <path class="cls-1" d="M34.22,24.98c7.06-4.75,16.64-5.12,24.2-1.32,2.86,1.44,5.23,3.63,7.71,5.6,18.77-8.77,41.13-8.39,59.98-.09,4.34-4.17,9.77-7.53,15.91-7.97,10.66-1.5,21.42,5.33,25.38,15.18,4.23,9.65,1.8,21.46-5.69,28.81,6.14,13.56,7.92,28.81,5.88,43.5-2.57,15.58-9.99,30.46-21.43,41.4-15.16,15.88-38.24,23.29-59.86,20.21-16.84-1.91-32.57-10.62-43.73-23.29-19.91-21.62-24.56-55.22-12.17-81.75-4.08-4.24-7.1-9.66-7.61-15.61-1.39-9.53,3.29-19.58,11.45-24.69M88.99,42.73c-18.99,2.47-35.83,16.09-42.61,33.94-9.15,22.84-.88,51.49,19.59,65.38,11.98,8.65,27.82,11.57,42.14,8.09,14.4-3.2,27.05-13.01,34.21-25.86,12.85-21.92,7.85-52.43-11.62-68.84-11.19-10-26.84-14.84-41.72-12.71Z"/>
    <path class="cls-1" d="M86.2,68.14c-.05-4.01,2.62-8.11,6.68-8.99,5.65-2.06,12.54,1.91,12.87,8.11.36,10.17-.11,20.37-.01,30.55,5.05,3.78,10.23,7.42,15.27,11.23,3.48,2.51,5.38,7.18,4.09,11.36-1.59,5.95-9.89,8.53-14.64,4.7-7.12-4.94-13.94-10.3-21.01-15.31-2.69-1.98-3.32-5.57-3.26-8.69.02-10.99,0-21.97,0-32.96Z"/>
  </g>
</svg>