<?xml version="1.0" encoding="UTF-8"?>
<svg id="_图层_1" data-name="图层 1" xmlns="http://www.w3.org/2000/svg" viewBox="0 0 157.08 160">
  <defs>
    <style>
      .cls-1 {
        fill: none;
        stroke: #000;
        stroke-linecap: round;
        stroke-linejoin: round;
        stroke-width: 8px;
      }
    </style>
  </defs>
  <g id="_fff6f0ff" data-name="#fff6f0ff">
    <path class="cls-1" d="m74.16,5.09c2.11-1.33,4.79-1.52,6.92-.14,22.96,12.34,45.93,24.67,68.86,37.05,2.62,1.31,3.84,4.66,2.71,7.37-.79,1.94-2.81,2.86-4.49,3.91-5.8,3.3-11.48,6.83-17.34,10.02-13.78,8.31-27.72,16.33-41.63,24.44-3.23,1.78-6.18,4.46-9.92,5.06-2.25-.31-4.18-1.73-6.15-2.76-15.62-9.05-31.29-17.99-46.94-26.98-6.56-3.71-13.12-7.43-19.62-11.24-3.72-2.13-3.22-8.18.65-9.88C29.52,29.62,51.86,17.38,74.16,5.09Z"/>
  </g>
  <g id="_ffe8d9ff" data-name="#ffe8d9ff">
    <path class="cls-1" d="m26.2,63.05c15.65,8.99,31.32,17.93,46.94,26.98,1.97,1.03,3.9,2.45,6.15,2.76,3.74-.6,6.68-3.28,9.92-5.06,13.9-8.1,27.85-16.12,41.63-24.44,6.44,3.71,13.09,7.01,19.54,10.68,3.42,1.89,3.65,7.45.26,9.48-6.42,3.87-12.88,7.67-19.42,11.33-15.87,9.49-31.87,18.76-47.84,28.07-2,.92-4.53,2.27-6.64.91-16.77-9.67-33.6-19.24-50.41-28.85-6.57-3.91-13.34-7.51-19.85-11.51-3.17-2.2-3.34-7.5.07-9.56,6.48-3.71,13.08-7.23,19.66-10.77Z"/>
  </g>
  <g id="_ffd9c0ff" data-name="#ffd9c0ff">
    <path class="cls-1" d="m83.37,122.84c15.97-9.31,31.97-18.58,47.84-28.07,6.21,4.23,13.29,7.02,19.66,10.99,3.52,2.52,2.5,8.19-1.21,10-22.29,13.01-44.62,25.96-66.92,38.96-1.79,1.12-4.21,1.91-6.11.59-23.21-13.3-46.37-26.68-69.56-40.01-2.66-1.33-3.8-4.75-2.56-7.44,1.13-2.4,3.82-3.31,5.96-4.56,5.33-2.73,10.37-6.02,15.86-8.41,16.81,9.61,33.64,19.18,50.41,28.85,2.11,1.36,4.63.02,6.64-.91Z"/>
  </g>
</svg>