<?xml version="1.0" encoding="UTF-8"?>
<svg id="_图层_1" data-name="图层 1" xmlns="http://www.w3.org/2000/svg" viewBox="0 0 148.88 160">
  <defs>
    <style>
      .cls-1 {
        fill: none;
        stroke: #000;
        stroke-linecap: round;
        stroke-linejoin: round;
        stroke-width: 8px;
      }
    </style>
  </defs>
  <g id="_02dcffff" data-name="#02dcffff">
    <path class="cls-1" d="m112.93,4c1.35.74,2.66,1.57,3.72,2.7,8.29,8.39,16.81,16.55,25.28,24.77,1.06,1.06,1.98,2.25,2.95,3.39-9.75.45-19.52.08-29.27.22-2.4.05-5.77.07-6.39-2.9-.06-3.97,1.07-7.85,1.4-11.79,1.14-5.42.86-11.04,2.31-16.39Z"/>
  </g>
  <g id="_ffffffff" data-name="#ffffffff">
    <path class="cls-1" d="m66.48,18.47c2.87,1.24,5.15,3.41,7.4,5.52,16.99,15.44,34.17,30.65,50.98,46.28,2.95,2.77,6.54,5.02,8.61,8.61-14.07.35-28.16.1-42.24.12-2.31,16.11-6.09,31.98-8.24,48.12-2.07,9.56-3.18,19.28-4.97,28.88h-35.64c1.96-12.12,4.59-24.12,6.25-36.29,2.09-13.61,5.61-27,6.76-40.74-7.51.13-15.03.02-22.55.12-2.12-.08-4.64.34-6.18-1.51-5.07-4.95-9.32-10.65-14.3-15.69-2.86-3.23-6.3-6.03-8.35-9.9,18.81-.42,37.63-.02,56.44-.23,2.16-11.07,4.02-22.2,6.04-33.29Z"/>
  </g>
</svg>