<?xml version="1.0" encoding="UTF-8"?>
<svg id="_图层_1" data-name="图层 1" xmlns="http://www.w3.org/2000/svg" viewBox="0 0 192 192">
  <defs>
    <style>
      .cls-1 {
        fill: none;
        stroke: #000;
        stroke-linecap: round;
        stroke-linejoin: round;
        stroke-width: 7px;
      }
    </style>
  </defs>
  <g id="_f4fafeff" data-name="#f4fafeff">
    <path class="cls-1" d="M93.51,28.61c8.61-3.38,5.74,7.6,6.33,11.97.87,3.79-4.2,7.59-6.6,3.73-1.3-4.87-1.87-10.87.27-15.7Z"/>
    <path class="cls-1" d="M76.84,30.45c4.85-3.12,7.24,3.77,3.76,5.78-3.24,2.67-7.11-3.63-3.76-5.78Z"/>
    <path class="cls-1" d="M111.13,30.47c4.85-3.14,7.24,3.75,3.76,5.76-3.26,2.62-6.26-3.33-3.76-5.76Z"/>
    <path class="cls-1" d="M60.14,36.03c7.57-1.59,9.12,9.11,9.91,14.49-6.38,4.9-7.61-5-10.01-9.13-1.01-1.75-1.02-3.66.1-5.37Z"/>
    <path class="cls-1" d="M127.8,36.04c7.69-2.56,4.7,6.17,2.58,9.16-1.78,2.87-2.67,9.47-7.74,5.86-1.16-5.05,1.94-10.89,5.16-15.02Z"/>
    <path class="cls-1" d="M46.28,44.42c2.59-.49,6.97,1.33,4.3,5.18-3.27,4.2-9.61-2.73-4.3-5.18Z"/>
    <path class="cls-1" d="M143.63,44.54c3.83-1.55,5.95,4.54,2.5,6.28-3.8,3.38-7.56-5.94-2.5-6.28Z"/>
    <path class="cls-1" d="M34.23,56.47c4.81-.39,7.42,5.5,11.46,7.61,3.85,2.18-1.14,8.69-4.24,5.14-3.01-3.2-13.67-7.64-7.22-12.75Z"/>
    <path class="cls-1" d="M155.72,56.65c3.52-1.78,6.38,4.85,2.68,6.43-3.55,2.22-6.53,7.41-11.12,6.98-6.39-5.48,4.91-9.69,8.44-13.41Z"/>
    <path class="cls-1" d="M93.57,62.95c5.12-2.53,7.31,2.36,8.5,6,5.32,11.49,21.21,11.86,26.38,23.55,6.2,10.3,1.25,23.36-7.08,30.82-.88,1.48-4.1-.12-2.43-1.52,5.17-7,8-16.83,3.08-24.7-3.59-6.73-14.27-8.97-19.17-2.53-4.7,17.96-.81,36.92-2.25,55.25-3.84,16.61-30.12,19.67-36.97,3.82-6.65-10.61.16-25.89,12.14-28.67,5.34-2.83,10.38.55,15.63.9.21-20.07-.14-40.14.12-60.21-.09-1.28,1.34-1.85,2.06-2.7Z"/>
    <path class="cls-1" d="M23.09,71.24c4.86-3.15,7.24,3.75,3.76,5.76-3.26,2.62-6.26-3.33-3.76-5.76Z"/>
    <path class="cls-1" d="M164.87,71.23c6.65-3.65,6.73,8.15.95,6.24-2.16-1.21-3.18-4.61-.95-6.24Z"/>
    <path class="cls-1" d="M18.53,87.17c4.42,1.07,15.55.79,14.41,7.84-3.88,3.3-9.74-1.2-14.08-1.35-3.46-.31-4.05-6.23-.33-6.49Z"/>
    <path class="cls-1" d="M171.42,87.15c4.56-1.81,6.63,5.75,1.86,6.51-4.14,0-10.5,4.74-14.06,1.34-1.63-6.8,8.43-5.8,12.19-7.86Z"/>
  </g>
</svg>