<?xml version="1.0" encoding="UTF-8"?>
<svg id="_图层_1" data-name="图层 1" xmlns="http://www.w3.org/2000/svg" viewBox="0 0 192 192">
  <defs>
    <style>
      .cls-1 {
        fill: none;
        stroke: #000;
        stroke-linecap: round;
        stroke-linejoin: round;
        stroke-width: 8px;
      }
    </style>
  </defs>
  <g id="_f9b54cff" data-name=" f9b54cff">
    <path class="cls-1" d="m86.41,23.96c3.61-4.12,9.63-4.67,14.64-3.25-1.67-.24-3.34-.37-5.01-.51.04,2.58-.98,6.02,2.26,6.92-4.16-1.72-9.01,1.55-9.08,6-.23,3.16,2.08,5.73,4.79,6.99-3.01.27-6.02.67-8.97,1.32-3.68-5.26-3.33-12.93,1.36-17.46h.01Z"/>
    <path class="cls-1" d="m95.73,39.99c.96-.06,1.91-.11,2.86-.16,2.77.43,5.52.92,8.25,1.53,11.42,3.19,21.67,10.84,27.17,21.44,3.48,5.91,4.89,12.73,5.35,19.51.09,21.93-.16,43.87.12,65.8-1.7.27-3.41.36-5.12.32-14.06-.12-28.13.13-42.18-.14h-.74c1.37-.23,2.75-.49,4.12-.75.59-4.98.1-10,.25-15.01-.02-30.84.09-61.7-.08-92.54h0Z"/>
    <path class="cls-1" d="m72.08,148.29c3.33.07,6.65.12,9.98.07-.06,7.88-.09,15.75.02,23.64-7.43.09-13.94-6.5-13.84-13.89-.17-3.69,1.75-6.94,3.85-9.81h-.01Z"/>
  </g>
  <g id="_f4a200ff" data-name=" f4a200ff">
    <path class="cls-1" d="m96.04,20.19c1.67.14,3.34.27,5.01.51,4.1,1.95,7.41,5.8,8.18,10.34.81,3.61-.47,7.28-2.4,10.32-2.73-.62-5.48-1.11-8.25-1.53,1.78-1.51,3.85-3.23,3.92-5.78.37-2.96-1.51-5.8-4.21-6.94-3.24-.9-2.23-4.34-2.26-6.92h0Z"/>
    <path class="cls-1" d="m82.06,148.36c3.13-.07,6.25-.03,9.38-.08h.74c1.89,2.64,3.75,5.55,3.78,8.92.63,7.65-6.13,15.06-13.88,14.79-.1-7.88-.08-15.75-.02-23.64h0Z"/>
  </g>
  <g id="_ffd15dff" data-name=" ffd15dff">
    <path class="cls-1" d="m85.05,41.41c2.96-.64,5.96-1.05,8.97-1.32.43-.03,1.28-.08,1.71-.1.17,30.84.06,61.7.08,92.54-.14,5,.34,10.02-.25,15.01-1.37.26-2.75.52-4.12.74-3.13.05-6.25,0-9.38.08-3.33.06-6.65,0-9.98-.07-6.53-.09-13.05.06-19.57-.09.08-21.94,0-43.89.04-65.84.41-12.04,5.9-23.87,15.11-31.7,4.96-4.41,11.08-7.35,17.39-9.25Z"/>
  </g>
</svg>