<?xml version="1.0" encoding="UTF-8"?>
<svg id="_图层_1" data-name="图层 1" xmlns="http://www.w3.org/2000/svg" viewBox="0 0 192 192">
  <defs>
    <style>
      .cls-1 {
        stroke-linecap: round;
        stroke-linejoin: round;
        stroke-width: 12px;
      }

      .cls-1, .cls-2 {
        fill: none;
      }

      .cls-1, .cls-2, .cls-3 {
        stroke: #000;
      }

      .cls-2, .cls-3 {
        stroke-miterlimit: 10;
      }
    </style>
  </defs>
  <g id="_ff6b00ff" data-name="#ff6b00ff">
    <path class="cls-1" d="m126.91,32.21c6.12-1.95,12.65-1.76,18.95-1.06,12.34,2.86,22.78,13.13,25.34,25.6,1.69,7,.53,14.35-1.95,21.01-4.82,10.91-15.7,18.99-27.67,19.94-13.69,1.64-27.44-6.38-33.53-18.6-4.39-8.09-3.87-17.78-1.43-26.4,3.14-9.4,11.16-16.89,20.29-20.49"/>
  </g>
  <path class="cls-3" d="m118.05,51.19c7.06-.01,14.14-.06,21.2,0,3.73-.34,7.55,2.87,7.29,6.71.08,6.45.07,12.91-.03,19.36-1.94.02-3.86.06-5.79.1-.48-5.77.03-11.57-.27-17.35-.04-1.34-.81-3.21-2.47-2.98-4.62-.21-9.24-.02-13.86-.04-.09,6.76.02,13.53-.08,20.29-2-.01-4-.02-6-.02-.01-8.69-.02-17.38,0-26.07Z"/>
  <path class="cls-3" d="m151.81,51.27c2.1-.11,4.23-.07,6.33.13-.21,8.63.4,17.3-.33,25.9-1.98-.02-3.96-.03-5.93-.03-.13-8.67-.01-17.33-.07-26Z"/>
  <path class="cls-1" d="m20.04,60.14c-.5-4.15,3.49-7.53,7.44-7.37,26.39-.07,52.77.08,79.14-.07-2.45,8.62-2.97,18.31,1.43,26.4,6.09,12.22,19.84,20.23,33.53,18.6,11.98-.94,22.86-9.02,27.67-19.94.13,25.55,0,51.09.08,76.65-.62,3.81-3.91,7.29-7.97,6.9-44.65-.02-89.3.01-133.95-.01-3.19.21-5.57-2.18-7.18-4.63-.42-32.17-.07-64.36-.19-96.53m24.2,25.65c-6.05,2.96-4.7,13.17,1.9,14.38,14.02.33,28.08.04,42.13.13,3.61.27,7.13-2.3,7.89-5.84,1.33-4.32-2.16-9.44-6.77-9.35-13.28-.17-26.58.01-39.87-.09-1.75.13-3.69-.15-5.28.77m.21,31.47c-5.21,1.58-6.71,9.07-2.89,12.76,1.9,2.32,5.19,2.15,7.9,2.3,27.69-.06,55.38-.02,83.07-.02,3.9-.08,7.93.42,11.7-.8,4.54-1.97,5.01-8.69,2.18-12.22-2.29-2.93-6.24-2.2-9.49-2.28-29.92.07-59.83.02-89.74.02-.69.06-2.06.18-2.75.23Z"/>
  <path class="cls-3" d="m129.43,62.03c1.98-.04,3.96-.08,5.96-.11.18,5.11.11,10.23.04,15.34-1.96.02-3.92.04-5.87.07-.27-5.1-.09-10.21-.13-15.3Z"/>
  <g id="_ccccccff" data-name="#ccccccff">
    <path class="cls-2" d="m44.24,85.79c1.59-.93,3.53-.64,5.28-.77,13.29.1,26.59-.08,39.87.09,4.62-.09,8.1,5.04,6.77,9.35-.76,3.54-4.28,6.11-7.89,5.84-14.05-.09-28.1.2-42.13-.13-6.61-1.21-7.96-11.42-1.9-14.38Z"/>
    <path class="cls-2" d="m44.45,117.25c.69-.06,2.06-.18,2.75-.23,29.91,0,59.82.04,89.74-.02,3.24.08,7.19-.65,9.49,2.28,2.83,3.53,2.36,10.25-2.18,12.22-3.77,1.22-7.8.72-11.7.8-27.69,0-55.38-.03-83.07.02-2.71-.15-6,.02-7.9-2.3-3.82-3.7-2.32-11.18,2.89-12.76Z"/>
  </g>
</svg>