<?xml version="1.0" encoding="UTF-8"?>
<svg id="_图层_1" data-name="图层 1" xmlns="http://www.w3.org/2000/svg" viewBox="0 0 147 115.82">
  <defs>
    <style>
      .cls-1 {
        fill: none;
        stroke: #000;
        stroke-linecap: round;
        stroke-linejoin: round;
        stroke-width: 7px;
      }
    </style>
  </defs>
  <g id="_000000ff" data-name="#000000ff">
    <path class="cls-1" d="m101.39,12.13c8.29-8.94,21.79-8.29,33-8.63,2.91,2.32,5.86,4.61,8.8,6.93.08,2.43.23,7.27.31,9.71-8.35,4.16-16.47.65-24.22-2.91-4.33,9.48-10.24,18.25-13.78,28.1-6.17,17.71-8.91,36.36-12.79,54.64,4.78.17,9.54.31,14.32.45.08,3.48.17,6.93.25,10.41-11.6-.48-23.2-.03-34.81.2.57-16.21,7.41-31.35,8.66-47.51-7.64.96-18.48-3.28-23.06,5.04-7.75,13.7-8.18,32.46-23.03,41.31-7.87.28-15.56,2.66-23.4,2.43-6.57-.11-11.4-10.55-5.4-14.21,5.91.2,11.69,1.56,17.46,2.63.62-.93,1.84-2.77,2.43-3.68,6.2-9,10.87-19.16,12.17-30.11,1.53-15.45,9.06-29.37,11.97-44.51-8.89,2.69-18.82,5.91-22.52,15.39,1.08,4.92,1.9,9.9,2.52,14.91-1.78,1.02-5.35,3.06-7.13,4.07-1.78-.68-5.32-2.01-7.1-2.69-2.86-6.76-4.24-14.18-2.63-21.45,5.35-11.15,18.11-15.59,29.51-17.52,9.9-1.25,20.37-4.3,30.05-.14-4.64,12.08-9.14,24.34-10.02,37.38,6.99.03,13.95.06,20.94.08,5.86-13.41,9.71-27.87,17.52-40.35Z"/>
  </g>
</svg>