<?xml version="1.0" encoding="UTF-8"?>
<svg id="_图层_1" data-name="图层 1" xmlns="http://www.w3.org/2000/svg" viewBox="0 0 145.45 158">
  <defs>
    <style>
      .cls-1 {
        fill: none;
        stroke: #000;
        stroke-linecap: round;
        stroke-linejoin: round;
        stroke-width: 6px;
      }
    </style>
  </defs>
  <g id="_33b95dfd" data-name="#33b95dfd">
    <path class="cls-1" d="m4.5,3.02c1.62-.13,2.87.49,3.75,1.82,37.5,51.42,83.67,96.01,134.2,134.42-13.89,1.13-27.89,2.38-41.73.04,5.24-15.96-4.44-33.57-19.87-39.06-12.27-4.32-23.86.2-33.48,7.54-4.78-3.29-10.39-4.87-15.61-7.3C8.62,74.28-.97,37.35,4.5,3.02Z"/>
    <path class="cls-1" d="m28.56,18.8c8.68-1.67,12.21,6.97,13.63,13.98,13.39-1.72,25.86,11.19,21.26,24.65,9.54-1.34,20.78,2.38,22.36,13.32-4.86,14.55,7.31,6.38,14.22,10.37,7.94,2.89,10.49,13.03,10.84,20.61,6.85.78,15.6,5.23,14.11,13.44C88.67,87.87,55.59,55.27,28.56,18.8Z"/>
    <path class="cls-1" d="m66.54,104.15c17.34-3.22,33.91,14.54,28.83,31.62-4.5,22.75-38.34,26.26-48.26,5.44-8.79,8.76-22.47,10.83-31.85,1.67-12.83-12.38-2.63-38.48,16.29-35.05,6.87-.69,11.88,4.71,16.91,8.53,4.65-5.85,10.73-10.44,18.08-12.21m-47.63,12.57c-4.24,2.66.39,7,4.05,5.62.43-2.61-.56-6.77-4.05-5.62m46.02.1c-4.14,1.61-4.61,9.32.98,8.3,5.95-.59,4.71-9.31-.98-8.3m18.62,1.28c-3.26,2.53-2.3,8.37,2.34,8.23,4.91-2.18,2.51-8.75-2.34-8.23m-48.82,1.48c-3.43,2.27-1.67,6.88,2.33,6.74,4.65-2.11,3.06-8.7-2.33-6.74m-19.03,8.5c-2.28,14.26,21.69,17.55,23.2,3.07-7.7-1.25-15.4-2.6-23.2-3.07m44.46,4.35c.9,17.94,27.88,18.04,29.04.03-9.68-.24-19.36-.24-29.04-.03Z"/>
  </g>
</svg>