<?xml version="1.0" encoding="UTF-8"?>
<svg id="_图层_1" data-name="图层 1" xmlns="http://www.w3.org/2000/svg" viewBox="0 0 159 139.14">
  <defs>
    <style>
      .cls-1 {
        fill: none;
        stroke: #000;
        stroke-linecap: round;
        stroke-linejoin: round;
        stroke-width: 7px;
      }
    </style>
  </defs>
  <g id="_ffffffff" data-name="#ffffffff">
    <path class="cls-1" d="m51.85,4.61c5.7-1.97,11.96-.64,17.89-1.01-4.29,29.83-8.06,59.71-12.74,89.52-.64,4.91-.35,11.07-4.83,14.25-5.8,2.66-12.44.98-18.6,1.44,1.42-8.34,1.91-16.94,3.58-25.11,2.26-22.54,6.83-44.87,8.97-67.41,1.1-4.24.91-9.69,5.73-11.67Z"/>
    <path class="cls-1" d="m13.62,37.87c.5-4,4.14-7.26,8.17-7.3,4.75-.15,9.53-.11,14.29,0-2.42,17.16-5.03,34.33-7.47,51.51-1.42,7.43-1.28,15.14-3.6,22.37-4.76,7.01-14.44,3.55-21.51,4.35,1.48-10.27,3.18-20.52,4.03-30.86,1.34-2.15.66-4.87,1.1-7.26,1.79-10.91,2.97-21.92,4.98-32.8Z"/>
    <path class="cls-1" d="m109.9,30.72c5.29-.44,10.62-.17,15.92-.23-4.07,32.89-9.39,65.78-13.72,98.64-.69,3.02-3.11,5.38-6.06,6.24-5.44.48-10.91.17-16.36.23,4.39-29.7,7.87-59.42,12.6-89.1.58-5.83.59-13.99,7.62-15.78Z"/>
    <path class="cls-1" d="m134.36,35.19c4.4-7.43,14.14-3.82,21.14-4.76-2.36,23.37-5.99,46.55-9.39,69.84-.33,3.91-3,7.72-7.08,8.24-4.98.62-10.04.18-15.05.28.97-16.41,4.43-32.58,6.42-48.9,1.74-8.19,1.44-16.73,3.96-24.7Z"/>
    <path class="cls-1" d="m73.81,36.56c3.42-8.99,14.56-5.32,21.88-6.09-2.71,24.26-6.59,48.49-10.11,72.69-3.84,8.5-14.63,4.87-21.91,5.65,2.77-24.12,6.59-48.17,10.13-72.24Z"/>
  </g>
</svg>