<?xml version="1.0" encoding="UTF-8"?>
<svg id="_图层_1" data-name=" 图层 1" xmlns="http://www.w3.org/2000/svg" viewBox="0 0 192 192">
  <defs>
    <style>
      .cls-1 {
        fill: none;
        stroke: #000;
        stroke-linecap: round;
        stroke-linejoin: round;
        stroke-width: 11px;
      }
    </style>
  </defs>
  <g id="_fff9f8ff" data-name="#fff9f8ff">
    <path class="cls-1" d="m125.79,12.73c7.96-.17,16.15,3.39,21.07,9.72,3.46,3.95,2.32,11.31-2.84,13.31-3.83,2.52-8.34.03-11.03-2.9-2.77-3.04-7.77-4.29-11.26-1.77-4.69,2.68-4.71,9.02-2.93,13.51.61,2.2.91,4.61,2.09,6.59,16.35,1.61,31.76,10.84,40.61,24.73,9.95,14.55,12.86,33.48,8.55,50.51-6.46,26.32-30.31,45.99-56.37,51.23-29.74,6.49-62.26-6.93-79.36-31.96-13.45-19.19-17.99-44.49-11.25-67,5.77-19.8,19.53-37.23,37.75-47,4.28-2.29,8.9-5.44,13.97-4.25,4.44,1.8,7.46,7.2,5.27,11.79-1.8,4.23-6.24,5.07-9.79,7.1-21.2,10.68-34.63,34.54-32.85,58.19.89,12.13,5.27,23.99,12.85,33.54,15.14,20.58,44.21,29.24,68.06,20.35,13.66-4.61,25.79-14.64,32.02-27.77,5.76-12.43,5.78-27.51-.25-39.86-4.61-9.95-13.6-18.4-24.46-20.87,2.25,10.14,6.31,19.93,6.61,30.45.05,13.87-8.69,27.78-22.16,32.13-11.28,4.35-24.97,1.72-33.62-6.79-10.85-9.32-14.72-25.1-11.19-38.71,3.91-14.92,15.71-27.36,30.26-32.36,2.19-1.14,4.72-1.41,6.95-2.39-.42-6.07-3.17-12.05-1.68-18.23,1.51-12.02,13.13-21.04,24.98-21.27m-20.74,57.01c-3.51.87-6.84,2.33-9.92,4.22-10.93,6.09-16.94,20.48-12.03,32.28,2.39,4.88,6.67,9.07,12,10.53,4.7.66,10.1.29,13.77-3.1,5.75-4.17,6.59-11.83,5.55-18.37-1.65-8.23-4.56-16.14-6.42-24.31-.17-1.32-1.82-1.81-2.94-1.25Z"/>
  </g>
</svg>