<?xml version="1.0" encoding="UTF-8"?>
<svg id="_图层_1" data-name="图层 1" xmlns="http://www.w3.org/2000/svg" viewBox="0 0 159.39 160">
  <defs>
    <style>
      .cls-1 {
        fill: none;
        stroke: #000;
        stroke-linecap: round;
        stroke-linejoin: round;
        stroke-width: 8px;
      }
    </style>
  </defs>
  <g id="_faede5ff" data-name="#faede5ff">
    <path class="cls-1" d="m76.07,4.66c4.12-2.61,10,3.1,5.04,5.88C46.73,9.28,14.3,37.09,10.83,71.38c-5.19,32.04,15.97,65.29,46.76,74.88,34.33,12.76,76.01-7.5,87.58-42.11,9.48-25.07,2.67-54.98-16.48-73.64-2.1-2.65-6.5-4.63-5.81-8.59,3.73-1.62,5.96,1.73,8.53,3.47,13.95,13.59,23.41,32.31,23.84,52,2.36,36.87-26.71,72.16-63.26,77.47-37.74,7.07-77.56-19.51-85.76-57.01C-3.46,61.28,19.37,19.94,55.54,8.74c6.53-2.57,13.59-3.42,20.53-4.08Z"/>
    <path class="cls-1" d="m42.46,51.73c16.66-.46,33.36-.26,50.02-.15,7.14,1.85,2.84,11.63,4.12,16.77,6.92-4.5,12.35-11.83,19.38-16.6,2.67-1.37,5.11,3.24,3.72,5.33.02,16.52.02,33.04,0,49.56.38,2.18-2.53,3.84-4.52,2.2-6.11-5.68-12.27-11.3-18.61-16.71-1.06,5.2,2.91,14.66-3.93,17.07-13.52,1.45-27.27.23-40.87.66-4.27-.12-9.88.7-12.62-3.46-.36-15.89-.12-31.81-.13-47.71-.62-2.7.5-6.23,3.43-6.94m22.41,17.64c-8.34,1.49-12.03,13.66-5.32,19.12,5.11,6.08,15.97,4.13,18.64-3.4,4.56-8.62-4.57-18.4-13.32-15.72Z"/>
  </g>
</svg>