<?xml version="1.0" encoding="UTF-8"?>
<svg id="_图层_1" data-name=" 图层 1" xmlns="http://www.w3.org/2000/svg" viewBox="0 0 192 192">
  <defs>
    <style>
      .cls-1 {
        fill: none;
        stroke: #000;
        stroke-linecap: round;
        stroke-linejoin: round;
        stroke-width: 11px;
      }
    </style>
  </defs>
  <g id="_f3838fff" data-name="#f3838fff">
    <path class="cls-1" d="m64.1,17.74c6.7.92,11.96,5.74,16.74,10.16,3.05,2.65,5.24,6.04,7.31,9.46,10.27,13.49,13.67,32.74,6.19,48.31-.7,1.41-2.22,2.17-3.68,2.53-2.44-.36-4.71-1.37-7.09-1.96-6.96-1.57-13.14-5.56-18.65-9.95-5.24-5.26-10.31-10.75-14.85-16.62-4.61-7.69-8.65-16.6-7.49-25.77,7.49.27,14.36,3.44,21.41,5.64-.66-7.25-.93-14.58.12-21.8m18.45,55.16c-1,1.32-1.49,3.24-.53,4.72.86,1.76,3.06,1.55,4.68,1.81,1.19-2.41,1.16-5.04-.1-7.42-1.35.26-2.83.17-4.05.89m4.07,6.8c.68,2.57,1.85,5.07,4.19,6.53-.82-2.51-2.14-4.83-4.19-6.53Z"/>
    <path class="cls-1" d="m113.11,37.55c5.64-6.48,11.53-13.42,19.81-16.52,1.92,8.18.74,16.65,1.03,24.96,7.12-2.8,13.87-7.38,21.79-7.41.61,6.9-1.11,13.8-3.84,20.1-5.01,9.54-12.42,17.7-20.98,24.18-3.6,2.55-8.02,3.24-12.12,4.61-5.04,1.63-10.21,3.01-15.52,3.32,1.57-2.9,3.65-5.98,6.94-7.02,1.54-.6,3.56-.8,4.29-2.54,1.51-2.7-1.97-6.85-4.83-5.02-2.85,1.38-1.22,4.79-1.94,7.17-1.75,2.47-4.18,4.33-6.22,6.53-4.15-14.18-.84-29.51,5.9-42.34,1.9-3.33,2.98-7.19,5.69-10.01Z"/>
    <path class="cls-1" d="m29.86,85.01c7.55-2.5,15.53-3.98,23.5-3.09,5.53.22,10.76,2.06,16.05,3.44,7.07,1.33,13.86,4.5,19.29,9.24-2.98.79-5.97,1.64-9.06,1.81-2.28.17-4.16-2.2-6.43-1.62-3.18.56-3.04,5.93.08,6.61,2.76.98,3.93-2.27,5.94-3.4,3.08-.99,6.32-1.33,9.5-1.94-1.95,4.74-4.77,9.21-8.9,12.35-7.19,5.14-14.42,10.49-22.72,13.69-12.24,4.05-25.84,6.13-38.35,1.97,1.51-4.03,4.29-7.38,6.99-10.67,2.88-3.64,7.28-5.5,10.76-8.46-7.36-2.52-15.22-4.48-21.5-9.29,2.27-6.15,8.9-9.18,14.86-10.64Z"/>
    <path class="cls-1" d="m104.95,97.83c8.44-6.7,19.85-8.11,30.21-6.3,6.87,1.26,13.63,3.43,19.79,6.77,5.83,3.53,11.25,7.7,16.59,11.93,2.6,2,4.25,4.87,5.46,7.86-7.51,4.48-15.66,8.17-24.43,9.19,4.34,5.99,7.86,12.61,10.26,19.61-11.72,2.26-23.95-1.59-33.9-7.77-6.42-4.19-13.7-7.9-17.54-14.89-3.61-7.81-7.49-15.81-7.76-24.59,4.29.69,9.12,2.17,11.2,6.34,1.92,3.71,7.93-.19,5.72-3.67-1.49-3.09-4.89-1.1-7.36-.87-2.99-.52-5.65-2.1-8.24-3.61Z"/>
    <path class="cls-1" d="m84.21,107.93c3.24-3.06,6.74-5.9,10.99-7.41-.32,2.57-.52,5.15-1.07,7.68-.3,2.32-2.51,3.58-3.72,5.39-1,3.21,3.45,6,5.72,3.35,2.36-2-.15-4.44-.89-6.54-.3-2.99.75-5.92,1.36-8.81,6.41,7.37,11.45,16.11,13.41,25.75,1.05,8.74,1.63,17.59.57,26.36-.24,6.82-2.78,13.5-6.94,18.89-.67.62-1.69,2.41-2.72,1.33-5.6-4.63-9.32-11.08-12.48-17.53-2.33,2.08-3.19,5.25-5.16,7.63-2.62,3.29-5.05,6.84-8.41,9.45-1.56-.12-1.95-2.18-2.76-3.25-5.6-11.8-6.49-25.69-3.1-38.25,2.86-9.07,7.12-18.48,15.2-24.03Z"/>
  </g>
</svg>