<?xml version="1.0" encoding="UTF-8"?>
<svg id="_图层_1" data-name="图层 1" xmlns="http://www.w3.org/2000/svg" viewBox="0 0 156 150.99">
  <defs>
    <style>
      .cls-1 {
        fill: none;
        stroke: #000;
        stroke-linecap: round;
        stroke-linejoin: round;
        stroke-width: 4px;
      }
    </style>
  </defs>
  <path class="cls-1" d="m74.7,3.45c2.48-1.82,6.43-2.19,8.52.44,3.32,4.15,3.32,9.92,2.69,14.95-1.42,8.49-4.48,17.01-10.59,23.28,1.06-9.25,4.61-18.61,2.44-27.95-1.4-.54-2.93-.4-4.39-.57-6.97,8.47-7,19.94-9.91,30.03-3.58-6.65-2.65-14.68-.59-21.65,2.08-7.09,5.63-14.22,11.84-18.54Z"/>
  <path class="cls-1" d="m120.6,9.19c2.95-.85,6.48-1.85,9.13.3,2.34,1.62,1.7,4.92,1.05,7.26-2.64,6.98-7.71,12.73-13,17.86-7.85,7.32-16.89,14.15-27.57,16.51,8.49-8.16,18.19-15.26,25.24-24.8,1.23-1.88,3.37-5.51-.08-6.23-2.97-.35-5.68,1.38-8.1,2.86-8.93,6.15-16.42,14.1-24.84,20.89,2.79-7.13,7.66-13.2,13.09-18.49,7.27-6.84,15.52-12.98,25.08-16.16Z"/>
  <path class="cls-1" d="m30.58,27.72c3-2.93,7.72-2.76,11.46-1.56,8.48,3.28,15.13,12.12,13.93,21.48-4.9-4.74-8.98-10.79-15.29-13.74-3.44-1.68-7.64,1.42-6.42,5.23,2.35,6.55,7.84,11.33,11.97,16.76-8.54.11-15.5-6.74-18.24-14.37-1.6-4.58-1.37-10.47,2.59-13.79Z"/>
  <path class="cls-1" d="m47.34,74.85c-2.11-14.61,12.42-28.01,26.63-26.9,4.7-.2,9.29,2.8,11.05,7.13,2.5,8.07-2.47,17.35-10.27,20.26-2.54,1.03-5.22.22-7.58-.83-2.85,1.94-7.27,3.44-9.72.07-3.71-7.52,3.1-18.76,11.9-17.27,2.91-.06,4.91,2.9,4.87,5.57-.53,2.78-1.41,5.48-2.19,8.2,8.2.91,12.54-11.41,6.85-16.67-3.84-4.08-10.3-3.43-15.01-1.34-7.35,2.84-12.4,10.34-12.7,18.14.07,3.94,2.29,8.11,6.26,9.3,7.74,2.42,15.71-.97,22.59-4.35-4.97,5.19-11.65,9.68-19.16,9.13-6.2.26-12.66-4.09-13.51-10.46m12.87-2.82c4.97,1.03,9.24-3.23,9.43-8.03-.88-1.94-3.04-3.58-5.07-2.05-4.13,1.48-4.89,6.25-4.35,10.08Z"/>
  <path class="cls-1" d="m93.34,57.91c13.05-8.47,29.3-10.05,44.45-8.58,6.4.95,13.79,3.32,16.21,10.03-2.21,6.81-8.72,10.65-15.11,12.89-11.64,4.14-24.33,5.65-36.55,3.66-3.86-.93-8.37-1.61-11.04-4.86,12.03-1.08,24.34-1.15,35.98-4.74,3.02-.97,7.52-3.03,6.17-6.96-1.12-1.12-2.44-2.15-3.99-2.59-12.04-1.86-24.08,1.17-36.14,1.15Z"/>
  <path class="cls-1" d="m7.78,65.31c6.27-4.06,13.8-5.97,21.22-6.15,4.36.21,9.36.66,12.44,4.16-9.6,1.41-20.13.78-28.59,6.33-.05,1.54-.08,3.06-.09,4.6,8.72,2.5,17.9.79,26.77.12-8.3,6.29-19.29,8.3-29.44,6.56-3.26-.88-7.5-2.44-8-6.3-.67-4.08,2.74-7.14,5.69-9.32Z"/>
  <path class="cls-1" d="m85.69,79.62c9.66.7,17.9,6.92,24.19,13.85,5.52,6.38,10.04,14.17,10.79,22.72.52,5.49-3.02,11.59-8.78,12.36-8.99.98-17.06-4.57-23.47-10.24-7.74-7.57-14.45-17.66-14.05-28.91,7.56,7.62,13.7,16.87,22.84,22.78,2.77,1.76,7.45,2.19,9.18-1.21,1.06-3.36-.05-6.96-2.02-9.75-5.33-7.93-12.41-14.44-18.68-21.61Z"/>
  <path class="cls-1" d="m9.46,104.93c7.81-10.59,18.32-20.07,31.3-23.49-7.56,7.14-15.66,13.77-22.34,21.78-1.79,2.02-2.83,4.54-3.31,7.17.82.45,2.45,1.34,3.25,1.79,10.93-5.2,18.87-14.67,28.22-22.05-5.5,12.89-16.13,23.2-28.31,29.86-3.97,1.63-9.64,4.6-13.19.77-2.25-5.52,1.48-11.26,4.38-15.81Z"/>
  <path class="cls-1" d="m40.17,125.64c1.14-11.95,5.33-23.99,13.37-33.06-2.54,11.58-6,23.29-5.1,35.26.05,1.99,1.75,3.28,2.85,4.73,2.84-1.29,5.48-3.24,6.47-6.34,4.19-10.49,5.61-21.82,7.76-32.85,4.68,8.32,3.44,18.39,1.68,27.35-2.16,9.59-5.63,19.61-13.31,26.2-2.77,2.65-7.98,2.99-10.27-.47-4.46-5.94-3.66-13.84-3.45-20.82Z"/>
</svg>