<?xml version="1.0" encoding="UTF-8"?>
<svg id="_图层_1" data-name=" 图层 1" xmlns="http://www.w3.org/2000/svg" viewBox="0 0 192 192">
  <defs>
    <style>
      .cls-1 {
        fill: none;
        stroke: #000;
        stroke-linecap: round;
        stroke-linejoin: round;
        stroke-width: 11px;
      }
    </style>
  </defs>
  <path class="cls-1" d="m176.94,146.54c-.71-2.54-1.93-4.89-2.9-7.34.07,0,.13,0,.2,0-.18-.36-.29-.75-.36-1.16-.02-.07-.06-.12-.08-.19,0-.05-.01-.11-.02-.16-.28-.42-.45-.9-.56-1.4-.04-.07-.06-.16-.1-.23-.22-.26-.39-.56-.53-.87-.5-.57-.8-1.29-.9-2.05-.39-1.12-.82-2.23-1.28-3.31.04-.01.08-.02.12-.02-.06-.08-.13-.16-.19-.24,0,0,0,0,0,0,0,0,0,0,0-.01,0-.01-.01-.02-.02-.03,0,0,0,0,0-.01h0c-.13-.31-.25-.61-.38-.91-.02-.04-.03-.09-.04-.13,0,0,0-.01,0-.02-.03-.18-.05-.38-.08-.57-.11-.26-.27-.65-.28-.67,0,0,0,0,0-.01,0,0,0-.01,0-.02,0-.04,0-.08-.02-.12-.08-.16-.17-.31-.22-.49,0-.06-.02-.12-.02-.18-.1-.23-.2-.47-.2-.48,0,0,0,0,0-.01,0,0,0-.01,0-.02-.02-.08-.02-.17-.03-.25-.22-.31-.4-.63-.51-1-.05,0-.11,0-.16,0-.58-1.52-1.19-3.04-1.59-4.62-.69-1.56-1.26-3.18-1.74-4.84-.02-.04-.03-.07-.05-.11,0,0-.02,0-.03,0-1.18-1.27-1.5-3.08-2.08-4.67.03,0,.05,0,.08,0-.18-.37-.32-.77-.38-1.18,0,0-.02-.02-.03-.03-.37-.34-.63-.75-.78-1.21-.23-.44-.33-.9-.32-1.41-.03-.08-.08-.15-.11-.24l-.03-.19s-.03-.08-.05-.12c-.34-.43-.62-.91-.75-1.44-.65-1.08-.86-2.55-1.37-3.67,0,0,0,0,.01,0-1.3-2.76-2.41-5.61-3.48-8.46-.66-1.78-1.31-3.56-2-5.33-.1-.25-.18-.47-.27-.68h-.02c-.37-.79-.69-1.6-.98-2.42-.2-.45-.42-.94-.71-1.55-.12-.26-.21-.52-.29-.78-.06-.04-.13-.09-.18-.13.05,0,.1,0,.15,0,0-.04-.01-.07-.02-.11-.72-1.55-1.3-3.15-1.71-4.79-.08-.01-.15-.02-.23-.03-5.27-13.69-10.76-27.3-16.07-40.98-2.7-6.55-5.07-13.24-7.89-19.75-5.68,13.22-11.34,26.45-17,39.69-4.34,9.83-8.29,19.83-12.8,29.58-1.49-4.41-3.44-8.64-5.1-12.98-7.42-18.84-15.01-37.61-22.36-56.46-.08.05-.17.11-.25.16-1.2,2.03-1.9,4.3-2.81,6.46C48.44,63.37,31.71,104.41,15.03,145.47c-.24,1.45,1.34,2.56,1.98,3.79,6.04,8.74,12.11,17.44,18.11,26.2.63.88,1.34,2.07,2.63,1.79,38.9-.02,77.81,0,116.71-.01,1.07.14,2.04-.36,2.57-1.3,6.4-9.26,12.86-18.46,19.33-27.67.32-.52.82-1.08.59-1.73Zm-71.08-.13c-25.09-.39-50.2-.03-75.28-.43,9.25-23.29,18.93-46.42,28.08-69.75,1.22,1.66,1.78,3.67,2.6,5.53,7.51,18.02,15.02,36.03,22.52,54.05,1.33,2.99,2.38,6.1,3.92,9,9.19-23.08,18.44-46.14,27.67-69.21,8.87,22.17,17.41,44.47,26.23,66.67.55,1.39,1.05,2.82,1.47,4.26-12.4.04-24.81.07-37.21-.13Z"/>
</svg>