<?xml version="1.0" encoding="UTF-8"?>
<svg id="_图层_1" data-name=" 图层 1" xmlns="http://www.w3.org/2000/svg" viewBox="0 0 192 192">
  <g id="_fcfefeff" data-name="#fcfefeff">
    <path d="m36.43,26.13c-.46-5.88,8.62-7.93,11.57-3.43,1.69,2.15,1.28,5.02,1.43,7.58-.06,11.26-.01,22.53-.07,33.8-1.03,17.56,9.69,35.05,25.56,42.56,9.63,5.53,21.2,5.57,31.88,3.97,5.48-.75,9.94-5.62,15.55-5.1,3.04,2.49,4.68,6.26,4.85,10.15-8.03,4.74-17.06,8.31-26.49,8.41-9.08.25-18.59.37-26.98-3.63-16.73-6.89-30.95-21.2-35.52-38.98-2.5-7.9-1.72-16.28-1.84-24.44.11-10.29-.24-20.6.06-30.89Z"/>
    <path d="m142.19,27.38c-.6-4.92,5.57-9.41,9.87-6.43,4.06,1.83,3.3,7.06,3.63,10.71-.48,10.32-.49,20.64-.41,30.98-.06,5.95.31,12.09-1.95,17.73-5.09.84-8.46-4.25-10.87-7.96-.66-14.97-.11-30.03-.27-45.04Z"/>
    <path d="m64.41,77.26c7.1-4.49,15.07-8.13,23.59-8.45,8.21-.31,16.69-.76,24.66,1.66,15.97,4.89,30.22,16.38,37.05,31.81,3.32,7.92,5.88,16.37,5.53,25.04-.27,13.51.37,27.07-.31,40.57-.87,4.79-6.51,4.12-10.18,3.92-1.24-2.46-2.57-5.02-2.43-7.86-.18-11.74-.04-23.47-.04-35.21,1.94-26.45-23.97-50.35-50.13-47.29-8.03-.39-14.78,4.87-22.44,5.91-3.26-2.35-5.27-6.07-5.3-10.1Z"/>
    <path d="m38.12,112.07c5.08-.04,8.66,4.25,11.01,8.27.38,15.45.25,30.98.01,46.43-.14,5.99-6.64,5.64-10.88,4.7-1-2.39-1.9-4.88-1.74-7.52.01-12.67-.03-25.34,0-38.01-.07-4.67.53-9.32,1.6-13.86Z"/>
  </g>
</svg>