<?xml version="1.0" encoding="UTF-8"?>
<svg id="_图层_1" data-name="图层 1" xmlns="http://www.w3.org/2000/svg" viewBox="0 0 152 152.02">
  <defs>
    <style>
      .cls-1 {
        fill: none;
        stroke: #000;
        stroke-miterlimit: 10;
        stroke-width: 3px;
      }
    </style>
  </defs>
  <path d="m41.9,8.09C52.45,2.89,64.17-.23,75.98.01v5.72c-12.92,0-25.66,3.9-36.77,10.42-2.3-.69-4.6-1.34-6.89-2.06,2.79-2.59,6.3-4.18,9.59-6.01Z"/>
  <path class="cls-1" d="m10.57,10.58c9.33,2.27,18.48,5.19,27.82,7.4-3.01,4.26-7.21,7.49-10.74,11.3-3.28,3-5.99,6.65-9.72,9.12-2.2-9.34-5.1-18.5-7.37-27.82Z"/>
  <path d="m10.98,36.62c.84-1.58,1.92-3,3.12-4.31.71,2.28,1.36,4.59,2.04,6.88-6.57,11.09-10.4,23.86-10.43,36.8H0c-.21-13.82,3.92-27.54,10.97-39.37Z"/>
  <g id="_9b9b9bff" data-name="#9b9b9bff">
    <path d="m75.98.01c18.78-.21,37.42,7.26,51.26,19.87,12.43,11.24,20.75,26.74,23.72,43.2,2.09,13.12,1.12,26.85-3.72,39.29-6.2,17.13-18.93,31.77-34.97,40.39-15.33,8.45-33.61,11.19-50.78,7.9-16.22-3.27-31.41-11.76-42.35-24.23C6.94,112.7-.19,94.4,0,75.99h5.71c.1,17.81,7.08,35.53,19.45,48.39,17.96,19.29,47.44,26.99,72.43,18.35,15.33-4.75,28.7-15.21,37.37-28.68,7.65-11.98,11.78-26.28,11.21-40.52-.67-18.47-8.91-36.64-22.63-49.09-12.77-11.89-30.15-18.63-47.58-18.7V.01Z"/>
  </g>
  <g id="_e6e6e6ff" data-name="#e6e6e6ff">
    <path d="m50.85,42.49c3.03-.2,6.06-.17,9.1-.12,11.18,17.22,22.34,34.47,33.74,51.54.12-17.18.02-34.37.06-51.56h6.96c.02,8.54-.08,17.08.06,25.62-.07,4.82-.16,9.65.06,14.46-.3,8.13.02,16.26-.18,24.39-2.35,0-4.68,0-7.03-.06-11.76-18.11-23.48-36.27-35.46-54.23-.1,18.1.06,36.19-.09,54.29-2.23-.02-4.47-.02-6.7.03-.8-3.28-.44-6.66-.5-9.99-.02-18.12.04-36.23-.03-54.36Z"/>
  </g>
</svg>