<?xml version="1.0" encoding="UTF-8"?>
<svg id="_图层_1" data-name="图层 1" xmlns="http://www.w3.org/2000/svg" viewBox="0 0 192 192">
  <defs>
    <style>
      .cls-1 {
        fill: none;
        stroke: #000;
        stroke-miterlimit: 10;
        stroke-width: 8px;
      }
    </style>
  </defs>
  <g id="_05c1aeff" data-name=" 05c1aeff">
    <path class="cls-1" d="m97.57,59.13c.29-9.7,8.96-19.87,19.27-17.86,5.67.71,6.48,9.39,1.61,11.73-4.05,1.13-8.32.84-12.45,1.47-3.29.45-5.84,2.79-8.43,4.66Z"/>
    <path class="cls-1" d="m79.25,47.85c3.51-2.44,8.36-.9,11.19,1.87,2.71,2.49,3.68,6.16,4.85,9.52-4.11-2.82-8.98-3.65-13.82-4.16-3.4-.49-3.28-4.8-2.22-7.23Z"/>
    <path class="cls-1" d="m102.2,66.23c19-11.55,44.53-11.3,63.13.92-1.52,3.63-3.62,6.96-5.3,10.51,1.05,3.02,3.74,5.17,5.38,7.89,9.75,14.91,8.65,36.26-3.01,49.83-8.14,10.15-21.23,16.16-34.27,15.39-7.62.12-14.83-2.73-21.44-6.27-3.22,2.94-5.94,7.16-10.33,8.32-4.76-.52-7.52-5.34-10.93-8.22-11.14,6.54-25.07,8.12-37.3,3.87-10.5-3.95-19.48-12.01-24.16-22.25-5.23-10.45-5.09-23.06-.78-33.82,1.98-5.53,5.86-10.03,9.4-14.62-2.17-3.35-5.46-6.75-4.75-11.08,3.08-2.67,7.02-4.02,10.8-5.37,16.46-5.66,35.39-4.35,50.56,4.39,2.4,1.23,4.48,3.4,7.23,3.78,2.07-.8,3.87-2.15,5.77-3.27m-62.34,24.8c-9.59,13.45-5.53,33.83,7.97,43.08,9.03,6.42,21.4,8.22,31.5,3.23,7.67-3.1,12.94-9.83,16.85-16.85,5.12,12.05,17.82,20.09,30.88,19.75,10.99-.57,21.62-7.14,26.68-16.99,7-12.31,3.91-29.24-6.81-38.44-9.3-8.75-24.1-10.45-35.41-4.8-6.88,3.27-11.88,9.38-15.31,16.03-3.28-5.59-7.15-11.04-12.8-14.43-13.89-9.23-34.8-4.94-43.54,9.42h0Z"/>
  </g>
  <g id="_444444ff" data-name=" 444444ff">
    <path class="cls-1" d="m67.61,101.86c3.12-.88,6.82.26,8.23,3.35,3.7,5.33-3.97,13-9.26,9.23-5.25-2.32-4.6-11.24,1.03-12.58Z"/>
    <path class="cls-1" d="m119.74,102c4.23-1.73,9.72,1.3,9.41,6.13.75,5.62-6.91,9.65-11.02,5.6-4.44-2.91-3.04-9.87,1.61-11.73Z"/>
  </g>
</svg>