<?xml version="1.0" encoding="UTF-8"?>
<svg id="_图层_1" data-name=" 图层 1" xmlns="http://www.w3.org/2000/svg" viewBox="0 0 192 192">
  <defs>
    <style>
      .cls-1 {
        stroke: #000;
        stroke-miterlimit: 10;
        stroke-width: 2px;
      }
    </style>
  </defs>
  <path class="cls-1" d="m86,19.69c18.51-2.46,37.93,2.17,53.45,12.57,16.72,11.25,29.06,29.16,32.68,49.08,3.2,14.87,1.2,30.58-4.56,44.59-7.48,17.29-21.4,31.71-38.48,39.68-15.33,7.22-33.1,9.2-49.64,5.59-21.61-4.44-41.01-18.71-51.61-38.06-4.57-7.84-7.25-16.64-8.95-25.5-.75-6.79-.59-13.65-.28-20.47,2.13-18.28,11.09-35.7,24.87-47.93,11.72-10.7,26.78-17.56,42.51-19.55m-16.59,9.53c-2.66.97-6.5,3.08-5.07,6.51,2.92,2.56,6.9,3.38,10.08,5.56,6.52,4.46,11.28,12.12,10.86,20.19v90.93c.03,4.86-.24,9.74.42,14.57,6.8,1.07,13.75,1.41,20.49-.22-.14-34.71.01-69.42-.06-104.14-.12-6.85,2.75-13.65,7.58-18.49,3.75-3.7,8.83-5.49,13.53-7.64-.19-1.92.71-4.72-1.57-5.69-5.7-3.04-12.1-4.6-18.42-5.78-12.71-1.19-25.93-.93-37.84,4.19m-45.33,57.2c-4.05,26.92,9.32,55.93,32.91,69.69-.02-18.2.08-36.4-.05-54.59-6.22.08-11.2,4.37-13.6,9.87-.71-.01-2.14-.05-2.87-.06-3.41-9.37-3.5-20.26.14-29.57.65-.01,1.98-.05,2.63-.06,2.48,5.5,7.28,10.33,13.76,9.9-.07-18.61.06-37.22-.06-55.83-17.87,10.66-30.2,30.06-32.88,50.64m111.01-50.42c-.26,39.97-.22,79.97-.01,119.94,5.79-3.08,10.6-7.65,15.08-12.37,10.04-11.66,17.25-26.47,17.72-42.03-6.5.37-10.89,5.35-13.64,10.75-3.01-1.57-3.54-5.04-4.14-8.05-1.63-7.81-.99-16.49,3.22-23.42,3.2,2.42,4.31,6.77,7.83,8.84,2.03,1.35,4.5,1.62,6.85,1.99.13-6.03-1.18-11.98-3.12-17.65-5.14-15.54-15.6-29.64-29.78-38m-70.95,8.14c-.07,38.7.13,77.42-.09,116.12,4.45,2.43,9.29,4.19,14.32,4.95.03-33.41-.01-66.83.03-100.23-.03-3.34-.01-6.84-1.56-9.89-2.5-5.23-7.49-8.74-12.7-10.95m49.04,19.69c.06,33.79-.16,67.57.13,101.35,4.81-.86,9.82-2.06,13.9-4.88.71-2.56.57-5.25.59-7.89-.14-35.99.14-71.98-.13-107.95-8.3,2.5-14.88,10.5-14.49,19.37Z"/>
</svg>