<?xml version="1.0" encoding="UTF-8"?>
<svg id="_图层_1" data-name="图层 1" xmlns="http://www.w3.org/2000/svg" viewBox="0 0 192 192">
  <defs>
    <style>
      .cls-1 {
        fill: none;
        stroke: #000;
        stroke-linecap: round;
        stroke-linejoin: round;
        stroke-width: 7px;
      }
    </style>
  </defs>
  <g id="_1f81ffff" data-name="#1f81ffff">
    <path class="cls-1" d="M83.36,32.33c5.52-6.16,14.97-9.55,22.56-5.12,6.87,4.43,12.91,11.21,15.11,19.19-1.24.35-3.71,1.09-4.93,1.44-3.4-3.1-8.97-4.16-12,.03-6.99,8.2-9.42,19.46-10.4,29.95,14.89-2.94,29.54-8.58,41.71-17.76,4.68-3.99,9.99-9.19,9.34-15.9.24-5.18-4.83-8.42-9.11-10.01-2.41-1.22-5.7-1.49-6.99-4.2-.21-1.52-.63-4.56-.85-6.06,11.9.64,24.23,3.08,34.12,10.08,6.39,4.56,10.91,13.03,8.34,20.87-2.42,10.49-10.91,17.98-18.96,24.42-17.41,12.5-38.09,19.6-58.96,23.66.75,13.35,2.17,27.39,9.39,39,1.59,3.29,6.77,4.17,8.98,1.11,6.45-7.16,6.71-17.37,9.18-26.23,3.37-1.09,6.79-2.01,10.24-2.84-1.36,15.27-5.33,31.01-14.71,43.43-4.35,5.89-10.93,11.04-18.59,10.7-8.2-.87-14.28-7.2-18.51-13.78-8.29-13.24-12.42-28.86-12.91-44.41-.19-1.93-.67-3.79-1.44-5.57-14.02-.75-30.07-3.61-39.31-15.26-6.1-7.64-3.83-18.37,1.59-25.69,8.47-11.63,20.98-19.75,33.95-25.62,3.06-1.28,6.29-3.58,9.77-2.45.08,1.51.18,3.02.27,4.52-10.03,4.67-20.62,10.22-26.38,20.12-1.52,4.09-2.02,9.96,1.83,12.96,5.42,4.64,12.69,6.71,19.75,6.32,1.94-16.72,6.58-34.03,17.94-46.91Z"/>
  </g>
</svg>